<?xml version="1.0" encoding="utf-8"?>
<!-- Generator: Adobe Illustrator 26.5.0, SVG Export Plug-In . SVG Version: 6.00 Build 0)  -->
<svg version="1.1" id="Layer_1" xmlns="http://www.w3.org/2000/svg" xmlns:xlink="http://www.w3.org/1999/xlink" x="0px" y="0px"
	 viewBox="0 0 114.2 36" style="enable-background:new 0 0 114.2 36;" xml:space="preserve">
<style type="text/css">
	.st0{fill:#B6932F;}
</style>
<g>
	<path class="st0" d="M34.5,18.7c-3.6,0-6.6,0-10.2,0C22.5,20.4,10,35.2,2,36c-2.8,0.2-2.5-1.8-0.4-1.9c5.1-0.1,12.5-7.5,20-15.4
		c-3.3,0-6.9,0.1-8-0.6c-1-0.6,0.3-2.2,1.2-1.4c0.8,0.6,4.6,0.5,8,0.5C29.1,10.7,34,4.7,37.7,1.7c2.3-1.9,6.7-2.8,6.9,0.5
		c0.2,3.5-3.9,11.8-5.4,15.1c2.1,0,2.5,0,3.6,0.3c2.4,0.5,1.2,2.4,0.3,1.7c-0.5-0.6-1.4-0.6-4.5-0.6c-0.9,1.9-4.8,10.9-3.5,13.2
		c0.3,0.9-1.3,3.5-3.2,0.9C30.8,29.9,33.2,22,34.5,18.7z M35,17.3c2.1-5.3,3.7-9.6,4.6-12.5c0.6-2.2,0.5-2.7-1-1.4
		c-3.8,3.2-7,7.7-12.9,13.9C29.4,17.3,31.1,17.3,35,17.3z"/>
	<path class="st0" d="M52.8,4.9c6.7-7.6,12.4-4,10,2.9c-1.7,5-8,12.5-14.4,13.8c-2.8,10.8,5.4,10.9,8.7,2.6
		c-3.6-0.3-1.9-5.2,0.6-6.3c1.7-0.7,3.4,1,2.7,4.7c0.7,0.3,3.6-0.3,4.7-1.2c0.7-0.6,1.9-0.9,1.7,0.1c-0.5,1.7-4.4,2.8-6.9,2.8
		c-1.4,3.5-5.9,8.8-10.7,8.1C40.6,31.1,45.9,12.6,52.8,4.9z M60.9,7c0.7-2.7-0.2-4.4-4-0.9c-3.6,3.2-6.8,10.3-8,13.5
		C53.7,18.5,59.6,11.8,60.9,7z"/>
	<path class="st0" d="M72.9,16c1.3,0,3.6,0.6,4,2.2c0.4,1.8-2,1.8-2.3,1.1c-0.8-0.8-2.3-0.4-2.9-0.1c-4.4,1.9-7.4,11-2.1,11
		c2.2,0,4.2-1.7,5.1-3.7c-3.1-0.8-1.5-6,1.4-6c1.3,0,2.1,1.8,1.2,4.1c0.8,0.1,2.7-0.9,4-3.4H83c-1.8,3.9-4.6,5.4-6.4,5.5
		c-0.8,1.6-3.6,5.7-7.7,5.7C60,32.3,63.4,16,72.9,16z"/>
	<path class="st0" d="M83.2,32.2c-4.8-0.2-3.2-9.9-0.3-14.8c1.9-3.2,5.1-0.2,3.9,1.4c-3.3,4.4-4.9,10.8-3.2,11.3
		c1.6,0.5,3.9-3.1,5.9-6.7c1.5-2.7,2.6-5.5,3.2-6.5c0.7-1.2,2-1.1,2.7-0.5c0.6,0.4,1.1,1.2,1.1,2.1c-0.2,3.2-4,7.3-4.1,10.5
		c0,0.8,0.4,1.2,1,1.2c2.3,0,5.2-5.5,6.8-9h1.7c-1.9,4.1-5.6,11.2-9.4,11.2c-2.8-0.1-3.3-3.2-2.4-6.1c0.4-1.2,0.8-2.4,1.3-3.6
		c-0.5,1-1.6,3.5-2.2,4.5C87.5,29.7,85.5,32.3,83.2,32.2z"/>
	<path class="st0" d="M114.2,21.2c-2.3,4.4-7.3,11.1-11.9,11.2c-2.6,0-3.9-2.4-3.6-5.4c0.2-2.7,1.7-6.7,2.7-9.4c-0.8,0-2,0-2.5-0.1
		c-1.2-0.1-0.7-1.7,0.7-1.9c2.4-0.1,0.9,0,2.5,0c0.5-1.3,0.8-2,1.1-3.4c0.6-2.4,3.6-1.2,3.5,1c0,1-0.3,1.5-0.8,2.4
		c2.8,0,3.2,0,3.6,0c2.2,0.2,1.4,1.7,0.1,1.8c-1.2,0.1-3.3,0.2-4.2,0.1c-1.3,2.8-2.6,6.1-3.3,9.5c-1.3,5.8,5.7,2.9,10.5-6H114.2z"/>
</g>
</svg>
