<?xml version="1.0" encoding="utf-8"?>
<!-- Generator: Adobe Illustrator 26.5.0, SVG Export Plug-In . SVG Version: 6.00 Build 0)  -->
<svg version="1.1" id="Layer_1" xmlns="http://www.w3.org/2000/svg" xmlns:xlink="http://www.w3.org/1999/xlink" x="0px" y="0px"
	 viewBox="0 0 256 256" style="enable-background:new 0 0 256 256;" xml:space="preserve">
<g>
	<path d="M105.3,141.4c-2.2,0-4.3-0.7-6.2-2c-3.4-2.5-5-6.6-4.1-10.7l4.1-19.6L84.3,95.6c-3.1-2.8-4.2-7.1-2.9-11.1
		c1.3-4,4.7-6.8,8.9-7.2l19.9-2.2l8.2-18.3c1.7-3.8,5.4-6.2,9.6-6.2c4.2,0,7.9,2.4,9.6,6.2l0,0l8.2,18.3l19.9,2.2
		c4.2,0.5,7.6,3.2,8.9,7.2c1.3,4,0.2,8.2-2.9,11.1l-14.8,13.5l4.1,19.6c0.9,4.1-0.7,8.2-4.1,10.7c-3.4,2.5-7.8,2.7-11.4,0.6
		l-17.4-9.9l-17.4,9.9C108.9,141,107.1,141.4,105.3,141.4z M128,116.7c1.8,0,3.6,0.5,5.2,1.4l13.9,7.9l-3.3-15.7
		c-0.8-3.6,0.5-7.5,3.2-10L159,89.6l-15.9-1.8c-3.7-0.4-6.9-2.8-8.5-6.1L128,67.1l-6.6,14.6c-1.5,3.4-4.8,5.7-8.5,6.2L97,89.6
		l11.9,10.8c2.7,2.5,4,6.3,3.2,10l-3.3,15.7l13.9-7.9C124.4,117.2,126.2,116.7,128,116.7z M125.8,62.2L125.8,62.2
		C125.8,62.2,125.8,62.2,125.8,62.2L125.8,62.2z"/>
	<path d="M230.2,218.6L203.7,159C217,142.4,225,121.3,225,98.4c0-53.6-43.4-97-97-97s-97,43.4-97,97c0,22.9,8,44,21.3,60.6
		l-26.5,59.6c-1.5,3.5-0.9,7.5,1.6,10.3c2.5,2.8,6.5,3.9,10.1,2.8l26.2-8.3l12.3,25.7c1.6,3.4,5,5.5,8.8,5.5c1.2,0,2.3-0.2,3.4-0.6
		c2.3-0.9,4.2-2.7,5.3-5.1l25.1-54c3.1,0.3,6.2,0.4,9.3,0.4c3.1,0,6.3-0.2,9.3-0.4l25.1,54c1.1,2.4,3,4.2,5.3,5.1
		c1.1,0.4,2.2,0.6,3.4,0.6c3.8,0.1,7.2-2,8.8-5.5l12.3-25.7l26.2,8.3c3.6,1.1,7.6,0.1,10.1-2.8C231.1,226.1,231.8,222.1,230.2,218.6
		z M84.6,234.6L74.7,214c-2.1-4.3-7-6.5-11.6-5l-20.6,6.5l20.2-45.4c11.6,10.6,25.9,18.4,41.7,22.4L84.6,234.6z M44,98.4
		c0-46.3,37.7-84,84-84c46.3,0,84,37.7,84,84c0,46.3-37.7,84-84,84C81.7,182.3,44,144.7,44,98.4z M192.9,208.9
		c-4.5-1.4-9.5,0.7-11.6,5l-9.9,20.6l-19.8-42.2c15.8-4,30-11.8,41.7-22.4l20.2,45.4L192.9,208.9z"/>
</g>
</svg>
