<?xml version="1.0" encoding="utf-8"?>
<!-- Generator: Adobe Illustrator 26.5.0, SVG Export Plug-In . SVG Version: 6.00 Build 0)  -->
<svg version="1.1" id="Layer_1" xmlns="http://www.w3.org/2000/svg" xmlns:xlink="http://www.w3.org/1999/xlink" x="0px" y="0px"
	 viewBox="0 0 34.4 34.4" style="enable-background:new 0 0 34.4 34.4;" xml:space="preserve">
<style type="text/css">
	.st0{fill:#FFFFFF;}
</style>
<path class="st0" d="M17.2,0C7.7,0,0,7.7,0,17.2s7.7,17.2,17.2,17.2s17.2-7.7,17.2-17.2S26.7,0,17.2,0z M27.3,18.1l-8.7,8.7
	c-0.5,0.5-1.4,0.5-1.9,0l-0.9-0.9c-0.5-0.5-0.5-1.4,0-1.9l4.8-4.8H8c-0.7,0-1.3-0.6-1.3-1.3v-1.3c0-0.7,0.6-1.3,1.3-1.3h12.6
	l-4.8-4.8c-0.5-0.5-0.5-1.4,0-1.9l0.9-0.9c0.5-0.5,1.4-0.5,1.9,0l8.7,8.7C27.9,16.8,27.9,17.6,27.3,18.1z"/>
</svg>
