<?xml version="1.0" encoding="utf-8"?>
<!-- Generator: Adobe Illustrator 26.4.1, SVG Export Plug-In . SVG Version: 6.00 Build 0)  -->
<svg version="1.1" id="Layer_1" xmlns="http://www.w3.org/2000/svg" xmlns:xlink="http://www.w3.org/1999/xlink" x="0px" y="0px"
	 viewBox="0 0 300 50" style="enable-background:new 0 0 300 50;" xml:space="preserve">
<style type="text/css">
	.st0{fill:#B6932F;}
</style>
<g>
	<path class="st0" d="M56,17.3C54.9,17,54.6,17,52.5,17C54,13.8,58,5.6,57.8,2.2c-0.2-3.2-4.5-2.4-6.8-0.5
		c-3.6,2.9-8.6,8.8-14.6,15.2c-3.3,0-7.2,0.2-7.9-0.5c-0.9-0.8-2.2,0.7-1.2,1.4c1.1,0.7,4.5,0.6,7.9,0.6
		c-7.4,7.8-14.7,14.9-19.7,15.1c-2.3,0-2.6,2.1,0.2,1.9c7.9-0.8,20.1-15.3,21.9-17c3.4,0,6.5,0,10,0c-1.3,3.2-3.6,11-2.5,13.9
		c1.9,2.6,3.4,0,3.1-0.9c-1.3-2.3,2.6-11.1,3.4-13c3,0,3.9,0,4.4,0.6C57.2,19.7,58.4,17.8,56,17.3z M48.3,17c-3.8,0.1-5.5,0.1-9,0
		C45,10.8,48.2,6.4,51.8,3.2c1.5-1.3,1.6-0.8,1,1.4C51.9,7.5,50.3,11.8,48.3,17z"/>
	<path class="st0" d="M131.7,1.2c-4.3,2.3-8,11.5-8.8,15.9c-0.5-1-1.4-1.4-2.6-1.4c-3.1-0.1-5.7,2.3-7.2,5.2l0,0
		c-1.5,2.8-6.2,10.5-8.5,9.3c-2.4-1.3,4.1-9.2,4.5-10.1c1.2-2.7-0.4-5-2.5-4.5c-1.3,0.3-2.9,0.5-4.2,0.3c0.4-2.1,0.6-3.5-1.5-2.9
		c-2.2,0.6-4,5.2-1.1,5.6c-0.3,0.7-0.5,1.5-1,2.4l0,0c-0.6,1.2-4.7,9.8-6.9,8.8c-0.4-0.2-0.6-0.8,0-2.2c0.5-1.3,1.3-2.8,1.7-4.1
		c0.9-2.9-3-3.9-3.8-2.3c-0.9,1.7-4.1,8.9-6.3,8.6c-2.4-0.4-0.4-7.1,3.3-9.9c0.9-0.7,3-1.9,4.3,0c0.4,0.5,2.4,0.6,2.5-0.9
		c0.1-2.3-2.2-3-3.6-3c-3.8,0-6.9,2.5-8.7,5.4c-2.4,2.7-4.3-1.1-3.9-2c0.7-1.1,2.7-5.6,0.3-5.6c-3.2,0-3.6,3.1-3,5.6
		c-1,2.4-3.6,10.6-6.3,10.4c-2-0.1,1.4-7.7,2.6-11.1c0.9-2.6-2.2-5.1-4-0.8c-0.6,1.7-5.9,11.7-7.5,11.7c-1.6,0.1,1.5-6.7,3.5-10.8
		c1.3-2.5-2.3-4.2-3.3-1.9c-1.2,2.5-6.5,14.9-1,14.9c2.5,0,6.6-7,8.2-10.1c-0.8,2.6-3.7,10.4,1.6,10.1c2.9-0.2,6.5-7.3,7.9-10.5
		c0.7,1.9,2.5,2.7,4.1,2.3c-1.4,3.8-0.8,7.9,2.4,8.4c3.7,0.6,6.3-5.8,7.5-8.5c-0.2,0.7-0.5,1.8-0.7,2.4c-0.8,2.3-1,5.7,1.9,6
		c4,0.4,8.2-8.9,9.2-11l0,0c0.2-0.5,0.6-1.3,1-2.3c1.7,0,3.4-0.3,3.8,0c1,1.1-3.3,5.4-3.9,9.2c-0.3,2.1,0.4,4.2,2.3,4.4
		c2.6,0.3,5.4-2.8,7.7-6.1c-0.2,3,1,5.5,3.8,5.6c2.8,0,5.1-2.8,6.7-4.7c0,1.3,1,4.7,3.5,4.6c2.9-0.1,6.8-6.5,8.9-10.9h-1.7
		c-2.3,4.4-5.1,8.8-6.7,8.6c-1.8-0.3-1.7-3.9-1.5-5.2c1.2-1.2,9-11.5,10.9-18.8C136.9,1.5,134.9-0.5,131.7,1.2z M122.1,24.8
		c-2.3,3.3-4.7,4.9-5.8,4.8c-4.4-0.2-0.1-10.3,3.6-10.5c1.1,0,1.9,0.7,2.3,2.6C122.1,22.4,122.1,23.7,122.1,24.8z M134,5.4
		c-1.9,6.1-6.5,12.8-8.8,15.9c0.3-4.2,5.2-15,7.7-17C134.1,3.3,134.3,4.3,134,5.4z"/>
	<path class="st0" d="M252.4,14.2c0.9,0.6,2.1,0.2,2.8-1c0.6-1.2,0.5-2.6-0.4-3.1c-0.9-0.6-2.1-0.1-2.8,1
		C251.4,12.2,251.6,13.6,252.4,14.2z"/>
	<path class="st0" d="M285.7,15.7c-3.1-3.4-14.3,0.6-13.3,5.2c-2.9,5.4-7.5,9.2-11.1,8.9c-2.4-0.2-3-2.2-2.7-4.1
		c2.9-0.1,6.2-1.2,8.3-2.8c3.3-2.6,2.4-7.1-1.7-7.1c-4.3,0-7.5,3-8.9,6.5c-1.9,3.3-4.7,7.4-6.2,7.4c-0.6,0-1-0.4-1-1.2
		c0.1-3.1,3.8-7.2,4-10.3c0.1-2.2-2.9-3.4-3.4-1c-0.3,1.4-0.7,2.6-1.2,3.8l0,0c-1.5,2.8-6.2,10.5-8.5,9.3c-2.4-1.3,4.1-9.2,4.5-10.1
		c1.2-2.7-0.4-5-2.5-4.5c-1.3,0.3-2.9,0.5-4.2,0.3c0.4-2.1,0.6-3.5-1.5-2.9c-2.2,0.6-4,5.2-1.1,5.6c-0.3,0.7-0.5,1.5-1,2.4l0,0
		c-1.3,2.5-3.1,3.4-3.9,3.3c0.8-2.3,0.1-4-1.2-4c-2.9,0-4.4,5.1-1.4,5.9c-0.9,1.9-2.9,3.5-5,3.6c-5.2,0-2.3-8.9,2.1-10.8
		c0.6-0.3,2.1-0.6,2.9,0.1c0.3,0.6,2.7,0.7,2.3-1.1c-0.4-1.6-2.7-2.2-3.9-2.2c-3.5,0-6.3,2.3-7.8,5.1l0,0c-1.3,2.8-3.9,6.6-6.3,8.2
		c0.1-0.9,1.2-5.1,1.2-6.2c0.4-2.6-2.8-3.3-3.5-1.8c-0.9,1.7-3.6,8.6-6.7,8.6c-2.2,0-0.6-7.4,4-10.2c0.8-0.5,3.1-1.6,3.9,0.3
		c0.3,0.6,2.5,0.4,2.5-1c0-2-2.2-2.9-3.6-2.9c-4.2-0.1-7.6,2.9-9.3,6.5c-2.9,4.7-7,7.9-10.3,7.6c-2.4-0.2-3-2.2-2.7-4.1
		c2.9-0.1,6.2-1.2,8.3-2.8c3.3-2.6,2.4-7.1-1.7-7.1c-4,0-7,2.6-8.6,5.7c-4.7,8.3-11.2,10.7-9.9,5.2c0.8-3.4,2.1-6.6,3.2-9.3
		c0.9,0,3,0,4.1-0.1c1.3-0.2,2.1-1.7-0.1-1.8c-0.4,0-0.8,0-3.5,0c0.4-0.9,0.7-1.4,0.8-2.4c0.1-2.3-2.8-3.4-3.4-1
		c-0.3,1.4-0.6,2.2-1.1,3.3c-1.6,0-0.1-0.1-2.5,0c-1.4,0.2-1.9,1.8-0.7,1.9c0.5,0.1,1.8,0.1,2.5,0.1c-0.4,1.1-0.9,2.4-1.3,3.7
		c-0.9,1.7-4.7,9.5-6.8,8.6c-0.4-0.2-0.6-0.8,0-2.2c0.5-1.3,1.3-2.8,1.7-4.1c0.9-2.9-3-3.9-3.8-2.3c-0.9,1.7-4.1,8.9-6.3,8.6
		c-2.4-0.4-0.4-7.1,3.3-9.9c0.9-0.7,3-1.9,4.3,0c0.4,0.5,2.4,0.6,2.5-0.9c0.1-2.3-2.2-3-3.6-3c-4.4,0-7.7,3.1-9.3,6.7
		c-3.3,5.2-6.6,7.1-9.6,7.1c-5.9-0.1-2.2-11.2,3.4-11c2.9,0.1,1.6,3.1-0.6,3.9c-1.8,0.6-1,2.9,1.4,1.5c4.2-2,4.5-8.1-0.8-8.3
		c-9.4-0.3-13.7,16-4.1,16.1c2.9,0,6.4-2.1,9.2-5.2c-0.2,2.7,0.7,4.9,3,5.3c3.7,0.6,6.3-5.8,7.5-8.5c-0.2,0.7-0.5,1.8-0.7,2.4
		c-0.8,2.3-1,5.7,1.9,6c2.2,0.2,4.3-2.4,6.1-5.1c-0.2,2.9,1,5.1,3.5,5.1c2.9,0,6-2.9,8.5-6c-0.1,3.1,1.5,5.9,5.2,6
		c3,0.1,6.6-1.9,9.4-5.2c-0.3,2.8,0.8,5.1,3.4,5.2c3.2,0.1,6-5.4,7.2-8.1c-0.2,2.1-0.9,5.4-1.1,7c-2.1,1-5.1,2.1-8.1,3.3
		c-11.7,5.1-10.8,16.9-1.4,15.3c8.2-1.4,11.5-11.3,12.7-18.4c2-1,3.8-3,5.3-5c0,3.1,1.6,5.8,5.1,5.8c4,0,6.8-4,7.6-5.6
		c1.8,0,4.5-1.5,6.3-5.4l0,0c0.2-0.5,0.6-1.3,1-2.3c1.7,0,3.4-0.3,3.8,0c1,1.1-3.3,5.4-3.9,9.2c-0.3,2.1,0.4,4.2,2.3,4.4
		c2.4,0.3,4.9-2.3,7.1-5.3c-0.4,2.5,0.3,4.8,2.7,4.8c2.2,0,4.4-2.5,6.3-5.3c0.1,2.9,1.8,5.2,5.2,5.2c4.2,0.1,9.2-3.7,12.5-9.3
		c2,2.1,6.7,4.7,4.7,6.6c-2.1,2.1-6.6,1.7-4.9,0c1.5-1.5-0.6-1.8-1.9-0.7c-1.7,1.4-1.3,4.1,3.5,4.1c3.4,0,6.2-2.1,6.4-4.8
		c0.2-3.6-5.8-5.5-5.4-7.7c0.2-1.1,3.3-2.6,5.9-2.8c1.4-0.2,1.8,0.4,1.2,1.1c-0.8,0.9,2.1,1.4,2.9,0.2
		C286.3,17.8,286.4,16.4,285.7,15.7z M195.9,19.7c0.6,2.5-5.1,4.6-7.6,4.3C189.5,19.9,195.4,17.7,195.9,19.7z M199.1,47.7
		c-6.7,1.1-6.6-7.5,2.1-11.7c2.8-1.4,5.7-2.5,7.6-3.2C207.7,38.5,205.6,46.7,199.1,47.7z M266.8,19.7c0.6,2.5-5.1,4.6-7.6,4.3
		C260.4,19.9,266.3,17.7,266.8,19.7z"/>
</g>
</svg>
