<?xml version="1.0" encoding="utf-8"?>
<!-- Generator: Adobe Illustrator 27.2.0, SVG Export Plug-In . SVG Version: 6.00 Build 0)  -->
<svg version="1.1" id="Layer_1" xmlns="http://www.w3.org/2000/svg" xmlns:xlink="http://www.w3.org/1999/xlink" x="0px" y="0px"
	 viewBox="0 0 344 50" style="enable-background:new 0 0 344 50;" xml:space="preserve">
<style type="text/css">
	.st0{fill:#B6932F;}
</style>
<g>
	<path class="st0" d="M19.7,2.1C3.5,4.3,4.6,16.3,11.5,13c1.8-0.7,1.8-3.4-0.3-1.7c-1.3,1.1-3.3,0.6-2.3-1.6c1.5-3.2,7-5.3,10.8-5.7
		c12.2-1.8,9,13.8-6.3,15.3c1.4-2.8,3.3-5.9,4.4-9.3c0.5-1.7-2.4-5.1-3.4-1.7c-1,3.2-2.5,7.2-4.3,11c-0.5,0-1.6,0-2.2-0.1
		c-1.8-0.7-2.8,1.3-0.6,1.7L9.7,21c-1,2.2-3.1,8.6-2.7,11c0.3,1.6,1.5,1.6,1.6,0.1c0.1-3,2.3-8.5,3.6-11
		C33.8,20.5,37.9-0.3,19.7,2.1z"/>
	<path class="st0" d="M47.9,15.1c0.8,0.6,2,0.2,2.6-0.9c0.6-1.1,0.4-2.4-0.4-3c-0.8-0.6-2-0.1-2.6,0.9
		C46.9,13.2,47.1,14.5,47.9,15.1z"/>
	<path class="st0" d="M73.1,15.1c0.8,0.6,2,0.2,2.6-0.9c0.6-1.1,0.4-2.4-0.4-3c-0.8-0.6-2-0.1-2.6,0.9
		C72.1,13.2,72.3,14.5,73.1,15.1z"/>
	<path class="st0" d="M135,21.3c-2.8,5.1-7,8.6-10.4,8.3c-2.3-0.2-2.8-2.1-2.5-3.9c2.8-0.1,5.8-1.1,7.8-2.6c3.2-2.4,2.3-6.6-1.5-6.6
		c-4,0-6.9,2.8-8.3,5.9c-1.3,2.4-3.4,5.3-5.3,6.5c0.1-0.9,1.1-4.8,1.1-5.8c0.3-2.4-2.6-3.1-3.4-1.7c-0.8,1.6-3.4,8.1-6.3,8.1
		c-2,0-0.5-6.9,3.8-9.6c0.7-0.5,3-1.5,3.7,0.3c0.2,0.6,2.3,0.4,2.3-1c0-1.9-2-2.7-3.4-2.7c-4-0.1-7.1,2.8-8.7,6.1
		c-2.8,4.4-6.5,7.4-9.7,7.1c-2.3-0.2-2.8-2.1-2.5-3.9c2.8-0.1,5.8-1.1,7.8-2.6c3.2-2.4,2.3-6.6-1.5-6.6c-3.6,0-6.4,2.3-7.9,5.1
		c-2.8,5-6.4,7.8-8.1,7.8c-2,0-2.8-2.5-1.8-7.8c5.4-1.3,10.7-8.2,12.1-12.9c2-6.5-2.9-9.7-8.5-2.6c-2.9,3.7-5.5,9.8-6.4,15.1
		c-1.6,3.3-4.9,8.2-6.5,8.2c-0.6,0-0.9-0.4-0.9-1.1c0.1-2.9,3.6-6.8,3.7-9.7c0.1-2.1-2.7-3.2-3.2-1c-0.3,1.3-0.7,2.5-1.1,3.6
		c-2.4,3.1-4.4-0.7-3.9-1.6c0.3-0.5,1.1-1.9,1.5-2.7c0.7-1.7,0.3-2.5-0.5-2.5c-2.4-0.1-4,2.9-3.5,5.2c-0.5,1.8-5.8,9.9-7.9,9.7
		c-2.5-0.3,1.3-10.3,2.1-11.9c0.8-1.6-3-2.3-4.1,0.6c-0.3,0.7-0.6,1.8-0.9,3.1h0c-1.6,3.4-4.9,8.2-6.5,8.2c-0.6,0-0.9-0.4-0.9-1.1
		c0.1-2.9,3.6-6.8,3.7-9.7c0.1-2.1-2.7-3.2-3.2-1c-0.3,1.3-0.7,2.4-1.1,3.5h0c-1.4,2.6-5.8,9.9-7.9,8.8c-2.2-1.2,3.9-8.6,4.3-9.5
		c1.1-2.5-0.4-4.7-2.3-4.2c-1.2,0.3-2.8,0.4-3.9,0.3c0.4-1.9,0.5-3.3-1.4-2.8c-2.1,0.6-3.8,4.9-1,5.2c-0.2,0.7-0.5,1.4-0.9,2.2
		c-0.3,0.6-0.1,0.9,0.3,0.8c0.4,0,1-0.3,1.3-0.8c0.2-0.4,0.6-1.2,0.9-2.1c1.5,0,3.2-0.2,3.6,0c1,1-3.2,5.1-3.6,8.7
		c-0.3,2,0.4,3.9,2.2,4.2c2.2,0.3,4.6-2.1,6.6-5c-0.4,2.3,0.3,4.5,2.5,4.5c2.3,0,4.8-3,6.7-6.1c-0.3,3.3,0.3,6.3,3.3,6.2
		c3.3-0.2,7.9-7.4,9.5-10c0.7,1.9,2.6,2.6,4.3,2c-0.3,0.8-0.5,1.5-0.8,2.3c-0.8,2.7-0.3,5.6,2.2,5.6c2.5,0,5.1-3.4,7-6.7
		c0,3.5,1.1,6.2,3.9,6.6c2.3,0.4,5.5-2.4,7.9-5.5c-0.1,3,1.4,5.5,4.9,5.5c2.9,0.1,6.1-1.8,8.9-4.8c-0.2,2.6,0.7,4.7,3.2,4.8
		c3.1,0.1,5.6-5.1,6.7-7.6c-0.2,1.9-0.8,5.1-1,6.5c-2,0.9-4.8,2-7.6,3.2c-11,4.8-10.1,15.8-1.3,14.4c7.6-1.3,10.7-10.6,11.8-17.2
		c1.8-0.9,3.4-2.6,4.7-4.4c0,2.8,1.5,5.1,4.9,5.2c4,0.1,8.7-3.5,11.7-8.8c1.8,1.9,6.2,4.4,4.4,6.2c-2,2-6.1,1.5-4.6,0
		c1.4-1.4-0.5-1.7-1.8-0.7c-1.6,1.3-1.2,3.9,3.3,3.9c3.2,0,5.8-1.9,6-4.5c0.2-3.4-5.4-5.1-5.1-7.2c0.2-1,3.2-2.4,5.5-2.6
		c1.3-0.2,1.6,0.4,1.1,1c-0.8,0.8,1.9,1.3,2.7,0.2c0.7-0.8,0.8-2,0.2-2.7C144.6,13.3,134.2,17,135,21.3z M87.2,7.4
		c3.3-3.3,3.6-1.6,3.1,0.8c-1.1,4.4-5.5,10.5-9.6,11.5C81.6,16.7,84.2,10.4,87.2,7.4z M99.3,20.1c0.6,2.3-4.8,4.3-7.1,4
		C93.4,20.4,98.9,18.3,99.3,20.1z M102.3,46.4c-6.2,1-6.1-7,1.9-10.9c2.6-1.3,5.4-2.3,7.1-3.1C110.4,37.9,108.4,45.5,102.3,46.4z
		 M129.7,20.1c0.6,2.3-4.8,4.3-7.1,4C123.7,20.4,129.2,18.3,129.7,20.1z"/>
	<path class="st0" d="M205.7,2.8c-4,2.1-7.4,10.7-8.3,15c-0.5-0.9-1.3-1.3-2.4-1.3c-3-0.1-5.3,2.1-6.8,4.8h0
		c-1.6,3.3-4.4,8.2-6.2,8.2c-0.6,0-0.8-0.4-0.7-1.1c0.1-2.9,3.4-6.8,3.6-9.7c0.1-1.2-1.1-2.3-2.4-2.2c-0.8,0.1-1.7,0.6-2.6,1.4
		c-2.7,2.5-5.8,7.4-6.8,9.1c1-2.5,3-6.4,3.3-8.5c0.3-2-2.8-3.1-3.3-0.8c-0.3,1.2-0.7,2.4-1,3.6c-0.7,1.3-4.4,9.1-6.4,8.1
		c-0.4-0.2-0.5-0.7,0-2c0.5-1.2,1.2-2.6,1.6-3.8c0.8-2.7-2.8-3.7-3.6-2.2c-0.8,1.6-3.8,8.4-5.9,8.1c-2.3-0.3-0.4-6.6,3.2-9.3
		c0.9-0.7,2.8-1.7,4,0c0.3,0.5,2.3,0.5,2.3-0.8c0.1-2.1-2-2.9-3.4-2.9c-9,0-12.9,14.1-6.9,15.1c3.5,0.6,5.9-5.4,7-7.9
		c-0.2,0.6-0.4,1.6-0.7,2.3c-0.8,2.1-0.9,5.4,1.8,5.6c1.7,0.2,3.5-1.6,4.9-3.7c-0.1,0.5-0.2,0.9-0.3,1.3c-0.4,1.9,2.2,3.3,3.1,1.3
		c1.1-2.3,7.2-11.7,8.3-11.4c0.6,0-1.6,4.8-2.4,7.3c-0.8,2.7-0.2,5.2,2.5,5.2c2,0,3.9-2.1,5.5-4.7c0,2.6,1.1,4.6,3.7,4.7
		c2.6,0,4.8-2.6,6.3-4.4c0,1.2,1,4.4,3.3,4.3c2.8-0.1,6.3-6.1,8.4-10.2H207c-2.1,4.2-4.8,8.3-6.3,8c-1.7-0.2-1.5-3.6-1.4-4.9
		c1.1-1.1,8.5-10.8,10.2-17.6C210.5,3.1,208.7,1.3,205.7,2.8z M196.7,25c-2.2,3.1-4.4,4.6-5.5,4.5c-4.1-0.2-0.1-9.7,3.4-9.9
		c1,0,1.7,0.7,2.2,2.4C196.7,22.7,196.7,24,196.7,25z M207.9,6.8c-1.8,5.7-6,12-8.3,14.9c0.2-3.9,4.8-14.1,7.2-15.9
		C208,4.9,208.2,5.8,207.9,6.8z"/>
	<path class="st0" d="M240.2,15.8C246.5,10,247,0.5,234,1.9c-17.7,1.9-22.9,19.9-16.7,20.9c1.1,0.2,2.1-1.6,1.3-1.8
		c-4.2-0.8,0.2-15.8,15.5-17.4c10.4-1.1,7.2,9.2,3.8,11.2c-2.5-0.8-6.3-1.3-9.6,1c-2.2,1.5-2.2,4.4,2.2,4.1c2.3-0.1,6-1.8,7.2-2.6
		c4,3.4,1.1,13.4-9.9,13.3c-4.2,0-5.6-3.2-4.7-6.7c1-3.7,3.3-7.9,5.2-11.2l1.1-2.4c1.5-3.4-2.5-4.4-3-3c-1.6,5.2-5.7,11.4-6.5,16.9
		c-0.7,4.8,2.2,8.7,7.5,8.7C238.1,32.9,247.7,20.4,240.2,15.8z M231.1,18.2c-5.8,1,0.2-3.7,4.9-2C234.7,17,232.9,17.9,231.1,18.2z"
		/>
	<path class="st0" d="M309.2,15.1c0.8,0.6,2,0.2,2.6-0.9c0.6-1.1,0.4-2.4-0.4-3c-0.8-0.6-2-0.1-2.6,0.9
		C308.2,13.2,308.4,14.5,309.2,15.1z"/>
	<path class="st0" d="M337.5,16.5c-2.9-3.2-13.3,0.5-12.5,4.9c-4.4,8.2-10.9,10.8-9.7,5.5c0.7-3.2,1.9-6.2,3.1-8.8
		c0.9,0,2.9,0,3.9-0.1c1.2-0.2,1.9-1.5-0.1-1.7c-0.3,0-0.7,0-3.3,0c0.4-0.8,0.7-1.3,0.7-2.2c0.1-2.1-2.6-3.2-3.2-1
		c-0.3,1.3-0.6,2-1,3.2c-1.5,0-0.1-0.1-2.3,0c-1.3,0.2-1.7,1.6-0.7,1.8c0.5,0.1,1.6,0.1,2.3,0.1c-0.4,1-0.8,2.3-1.2,3.5
		c-1.6,3.3-4.9,8-6.4,8c-0.6,0-0.9-0.4-0.9-1.1c0.1-2.9,3.6-6.8,3.7-9.7c0.1-2.1-2.7-3.2-3.2-1c-0.3,1.3-0.7,2.5-1.1,3.7
		c-2.2,4-5.1,4.1-5.3,4c-2.8-9.2-9.3,1.1-2.5,1.6c0.8,3.7-2.9,16-5.6,15.9c-4.8-0.1,0.7-19.1,1.9-21.8c5.4-2.9,15.1-16.5,9.8-18.6
		c-5-1.9-10.3,8.1-13.3,18.9c-2.8,5.1-7,8.6-10.4,8.3c-2.3-0.2-2.8-2.1-2.5-3.9c2.8-0.1,5.8-1.1,7.8-2.6c3.2-2.4,2.3-6.6-1.5-6.6
		c-4.1,0-7.1,2.9-8.4,6.1c-1.6,3.1-3.9,6.8-5.5,6.8c-0.6,0-0.8-0.4-0.7-1.1c0.1-2.9,3.5-6.8,3.6-9.7c0.1-1.2-1.1-2.3-2.4-2.2
		c-0.8,0.1-1.7,0.6-2.6,1.4c-2.7,2.5-5.8,7.4-6.8,9.1c1-2.5,3-6.4,3.3-8.5c0.3-2-2.8-3.1-3.4-0.8c-0.3,1.2-0.6,2.4-1,3.6
		c-2.8,5.1-7,8.6-10.4,8.3c-2.3-0.2-2.8-2.1-2.5-3.9c2.8-0.1,5.8-1.1,7.8-2.6c3.2-2.4,2.3-6.6-1.5-6.6c-9.3,0-12.8,14.9-4.2,15
		c3,0.1,6.5-2,9.3-5.3c-0.4,1.1-0.6,2.1-0.8,3c-0.4,1.9,2.2,3.3,3.1,1.3c1.1-2.3,7.2-11.7,8.3-11.4c0.6,0-1.6,4.8-2.4,7.3
		c-0.8,2.7-0.2,5.2,2.5,5.2c2,0,3.9-2.1,5.5-4.6c0.2,2.5,1.7,4.6,4.9,4.6c3.2,0.1,6.9-2.2,9.8-6c-2.1,10-1.9,19.2,2.7,18.8
		c4.6-0.5,8.5-13.3,8.1-17.4c1.4-0.1,2.7-0.8,3.9-1.7c-0.1,0.2-0.2,0.5-0.2,0.7c-0.8,2.7-0.3,5.6,2.2,5.6c2.1,0,4.3-2.4,6.1-5.1
		c0,0,0,0.1,0,0.1c-0.2,2.8,0.9,5,3.3,5c3.7,0,7.8-4.9,10.2-8.8c1.8,1.9,6.3,4.5,4.5,6.2c-2,2-6.1,1.5-4.6,0
		c1.4-1.4-0.5-1.7-1.8-0.7c-1.6,1.3-1.2,3.9,3.3,3.9c3.2,0,5.8-1.9,6-4.5c0.2-3.4-5.4-5.1-5.1-7.2c0.2-1,3.2-2.4,5.5-2.6
		c1.3-0.2,1.6,0.4,1.1,1c-0.8,0.8,1.9,1.3,2.7,0.2C338,18.4,338.1,17.2,337.5,16.5z M302.9,5.2c2.1,0.2-3.8,10.8-8.2,13.5
		C295.3,16.6,300.6,5,302.9,5.2z M254.8,20.1c0.6,2.3-4.8,4.3-7.1,4C248.9,20.4,254.4,18.3,254.8,20.1z M285.2,20.1
		c0.6,2.3-4.8,4.3-7.1,4C279.2,20.4,284.7,18.3,285.2,20.1z"/>
</g>
</svg>
