<?xml version="1.0" encoding="utf-8"?>
<!-- Generator: Adobe Illustrator 26.4.1, SVG Export Plug-In . SVG Version: 6.00 Build 0)  -->
<svg version="1.1" id="Layer_2" xmlns="http://www.w3.org/2000/svg" xmlns:xlink="http://www.w3.org/1999/xlink" x="0px" y="0px"
	 viewBox="0 0 256 256" style="enable-background:new 0 0 256 256;" xml:space="preserve">
<style type="text/css">
	.st0{fill:#FFFFFF;}
</style>
<g>
	<path class="st0" d="M163,145.6C163,145.6,163,145.6,163,145.6l-28.5,0c5.1-6.1,11.6-15.7,13.4-27c1-5.9,1.6-12.2,1.9-18.5
		c0.2-4.9-1.5-9.5-4.8-13.1c-3.4-3.5-7.9-5.5-12.8-5.5c-8.6,0-15.9,6.1-17.4,14.6c-2.8,15.6-7.6,26.5-13.6,30.8
		c-3.2,2.3-5.9,3.8-8,5c-4.4,2.5-7.9,4.6-9,9.7c-3,13.8-9.2,19.8-14.8,22.3c-1.5-3.4-4.8-5.7-8.5-5.7l-19,0.3
		c-2.5,0-4.9,1.1-6.6,3.1c-0.7,0.8-1.3,1.8-1.7,2.8H12.8c-2.2,0-3.9,1.7-3.9,3.9c0,2.2,1.7,3.9,3.9,3.9h20l0.8,71.8H12.8
		c-2.2,0-3.9,1.7-3.9,3.9s1.7,3.9,3.9,3.9h22.6c1.7,2.5,4.4,4.1,7.5,4.1c0,0,0.1,0,0.1,0l19-0.3c2.5,0,4.9-1.1,6.6-3.1
		c1.4-1.6,2.3-3.6,2.4-5.7c4.5-0.5,14.3-1.2,21.9,0.1c5.1,0.9,10.6,1.4,16.1,1.4H163c11.4,0,20.7-9.3,20.7-20.7v-61.4
		c0-5.5-2.2-10.7-6.1-14.6S168.5,145.6,163,145.6z M62.9,247.4c-0.2,0.2-0.5,0.4-0.9,0.4l-19,0.3c0,0,0,0,0,0
		c-0.8,0-1.4-0.9-1.4-1.9l-0.9-77.9c0-0.6,0.2-1.1,0.5-1.5c0.2-0.2,0.5-0.4,0.9-0.4l19-0.3c0,0,0,0,0,0c0.8,0,1.4,0.9,1.4,1.9
		l0.9,77.9C63.4,246.5,63.2,247,62.9,247.4z M175.9,227.7c0,7.1-5.8,12.9-12.9,12.9h-53.9c-5.1,0-10-0.4-14.7-1.2
		c-8.1-1.4-18.1-0.8-23.3-0.3l-0.8-67c10.7-3.7,18.3-13.8,21.5-28.6c0.4-1.7,1.1-2.2,5.3-4.7c2.3-1.3,5.1-2.9,8.6-5.4
		c5.4-3.9,12.8-13.2,16.8-35.8c0.8-4.7,4.9-8.1,9.7-8.1c2.7,0,5.2,1.1,7.1,3c1.9,2,2.8,4.6,2.7,7.3c-0.3,6-0.9,11.9-1.8,17.6
		c-2.6,16.2-17.2,29.1-17.4,29.2c-1.1,1-1.6,2.5-1.2,3.9v26.3c0,13.1-7.8,24.7-19.9,29.7l-4.7,2c-2,0.8-2.9,3.1-2.1,5.1
		c0.6,1.5,2.1,2.4,3.6,2.4c0.5,0,1-0.1,1.5-0.3l4.7-2c15-6.2,24.7-20.7,24.7-36.9v-23.4l33.6,0c3.4,0,6.7,1.3,9.1,3.8
		c2.4,2.4,3.8,5.7,3.8,9.1V227.7z"/>
	<path class="st0" d="M33.7,82.1L30.5,101c-0.3,1.5,0.4,2.9,1.6,3.8c1.2,0.9,2.8,1,4.1,0.3l17-8.9l17,8.9c0.6,0.3,1.2,0.4,1.8,0.4
		c0.8,0,1.6-0.3,2.3-0.7c1.2-0.9,1.8-2.4,1.6-3.8l-3.2-18.9l13.8-13.4c1.1-1,1.4-2.6,1-4c-0.5-1.4-1.7-2.4-3.2-2.7l-19-2.8L56.7,42
		c-0.7-1.3-2-2.2-3.5-2.2c-1.5,0-2.8,0.8-3.5,2.2l-8.5,17.2l-19,2.8c-1.5,0.2-2.7,1.2-3.2,2.7c-0.5,1.4-0.1,3,1,4L33.7,82.1z
		 M44.3,66.6c1.3-0.2,2.4-1,2.9-2.1l5.9-12l5.9,12c0.6,1.2,1.7,2,2.9,2.1l13.2,1.9l-9.6,9.3c-0.9,0.9-1.3,2.2-1.1,3.5l2.3,13.2
		L55,88.3c-0.6-0.3-1.2-0.4-1.8-0.4c-0.6,0-1.2,0.1-1.8,0.4l-11.8,6.2l2.3-13.2c0.2-1.3-0.2-2.6-1.1-3.5l-9.6-9.3L44.3,66.6z"/>
	<path class="st0" d="M246.9,64.6c-0.5-1.4-1.7-2.4-3.2-2.7l-19-2.8L216.2,42c-0.7-1.3-2-2.2-3.5-2.2c-1.5,0-2.8,0.8-3.5,2.2
		l-8.5,17.2l-19,2.8c-1.5,0.2-2.7,1.2-3.2,2.7c-0.5,1.4-0.1,3,1,4l13.8,13.4L190,101c-0.3,1.5,0.4,2.9,1.6,3.8
		c0.7,0.5,1.5,0.7,2.3,0.7c0.6,0,1.2-0.1,1.8-0.4l17-8.9l17,8.9c1.3,0.7,2.9,0.6,4.1-0.3c1.2-0.9,1.8-2.4,1.6-3.8l-3.2-18.9
		l13.8-13.4C247,67.6,247.4,66,246.9,64.6z M225.2,77.9c-0.9,0.9-1.3,2.2-1.1,3.5l2.3,13.2l-11.8-6.2c-1.1-0.6-2.5-0.6-3.6,0
		l-11.8,6.2l2.3-13.2c0.2-1.3-0.2-2.6-1.1-3.5l-9.6-9.3l13.2-1.9c1.3-0.2,2.4-1,2.9-2.1l5.9-12l5.9,12c0.6,1.2,1.7,2,2.9,2.1
		l13.2,1.9L225.2,77.9z"/>
	<path class="st0" d="M113.5,42.3l-3.2,18.9c-0.3,1.5,0.4,2.9,1.6,3.8c1.2,0.9,2.8,1,4.1,0.3l17-8.9l17,8.9c0.6,0.3,1.2,0.4,1.8,0.4
		c0.8,0,1.6-0.3,2.3-0.7c1.2-0.9,1.8-2.4,1.6-3.8l-3.2-18.9l13.8-13.4c1.1-1,1.4-2.6,1-4c-0.5-1.4-1.7-2.4-3.2-2.7l-19-2.8
		l-8.5-17.2c-0.7-1.3-2-2.2-3.5-2.2c-1.5,0-2.8,0.8-3.5,2.2l-8.5,17.2l-19,2.8c-1.5,0.2-2.7,1.2-3.2,2.7c-0.5,1.4-0.1,3,1,4
		L113.5,42.3z M124.1,26.9c1.3-0.2,2.4-1,2.9-2.1l5.9-12l5.9,12c0.6,1.2,1.7,2,2.9,2.1l13.2,1.9l-9.6,9.3c-0.9,0.9-1.3,2.2-1.1,3.5
		l2.3,13.2l-11.8-6.2c-0.6-0.3-1.2-0.4-1.8-0.4s-1.2,0.1-1.8,0.4l-11.8,6.2l2.3-13.2c0.2-1.3-0.2-2.6-1.1-3.5l-9.6-9.3L124.1,26.9z"
		/>
</g>
</svg>
