<?xml version="1.0" encoding="utf-8"?>
<!-- Generator: Adobe Illustrator 26.4.1, SVG Export Plug-In . SVG Version: 6.00 Build 0)  -->
<svg version="1.1" id="Layer_2" xmlns="http://www.w3.org/2000/svg" xmlns:xlink="http://www.w3.org/1999/xlink" x="0px" y="0px"
	 viewBox="0 0 256 256" style="enable-background:new 0 0 256 256;" xml:space="preserve">
<style type="text/css">
	.st0{fill:#FFFFFF;}
</style>
<g>
	<path class="st0" d="M209.6,246.3H20c-11,0-20-9-20-20v-103c0-11,9-20,20-20h102.6c2.2,0,3.9,1.7,3.9,3.9c0,2.2-1.7,3.9-3.9,3.9H20
		c-6.7,0-12.2,5.5-12.2,12.2v103c0,6.7,5.5,12.2,12.2,12.2h189.6c6.7,0,12.2-5.5,12.2-12.2v-53.1c0-2.2,1.7-3.9,3.9-3.9
		c2.2,0,3.9,1.7,3.9,3.9v53.1C229.5,237.3,220.6,246.3,209.6,246.3z"/>
	<path class="st0" d="M220.6,161.5c-0.6,0-1.2-0.1-1.8-0.4l-31.3-16.4L156.3,161c-1.3,0.7-2.9,0.6-4.1-0.3c-1.2-0.9-1.8-2.4-1.6-3.8
		l6-34.8l-25.3-24.7c-1.1-1-1.4-2.6-1-4c0.5-1.4,1.7-2.4,3.1-2.7l35-5.1l15.6-31.7c0.7-1.3,2-2.2,3.5-2.2c1.5,0,2.8,0.8,3.5,2.2
		l15.6,31.7l35,5.1c1.5,0.2,2.7,1.2,3.1,2.7c0.5,1.4,0.1,3-1,4l-25.3,24.7l6,34.8c0.3,1.5-0.4,2.9-1.6,3.8
		C222.3,161.2,221.5,161.5,220.6,161.5z M187.6,136.3c0.6,0,1.2,0.1,1.8,0.4l26.1,13.7l-5-29c-0.2-1.3,0.2-2.6,1.1-3.5l21.1-20.6
		l-29.2-4.2c-1.3-0.2-2.4-1-2.9-2.1l-13-26.4l-13,26.4c-0.6,1.2-1.7,1.9-2.9,2.1l-29.2,4.2l21.1,20.6c0.9,0.9,1.3,2.2,1.1,3.5l-5,29
		l26.1-13.7C186.3,136.4,186.9,136.3,187.6,136.3z"/>
	<g>
		<path class="st0" d="M126.7,27c-2.2,0-3.9-1.7-3.9-3.9v-3.6c0-2.2,1.7-3.9,3.9-3.9c2.2,0,3.9,1.7,3.9,3.9v3.6
			C130.6,25.3,128.8,27,126.7,27z"/>
		<path class="st0" d="M126.7,51.8c-2.2,0-3.9-1.7-3.9-3.9v-3.6c0-2.2,1.7-3.9,3.9-3.9c2.2,0,3.9,1.7,3.9,3.9v3.6
			C130.6,50.1,128.8,51.8,126.7,51.8z"/>
		<path class="st0" d="M116.1,37.6h-3.6c-2.2,0-3.9-1.7-3.9-3.9s1.7-3.9,3.9-3.9h3.6c2.2,0,3.9,1.7,3.9,3.9S118.3,37.6,116.1,37.6z"
			/>
		<path class="st0" d="M140.9,37.6h-3.6c-2.2,0-3.9-1.7-3.9-3.9s1.7-3.9,3.9-3.9h3.6c2.2,0,3.9,1.7,3.9,3.9S143,37.6,140.9,37.6z"/>
	</g>
	<g>
		<path class="st0" d="M230.1,41.8c-2.2,0-3.9-1.7-3.9-3.9v-3.6c0-2.2,1.7-3.9,3.9-3.9c2.2,0,3.9,1.7,3.9,3.9v3.6
			C234,40.1,232.3,41.8,230.1,41.8z"/>
		<path class="st0" d="M230.1,66.6c-2.2,0-3.9-1.7-3.9-3.9v-3.6c0-2.2,1.7-3.9,3.9-3.9c2.2,0,3.9,1.7,3.9,3.9v3.6
			C234,64.8,232.3,66.6,230.1,66.6z"/>
		<path class="st0" d="M219.5,52.4h-3.6c-2.2,0-3.9-1.7-3.9-3.9c0-2.2,1.7-3.9,3.9-3.9h3.6c2.2,0,3.9,1.7,3.9,3.9
			C223.4,50.6,221.7,52.4,219.5,52.4z"/>
		<path class="st0" d="M244.3,52.4h-3.6c-2.2,0-3.9-1.7-3.9-3.9c0-2.2,1.7-3.9,3.9-3.9h3.6c2.2,0,3.9,1.7,3.9,3.9
			C248.2,50.6,246.5,52.4,244.3,52.4z"/>
	</g>
	<ellipse transform="matrix(0.7071 -0.7071 0.7071 0.7071 48.721 147.3978)" class="st0" cx="202.3" cy="14.9" rx="5.2" ry="5.2"/>
	
		<ellipse transform="matrix(0.9239 -0.3827 0.3827 0.9239 -32.3262 106.2137)" class="st0" cx="250.8" cy="134.4" rx="5.2" ry="5.2"/>
	
		<ellipse transform="matrix(0.7071 -0.7071 0.7071 0.7071 -17.3176 102.9417)" class="st0" cx="115.6" cy="72.4" rx="5.2" ry="5.2"/>
	<path class="st0" d="M56.8,174.5h-21c-8.1,0-14.6-6.6-14.6-14.6v-21c0-8.1,6.6-14.6,14.6-14.6h21c8.1,0,14.6,6.6,14.6,14.6v21
		C71.5,167.9,64.9,174.5,56.8,174.5z M35.8,132c-3.8,0-6.8,3.1-6.8,6.8v21c0,3.8,3.1,6.8,6.8,6.8h21c3.8,0,6.8-3.1,6.8-6.8v-21
		c0-3.8-3.1-6.8-6.8-6.8H35.8z"/>
	<path class="st0" d="M116.5,139.4H92.3c-2.2,0-3.9-1.7-3.9-3.9c0-2.2,1.7-3.9,3.9-3.9h24.3c2.2,0,3.9,1.7,3.9,3.9
		C120.4,137.6,118.7,139.4,116.5,139.4z"/>
	<path class="st0" d="M136.5,162.7H92.3c-2.2,0-3.9-1.7-3.9-3.9c0-2.2,1.7-3.9,3.9-3.9h44.2c2.2,0,3.9,1.7,3.9,3.9
		C140.4,160.9,138.7,162.7,136.5,162.7z"/>
	<path class="st0" d="M119.4,202H26.6c-2.2,0-3.9-1.7-3.9-3.9c0-2.2,1.7-3.9,3.9-3.9h92.8c2.2,0,3.9,1.7,3.9,3.9
		C123.3,200.2,121.6,202,119.4,202z"/>
	<path class="st0" d="M194.1,202h-44.2c-2.2,0-3.9-1.7-3.9-3.9c0-2.2,1.7-3.9,3.9-3.9h44.2c2.2,0,3.9,1.7,3.9,3.9
		C198,200.2,196.2,202,194.1,202z"/>
	<path class="st0" d="M98.9,225.6H26.6c-2.2,0-3.9-1.7-3.9-3.9s1.7-3.9,3.9-3.9h72.3c2.2,0,3.9,1.7,3.9,3.9S101.1,225.6,98.9,225.6z
		"/>
	<path class="st0" d="M194.1,225.6h-27.9c-2.2,0-3.9-1.7-3.9-3.9s1.7-3.9,3.9-3.9h27.9c2.2,0,3.9,1.7,3.9,3.9
		S196.2,225.6,194.1,225.6z"/>
</g>
</svg>
