<?xml version="1.0" encoding="utf-8"?>
<!-- Generator: Adobe Illustrator 26.4.1, SVG Export Plug-In . SVG Version: 6.00 Build 0)  -->
<svg version="1.1" id="Layer_2" xmlns="http://www.w3.org/2000/svg" xmlns:xlink="http://www.w3.org/1999/xlink" x="0px" y="0px"
	 viewBox="0 0 256 256" style="enable-background:new 0 0 256 256;" xml:space="preserve">
<style type="text/css">
	.st0{fill:#FFFFFF;}
</style>
<g>
	<path class="st0" d="M193,164.5c1.9-1.8,4.3-3.2,7-3.8c6.2-1.5,11.3-5.3,14.5-10.8c3.2-5.5,3.9-11.9,2.1-18
		c-1.6-5.5-0.1-11.4,4.1-15.3c4.6-4.4,7.2-10.3,7.2-16.6c0-6.4-2.5-12.3-7.2-16.6c-4.2-3.9-5.7-9.8-4.1-15.3
		c1.8-6.1,1.1-12.5-2.1-18c-3.2-5.5-8.3-9.4-14.5-10.8c-5.6-1.3-9.9-5.6-11.2-11.2c-1.5-6.2-5.3-11.3-10.8-14.5
		c-5.5-3.2-11.9-3.9-18-2.1c-5.5,1.6-11.4,0.1-15.3-4.1C140.3,2.5,134.4,0,128,0s-12.3,2.5-16.6,7.2c-3.9,4.2-9.8,5.7-15.3,4.1
		c-6.1-1.8-12.5-1.1-18,2.1c-5.5,3.2-9.4,8.3-10.8,14.5c-1.3,5.6-5.6,9.9-11.2,11.2c-6.2,1.5-11.3,5.3-14.5,10.8
		c-3.2,5.5-3.9,11.9-2.1,18c1.6,5.5,0.1,11.4-4.1,15.3c-4.6,4.4-7.2,10.3-7.2,16.6c0,6.4,2.5,12.3,7.2,16.6
		c4.2,3.9,5.7,9.8,4.1,15.3c-1.8,6.1-1.1,12.5,2.1,18c3.2,5.5,8.3,9.4,14.5,10.8c2.4,0.6,4.6,1.7,6.4,3.2L34,226.1
		c-0.6,1.4-0.4,3,0.6,4.2c1,1.2,2.6,1.6,4.1,1.1l33.6-10.4l13.6,32.5c0.6,1.4,2,2.4,3.5,2.4c0,0,0.1,0,0.1,0c1.5,0,2.8-0.8,3.5-2.2
		l27.2-55.4c2.5,0.9,5.1,1.4,7.9,1.4c6.4,0,12.3-2.5,16.6-7.2c3.9-4.2,9.8-5.7,15.3-4.1c6.1,1.8,12.5,1.1,18-2.1
		c5.1-3,8.8-7.7,10.5-13.3l22.7,48.3l-28.5-8.8c-1.9-0.6-4,0.4-4.8,2.2L166.1,243l-19.7-37.3c-1-1.9-3.4-2.6-5.3-1.6
		c-1.9,1-2.6,3.4-1.6,5.3l23.6,44.6c0.7,1.3,2,2.1,3.4,2.1c0.1,0,0.1,0,0.2,0c1.5-0.1,2.8-1,3.4-2.4l13.6-32.5l33.6,10.4
		c1.5,0.5,3.1,0,4.1-1.2c1-1.2,1.2-2.8,0.6-4.2L193,164.5z M89.7,242.7l-11.6-27.9c-0.8-1.9-2.8-2.8-4.8-2.2l-28.6,8.9L67.3,172
		c1.5,6.1,5.3,11.2,10.8,14.4c5.5,3.2,11.9,3.9,18,2.1c5.5-1.6,11.4-0.1,15.3,4.1c0.6,0.7,1.3,1.3,2,1.9L89.7,242.7z M181.2,170
		c-1,4.1-3.5,7.5-7.1,9.6c-3.6,2.1-7.9,2.6-11.9,1.4c-8.3-2.5-17.2-0.1-23.2,6.2c-2.9,3-6.8,4.7-11,4.7s-8.1-1.7-11-4.7
		c-4.4-4.7-10.4-7.2-16.6-7.2c-2.2,0-4.4,0.3-6.6,1c-4,1.2-8.2,0.7-11.9-1.4c-3.6-2.1-6.2-5.5-7.1-9.6c-2-8.4-8.5-15-17-17
		c-4.1-1-7.5-3.5-9.6-7.1c-2.1-3.6-2.6-7.9-1.4-11.9c2.5-8.3,0.1-17.2-6.2-23.2c-3-2.9-4.7-6.8-4.7-11c0-4.2,1.7-8.1,4.7-11
		c6.3-6,8.7-14.9,6.2-23.2c-1.2-4-0.7-8.2,1.4-11.9c2.1-3.6,5.5-6.2,9.6-7.1c8.4-2,15-8.5,17-17c1-4.1,3.5-7.5,7.1-9.6
		c3.6-2.1,7.9-2.6,11.9-1.4c8.3,2.5,17.2,0.1,23.2-6.2c2.9-3,6.8-4.7,11-4.7s8.1,1.7,11,4.7c0,0,0,0,0,0c6,6.3,14.9,8.7,23.2,6.2
		c4-1.2,8.2-0.7,11.9,1.4c3.6,2.1,6.2,5.5,7.1,9.6c2,8.4,8.5,15,17,17c4.1,1,7.5,3.5,9.6,7.1c2.1,3.6,2.6,7.9,1.4,11.9
		c-2.5,8.3-0.1,17.2,6.2,23.2c3,2.9,4.7,6.8,4.7,11c0,4.2-1.7,8.1-4.7,11c-6.3,6-8.7,14.9-6.2,23.2c1.2,4,0.7,8.2-1.4,11.9
		c-2.1,3.6-5.5,6.2-9.6,7.1C189.7,155.1,183.2,161.6,181.2,170z"/>
	<path class="st0" d="M128,28.6c-39.3,0-71.2,32-71.2,71.2s32,71.2,71.2,71.2s71.2-32,71.2-71.2S167.3,28.6,128,28.6z M128,163.3
		c-35,0-63.4-28.5-63.4-63.4c0-35,28.5-63.4,63.4-63.4s63.4,28.5,63.4,63.4C191.4,134.9,163,163.3,128,163.3z"/>
	<path class="st0" d="M176.5,94.6c0-0.1,0.1-0.2,0.1-0.3c0.1-0.1,0.1-0.3,0.1-0.4c0-0.1,0.1-0.2,0.1-0.3c0-0.2,0.1-0.5,0.1-0.7
		c0,0,0,0,0,0c0,0,0,0,0,0c0-0.2,0-0.5-0.1-0.7c0-0.1,0-0.2-0.1-0.3c0-0.1-0.1-0.3-0.1-0.4c0-0.1-0.1-0.2-0.1-0.3
		c-0.1-0.1-0.1-0.2-0.2-0.4c-0.1-0.1-0.1-0.2-0.2-0.3c-0.1-0.1-0.1-0.1-0.1-0.2l-21.3-24.5c-0.7-0.9-1.8-1.3-2.9-1.3h-48.4
		c-1.1,0-2.2,0.5-2.9,1.3L79.3,90.3c-0.1,0.1-0.1,0.1-0.1,0.2c-0.1,0.1-0.1,0.2-0.2,0.3c-0.1,0.1-0.1,0.2-0.2,0.4
		c0,0.1-0.1,0.2-0.1,0.3c-0.1,0.1-0.1,0.3-0.1,0.4c0,0.1-0.1,0.2-0.1,0.3c0,0.2-0.1,0.5-0.1,0.7c0,0,0,0,0,0c0,0,0,0,0,0
		c0,0.2,0,0.5,0.1,0.7c0,0.1,0,0.2,0.1,0.3c0,0.1,0.1,0.3,0.1,0.4c0,0.1,0.1,0.2,0.1,0.3c0.1,0.1,0.1,0.2,0.2,0.4
		c0.1,0.1,0.1,0.2,0.2,0.3c0.1,0.1,0.1,0.1,0.1,0.2l45.4,52.2c0,0,0.1,0,0.1,0.1c0.1,0.2,0.3,0.3,0.5,0.4c0,0,0.1,0.1,0.1,0.1
		c0.2,0.1,0.4,0.3,0.6,0.4c0.1,0,0.1,0,0.2,0.1c0.2,0.1,0.4,0.1,0.5,0.2c0.1,0,0.1,0,0.2,0c0.2,0,0.5,0.1,0.7,0.1c0,0,0,0,0,0
		c0.3,0,0.5,0,0.7-0.1c0.1,0,0.1,0,0.2,0c0.2,0,0.4-0.1,0.5-0.2c0.1,0,0.1,0,0.2-0.1c0.2-0.1,0.4-0.2,0.6-0.4c0,0,0,0,0.1,0
		c0.2-0.1,0.3-0.3,0.5-0.5c0,0,0.1,0,0.1-0.1L176,95.4c0.1-0.1,0.1-0.1,0.1-0.2c0.1-0.1,0.1-0.2,0.2-0.3
		C176.4,94.8,176.5,94.7,176.5,94.6z M107.1,96.7l10.5,30.8L90.8,96.7H107.1z M139.2,96.7l-11.7,35.9l-12.2-35.9H139.2z M117.5,88.9
		l9.7-13.5l9.7,13.5H117.5z M147.4,96.7h17.1L137.2,128L147.4,96.7z M164.5,88.9h-17.9l-12.1-16.7H150L164.5,88.9z M105.2,72.2h14.7
		l-12,16.7H90.7L105.2,72.2z"/>
</g>
</svg>
