<?xml version="1.0" encoding="utf-8"?>
<!-- Generator: Adobe Illustrator 26.4.1, SVG Export Plug-In . SVG Version: 6.00 Build 0)  -->
<svg version="1.1" id="Layer_2" xmlns="http://www.w3.org/2000/svg" xmlns:xlink="http://www.w3.org/1999/xlink" x="0px" y="0px"
	 viewBox="0 0 256 256" style="enable-background:new 0 0 256 256;" xml:space="preserve">
<style type="text/css">
	.st0{fill:#FFFFFF;}
</style>
<g>
	<path class="st0" d="M116.6,145c-2.2,0-3.9,1.8-3.9,3.9V193H10.1V48.9h102.6v61.4c0,2.2,1.8,3.9,3.9,3.9c2.2,0,3.9-1.8,3.9-3.9
		V42.7c0-10.9-8.9-19.8-19.8-19.8H22.1c-10.9,0-19.8,8.9-19.8,19.8V214c0,10.9,8.9,19.8,19.8,19.8h78.5c10.9,0,19.8-8.9,19.8-19.8
		v-65.1C120.5,146.7,118.7,145,116.6,145z M22.1,30.6h78.5c6.1,0,11.1,4.5,11.9,10.4H10.2C11,35.2,16,30.6,22.1,30.6z M100.7,226
		H22.1c-6.6,0-12-5.4-12-12v-13.1h102.6V214C112.7,220.6,107.3,226,100.7,226z"/>
	<path class="st0" d="M65.7,208H57c-2.2,0-3.9,1.8-3.9,3.9s1.8,3.9,3.9,3.9h8.7c2.2,0,3.9-1.8,3.9-3.9S67.9,208,65.7,208z"/>
	<path class="st0" d="M97.8,114.1c-0.5-1.4-1.7-2.5-3.2-2.7l-20.6-3l-9.2-18.6c-0.7-1.3-2-2.2-3.5-2.2c-1.5,0-2.9,0.8-3.5,2.2
		l-9.2,18.6l-20.6,3c-1.5,0.2-2.7,1.2-3.2,2.7c-0.5,1.4-0.1,3,1,4l14.9,14.5l-3.5,20.5c-0.3,1.5,0.4,3,1.6,3.8
		c1.2,0.9,2.8,1,4.1,0.3l18.4-9.7l18.4,9.7c0.6,0.3,1.2,0.4,1.8,0.4c0.8,0,1.6-0.3,2.3-0.7c1.2-0.9,1.8-2.4,1.6-3.8l-3.5-20.5
		l14.9-14.5C97.9,117.1,98.3,115.5,97.8,114.1z M75,128.5c-0.9,0.9-1.3,2.2-1.1,3.5l2.5,14.7l-13.2-6.9c-0.6-0.3-1.2-0.4-1.8-0.4
		s-1.3,0.1-1.8,0.4l-13.2,6.9l2.5-14.7c0.2-1.3-0.2-2.6-1.1-3.5l-10.7-10.4l14.8-2.1c1.3-0.2,2.4-1,2.9-2.1l6.6-13.4l6.6,13.4
		c0.6,1.2,1.7,2,2.9,2.1l14.8,2.1L75,128.5z"/>
	<path class="st0" d="M233.9,0h-81.1c-10.9,0-19.8,8.9-19.8,19.8v91.6l-22,14.7c-1.1,0.7-1.7,1.9-1.7,3.2c0,1.3,0.6,2.5,1.6,3.2
		l22.1,16.1v87.5c0,10.9,8.9,19.8,19.8,19.8h81.1c10.9,0,19.8-8.9,19.8-19.8V19.8C253.7,8.9,244.9,0,233.9,0z M245.9,236.2
		c0,6.6-5.4,12-12,12h-81.1c-6.6,0-12-5.4-12-12v-89.5c0-1.3-0.6-2.4-1.6-3.2l-19.2-14l19.1-12.8c1.1-0.7,1.7-1.9,1.7-3.3V19.8
		c0-6.6,5.4-12,12-12h81.1c6.6,0,12,5.4,12,12V236.2z"/>
	<path class="st0" d="M189.5,51.5c-1.5-1.5-4-1.5-5.5,0c-1.5,1.5-1.5,4,0,5.5l6,6c0.8,0.8,1.8,1.1,2.8,1.1c1,0,1.9-0.4,2.7-1.1
		l23.3-22.3c1.6-1.5,1.6-4,0.1-5.5c-1.5-1.6-4-1.6-5.5-0.1l-20.6,19.7L189.5,51.5z"/>
	<path class="st0" d="M216.3,50.4c-2.2,0-3.9,1.8-3.9,3.9c0,10.2-8.3,18.5-18.5,18.5s-18.5-8.3-18.5-18.5c0-10.2,8.3-18.5,18.5-18.5
		c2.3,0,4.6,0.4,6.7,1.3c2,0.8,4.3-0.2,5.1-2.2c0.8-2-0.2-4.3-2.2-5.1c-3.1-1.2-6.3-1.8-9.6-1.8c-14.5,0-26.3,11.8-26.3,26.3
		c0,14.5,11.8,26.3,26.3,26.3c14.5,0,26.3-11.8,26.3-26.3C220.2,52.2,218.4,50.4,216.3,50.4z"/>
	<path class="st0" d="M189.5,125.9c-1.5-1.5-4-1.5-5.5,0c-1.5,1.5-1.5,4,0,5.5l6,6c0.8,0.8,1.8,1.1,2.8,1.1c1,0,1.9-0.4,2.7-1.1
		l23.3-22.3c1.6-1.5,1.6-4,0.1-5.5c-1.5-1.6-4-1.6-5.5-0.1l-20.6,19.7L189.5,125.9z"/>
	<path class="st0" d="M216.3,124.8c-2.2,0-3.9,1.8-3.9,3.9c0,10.2-8.3,18.5-18.5,18.5s-18.5-8.3-18.5-18.5
		c0-10.2,8.3-18.5,18.5-18.5c2.3,0,4.6,0.4,6.7,1.3c2,0.8,4.3-0.2,5.1-2.2c0.8-2-0.2-4.3-2.2-5.1c-3.1-1.2-6.3-1.8-9.6-1.8
		c-14.5,0-26.3,11.8-26.3,26.3c0,14.5,11.8,26.3,26.3,26.3c14.5,0,26.3-11.8,26.3-26.3C220.2,126.5,218.4,124.8,216.3,124.8z"/>
	<path class="st0" d="M189.5,200.3c-1.5-1.5-4-1.5-5.5,0c-1.5,1.5-1.5,4,0,5.5l6,6c0.8,0.8,1.8,1.1,2.8,1.1c1,0,1.9-0.4,2.7-1.1
		l23.3-22.3c1.6-1.5,1.6-4,0.1-5.5c-1.5-1.6-4-1.6-5.5-0.1l-20.6,19.7L189.5,200.3z"/>
	<path class="st0" d="M216.3,199.1c-2.2,0-3.9,1.8-3.9,3.9c0,10.2-8.3,18.5-18.5,18.5s-18.5-8.3-18.5-18.5
		c0-10.2,8.3-18.5,18.5-18.5c2.3,0,4.6,0.4,6.7,1.3c2,0.8,4.3-0.2,5.1-2.2c0.8-2-0.2-4.3-2.2-5.1c-3.1-1.2-6.3-1.8-9.6-1.8
		c-14.5,0-26.3,11.8-26.3,26.3c0,14.5,11.8,26.3,26.3,26.3c14.5,0,26.3-11.8,26.3-26.3C220.2,200.9,218.4,199.1,216.3,199.1z"/>
</g>
</svg>
