<?xml version="1.0" encoding="utf-8"?>
<!-- Generator: Adobe Illustrator 27.0.0, SVG Export Plug-In . SVG Version: 6.00 Build 0)  -->
<svg version="1.1" id="Layer_1" xmlns="http://www.w3.org/2000/svg" xmlns:xlink="http://www.w3.org/1999/xlink" x="0px" y="0px"
	 viewBox="0 0 673.8 261.7" style="enable-background:new 0 0 673.8 261.7;" xml:space="preserve">
<style type="text/css">
	.st0{fill:url(#SVGID_00000025418520842982376570000011084648691936992959_);}
	.st1{fill:url(#SVGID_00000038392120370830096050000004147249843260674489_);}
	.st2{fill:url(#SVGID_00000107575796548854130200000004141767108552650145_);}
	.st3{fill:url(#SVGID_00000134953226942776001940000012007858678845219968_);}
	.st4{fill:url(#SVGID_00000173154278040034782250000018184980167450971066_);}
	.st5{fill:url(#SVGID_00000072269926681701451720000018299128905865246643_);}
	.st6{fill:url(#SVGID_00000007405072790059928840000007759381910058555792_);}
	.st7{fill:url(#SVGID_00000015331434588904850000000004094329805814845109_);}
	.st8{fill:url(#SVGID_00000060006149741201747520000000591908956292892064_);}
	.st9{fill:url(#SVGID_00000137853973799946030210000015511775595680603020_);}
	.st10{fill:url(#SVGID_00000141444550806244566300000005062555979960020403_);}
	.st11{fill:url(#SVGID_00000103943841237467278890000008373707260102689956_);}
	.st12{fill:url(#SVGID_00000099630914323836873390000013149662944351876249_);}
</style>
<g>
	<g>
		<g>
			<g>
				<g>
					<g>
						<defs>
							<path id="SVGID_1_" d="M385.4,134.2c1.3,6.1,9.2,1.1,9.2,1.1c3.1,2.3,2,4.9,2.7,4.7c4.2-1.2,5-8.2,5.7-14.9
								c0.7-6.8,6.7-7.7,6.7-7.7C394.9,117.7,384.1,128.2,385.4,134.2 M311.8,197.1c-1.4-1.4-2.1-3.7-2.1-6.8
								c0-5.9,1.7-11.8,5.2-17.8c3.5-5.9,7.2-10.1,11.3-12.3c4-2.3,8.8-3.4,14.2-3.4c2.2,0,5,0.2,8.2,0.8l-7.5,21.6
								c-2.2,6.5-5.7,11.4-10.5,14.9c-4.8,3.4-9.2,5.2-13.4,5.2C315,199.2,313.2,198.5,311.8,197.1 M448.8,197.1
								c-1.4-1.4-2.1-3.7-2.1-6.8c0-5.9,1.7-11.8,5.2-17.8c3.5-5.9,7.2-10.1,11.3-12.3c4.1-2.3,8.8-3.4,14.2-3.4
								c2.2,0,5,0.2,8.2,0.8l-7.5,21.6c-2.2,6.5-5.7,11.4-10.5,14.9c-4.8,3.4-9.2,5.2-13.4,5.2C452,199.2,450.2,198.5,448.8,197.1
								 M592.1,197.2c-1.7-1.5-2.5-3.5-2.5-5.9c0-5.3,1.8-11.4,5.4-18.5c3.6-7.1,7.3-11.8,11.2-14.3c3.8-2.5,7.8-3.7,11.8-3.7
								c2,0,5.4,0.4,10.2,1.3l-4.2,14.1c-2.8,9.1-5,14.9-6.6,17.2c-2.7,3.7-6.4,6.8-11,9.4c-3.3,1.7-6.1,2.6-8.7,2.6
								C595.6,199.5,593.7,198.7,592.1,197.2 M662.3,110.6c-5.3,1.7-10,4-14.1,7c-4.1,3-7.5,6.6-10,10.8c-2.6,4.2-5.3,10.8-8.1,19.9
								c-2.7-0.3-4.7-0.5-6-0.5c-5.9,0-12.5,2.1-19.7,6.2c-7.2,4.1-13.7,10.5-19.5,19.2c-5.1,7.6-8,14.3-8.6,20.4
								c-0.2,0-0.4,0.1-0.5,0.2c-0.3,0.2-4.5,2.7-6.1,3.4c-1.6,0.7-6.7,3.3-10.1,3.6c-3.4,0.3-3.5-2-3.2-4.6
								c0.3-2.7,2.8-9.7,2.8-9.7s4.1-10.6,4.2-10.9c0.1-0.3,3.2-8.1,5.3-13.5c2-5.4,1.6-8.5,1.6-8.5c-0.7-5.3-5.6-5.9-8.4-5.6
								c-2.9,0.3-6.4,0.8-16.9,6.5c-10.5,5.7-17.2,11.7-17.2,11.7c0.1-0.2,3.4-11.5,3.4-11.5c0.7-3.9-1.1-5.5-1.1-5.5
								c-3.1-2.9-7.9-1.5-7.9-1.5c-10.1,2.2-18.2,10.7-18.2,10.7c1.2-0.9,9.6-3.6,12.1-3c2.5,0.6,1,4.8,1,4.8
								c-0.2,0.7-3,9.5-3.1,10.1c-0.2,0.6-5.3,17.4-5.9,19.8c-0.2,0.6-0.6,2.1-1.2,3.9c-0.2-0.1-0.7-0.1-2,0.8c-1.9,1.2-10.5,5-16,5
								c-1.5,0-2.2-0.8-2.2-2.3c0-1.5,0.7-4.7,2-9.7c2.4-9.2,5-17.3,7.7-24.4l6.8-17.7c0,0-2.2-0.3-5,1.5c-2.8,1.8-3.4,2.3-3.4,2.3
								c-2-0.2-3.9-0.3-5.8-0.3c-7.7,0-13.9,0.9-18.8,2.7c-6.3,2.3-12.3,5.9-18,10.8c-5.7,4.9-10.3,10.4-13.7,16.4
								c-3.2,5.8-4.9,11-5.1,15.7c-2.3,1.2-5.4,2.6-9.8,4.5c-2.6,1.1-5.9,1.5-7.2,1.5c-1.4,0-2.6-0.7-2.6-2.2
								c0-0.6,2.2-8.2,6.7-22.8l8.9-29.4c3.2-10.5,5.5-17.5,6.9-21.1c1.9-5,7.2-9.6,8.9-10.8c4.1-2.8,9.1-3.9,12.2-4.2
								c1.6-0.1,1.2-1.1-0.9-1.1c-4.3,0-8.9,0.6-15.7,3.7c-6.8,3.2-12.1,7.6-15.8,13.3c-2.4,3.8-5.4,11.2-8.9,22.4l-9.7,30.8
								c-1.9,5.9-3.3,10.7-4.2,14.6c-0.1,0-0.1,0-0.2,0c-0.3,0.1-0.9,0.5-4.8,2.5c-3.9,1.9-8.1,3.3-10.6,3.7
								c-2.5,0.4-3.4,0.2-4.1-0.7c-0.6-0.8,0-3.4,0-3.4c0.1-1.4,2.3-8.5,2.4-8.7c0.1-0.3,5.5-15.6,5.7-16c0.2-0.4,5-13.5,5-13.5
								c1.4-3.6,1-5.1,1-5.1c-0.1-2.1-2.2-4.2-5.2-4.7c-2.9-0.5-7.7,1-7.7,1c-1.8,0.4-5.6,2.2-7.9,3.5c-2.3,1.3-6.8,4.8-6.8,4.8
								c3.6-1.6,8.1-2,10.3-2.2c2.2-0.2,2.8,0.8,2.8,0.8c1.1,1.6-0.1,4-0.3,4.7c-0.2,0.6-2.8,7.1-2.8,7.1
								c-3.6,8.8-7.1,19.8-7.9,22.2c-0.3,0.9-0.7,2.3-1.1,3.7c-0.6,0.3-1.3,0.7-2.1,1.2c-2,1.2-10.5,5-16.1,5
								c-1.5,0-2.2-0.8-2.2-2.3c0-1.5,0.7-4.7,2-9.7c2.4-9.2,5-17.3,7.7-24.4l6.8-17.7c0,0-2.1-0.3-4.9,1.5
								c-2.8,1.8-3.5,2.3-3.5,2.3c-2-0.2-3.9-0.3-5.9-0.3c-7.6,0-13.9,0.9-18.8,2.7c-6.3,2.3-12.3,5.9-18,10.8
								c-5.7,4.9-10.3,10.4-13.7,16.4c-2.9,5.1-4.5,9.8-5,14.2c-0.7,0.5-1.5,0.9-2.2,1.4c-3.9,2.7-11.9,6.1-15.6,6.1
								c-0.6,0-1.1-0.2-1.5-0.5c-0.3-0.3-0.7-0.8-0.7-1.5c0-1.9,0.4-4.1,1.1-6.5c0.7-2.4,3-8.6,7-18.6c2.9-7.2,4.8-12.2,5.6-15
								c0.5-1.6,0.7-3.2,0.7-4.8c0-1.9-0.7-3.4-2-4.5c-1.3-1.1-3.2-1.6-5.5-1.6c-3,0-7,1.2-12,3.6c-8.5,4-16.3,9-23.5,14.8l10-34.6
								c1.9-6.4,6.8-12.1,8.7-13.7c6.5-6,13.5-7.1,16-8.1c1-0.4,0-0.6,0-0.6s-8.2-0.3-14.9,2.6c-6.4,2.8-11.6,6.3-15.5,10.8
								c-4,4.5-7.2,10.9-9.6,19.2l-13.2,44.9c-1.5,5.2-3.8,11.9-6.6,20H236l7.1-24.5c1.5-5.3,3.6-9.4,6.2-12.1
								c4.1-4.2,8.8-7.6,14.1-10.2c3.8-1.9,7-2.9,9.5-2.9c2,0,3.1,0.8,3.1,2.3c0,1-1,4.4-3.1,10.2c-4.7,11.8-7.6,19.5-8.6,23
								c-1,3.6-1.5,6.3-1.5,8.2c0,2.6,0.6,4.6,1.9,5.8c1.3,1.3,3,1.9,5.1,1.9c2.6,0,5.8-1,9.8-2.9c4.6-2.2,11.4-7,16.8-11.2
								c0,0.4-0.1,0.8-0.1,1.2c0,4.1,1.3,7.5,3.8,10c1.9,1.9,4.5,2.9,8,2.9c3.7,0,7.7-1.1,12.1-3.2c7.1-3.4,13.3-7.5,18.4-12.3
								l-3.6,9.7c-0.5,1.2-0.7,2.1-0.7,2.8c0,1.1,0.4,1.9,1.2,2.4c0.8,0.6,2,0.8,3.5,0.8c2.2,0,4.4-0.3,6.7-1c3.5-1,7.2-2.5,11-4.5
								c1.7-0.9,7.1-4.5,13.1-8.6c-0.5,2.1-1,4.2-1.2,5.5c-0.4,2.5-0.6,4.9,1.2,6.5c1.8,1.6,4.4,2.3,8.7,1.4
								c4.3-0.9,10-4.1,11.5-5.1c1.3-0.9,9.8-6.5,12-8.2c-0.8,3.3-1.2,5.9-1.2,7.6c0,1.9,0.6,3.4,1.8,4.5c1.2,1.1,2.7,1.6,4.6,1.6
								c4.2,0,9.4-1.7,15.8-5.1c3.8-2,7.2-4.2,10.4-6.4c0.3,3.5,1.5,6.4,3.7,8.6c1.9,1.9,4.5,2.9,8,2.9c3.7,0,7.7-1.1,12.1-3.2
								c7.1-3.4,13.3-7.5,18.5-12.3l-3.6,9.7c-0.5,1.2-0.7,2.1-0.7,2.8c0,1.1,0.4,1.9,1.2,2.4c0.8,0.6,1.9,0.8,3.5,0.8
								c2.2,0,4.4-0.3,6.7-1c3.5-1,7.2-2.5,11-4.5c1.9-1,6.2-3.8,12.9-8.5c-1.6,5-4,12.1-4,12.1H516c0-0.4,3.9-13.3,4.1-13.8
								c0.1-0.5,2.9-10,3.3-11.2c0.4-1.2,1.5-4.3,2.8-7.2c1.3-2.8,4.6-6.7,10.5-10.7c5.9-4,9.3-5.2,9.9-5.5c0.6-0.3,4.3-2,7.1-1.4
								c2.8,0.6,2.3,2,2,3.5c-0.3,1.5-2.8,9-3,9.3c-0.2,0.3-4.9,12.3-5.1,13.2c-0.3,0.9-2.8,6.9-4.4,13.9c-1.5,7,1.2,9.4,1.2,9.4
								c3.8,3.7,9.6,1.4,12.4,0.4c2.8-1,9.4-5,11.5-6.3c1.8-1.2,6.8-5.2,7.8-5.9c0,0.5-0.1,1.1-0.1,1.6c0,4.2,1.1,7.4,3.3,9.6
								c2.1,2.2,4.8,3.3,8,3.3c3.9,0,8.2-1.1,13-3.2c4.8-2.1,10.8-6.2,18-12.2l-3.2,8.5c-0.7,1.8-1,3.1-1,3.9c0,0.8,0.5,1.5,1.4,2.1
								c0.9,0.6,2.1,0.9,3.5,0.9c3.1,0,7.4-1.2,12.9-3.6c3.9-1.7,10-5.3,18.1-10.6c0,0,0.4-1-0.9-0.3c-1.2,0.6-2.8,1.5-11.9,4.7
								c-1.5,0.5-3.9,0.8-5,0.8c-1.8,0-3.2-0.9-3.2-2.7c0-1.6,0.8-5,2.3-9.9l12.8-42.3c3.4-11.3,5.6-17.7,6.7-19.8
								c1.7-3.5,5.3-7.7,6.7-8.9c7.5-6.3,10.7-5.7,15.2-6.3c1.3-0.2,1.7-1.1,0.3-1.1C669.5,109,667.6,109,662.3,110.6 M256.4,79.8
								c1.3-0.6,2.6-1.2,3.9-1.7c0,0,8.6-4.8,20.6-5.1c0,0,7-0.2,8.9,1.4c0,0,2.4,1.5-0.7,3.4c0,0-3.5,2.9-16.5,3.2
								c-0.3,0-0.6,0-0.9,0C267.4,81,262,80.5,256.4,79.8 M285,66.9c0,0-6.5-0.2-20.5,6.4c0,0-5.6,2.3-12,5.9
								c-10.4-1.5-20.3-3.3-22.3-3.6c-3.3-0.5-32.8-7.9-57.9-5.6c-25.1,2.3-33.2,18.1-33.7,18.8c-0.5,0.8-12.1,18.5,3.4,36.4
								c0,0-7.5-15,0.3-27.5c0,0,6.1-11.5,22.1-15c0,0,18.2-3.8,40.7-1c0,0,33.3,3.7,36.9,4c-4.1,2.6-8.3,5.3-9.5,6.1
								c-2.6,1.6-11.5,9-18.1,17.7c-6.3,8.5-13.3,23.7-15.5,30.6c0,0-5.4,14.9-6.1,17.6c0,0-9,28.9-9.6,30.6c0,0-2.5,8.9-8,16.4
								c0,0-7.5,9.8-10.9,12.5c-3.4,2.7-16.3,13.9-34.7,16.9c0,0,8.5,2.8,34.5-10.2c0,0,20.4-12.8,26.2-21.8
								c5.8-9,9.3-16.9,11.3-24.4c0,0,9.2-32.9,10.9-39.2c1.7-6.4,7.4-22.7,9.5-26.6c2-3.6,6.4-11.2,9.2-13.9
								c1.8-1.7,6.9-6.9,14.2-11.9c6.6,0.5,21.5,1.8,25.3,1.4c4.7-0.6,22.5-1.4,24.8-11.8c0,0,2.4-8.7-9.5-8.7
								C285.7,66.9,285.3,66.9,285,66.9"/>
						</defs>
						
							<linearGradient id="SVGID_00000163060355269051649460000000843705713909318324_" gradientUnits="userSpaceOnUse" x1="215.3854" y1="320.088" x2="549.9927" y2="-14.5194">
							<stop  offset="0" style="stop-color:#F9E481"/>
							<stop  offset="0.3433" style="stop-color:#F4BC64"/>
							<stop  offset="0.7155" style="stop-color:#F9E481"/>
						</linearGradient>
						
							<use xlink:href="#SVGID_1_"  style="overflow:visible;fill:url(#SVGID_00000163060355269051649460000000843705713909318324_);"/>
						<clipPath id="SVGID_00000070090403803658052910000013264718630053460408_">
							<use xlink:href="#SVGID_1_"  style="overflow:visible;"/>
						</clipPath>
					</g>
				</g>
				<g>
					<g>
						<defs>
							<path id="SVGID_00000120556844960824144550000017976080783254473381_" d="M222.4,239.2l-0.2,5.6h0.8c0.3-1.8,0.8-3,1.5-3.5
								c0.7-0.5,1.9-0.8,3.7-0.8h1.9v16.7c0,1.4-0.2,2.3-0.5,2.7c-0.4,0.4-1.2,0.6-2.7,0.7v0.6h9.6v-0.6c-1.3-0.1-2.2-0.3-2.6-0.6
								c-0.4-0.3-0.6-1.1-0.6-2.3v-17.1h1.8c1.9,0,3.2,0.3,3.8,0.8c0.6,0.5,1.1,1.7,1.5,3.5h0.8l-0.2-5.6H222.4z M285.9,239.2v0.6
								c1.2,0.1,2.1,0.4,2.5,0.9c0.4,0.5,0.6,1.6,0.6,3.4v8.7c0,2.1-0.2,3.7-0.8,4.7c-0.9,1.8-2.8,2.7-5.5,2.7
								c-2.5,0-4.2-0.9-5.1-2.6c-0.5-1-0.7-2.4-0.7-4.1v-10.7c0-1.2,0.2-2,0.6-2.3c0.4-0.3,1.2-0.5,2.5-0.6v-0.6h-9.4v0.6
								c1.3,0.1,2.1,0.3,2.4,0.7c0.4,0.3,0.6,1.1,0.6,2.3v10.4c0,2.1,0.3,3.8,1.1,5c1.3,2.3,3.7,3.5,7.3,3.5c3.6,0,6.1-1.2,7.4-3.5
								c0.7-1.3,1.1-3.1,1.1-5.4v-8.7c0-1.8,0.2-2.8,0.6-3.3c0.4-0.5,1.2-0.8,2.5-0.9v-0.6H285.9z M303.1,241.6
								c0-0.5,0.1-0.8,0.3-0.9c0.2-0.1,0.8-0.2,1.7-0.2c1.4,0,2.5,0.2,3.4,0.6c1.6,0.7,2.4,2,2.4,3.9c0,2-0.9,3.4-2.6,4.1
								c-1,0.4-2.7,0.7-5.1,0.7V241.6z M296.9,239.2v0.6c1.2,0.1,2,0.3,2.3,0.7c0.4,0.4,0.5,1.1,0.5,2.3v14.5c0,1.4-0.2,2.2-0.5,2.6
								c-0.3,0.4-1.1,0.6-2.4,0.7v0.6h9.2v-0.6c-1.2-0.1-2.1-0.3-2.4-0.6c-0.4-0.3-0.6-1.1-0.6-2.3V251l1.4-0.1l8.4,10.3h5.4v-0.6
								c-0.7-0.1-1.2-0.2-1.6-0.4c-0.4-0.2-0.8-0.6-1.3-1.1l-6.9-8.4c1.8-0.3,3.3-0.8,4.4-1.7c1.1-0.9,1.6-2.2,1.6-3.8
								c0-2.5-1.2-4.1-3.6-5.1c-1.3-0.5-2.9-0.7-4.8-0.7H296.9z M321.7,239.2v0.6c1.3,0.1,2.2,0.3,2.6,0.6c0.4,0.4,0.6,1.1,0.6,2.3
								v14.9c0,1.2-0.2,2-0.6,2.3c-0.4,0.3-1.2,0.5-2.6,0.6v0.6h9.7v-0.6c-1.3-0.1-2.2-0.3-2.6-0.6c-0.4-0.3-0.6-1.1-0.6-2.3v-14.9
								c0-1.2,0.2-2,0.6-2.3c0.4-0.4,1.3-0.6,2.6-0.6v-0.6H321.7z M377.4,239.2l-7.5,16.6l-7.7-16.6h-6.5v0.6
								c1.3,0.1,2.2,0.3,2.6,0.6c0.4,0.4,0.6,1.2,0.6,2.3v13.5c0,1.8-0.2,2.9-0.6,3.3c-0.4,0.5-1.3,0.8-2.6,0.9v0.6h7.8v-0.6
								c-1.2-0.1-2-0.4-2.3-0.7c-0.5-0.5-0.8-1.7-0.8-3.5V243l8.4,18.2h0.5l8.5-19v15c0,1.4-0.2,2.3-0.5,2.6
								c-0.3,0.4-1.2,0.6-2.5,0.7v0.6h9.3v-0.6c-1.2-0.1-2-0.3-2.4-0.7c-0.4-0.4-0.5-1.1-0.5-2.3v-14.8c0-1.1,0.2-1.9,0.5-2.3
								c0.4-0.4,1.2-0.6,2.4-0.7v-0.6H377.4z M445.9,239.2v0.6c0.7,0,1.2,0.1,1.5,0.3c0.6,0.2,0.9,0.7,0.9,1.3c0,0.2,0,0.4-0.1,0.7
								c-0.1,0.5-0.2,1.1-0.5,1.7l-4.1,11.3l-4.8-12.5c-0.2-0.4-0.3-0.7-0.3-0.9c0-0.1-0.1-0.3-0.1-0.5c0-0.6,0.2-1,0.8-1.1
								c0.3-0.1,0.9-0.2,1.7-0.2v-0.6h-9v0.6c0.7,0,1.2,0.1,1.6,0.3c0.6,0.3,1,0.7,1.3,1.5l1.6,4.1l-3.5,9.3l-4.8-12.5
								c-0.1-0.3-0.2-0.6-0.3-0.8c-0.1-0.2-0.1-0.4-0.1-0.6c0-0.5,0.3-0.8,0.7-1c0.3-0.1,0.7-0.2,1.4-0.2v-0.6h-8.1v0.6
								c1,0.1,1.7,0.4,2.2,1.2c0.5,0.7,1.3,2.7,2.4,5.9l2.8,7.8l2.5,6.9h0.5l5.1-14l3.9,10.2l1.5,3.8h0.5l2.1-6l1.4-3.8l3.5-9.9
								c0.3-0.8,0.7-1.3,1.3-1.6c0.3-0.2,0.8-0.3,1.4-0.4v-0.6H445.9z M482.8,241.6c0-0.5,0.1-0.8,0.3-0.9c0.2-0.1,0.8-0.2,1.7-0.2
								c1.4,0,2.5,0.2,3.4,0.6c1.6,0.7,2.4,2,2.4,3.9c0,2-0.9,3.4-2.6,4.1c-1,0.4-2.8,0.7-5.1,0.7V241.6z M476.6,239.2v0.6
								c1.2,0.1,1.9,0.3,2.3,0.7c0.3,0.4,0.5,1.1,0.5,2.3v14.5c0,1.4-0.2,2.2-0.5,2.6c-0.3,0.4-1.1,0.6-2.4,0.7v0.6h9.2v-0.6
								c-1.2-0.1-2.1-0.3-2.4-0.6c-0.4-0.3-0.6-1.1-0.6-2.3V251l1.4-0.1l8.4,10.3h5.3v-0.6c-0.7-0.1-1.2-0.2-1.6-0.4
								c-0.4-0.2-0.9-0.6-1.3-1.1l-6.8-8.4c1.9-0.3,3.3-0.8,4.4-1.7c1-0.9,1.6-2.2,1.6-3.8c0-2.5-1.2-4.1-3.6-5.1
								c-1.3-0.5-2.9-0.7-4.8-0.7H476.6z M508,259.8c-0.3-0.2-0.4-0.5-0.4-1.1v-17c0-0.5,0.1-0.9,0.4-1.1c0.3-0.2,0.8-0.3,1.5-0.3
								c3,0,5.4,0.7,7.2,2.2c2.1,1.8,3.2,4.3,3.2,7.7c0,3.9-1.3,6.6-3.8,8.1c-1.7,1-3.8,1.6-6.4,1.6
								C508.8,260,508.3,259.9,508,259.8 M501.3,239.2v0.6c1.2,0.1,2,0.3,2.4,0.6c0.3,0.3,0.5,1.1,0.5,2.3v14.9c0,1.2-0.2,2-0.5,2.3
								c-0.4,0.3-1.2,0.5-2.4,0.6v0.6h9.2c2.5,0,4.6-0.3,6.3-0.9c0.9-0.3,1.8-0.8,2.7-1.5c1.4-1,2.4-2.3,3.1-3.8
								c0.7-1.5,1-3.1,1-4.7c0-4.6-1.9-7.8-5.7-9.6c-2.1-1-4.6-1.5-7.7-1.5H501.3z M410.2,243.5l3.8,9.2h-7.6L410.2,243.5z
								 M410.8,238.8l-6.9,16.3c-1,2.5-1.8,3.9-2.2,4.5c-0.4,0.5-1.1,0.9-1.9,1v0.6h6.6v-0.6c-0.8-0.1-1.3-0.2-1.6-0.3
								c-0.5-0.2-0.7-0.6-0.7-1.2c0-0.3,0.1-0.7,0.2-1.1c0.2-0.5,0.7-1.8,1.5-4h8.8l1.3,3.2c0.2,0.5,0.3,0.9,0.4,1.3
								c0.1,0.4,0.2,0.7,0.2,0.9c0,0.5-0.1,0.8-0.4,0.9c-0.3,0.1-0.9,0.2-1.9,0.3v0.6h8.5v-0.6c-0.8-0.1-1.3-0.3-1.7-0.6
								c-0.3-0.3-0.7-1.1-1.3-2.3l-8.3-18.9H410.8z M460.8,243.5l3.8,9.2H457L460.8,243.5z M461.4,238.8l-6.9,16.3
								c-1,2.5-1.8,3.9-2.2,4.5c-0.4,0.5-1.1,0.9-1.9,1v0.6h6.6v-0.6c-0.8-0.1-1.3-0.2-1.6-0.3c-0.5-0.2-0.7-0.6-0.7-1.2
								c0-0.3,0.1-0.7,0.2-1.1c0.2-0.5,0.7-1.8,1.6-4h8.8l1.3,3.2c0.2,0.5,0.3,0.9,0.5,1.3c0.1,0.4,0.2,0.7,0.2,0.9
								c0,0.5-0.1,0.8-0.4,0.9c-0.3,0.1-0.9,0.2-1.9,0.3v0.6h8.4v-0.6c-0.8-0.1-1.3-0.3-1.7-0.6c-0.3-0.3-0.8-1.1-1.3-2.3l-8.3-18.9
								H461.4z M250.7,258c-1.4-1.7-2.1-4.3-2.1-7.8c0-3.5,0.7-6.1,2.1-7.8c1.4-1.6,3.1-2.5,5.1-2.5c1.9,0,3.6,0.8,5,2.4
								c1.4,1.6,2.1,4.2,2.1,7.9c0,3.6-0.7,6.2-2.1,7.8c-1.4,1.6-3.1,2.4-5,2.4C253.7,260.5,252,259.6,250.7,258 M248.2,241.7
								c-2.2,2.1-3.3,5-3.3,8.5c0,3.4,1,6.2,3.1,8.3c2.1,2.1,4.6,3.2,7.8,3.2c2.9,0,5.4-0.9,7.5-2.9c2.3-2.1,3.5-5,3.5-8.6
								c0-3.6-1.1-6.4-3.3-8.5c-2.1-2-4.6-2.9-7.6-2.9C252.7,238.7,250.2,239.7,248.2,241.7 M348.6,238.7c-0.1,0.3-0.2,0.6-0.4,0.8
								c-0.1,0.2-0.4,0.3-0.8,0.3c-0.2,0-0.8-0.2-1.8-0.5c-1.1-0.4-2-0.5-2.7-0.5c-1.8,0-3.3,0.6-4.4,1.7c-1.1,1.1-1.7,2.5-1.7,4.2
								c0,1.3,0.5,2.4,1.4,3.5c0.5,0.6,1.2,1.1,2,1.6l2.8,1.7c1.7,1,2.7,1.8,3.2,2.3c0.8,0.8,1.2,1.8,1.2,2.8c0,1.2-0.4,2.1-1.1,2.8
								c-0.8,0.7-1.7,1-2.8,1c-1.9,0-3.6-0.8-4.9-2.3c-0.8-0.9-1.4-2.1-2-3.6h-0.8l1,7.1h0.7c0-0.3,0.1-0.6,0.3-0.8
								c0.1-0.3,0.4-0.4,0.8-0.4c0.2,0,0.8,0.2,1.9,0.6c1.1,0.4,2.2,0.6,3.2,0.6c2.1,0,3.7-0.6,5-1.8c1.3-1.2,2-2.6,2-4.4
								c0-1.3-0.4-2.4-1.1-3.4c-0.7-0.9-2-2-3.9-3.1l-2.9-1.8c-1.1-0.7-1.9-1.3-2.4-1.9c-0.5-0.6-0.8-1.4-0.8-2.2
								c0-0.9,0.3-1.7,1-2.2c0.7-0.5,1.5-0.8,2.4-0.8c1.2,0,2.4,0.4,3.6,1.3c1.2,0.8,2.1,2.3,2.6,4.5h0.8l-0.7-7.1H348.6z
								 M541.3,238.7c-0.1,0.3-0.2,0.6-0.4,0.8c-0.2,0.2-0.4,0.3-0.9,0.3c-0.1,0-0.8-0.2-1.8-0.5c-1.1-0.4-2-0.5-2.7-0.5
								c-1.8,0-3.3,0.6-4.4,1.7c-1.1,1.1-1.7,2.5-1.7,4.2c0,1.3,0.5,2.4,1.4,3.5c0.5,0.6,1.2,1.1,2,1.6l2.8,1.7
								c1.6,1,2.7,1.8,3.2,2.3c0.8,0.8,1.2,1.8,1.2,2.8c0,1.2-0.4,2.1-1.2,2.8c-0.8,0.7-1.7,1-2.8,1c-2,0-3.6-0.8-4.9-2.3
								c-0.8-0.9-1.4-2.1-2-3.6h-0.8l1,7.1h0.7c0-0.3,0.1-0.6,0.3-0.8c0.1-0.3,0.4-0.4,0.8-0.4c0.2,0,0.8,0.2,1.9,0.6
								c1.1,0.4,2.2,0.6,3.2,0.6c2,0,3.7-0.6,5-1.8c1.3-1.2,1.9-2.6,1.9-4.4c0-1.3-0.3-2.4-1.1-3.4c-0.7-0.9-2-2-3.9-3.1l-2.9-1.8
								c-1.1-0.7-1.9-1.3-2.4-1.9c-0.5-0.6-0.8-1.4-0.8-2.2c0-0.9,0.3-1.7,1-2.2c0.7-0.5,1.5-0.8,2.4-0.8c1.2,0,2.4,0.4,3.6,1.3
								c1.2,0.8,2.1,2.3,2.6,4.5h0.8l-0.8-7.1H541.3z"/>
						</defs>
						
							<linearGradient id="SVGID_00000017518542678607475610000010409030800603923331_" gradientUnits="userSpaceOnUse" x1="298.6036" y1="332.8846" x2="467.3585" y2="164.1297">
							<stop  offset="0" style="stop-color:#F9E481"/>
							<stop  offset="0.3433" style="stop-color:#F4BC64"/>
							<stop  offset="0.7155" style="stop-color:#F9E481"/>
						</linearGradient>
						
							<use xlink:href="#SVGID_00000120556844960824144550000017976080783254473381_"  style="overflow:visible;fill:url(#SVGID_00000017518542678607475610000010409030800603923331_);"/>
						<clipPath id="SVGID_00000028307074298095394760000016880578885197373622_">
							<use xlink:href="#SVGID_00000120556844960824144550000017976080783254473381_"  style="overflow:visible;"/>
						</clipPath>
					</g>
				</g>
			</g>
			<g>
				
					<linearGradient id="SVGID_00000169515820798754610770000000262690220601545376_" gradientUnits="userSpaceOnUse" x1="625.2272" y1="101.2653" x2="634.1308" y2="92.3616">
					<stop  offset="0" style="stop-color:#F9E481"/>
					<stop  offset="0.3433" style="stop-color:#F4BC64"/>
					<stop  offset="0.7155" style="stop-color:#F9E481"/>
				</linearGradient>
				<path style="fill:url(#SVGID_00000169515820798754610770000000262690220601545376_);" d="M631.1,104.3c-0.5,0.3-0.9,0.4-1.2,0.4
					c-1.8,0-2.8-1.1-2.8-3.4v-8.3h-2l-0.1-0.3l0.8-0.8h1.3v-2.4c0.5-0.6,1.4-1.3,1.9-1.9l0.4,0.1c-0.1,1.2-0.1,2.8-0.1,4.2h3.2
					c0.3,0.3,0.2,0.9-0.2,1.2h-3.1v7.3c0,2.3,0.9,2.7,1.6,2.7c0.7,0,1.3-0.3,1.7-0.5l0.3,0.7L631.1,104.3z"/>
				
					<linearGradient id="SVGID_00000057858364785717836830000017744179096311381422_" gradientUnits="userSpaceOnUse" x1="632.585" y1="103.0568" x2="644.9256" y2="90.7161">
					<stop  offset="0" style="stop-color:#F9E481"/>
					<stop  offset="0.3433" style="stop-color:#F4BC64"/>
					<stop  offset="0.7155" style="stop-color:#F9E481"/>
				</linearGradient>
				<path style="fill:url(#SVGID_00000057858364785717836830000017744179096311381422_);" d="M642.1,104.4v-0.8
					c1.6-0.2,1.9-0.3,1.9-2.2v-4.7c0-2.4-0.9-3.6-2.8-3.5c-1.1,0-2.2,0.5-3,1.5v6.7c0,1.8,0.2,2,1.9,2.2v0.8h-6.2v-0.8
					c1.6-0.1,2-0.3,2-2.2V87.7c0-1.5-0.1-1.9-2-2v-0.7c1.5-0.1,3.2-0.6,4.2-1c0,1.1,0,2.4,0,3.5v6.2c1-1,2.6-2.1,4.1-2.1
					c2.3,0,3.9,1.4,3.9,4.9v5c0,1.9,0.2,2,1.9,2.2v0.8H642.1z"/>
			</g>
		</g>
		<g>
			
				<linearGradient id="SVGID_00000006667308312859260720000007701142321978506932_" gradientUnits="userSpaceOnUse" x1="66.8534" y1="44.4521" x2="80.7792" y2="30.5262">
				<stop  offset="0" style="stop-color:#F9E481"/>
				<stop  offset="0.3433" style="stop-color:#F4BC64"/>
				<stop  offset="0.7155" style="stop-color:#F9E481"/>
			</linearGradient>
			<path style="fill:url(#SVGID_00000006667308312859260720000007701142321978506932_);" d="M73.8,23.6c0,7.7-6.2,13.9-13.9,13.9
				c7.7,0,13.9,6.2,13.9,13.9c0-7.7,6.2-13.9,13.9-13.9C80,37.5,73.8,31.3,73.8,23.6z"/>
			
				<linearGradient id="SVGID_00000120531305194991124640000006473222207814458295_" gradientUnits="userSpaceOnUse" x1="113.892" y1="44.4513" x2="127.8163" y2="30.527">
				<stop  offset="0" style="stop-color:#F9E481"/>
				<stop  offset="0.3433" style="stop-color:#F4BC64"/>
				<stop  offset="0.7155" style="stop-color:#F9E481"/>
			</linearGradient>
			<path style="fill:url(#SVGID_00000120531305194991124640000006473222207814458295_);" d="M120.9,23.6c0,7.7,6.2,13.9,13.9,13.9
				c-7.7,0-13.9,6.2-13.9,13.9c0-7.7-6.2-13.9-13.9-13.9C114.6,37.5,120.9,31.3,120.9,23.6z"/>
			
				<linearGradient id="SVGID_00000103982460042843124620000005647897095200852651_" gradientUnits="userSpaceOnUse" x1="90.3504" y1="68.1931" x2="104.2789" y2="54.2646">
				<stop  offset="0" style="stop-color:#F9E481"/>
				<stop  offset="0.3433" style="stop-color:#F4BC64"/>
				<stop  offset="0.7155" style="stop-color:#F9E481"/>
			</linearGradient>
			<path style="fill:url(#SVGID_00000103982460042843124620000005647897095200852651_);" d="M97.3,47.3c0,7.7-6.2,13.9-13.9,13.9
				c7.7,0,13.9,6.2,13.9,13.9c0-7.7,6.2-13.9,13.9-13.9C103.6,61.2,97.3,55,97.3,47.3z"/>
			
				<linearGradient id="SVGID_00000093892004902523792360000008817380667247019918_" gradientUnits="userSpaceOnUse" x1="90.3508" y1="20.8918" x2="104.2788" y2="6.9638">
				<stop  offset="0" style="stop-color:#F9E481"/>
				<stop  offset="0.3433" style="stop-color:#F4BC64"/>
				<stop  offset="0.7155" style="stop-color:#F9E481"/>
			</linearGradient>
			<path style="fill:url(#SVGID_00000093892004902523792360000008817380667247019918_);" d="M97.3,0c0,7.7-6.2,13.9-13.9,13.9
				c7.7,0,13.9,6.2,13.9,13.9c0-7.7,6.2-13.9,13.9-13.9C103.6,13.9,97.3,7.7,97.3,0z"/>
			
				<linearGradient id="SVGID_00000137112317488223039910000009368328081851213451_" gradientUnits="userSpaceOnUse" x1="9.0624" y1="209.4123" x2="118.8582" y2="99.6165">
				<stop  offset="0" style="stop-color:#F9E481"/>
				<stop  offset="0.3433" style="stop-color:#F4BC64"/>
				<stop  offset="0.7155" style="stop-color:#F9E481"/>
			</linearGradient>
			<path style="fill:url(#SVGID_00000137112317488223039910000009368328081851213451_);" d="M87.6,205c1.4-2.6,2.6-10.8,4.2-17.4
				c1.6-7,4-10.4,4-10.4c-0.5-1.2-2.5-0.7-2.5-0.7c-3,0.3-3.4,6.1-4.2,7.1c-0.8,1-1.9-0.3-1.9-0.3c-0.1-1.6-1.6-2.9-1.6-2.9
				c-4.8-4.9-17.5-13.1-20.2-14.8c-2.7-1.6-3.8-1.5-4.2-0.5c-0.4,1-0.3,3.1-0.3,3.1s-3.4,0-5.1-1.2c-1.6-1.2-5.7-7.2-5.7-7.2
				c7.8,2.3,12-2.7,12-2.7c-2.6-0.5-3.8-2.7-3.8-2.7c4.1-0.5,6-3,6-3c-2.6,0-4.2-2.2-4.2-2.2c3.5-1.4,5.9-5.3,5.9-5.3
				c-1.4,0.3-5.2,0.1-5.2,0.1c3.4-1.6,6.4-5.2,6.4-5.2c-3.7,0.7-9.7-0.5-9.7-0.5c5.2-1.2,6-5.6,6-5.6s1.8,1,6.7,0.7
				c4.9-0.3,7.5-4.1,10.1-7c2.6-2.9,5.5-2.9,6.8-4.9c1.4-2,3.8-2.9,3.8-2.9s-1.2-0.8-3,0.1c-1.8,1-3.4,0-3.4,0
				c-4.7-2.2-8.5,0.3-10,1.8c-1.5,1.5-4.7,1.2-4.7,1.2c1.4-1.6,0.8-3.3,0.8-3.3c-4.5,2.5-6.9,0-12.8,0.4c-5.9,0.4-7.9,4.5-8.8,5.4
				c-0.9,0.9-1.3,0.3-1.3,0.3c-0.6-1.4,0.6-3.1,0.6-3.1s-2,0-2.9,1.6c-0.8,1.6-2.3,3.5-3.7,3.5c-1.4,0-4.5,1-4.5,1
				c0.4-1.4-0.4-3.1-0.4-3.1c-10.7,3.5-11.7-5.3-10.9-8.3c0.8-3,2.6-9.3,2.6-9.3s2.8,0,3.8-1.1c0.7-0.8,1.8-0.8,1.8-0.8
				c5.2-0.7,10-4.4,10-4.4s2.6,6.3,11.3,3.5c0,0,5.5-1.3,8.6-9.9c0,0,4.1-1.8,4.5-2.1c2.6,1.8,4.4,1.3,4.4,1.3c3.3-0.4,4.2-4,4.2-4
				s7.4,0.7,9.3,0.5c1.9-0.1,2.6-0.7,3.7-2.2c1.1-1.5,0.7-2.2,0.7-2.2c1.1-1,2.3-3.3,2.3-3.3c2.1-1.1,4.9-5.1,4.1-4.4
				c-0.8,0.7-2.9,1.1-2.9,1.1s0,0-4.1,0c-4.1,0-4.6,2.6-4.6,2.6c-3.8,0-5.1,3.4-5.1,3.4c-4.8-0.3-11.3,1.9-11.3,1.9
				c-6.1-2.6-9,2.9-9,2.9c-1.6,0.4-6,1.2-6,1.2h-4.9c0,0-4-5.5-9-5.3c-5.1,0-7.1,3-8.1,3.3c-1,0.3-2.9,0.8-4.6,0.1
				c-1.8-0.7,0.1-2.6,0.1-2.6s3.1,0,6.8-5.9c3.7-5.9,1-9.6,1-9.6c1.1-2.6,0.3-4.9,0.3-4.9l0.3-3.3l-2.6,0.8c-3-0.1-5.6,2.3-5.6,2.3
				s-1.1-1.1-5.1,1.1c-4,2.2-6.4,5.5-9,10.2c-2.6,4.8-2.3,8.6-2.3,8.6l-5.7-0.3C0.7,85.6,0,90.9,0,90.9c-0.3,5.1,1.9,10.1,4.1,17.2
				c2.2,7.1,3.6,11.9,4.6,20.4c1.1,8.5,4.1,17.9,7,21.2C18.6,153,26,160.3,26,160.3c1.4,0.4,3.4-0.1,3.4-0.1
				c1.6,1.5,1.4,2.9,1.4,2.9c1,0.2,1.8-0.2,1.8-0.2c3.1,2.3,10.4,6.4,15.8,8.9c5.5,2.5,10.2,6.7,10.2,6.7
				c10.9,9.7,13.5,17.5,13.5,17.5c-2.3,0.4-1.4,3.3-2,3.7c-0.7,0.4-2.2,0.4-7.6,0.5c-4.7,0.1-5.1,4.9-5.1,6.2
				c-8.2,5.4-13.7,14.6-13.7,25.2c0,16.6,13.5,30,30.1,30c16.6,0,30-13.5,30-30C103.8,220,97.2,210,87.6,205z M83.5,186.4
				c-0.1,2.6,2,3.4,2,3.4c0.1,2.1-0.3,8.1-1.6,9c-1.4,1-4,0.3-4,0.3c-3-0.4-2.3-3.1-2.3-3.1c0.1-8.5-4.3-15.4-4.3-15.4
				C79.7,183,83.5,186.4,83.5,186.4z"/>
		</g>
	</g>
	<g>
		
			<linearGradient id="SVGID_00000083811036652968259800000014287295405333867395_" gradientUnits="userSpaceOnUse" x1="558.907" y1="249.5548" x2="575.3671" y2="249.5548">
			<stop  offset="0" style="stop-color:#F9E481"/>
			<stop  offset="0.3433" style="stop-color:#F4BC64"/>
			<stop  offset="0.7155" style="stop-color:#F9E481"/>
		</linearGradient>
		<path style="fill:url(#SVGID_00000083811036652968259800000014287295405333867395_);" d="M575.4,253.3l-0.5,7.7h-16
			c0-1.1,0.4-2.1,1.1-3.1c0.8-1.1,2.2-2.4,4.2-4c2.1-1.6,3.5-2.9,4.3-3.8c1.3-1.6,2-3.5,2-5.7c0-1.7-0.4-3.1-1.2-4.1
			c-0.8-1-1.9-1.5-3.4-1.5c-1.2,0-2.3,0.4-3.3,1.1c-1,0.7-1.4,1.4-1.4,2.1c0,0.4,0.2,0.6,0.6,0.7c0.7,0.1,1.1,0.2,1.2,0.2
			c0.7,0.4,1.1,1,1.1,1.9c0,0.6-0.2,1.1-0.7,1.6c-0.5,0.4-1,0.6-1.5,0.6c-0.8,0-1.5-0.3-2-0.9s-0.8-1.3-0.8-2.2c0-1.6,0.7-3,2.2-4.2
			c1.5-1.2,3.3-1.8,5.5-1.8c2.4,0,4.4,0.7,6.1,2c1.6,1.3,2.4,2.8,2.4,4.6c0,1.9-1,3.7-2.9,5.2c-0.6,0.5-2.5,1.7-5.7,3.5
			c-2.3,1.3-3.8,2.6-4.4,3.7h8.3c1.6,0,2.7-0.3,3.3-1c0.4-0.5,0.8-1.5,1.1-3H575.4z"/>
		
			<linearGradient id="SVGID_00000129886813198560401930000017309477644403747244_" gradientUnits="userSpaceOnUse" x1="578.7443" y1="249.7761" x2="596.8443" y2="249.7761">
			<stop  offset="0" style="stop-color:#F9E481"/>
			<stop  offset="0.3433" style="stop-color:#F4BC64"/>
			<stop  offset="0.7155" style="stop-color:#F9E481"/>
		</linearGradient>
		<path style="fill:url(#SVGID_00000129886813198560401930000017309477644403747244_);" d="M596.8,249.8c0,3.5-1,6.3-2.9,8.6
			c-1.7,2-3.8,3.1-6.2,3.1c-2.4,0-4.4-1-6.2-3.1c-1.9-2.2-2.9-5.1-2.9-8.5c0-3.5,0.9-6.3,2.8-8.5c1.8-2.1,3.8-3.1,6.2-3.1
			c2.4,0,4.4,1,6.2,3.1C595.9,243.5,596.8,246.3,596.8,249.8z M592.2,249.8c0-3.8-0.3-6.5-0.9-8.2c-0.7-1.9-1.8-2.8-3.4-2.8
			c-1.6,0-2.8,0.9-3.5,2.8c-0.6,1.7-0.9,4.4-0.9,8.2s0.3,6.5,0.9,8.1c0.7,1.8,1.8,2.8,3.5,2.8c1.6,0,2.8-0.9,3.5-2.8
			C591.9,256.3,592.2,253.6,592.2,249.8z"/>
		
			<linearGradient id="SVGID_00000025431614887018418910000002838926900490835621_" gradientUnits="userSpaceOnUse" x1="599.812" y1="249.5548" x2="616.2722" y2="249.5548">
			<stop  offset="0" style="stop-color:#F9E481"/>
			<stop  offset="0.3433" style="stop-color:#F4BC64"/>
			<stop  offset="0.7155" style="stop-color:#F9E481"/>
		</linearGradient>
		<path style="fill:url(#SVGID_00000025431614887018418910000002838926900490835621_);" d="M616.3,253.3l-0.5,7.7h-16
			c0-1.1,0.4-2.1,1.1-3.1c0.8-1.1,2.2-2.4,4.2-4c2.1-1.6,3.5-2.9,4.3-3.8c1.3-1.6,2-3.5,2-5.7c0-1.7-0.4-3.1-1.2-4.1
			c-0.8-1-1.9-1.5-3.4-1.5c-1.2,0-2.3,0.4-3.3,1.1c-1,0.7-1.4,1.4-1.4,2.1c0,0.4,0.2,0.6,0.6,0.7c0.7,0.1,1.1,0.2,1.2,0.2
			c0.7,0.4,1.1,1,1.1,1.9c0,0.6-0.2,1.1-0.7,1.6c-0.5,0.4-1,0.6-1.5,0.6c-0.8,0-1.5-0.3-2-0.9c-0.5-0.6-0.8-1.3-0.8-2.2
			c0-1.6,0.7-3,2.2-4.2c1.5-1.2,3.3-1.8,5.5-1.8c2.4,0,4.4,0.7,6.1,2c1.6,1.3,2.4,2.8,2.4,4.6c0,1.9-1,3.7-2.9,5.2
			c-0.6,0.5-2.5,1.7-5.7,3.5c-2.3,1.3-3.8,2.6-4.4,3.7h8.3c1.6,0,2.7-0.3,3.3-1c0.4-0.5,0.8-1.5,1.1-3H616.3z"/>
		
			<linearGradient id="SVGID_00000074437215884495233660000015218694022763192449_" gradientUnits="userSpaceOnUse" x1="619.8623" y1="249.7761" x2="636.4868" y2="249.7761">
			<stop  offset="0" style="stop-color:#F9E481"/>
			<stop  offset="0.3433" style="stop-color:#F4BC64"/>
			<stop  offset="0.7155" style="stop-color:#F9E481"/>
		</linearGradient>
		<path style="fill:url(#SVGID_00000074437215884495233660000015218694022763192449_);" d="M636.5,254.7c0,2-0.9,3.6-2.8,4.9
			c-1.8,1.2-3.9,1.8-6.5,1.8c-2.1,0-3.9-0.5-5.3-1.5c-1.4-1-2-2.1-2-3.4c0-0.9,0.2-1.6,0.7-2.1c0.5-0.5,1-0.7,1.7-0.7
			c0.7,0,1.2,0.2,1.6,0.7c0.4,0.4,0.6,1,0.6,1.6c0,1.1-0.5,1.8-1.4,1.9c-0.4,0.1-0.6,0.1-0.6,0.1c-0.2,0.1-0.2,0.2-0.2,0.5
			c0,0.4,0.4,0.9,1.1,1.4c0.9,0.6,2.1,1,3.5,1c3.2,0,4.9-2,4.9-5.9c0-2-0.4-3.4-1.1-4.3s-1.8-1.3-3.3-1.3c-0.5,0-1,0.1-1.7,0.2
			c-0.6,0.1-1,0.2-1.1,0.2c-0.5,0-0.8-0.2-0.8-0.6c0-0.4,0.3-0.7,0.9-0.7c0.1,0,0.3,0,0.8,0.1c0.4,0.1,0.9,0.1,1.3,0.1
			c1.4,0,2.4-0.4,3.2-1.3c0.8-0.9,1.2-2.1,1.2-3.6c0-3.2-1.4-4.8-4.3-4.8c-1.1,0-2.1,0.3-3,0.8c-0.8,0.5-1.2,1.1-1.2,1.7
			c0,0.2,0.2,0.4,0.7,0.5c0.6,0.2,1,0.3,1.2,0.4c0.4,0.3,0.7,0.8,0.7,1.6c0,0.6-0.2,1.2-0.6,1.6c-0.4,0.4-1,0.6-1.6,0.6
			c-0.8,0-1.4-0.3-1.9-0.9c-0.5-0.6-0.7-1.2-0.7-2c0-1.4,0.6-2.6,1.9-3.5c1.4-1,3.1-1.5,5.3-1.5c2.4,0,4.4,0.6,5.9,1.7
			c1.4,1,2.1,2.2,2.1,3.6c0,1.8-0.7,3.2-2.1,4c-1,0.6-2.6,1-4.8,1.4C633.9,249,636.5,251,636.5,254.7z"/>
	</g>
	
		<linearGradient id="SVGID_00000120552692503870759140000010514554659908213670_" gradientUnits="userSpaceOnUse" x1="582.5073" y1="120.2769" x2="603.5168" y2="120.2769">
		<stop  offset="0" style="stop-color:#F9E481"/>
		<stop  offset="0.3433" style="stop-color:#F4BC64"/>
		<stop  offset="0.7155" style="stop-color:#F9E481"/>
	</linearGradient>
	<path style="fill:url(#SVGID_00000120552692503870759140000010514554659908213670_);" d="M603.5,135.3h-21v-0.8
		c3.6-0.3,5.7-0.7,6.4-1c1-0.6,1.5-2,1.5-4.4v-14.2c0-2.2-0.1-3.6-0.3-4.2c-0.2-0.8-0.8-1.2-1.8-1.3c-0.3,0-1.9-0.1-4.8-0.2
		c-0.1,0-0.3,0-0.5,0c-0.2,0-0.4,0-0.5,0v-0.8c4.6-0.2,7.9-1.3,9.9-3.3h3.3v23.9c0,2.4,0.5,3.9,1.5,4.5c0.8,0.5,2.9,0.8,6.3,1V135.3
		z"/>
	
		<linearGradient id="SVGID_00000179624606427251356350000007289053340018107791_" gradientUnits="userSpaceOnUse" x1="601.9768" y1="120.2769" x2="626.7216" y2="120.2769">
		<stop  offset="0" style="stop-color:#F9E481"/>
		<stop  offset="0.3433" style="stop-color:#F4BC64"/>
		<stop  offset="0.7155" style="stop-color:#F9E481"/>
	</linearGradient>
	<path style="fill:url(#SVGID_00000179624606427251356350000007289053340018107791_);" d="M626.7,124.6l-0.6,2.1h-5.6v3.5
		c0,1.9,0.2,3,0.6,3.5c0.5,0.5,2,0.8,4.5,1v0.8h-15.3v-0.8c2.4-0.2,3.9-0.6,4.3-1.1c0.4-0.4,0.6-1.5,0.6-3.4v-3.5h-12.7l-0.7-1.1
		c2.4-3.3,7.2-10.1,14.2-20.3h4.4v19.4H626.7z M615.3,124.6v-16.1c-1.4,2-3.3,4.7-5.6,8.1c-1.4,2-3.3,4.6-5.7,8H615.3z"/>
</g>
</svg>
