<?xml version="1.0" encoding="utf-8"?>
<!-- Generator: Adobe Illustrator 26.4.1, SVG Export Plug-In . SVG Version: 6.00 Build 0)  -->
<svg version="1.1" id="Layer_1" xmlns="http://www.w3.org/2000/svg" xmlns:xlink="http://www.w3.org/1999/xlink" x="0px" y="0px"
	 viewBox="0 0 300 50" style="enable-background:new 0 0 300 50;" xml:space="preserve">
<style type="text/css">
	.st0{fill:#B6932F;}
</style>
<g>
	<path class="st0" d="M36.3,0C29.8,0.1,24.4,11.2,28,14.4c1.1,1,2.3-0.4,1.6-1.1c-4.5-3.9,8.1-17.5,6.6-7.6c-1.2,7.5-5,25-15.2,25.8
		c-8.1,0.6-6.8-9.9-1.3-11.6c1.8-0.5,3.6,0.1,3.6,2.2c-0.3,1.3,1.7,1.5,1.7-0.3c-0.2-3-2.8-4.2-5.4-3.6c-8.1,1.9-8.9,15.3,1.1,15.3
		c12.2,0,18.8-20.7,19-28.2C39.8,1.7,38.4,0,36.3,0z"/>
	<path class="st0" d="M100.2,30.1c-2.4-0.2-3.1-2.2-2.7-4.2c3-0.1,6.3-1.2,8.3-2.8c3.4-2.6,2.4-7.2-1.7-7.2c-4.3,0-7.4,3-8.9,6.4
		c-1.4,2.6-3.7,5.7-5.8,7c0.1-0.9,1.2-5.2,1.2-6.3c0.4-2.6-2.8-3.4-3.6-1.8c-0.9,1.7-3.7,8.6-6.8,8.6c-2.2,0-0.6-7.4,4.1-10.3
		c0.8-0.5,3.2-1.6,4,0.3c0.3,0.6,2.5,0.4,2.5-1c0-2-2.2-2.9-3.7-3c-4.7-0.1-8.2,3.6-9.8,7.4c-2,3.6-4.3,6.6-5.6,6.4
		c-1.8-0.3-1.7-4-1.5-5.3c1.2-1.2,9.1-11.6,11-19c1-4.1-1-6-4.1-4.4c-4.4,2.3-8,11.6-8.9,16.1c-0.5-1-1.4-1.4-2.6-1.4
		c-3.2-0.1-5.8,2.3-7.2,5.3h-0.1c-1.6,3.5-4.5,8.9-6.8,8.9c-0.6,0-1-0.4-1-1.2c0.1-3.1,3.9-7.2,4.1-10.4c0-0.9-0.5-1.7-1.1-2.1
		c-0.6-0.6-1.9-0.6-2.7,0.5c-0.6,1-1.7,3.7-3.2,6.5c-1.9,3.6-4.2,7.2-5.9,6.7c-1.8-0.5-0.1-6.9,3.2-11.2c1.2-1.7-2-4.6-3.9-1.4
		c-2.9,4.9-4.5,14.5,0.3,14.7c2.3,0.1,4.3-2.4,5.9-5c0.6-0.9,1.8-3.5,2.2-4.5c-0.5,1.2-0.9,2.4-1.3,3.6c-0.9,2.9-0.4,6,2.4,6.1
		c2.2,0,4.4-2.3,6.2-5.1c0,2.8,1.2,5.1,4,5.1s5.2-2.8,6.8-4.8c0,1.3,1,4.8,3.6,4.7c1.6-0.1,3.5-2,5.2-4.4c0,2.5,1.1,4.3,3.5,4.4
		c3.3,0.1,6.1-5.5,7.2-8.1c-0.2,2.1-0.9,5.5-1.1,7.1c-2.1,1-5.2,2.1-8.1,3.4c-11.8,5.2-10.9,17.1-1.4,15.5
		c8.2-1.4,11.6-11.4,12.8-18.6c1.9-1,3.7-2.9,5.1-4.8c0,3,1.7,5.5,5.3,5.6c4.7,0.1,10.2-4.5,13.5-11.1h-1.8
		C108.3,26.6,103.8,30.5,100.2,30.1z M78.4,4.4c1.3-1,1.5,0,1.2,1.1c-1.9,6.2-6.6,12.9-8.9,16.1C71,17.3,75.9,6.4,78.4,4.4z
		 M67.6,25c-2.3,3.4-4.8,5-5.9,4.9c-4.5-0.2-0.1-10.4,3.7-10.6c1.1,0,1.9,0.7,2.3,2.6C67.6,22.6,67.6,24,67.6,25z M76.1,48.2
		c-6.8,1.1-6.7-7.5,2.1-11.8c2.8-1.4,5.8-2.5,7.6-3.3C84.8,39,82.7,47.2,76.1,48.2z M105.5,19.9c0.6,2.5-5.2,4.7-7.6,4.4
		C99.2,20.2,105,17.9,105.5,19.9z"/>
	<path class="st0" d="M212.7,14.4c0.9,0.6,2.1,0.2,2.8-1c0.6-1.2,0.5-2.6-0.4-3.2c-0.9-0.6-2.1-0.1-2.8,1
		C211.6,12.4,211.9,13.8,212.7,14.4z"/>
	<path class="st0" d="M239.7,15.2c-0.9,0.3-2.7,0.5-4.8,0.5c0.2-0.5,0.3-0.9,0.4-1.3c0.5-1,0.7-1.6,0.8-2.6c0.1-2.4-3-3.7-3.5-1.2
		c-0.4,1.5-0.7,2.4-1.2,3.8l-0.5,1.4c-2.6,0-5.4-0.1-7.8-0.3c0.4-1.3,0.9-2.7,1-3.6c0.1-2.4-2.9-3.7-3.5-1.2
		c-0.4,1.5-0.7,2.4-1.2,3.8l-0.3,0.7c-1.3-0.1-1.8,0-2.6-0.1c-1.7-0.2-1.8,2.1-0.5,2.2c0.9,0.1,1.2,0,2.3,0.1
		c-0.5,1.4-1.1,3.1-1.6,4.7c-1.9,3.5-5,7.9-6.6,7.9c-0.6,0-1-0.4-1-1.2c0.1-3.2,3.9-7.2,4.1-10.4c0.1-2.2-2.9-3.5-3.5-1
		c-0.3,1.4-0.7,2.6-1.2,3.9l0,0c-1.8,3.5-5.3,8.7-7.2,8.8c-2.4,0.1,4-8.9,3.8-11.8c-0.1-2.1-2-3.1-4.5-1.3
		c-3.1,2.2-6.6,8.7-7.9,11.9c0-1.8,3.5-7.5,4.2-9.9c0.8-2.7-1.9-3.7-3.8-2.3C190,19.1,187,24,185,27.4c1.1-2.7,3.3-6.9,3.6-9.1
		c0.3-2.1-2.8-3.3-3.5-0.9c-0.3,1.4-0.8,2.7-1.2,4c-1.8,3.5-5.2,8.6-7.1,8.7c-2.4,0.1,4-8.9,3.8-11.8c-0.1-2.1-2-3.1-4.5-1.3
		c-3.1,2.2-6.6,8.7-7.9,11.9c0-1.8,3.5-7.5,4.2-9.9c0.8-2.7-1.9-3.7-3.8-2.3c-3.2,2.4-6.3,7.3-8.2,10.7c1.1-2.7,3.3-6.9,3.6-9.1
		c0.3-2.1-2.8-3.3-3.5-0.9c-0.3,1.4-0.8,2.7-1.2,4c-1.3,2.4-3.2,3.4-3.9,3.3c0.8-2.3,0.1-4.1-1.2-4.1c-2.9,0-4.5,5.2-1.4,6
		c-0.9,1.9-2.9,3.6-5.1,3.7c-5.3,0-2.3-9,2.1-10.9c0.6-0.3,2.1-0.6,2.9,0.1c0.3,0.6,2.7,0.7,2.3-1.1c-0.4-1.6-2.7-2.2-4-2.2
		c-3.6,0-6.3,2.3-7.7,5.2l0,0c-4.9,8.5-13.8,11.1-17.4,9.2c-7.5-4.1,1.8-26.9,13-26.7c6.4,0.1,3.3,9.7-2.4,10.1
		c-2.8,0.2-2.2-3.6-0.2-5.2c1.6-1.2-0.1-2.3-1.3-1.3c-2.9,1.8-3.6,7.8,1.1,8c8.6,0.4,12.6-15.2,1.9-15.3
		c-15.5-0.2-26.1,33-10.3,33.2c5,0.1,10.4-3.3,14.2-7.6c-0.3,3.5,1.2,6.7,5.1,6.8c4.1,0,6.9-4.1,7.6-5.7c0.9,0,2.1-0.4,3.2-1.3
		c-0.1,0.3-0.2,0.7-0.3,1c-0.4,1.3-0.7,2.4-0.9,3.4c-0.4,2.1,2.4,3.7,3.4,1.5c0.7-1.6,7.2-12.4,8.6-12.3c1,0-6.8,11.8-1.5,13.4
		c0.8,0.2,1.6-0.6,2-1.8c1.1-2.8,5.9-11.6,7.4-11.7c0.7,0-1.5,3.9-2.8,7.5c-0.8,2.3-1,5.7,2.1,6c1.8,0.2,3.9-1.9,5.9-4.6
		c-0.2,0.7-0.4,1.4-0.4,2c-0.4,2.1,2.4,3.7,3.4,1.5c0.7-1.6,7.2-12.4,8.6-12.3c1,0-6.8,11.8-1.5,13.4c0.8,0.2,1.6-0.6,2-1.8
		c1.1-2.8,5.9-11.6,7.4-11.7c0.7,0-1.5,3.9-2.8,7.5c-0.8,2.3-1,5.7,2.1,6c1.8,0.2,4-2,6-4.7c-0.4,2.5,0.4,4.8,2.7,4.8
		s4.7-2.7,6.6-5.6c-0.1,3,1.1,5.4,3.7,5.4c2.9,0,5.9-2.7,8.3-5.8c-0.5,3.6-0.1,7.2,2.6,9c1.4,0.3,1.5-1,0.4-1.5
		C228.6,31,232,23.2,234,18c2.7-0.1,4.8-0.3,5.5-0.4C241.1,16.9,241.4,14.7,239.7,15.2z M228.9,22.5c-4.8,7.5-10.6,9.5-9.4,4.1
		c0.7-3.3,1.9-6.3,3-9c2.6,0.1,5.4,0.1,7.9,0.1C229.9,19,229.3,20.7,228.9,22.5z"/>
	<path class="st0" d="M286.3,15.9c-3.2-3.5-14.4,0.6-13.4,5.3c-3,5.5-7.5,9.3-11.2,9c-2.4-0.2-3.1-2.2-2.7-4.2
		c3-0.1,6.3-1.2,8.3-2.8c3.4-2.6,2.4-7.2-1.7-7.2c-4.1,0-7.2,2.7-8.6,5.9c-3,5.2-7.2,8.6-10.8,8.3c-2.4-0.2-3.1-2.2-2.7-4.2
		c3-0.1,6.3-1.2,8.3-2.8c3.4-2.6,2.4-7.2-1.7-7.2c-10,0-13.8,16-4.6,16.2c3.4,0.1,7.2-2.2,10.1-6c-0.1,3.2,1.5,5.9,5.3,6
		c4.3,0.1,9.3-3.8,12.6-9.4c2,2.1,6.8,4.8,4.8,6.7c-2.1,2.1-6.7,1.7-5,0c1.5-1.5-0.6-1.8-1.9-0.7c-1.7,1.4-1.3,4.2,3.6,4.2
		c3.5,0,6.3-2.1,6.5-4.9c0.2-3.7-5.9-5.6-5.5-7.7c0.2-1.1,3.4-2.6,6-2.8c1.4-0.2,1.8,0.4,1.2,1.1c-0.8,0.9,2.1,1.4,2.9,0.2
		C286.9,18,287,16.6,286.3,15.9z M251.6,19.9c0.6,2.5-5.2,4.7-7.6,4.4C245.3,20.2,251.1,17.9,251.6,19.9z M267.1,19.9
		c0.6,2.5-5.2,4.7-7.6,4.4C260.7,20.2,266.6,17.9,267.1,19.9z"/>
</g>
</svg>
