<?xml version="1.0" encoding="utf-8"?>
<!-- Generator: Adobe Illustrator 26.5.0, SVG Export Plug-In . SVG Version: 6.00 Build 0)  -->
<svg version="1.1" id="Layer_1" xmlns="http://www.w3.org/2000/svg" xmlns:xlink="http://www.w3.org/1999/xlink" x="0px" y="0px"
	 viewBox="0 0 128 128" style="enable-background:new 0 0 128 128;" xml:space="preserve">
<style type="text/css">
	.st0{fill:#AAE2FE;}
	.st1{fill:#08A8FD;}
</style>
<g>
	<circle class="st0" cx="108.2" cy="18.3" r="18.3"/>
	<circle class="st0" cx="108.2" cy="109.7" r="18.3"/>
	<circle class="st0" cx="19.8" cy="109.7" r="18.3"/>
</g>
<g>
	<circle class="st1" cx="19.8" cy="18.3" r="18.3"/>
	<path class="st1" d="M73.6,22.9H53.3c-3.8,0-6.9-3.1-6.9-6.9s3.1-6.9,6.9-6.9h20.3c3.8,0,6.9,3.1,6.9,6.9S77.4,22.9,73.6,22.9z"/>
	<path class="st1" d="M74.7,118.9H54.4c-3.8,0-6.9-3.1-6.9-6.9s3.1-6.9,6.9-6.9h20.3c3.8,0,6.9,3.1,6.9,6.9S78.5,118.9,74.7,118.9z"
		/>
	<path class="st1" d="M16,81.5c-3.8,0-6.9-3.1-6.9-6.9V54.4c0-3.8,3.1-6.9,6.9-6.9s6.9,3.1,6.9,6.9v20.3
		C22.9,78.5,19.8,81.5,16,81.5z"/>
	<path class="st1" d="M112,80.5c-3.8,0-6.9-3.1-6.9-6.9V53.3c0-3.8,3.1-6.9,6.9-6.9s6.9,3.1,6.9,6.9v20.3
		C118.9,77.4,115.8,80.5,112,80.5z"/>
</g>
</svg>
