<?xml version="1.0" encoding="utf-8"?>
<!-- Generator: Adobe Illustrator 27.2.0, SVG Export Plug-In . SVG Version: 6.00 Build 0)  -->
<svg version="1.1" id="Layer_1" xmlns="http://www.w3.org/2000/svg" xmlns:xlink="http://www.w3.org/1999/xlink" x="0px" y="0px"
	 viewBox="0 0 125.7 36" style="enable-background:new 0 0 125.7 36;" xml:space="preserve">
<style type="text/css">
	.st0{fill:#B6932F;}
</style>
<path class="st0" d="M123.8,23c-5.2,9.6-12.7,12.7-11.3,6.4c0.9-3.7,2.3-7.3,3.6-10.3c1,0,3.3,0,4.6-0.2c1.4-0.2,2.2-1.8-0.1-2
	c-0.4,0-0.8,0-3.8,0c0.5-1,0.8-1.5,0.8-2.6c0.2-2.4-3.1-3.8-3.7-1.1c-0.3,1.5-0.7,2.3-1.2,3.7c-1.7,0-0.1-0.1-2.7,0
	c-1.6,0.2-2,1.9-0.8,2.1c0.5,0.1,1.9,0.1,2.7,0.1c-0.4,1.2-1,2.7-1.4,4.1c-4.1,6.9-8,9.4-11.5,9.3c-6.4-0.1-2.3-12.3,3.8-12.1
	c3.2,0.1,1.7,3.5-0.7,4.3c-2,0.7-1.1,3.1,1.5,1.6c4.6-2.1,4.9-8.9-0.8-9c-4.4-0.1-7.7,2.9-9.3,6.6c-1.4,2.7-5.1,9.7-7.1,8.7
	c-0.5-0.2-0.6-0.9,0-2.4c0.6-1.4,1.4-3,1.9-4.5c1-3.1-3.3-4.3-4.2-2.5C83,25,79.4,32.9,77,32.6c-2.6-0.4-0.5-7.8,3.7-10.9
	c1-0.8,3.3-2,4.7,0c0.4,0.6,2.6,0.6,2.7-0.9c0.1-2.4-2.3-3.3-4-3.3c-4.9,0-8.5,3.5-10.2,7.4c-5.1,8.1-11.5,10.3-10.2,4.6
	c0.9-3.7,2.3-7.3,3.6-10.3c1,0,3.3,0,4.6-0.2c1.4-0.2,2.2-1.8-0.1-2c-0.4,0-0.8,0-3.8,0c0.5-1,0.8-1.5,0.8-2.6
	c0.2-2.4-3.1-3.8-3.7-1.1c-0.3,1.5-0.7,2.3-1.2,3.7c-1.7,0-0.1-0.1-2.7,0c-1.6,0.2-2,1.9-0.8,2.1c0.5,0.1,1.9,0.1,2.7,0.1
	c-0.4,1.2-0.9,2.6-1.4,4.1c-1.9,3.9-5.1,9.4-7.1,9.4c-0.7,0-0.9-0.4-0.9-1.3c0.1-3.4,4-7.9,4.2-11.4c0.1-1.4-1.3-2.7-2.8-2.5
	c-0.9,0.1-2,0.7-3,1.6c-3.1,3-6.8,8.7-7.9,10.6c1.2-2.9,3.5-7.5,3.8-9.9c0.3-2.3-3.3-3.6-3.9-0.9c-0.4,1.4-0.8,2.8-1.2,4.2
	c-1.4,2.7-3.4,3.8-4.3,3.7c0.9-2.5,0.1-4.5-1.3-4.5c-3.1,0-4.9,5.6-1.5,6.5c-0.9,2.1-3.1,3.9-5.5,4c-5.7,0-2.5-9.8,2.3-11.8
	c0.7-0.3,2.2-0.7,3.1,0.2c0.3,0.7,2.9,0.7,2.5-1.2c-0.4-1.7-2.9-2.4-4.3-2.4c-3.9,0-6.8,2.4-8.5,5.6c0,0,0,0-0.1,0.1
	c-5.3,9.3-15,12.1-18.8,10c-8.2-4.5,1.9-29.3,14.1-29C27.5,4,24.2,14.4,18,14.9c-3.1,0.2-2.4-3.8-0.2-5.6c1.7-1.3-0.2-2.4-1.4-1.4
	c-3.1,1.9-3.9,8.5,1.2,8.8C27.1,17.1,31.4,0.1,19.7,0C2.9-0.2-8.7,35.8,8.5,36c5.4,0.1,11.4-3.6,15.5-8.3c-0.3,3.8,1.3,7.2,5.5,7.3
	c4.4,0,7.5-4.4,8.3-6.1c1,0,2.4-0.5,3.7-1.5c-0.1,0.4-0.3,0.8-0.4,1.2c-0.5,1.4-0.8,2.6-1,3.7c-0.5,2.3,2.5,3.9,3.7,1.6
	c1.3-2.6,8.5-13.7,9.7-13.4c0.7,0-1.9,5.7-2.8,8.5c-1,3.1-0.2,6.1,3,6.1c2.3,0,4.6-2.6,6.5-5.6C59.9,32.5,61.2,35,64,35
	c3,0,6.1-2.7,8.7-5.8c-0.2,3,0.8,5.4,3.4,5.8c4.1,0.7,6.9-6.3,8.2-9.2c-0.2,0.7-0.5,1.9-0.8,2.6c-0.9,2.5-1.1,6.3,2.1,6.6
	c2.4,0.2,4.8-2.6,6.7-5.6c0.2,3.1,2,5.6,5.8,5.6c3.5,0,7.7-2.7,11-6.8c-0.1,0.3-0.1,0.6-0.1,0.9c-0.3,3.2,1,5.8,3.9,5.8
	c4.9,0,10.4-7.3,12.9-12H123.8z"/>
</svg>
