<?xml version="1.0" encoding="utf-8"?>
<!-- Generator: Adobe Illustrator 26.5.0, SVG Export Plug-In . SVG Version: 6.00 Build 0)  -->
<svg version="1.1" id="Layer_1" xmlns="http://www.w3.org/2000/svg" xmlns:xlink="http://www.w3.org/1999/xlink" x="0px" y="0px"
	 viewBox="0 0 256 256" style="enable-background:new 0 0 256 256;" xml:space="preserve">
<g>
	<path d="M190.1,239H62c-24.8,0-45-20.2-45-45V65.9c0-24.8,20.2-45,45-45h79.2c6.7,0,12.1,5.4,12.1,12.1s-5.4,12.1-12.1,12.1H62
		c-11.4,0-20.8,9.3-20.8,20.8V194c0,11.4,9.3,20.8,20.8,20.8h128.1c11.4,0,20.8-9.3,20.8-20.8v-75.3c0-6.7,5.4-12.1,12.1-12.1
		c6.7,0,12.1,5.4,12.1,12.1V194C235.1,218.9,214.9,239,190.1,239z"/>
	<g>
		<path d="M133.3,167.3l-36,0.4c-5.1,0.1-9.1-4-9.1-9.1l0.4-36L165.2,46l44.6,44.6L133.3,167.3z"/>
		<path d="M236.8,53.3l-34.1-34.1c-2.9-2.9-7.6-2.9-10.6,0L176,35.3l44.6,44.6l16.1-16.1C239.7,60.9,239.7,56.2,236.8,53.3z"/>
	</g>
</g>
</svg>
