<?xml version="1.0" encoding="utf-8"?>
<!-- Generator: Adobe Illustrator 26.5.0, SVG Export Plug-In . SVG Version: 6.00 Build 0)  -->
<svg version="1.1" id="Layer_1" xmlns="http://www.w3.org/2000/svg" xmlns:xlink="http://www.w3.org/1999/xlink" x="0px" y="0px"
	 viewBox="0 0 128 128" style="enable-background:new 0 0 128 128;" xml:space="preserve">
<style type="text/css">
	.st0{fill:#1C2E55;}
</style>
<g>
	<path class="st0" d="M64,128C28.7,128,0,99.3,0,64S28.7,0,64,0s64,28.7,64,64S99.3,128,64,128z M64,1.9C29.7,1.9,1.9,29.7,1.9,64
		s27.9,62.1,62.1,62.1s62.1-27.9,62.1-62.1S98.3,1.9,64,1.9z"/>
	<path class="st0" d="M72.3,118.7V77.5h14.9V62.1H72.3V47.5c0-2.3,1.9-4.2,4.2-4.2H89V29.7H74c-9.5,0-17.3,7.7-17.3,17.3v15.1H42.7
		v15.5h14.8v41.2H72.3z"/>
</g>
</svg>
