<?xml version="1.0" encoding="utf-8"?>
<!-- Generator: Adobe Illustrator 27.2.0, SVG Export Plug-In . SVG Version: 6.00 Build 0)  -->
<svg version="1.1" id="Layer_1" xmlns="http://www.w3.org/2000/svg" xmlns:xlink="http://www.w3.org/1999/xlink" x="0px" y="0px"
	 viewBox="0 0 128 128" style="enable-background:new 0 0 128 128;" xml:space="preserve">
<style type="text/css">
	.st0{fill:#14463D;}
</style>
<g>
	<path class="st0" d="M64,0C28.7,0,0,28.7,0,64c0,35.3,28.7,64,64,64c35.3,0,64-28.7,64-64C128,28.7,99.3,0,64,0z M64,124.2
		c-33.2,0-60.2-27-60.2-60.2c0-33.2,27-60.2,60.2-60.2c33.2,0,60.2,27,60.2,60.2C124.2,97.2,97.2,124.2,64,124.2z"/>
	<path class="st0" d="M72.3,118.7V77.5h14.9V62.1H72.3V47.5c0-2.3,1.9-4.2,4.2-4.2H89V29.7H74c-9.5,0-17.3,7.7-17.3,17.3v15.1h-14
		v15.5h14.8v41.2h14.8V118.7z"/>
</g>
</svg>
