<?xml version="1.0" encoding="utf-8"?>
<!-- Generator: Adobe Illustrator 26.4.1, SVG Export Plug-In . SVG Version: 6.00 Build 0)  -->
<svg version="1.1" id="Layer_1" xmlns="http://www.w3.org/2000/svg" xmlns:xlink="http://www.w3.org/1999/xlink" x="0px" y="0px"
	 viewBox="0 0 200 200" style="enable-background:new 0 0 200 200;" xml:space="preserve">
<style type="text/css">
	.st0{fill:#B5912F;}
	.st1{fill:#FFFFFF;}
</style>
<circle class="st0" cx="100" cy="100" r="100"/>
<g>
	<g>
		<path class="st1" d="M104.3,29.9c0,5.1-4.1,9.1-9.1,9.1c5.1,0,9.1,4,9.1,9.1c0-5.1,4.1-9.1,9.1-9.1
			C108.3,39,104.3,34.8,104.3,29.9z"/>
		<path class="st1" d="M135,29.9c0,5.1,4.1,9.1,9.1,9.1c-5.1,0-9.1,4-9.1,9.1c0-5.1-4.1-9.1-9.1-9.1C130.9,39,135,34.8,135,29.9z"/>
		<path class="st1" d="M119.6,45.4c0,5.1-4.1,9.1-9.1,9.1c5.1,0,9.1,4,9.1,9.1c0-5.1,4.1-9.1,9.1-9.1
			C123.6,54.5,119.6,50.4,119.6,45.4z"/>
		<path class="st1" d="M119.6,14.4c0,5.1-4.1,9.1-9.1,9.1c5.1,0,9.1,4,9.1,9.1c0-5.1,4.1-9.1,9.1-9.1
			C123.6,23.5,119.6,19.5,119.6,14.4z"/>
		<path class="st1" d="M113.3,148.5c0.9-1.7,1.7-7,2.7-11.4c1-4.5,2.6-6.8,2.6-6.8c-0.3-0.8-1.6-0.4-1.6-0.4c-2,0.2-2.2,4-2.7,4.6
			s-1.3-0.2-1.3-0.2c-0.1-1.1-1-1.9-1-1.9c-3.1-3.3-11.4-8.6-13.2-9.6c-1.8-1.1-2.5-0.9-2.7-0.3s-0.2,2.1-0.2,2.1s-2.2,0-3.3-0.8
			c-1-0.8-3.8-4.7-3.8-4.7c5.1,1.5,7.9-1.8,7.9-1.8c-1.7-0.3-2.5-1.8-2.5-1.8c2.7-0.3,3.9-2,3.9-2c-1.7,0-2.7-1.5-2.7-1.5
			c2.3-0.9,3.9-3.5,3.9-3.5c-0.9,0.2-3.4,0.1-3.4,0.1c2.2-1,4.2-3.4,4.2-3.4c-2.4,0.4-6.3-0.3-6.3-0.3c3.4-0.8,3.9-3.7,3.9-3.7
			s1.2,0.6,4.4,0.4c3.3-0.2,4.9-2.7,6.6-4.5c1.7-1.9,3.6-1.9,4.5-3.2c0.9-1.4,2.5-1.9,2.5-1.9s-0.8-0.5-2,0.1c-1.2,0.6-2.2,0-2.2,0
			c-3.1-1.4-5.6,0.2-6.6,1.2c-1,1-3.1,0.8-3.1,0.8c0.9-1.1,0.5-2.1,0.5-2.1c-2.9,1.6-4.5,0-8.4,0.3c-3.9,0.3-5.1,2.9-5.7,3.5
			c-0.6,0.6-0.9,0.2-0.9,0.2c-0.4-0.9,0.4-2,0.4-2s-1.4,0-1.9,1c-0.5,1.1-1.5,2.3-2.4,2.3s-2.9,0.7-2.9,0.7c0.3-0.9-0.3-2-0.3-2
			c-6.9,2.3-7.6-3.4-7.1-5.4c0.5-2,1.7-6.1,1.7-6.1s1.9,0,2.5-0.7c0.5-0.5,1.2-0.5,1.2-0.5c3.4-0.4,6.5-2.8,6.5-2.8s1.7,4.1,7.4,2.3
			c0,0,3.6-0.9,5.7-6.4c0,0,2.7-1.2,2.9-1.4c1.7,1.2,2.8,0.9,2.8,0.9c2.1-0.3,2.7-2.6,2.7-2.6s4.8,0.4,6.1,0.3
			c1.3-0.1,1.7-0.4,2.4-1.5c0.7-0.9,0.4-1.5,0.4-1.5c0.7-0.6,1.5-2.1,1.5-2.1c1.4-0.7,3.2-3.3,2.7-2.8c-0.5,0.4-1.9,0.7-1.9,0.7
			s0,0-2.7,0c-2.7,0-3,1.7-3,1.7c-2.5,0-3.3,2.2-3.3,2.2c-3.1-0.2-7.4,1.3-7.4,1.3c-4-1.7-5.9,1.9-5.9,1.9c-1,0.3-3.9,0.8-3.9,0.8
			h-3.2c0,0-2.6-3.6-5.9-3.5c-3.3,0-4.6,2-5.2,2.1c-0.6,0.2-1.9,0.5-3,0.1c-1.2-0.4,0.1-1.7,0.1-1.7s2.1,0,4.5-3.9
			c2.4-3.9,0.6-6.3,0.6-6.3c0.7-1.7,0.2-3.2,0.2-3.2l0.2-2.1l-1.7,0.5c-2-0.1-3.7,1.5-3.7,1.5s-0.7-0.7-3.3,0.7
			c-2.6,1.5-4.2,3.6-5.9,6.7c-1.7,3.1-1.5,5.7-1.5,5.7l-3.8-0.2c-3.1-0.3-3.5,3.2-3.5,3.2c-0.2,3.3,1.3,6.6,2.7,11.2
			c1.5,4.6,2.3,7.8,3,13.3c0.7,5.6,2.7,11.7,4.5,13.8s6.7,6.9,6.7,6.9c0.9,0.3,2.2-0.1,2.2-0.1c1.1,0.9,0.9,1.9,0.9,1.9
			c0.7,0.2,1.2-0.2,1.2-0.2c2.1,1.5,6.8,4.2,10.4,5.8c3.6,1.6,6.7,4.4,6.7,4.4c7.2,6.5,8.9,11.6,8.9,11.6c-1.5,0.3-0.9,2.1-1.4,2.4
			c-0.4,0.3-1.5,0.3-5,0.3c-3.1,0.1-3.3,3.3-3.3,4.1c-5.4,3.5-8.9,9.6-8.9,16.5c0,10.9,8.8,19.6,19.6,19.6s19.6-8.8,19.6-19.6
			C123.9,158.3,119.5,151.8,113.3,148.5z M110.5,136.3c-0.1,1.7,1.4,2.2,1.4,2.2c0.1,1.4-0.2,5.2-1,5.9c-0.9,0.6-2.6,0.2-2.6,0.2
			c-2-0.3-1.5-2.1-1.5-2.1c0.1-5.6-2.8-10.1-2.8-10.1C108.1,134.1,110.5,136.3,110.5,136.3z"/>
	</g>
</g>
</svg>
