<?xml version="1.0" encoding="utf-8"?>
<!-- Generator: Adobe Illustrator 26.4.1, SVG Export Plug-In . SVG Version: 6.00 Build 0)  -->
<svg version="1.1" id="Layer_1" xmlns="http://www.w3.org/2000/svg" xmlns:xlink="http://www.w3.org/1999/xlink" x="0px" y="0px"
	 viewBox="0 0 64 64" style="enable-background:new 0 0 64 64;" xml:space="preserve">
<style type="text/css">
	.st0{fill:#FFFFFF;}
</style>
<path class="st0" d="M55.4,0H8.6C3.9,0,0,3.9,0,8.6v46.8C0,60.1,3.9,64,8.6,64h23.1l0-22.9h-5.9c-0.8,0-1.4-0.6-1.4-1.4l0-7.4
	c0-0.8,0.6-1.4,1.4-1.4h5.9v-7.1c0-8.3,5-12.8,12.4-12.8h6.1c0.8,0,1.4,0.6,1.4,1.4v6.2c0,0.8-0.6,1.4-1.4,1.4l-3.7,0
	c-4,0-4.8,1.9-4.8,4.7V31h8.8c0.8,0,1.5,0.7,1.4,1.6L51,39.9c-0.1,0.7-0.7,1.2-1.4,1.2h-7.9l0,22.9h13.7c4.8,0,8.6-3.9,8.6-8.6V8.6
	C64,3.9,60.1,0,55.4,0z"/>
</svg>
