<?xml version="1.0" encoding="utf-8"?>
<!-- Generator: Adobe Illustrator 26.5.0, SVG Export Plug-In . SVG Version: 6.00 Build 0)  -->
<svg version="1.1" id="Capa_1" xmlns="http://www.w3.org/2000/svg" xmlns:xlink="http://www.w3.org/1999/xlink" x="0px" y="0px"
	 viewBox="0 0 256 256" style="enable-background:new 0 0 256 256;" xml:space="preserve">
<style type="text/css">
	.st0{fill:#FFFFFF;}
</style>
<g>
	<path class="st0" d="M233.5,61.2h-22.7V38.5c0-5-4-9-9-9h-61.5C139.6,14,128,1.4,113-0.8c-1.5-0.2-3.1-0.3-4.7-0.3
		c-17.2,0-31.2,13.6-32,30.6H23.9c-5,0-9,4-9,9v177.8c0,5,4,9,9,9h22.7V248c0,5,4,9,9,9h177.8c5,0,9-4,9-9V70.2
		C242.5,65.2,238.5,61.2,233.5,61.2z M140.3,51V40.4h59.4v20.7h-59.4V51z M94.9,14.7c3.6-3,8.3-4.8,13.4-4.8c1.7,0,3.3,0.2,4.9,0.6
		c8.8,2.1,15.4,9.7,16.1,19h-42C87.7,23.5,90.6,18.2,94.9,14.7z M46.6,70.2v144.1H25.9V40.4h103.4V51v10.1H55.7
		C50.7,61.2,46.6,65.2,46.6,70.2z M129.3,72.2v3.7v8.7c0,6.8-5.5,12.3-12.3,12.3c-1.3,0-2.6-0.2-3.8-0.6c-5-1.6-8.5-6.3-8.5-11.7
		V72.2H129.3z M231.5,246H57.6v-20.7v-11V72.2h36v12.4c0,2.6,0.4,5.2,1.3,7.5c2.7,8,9.6,14,18.1,15.5c1.3,0.2,2.6,0.3,4,0.3
		c12.9,0,23.3-10.5,23.3-23.3v-8.7v-3.7h59.4h11h20.7V246z"/>
	<path class="st0" d="M196.6,136.7H95.5c-3,0-5.5,2.5-5.5,5.5s2.5,5.5,5.5,5.5h101.1c3,0,5.5-2.5,5.5-5.5S199.7,136.7,196.6,136.7z"
		/>
	<path class="st0" d="M196.6,167.4H95.5c-3,0-5.5,2.5-5.5,5.5s2.5,5.5,5.5,5.5h101.1c3,0,5.5-2.5,5.5-5.5S199.7,167.4,196.6,167.4z"
		/>
	<path class="st0" d="M196.6,198H95.5c-3,0-5.5,2.5-5.5,5.5s2.5,5.5,5.5,5.5h101.1c3,0,5.5-2.5,5.5-5.5S199.7,198,196.6,198z"/>
</g>
</svg>
