<?xml version="1.0" encoding="utf-8"?>
<!-- Generator: Adobe Illustrator 26.4.1, SVG Export Plug-In . SVG Version: 6.00 Build 0)  -->
<svg version="1.1" id="Layer_1" xmlns="http://www.w3.org/2000/svg" xmlns:xlink="http://www.w3.org/1999/xlink" x="0px" y="0px"
	 viewBox="0 0 256.8 100" style="enable-background:new 0 0 256.8 100;" xml:space="preserve">
<style type="text/css">
	.st0{fill:#FFFFFF;}
</style>
<g>
	<g>
		<g>
			<g>
				<g>
					<g>
						<path id="SVGID_1_" class="st0" d="M146.9,51.2c0.5,2.3,3.5,0.4,3.5,0.4c1.2,0.8,0.8,1.8,1.1,1.8c1.6-0.5,1.9-3.1,2.2-5.7
							c0.3-2.6,2.6-3,2.6-3C150.5,44.9,146.4,48.9,146.9,51.2 M118.9,75.2c-0.6-0.6-0.8-1.4-0.8-2.6c0-2.2,0.7-4.5,2-6.8
							c1.3-2.2,2.8-3.8,4.3-4.7c1.6-0.8,3.3-1.3,5.4-1.3c0.9,0,1.9,0.1,3.1,0.3l-2.9,8.3c-0.9,2.4-2.2,4.3-4,5.7S122.6,76,121,76
							C120.1,75.9,119.4,75.7,118.9,75.2 M171.1,75.2c-0.6-0.6-0.8-1.4-0.8-2.6c0-2.2,0.6-4.5,2-6.8c1.3-2.2,2.8-3.8,4.3-4.7
							c1.6-0.8,3.4-1.3,5.4-1.3c0.9,0,1.9,0.1,3.1,0.3l-2.9,8.3c-0.9,2.4-2.2,4.3-4,5.7s-3.5,1.9-5.1,1.9
							C172.3,75.9,171.6,75.7,171.1,75.2 M225.7,75.2c-0.6-0.6-0.9-1.3-0.9-2.2c0-2,0.7-4.3,2.1-7.1c1.4-2.7,2.8-4.5,4.2-5.5
							s2.9-1.4,4.5-1.4c0.8,0,2.1,0.2,3.9,0.5l-1.6,5.4c-1.1,3.5-1.9,5.7-2.5,6.6c-1.1,1.4-2.4,2.6-4.2,3.6c-1.2,0.7-2.4,1-3.3,1
							C227.1,76.1,226.3,75.8,225.7,75.2 M252.5,42.2c-2,0.7-3.8,1.5-5.4,2.7c-1.6,1.2-2.9,2.5-3.8,4.1c-1,1.6-2,4.1-3.1,7.6
							c-1-0.2-1.8-0.2-2.2-0.2c-2.2,0-4.8,0.8-7.5,2.3c-2.8,1.6-5.2,4-7.4,7.3c-1.9,2.9-3.1,5.4-3.3,7.8c-0.1,0-0.1,0.1-0.2,0.1
							c-0.1,0.1-1.7,1-2.4,1.3c-0.6,0.2-2.6,1.2-3.9,1.3s-1.4-0.8-1.2-1.8s1.1-3.7,1.1-3.7s1.6-4.1,1.6-4.2c0.1-0.2,1.2-3.1,2-5.2
							c0.8-2,0.6-3.2,0.6-3.2c-0.2-2-2.1-2.2-3.2-2.2c-1.1,0.1-2.4,0.3-6.4,2.5c-4,2.2-6.6,4.5-6.6,4.5c0.1,0,1.3-4.4,1.3-4.4
							c0.3-1.5-0.4-2.1-0.4-2.1c-1.1-1.1-3-0.5-3-0.5c-3.9,0.8-6.9,4-6.9,4c0.4-0.3,3.6-1.4,4.6-1.2c0.9,0.2,0.4,1.8,0.4,1.8
							c-0.1,0.2-1.1,3.7-1.2,3.8s-2,6.7-2.2,7.6c-0.1,0.2-0.2,0.8-0.4,1.5c-0.1-0.1-0.2,0-0.8,0.3c-0.8,0.4-4,1.9-6.1,1.9
							c-0.6,0-0.9-0.3-0.9-0.8c0-0.6,0.2-1.8,0.8-3.7c0.9-3.5,1.9-6.6,2.9-9.3l2.6-6.8c0,0-0.8-0.1-1.9,0.5
							c-1.1,0.7-1.3,0.8-1.3,0.8c-0.8,0-1.5-0.1-2.2-0.1c-2.9,0-5.3,0.3-7.1,1c-2.4,0.9-4.7,2.2-6.9,4.2c-2.2,1.9-3.9,3.9-5.2,6.2
							c-1.2,2.2-1.9,4.2-1.9,6c-0.9,0.4-2.1,1-3.8,1.7c-1,0.4-2.2,0.6-2.8,0.6c-0.6,0-1-0.3-1-0.8c0-0.2,0.9-3.2,2.6-8.7l3.4-11.2
							c1.2-4,2.1-6.7,2.6-8c0.7-1.9,2.8-3.7,3.4-4.1c1.6-1,3.4-1.5,4.6-1.6c0.6,0,0.4-0.5-0.4-0.5c-1.6,0-3.4,0.2-5.9,1.4
							c-2.6,1.2-4.6,2.9-6,5.1c-0.9,1.5-2.1,4.3-3.4,8.5l-3.7,11.7c-0.7,2.2-1.2,4.1-1.6,5.6h-0.1c-0.1,0.1-0.4,0.2-1.9,0.9
							s-3.1,1.2-4.1,1.4s-1.3,0.1-1.6-0.2s0-1.3,0-1.3c0.1-0.6,0.9-3.2,0.9-3.3c0.1-0.1,2.1-5.9,2.1-6.1c0.1-0.2,1.9-5.2,1.9-5.2
							c0.5-1.3,0.4-2,0.4-2c0-0.8-0.9-1.6-1.9-1.8c-1.1-0.2-2.9,0.4-2.9,0.4c-0.7,0.2-2.1,0.8-3,1.3s-2.6,1.8-2.6,1.8
							c1.4-0.6,3.1-0.8,3.9-0.8c0.9-0.1,1.1,0.3,1.1,0.3c0.4,0.6,0,1.5-0.1,1.8s-1.1,2.7-1.1,2.7c-1.4,3.3-2.7,7.6-3,8.4
							c-0.1,0.3-0.2,0.8-0.4,1.4c-0.2,0.1-0.5,0.2-0.8,0.4c-0.8,0.4-4,1.9-6.1,1.9c-0.6,0-0.9-0.3-0.9-0.8c0-0.6,0.2-1.8,0.8-3.7
							c0.9-3.5,1.9-6.6,2.9-9.3l2.6-6.8c0,0-0.8-0.1-1.9,0.5c-1.1,0.7-1.3,0.8-1.3,0.8c-0.8,0-1.5-0.1-2.2-0.1c-2.9,0-5.3,0.3-7.1,1
							c-2.4,0.9-4.7,2.2-6.9,4.2c-2.2,1.9-3.9,3.9-5.2,6.2c-1.1,1.9-1.8,3.8-1.9,5.4c-0.3,0.2-0.6,0.3-0.8,0.6
							c-1.4,1.1-4.6,2.3-5.9,2.3c-0.2,0-0.4-0.1-0.6-0.2c-0.2-0.1-0.2-0.3-0.2-0.6c0-0.8,0.2-1.6,0.4-2.5s1.2-3.3,2.7-7.1
							c1.1-2.8,1.8-4.7,2.1-5.7c0.2-0.6,0.3-1.2,0.3-1.8c0-0.8-0.2-1.3-0.8-1.7s-1.2-0.6-2.1-0.6c-1.2,0-2.7,0.5-4.6,1.3
							c-3.2,1.5-6.2,3.4-8.9,5.7L98.4,50c0.7-2.5,2.6-4.6,3.3-5.2c2.4-2.3,5.2-2.7,6.1-3.1c0.4-0.2,0-0.2,0-0.2s-3.1-0.1-5.7,1
							c-2.4,1-4.4,2.4-5.9,4.1c-1.5,1.7-2.8,4.2-3.7,7.3l-5,17.1c-0.6,2-1.4,4.5-2.5,7.7h5.1l2.7-9.3c0.6-2.1,1.4-3.6,2.3-4.6
							c1.6-1.6,3.3-2.9,5.3-3.9c1.4-0.8,2.7-1.1,3.6-1.1c0.8,0,1.2,0.3,1.2,0.9c0,0.3-0.4,1.7-1.2,3.8c-1.8,4.5-2.9,7.4-3.2,8.8
							c-0.4,1.3-0.6,2.4-0.6,3.1c0,1,0.2,1.8,0.8,2.2s1.2,0.7,1.9,0.7c0.9,0,2.2-0.3,3.7-1.1c1.8-0.8,4.3-2.7,6.4-4.3
							c0,0.2,0,0.3,0,0.4c0,1.6,0.5,2.8,1.4,3.8c0.7,0.7,1.7,1.1,3.1,1.1c1.4,0,2.9-0.4,4.6-1.2c2.7-1.3,5.1-2.9,7-4.7l-1.4,3.7
							c-0.2,0.4-0.3,0.8-0.3,1.1c0,0.4,0.2,0.7,0.4,0.9c0.3,0.2,0.8,0.3,1.3,0.3c0.8,0,1.7-0.2,2.6-0.3c1.4-0.3,2.8-0.9,4.2-1.7
							c0.6-0.3,2.7-1.7,5-3.3c-0.2,0.8-0.4,1.6-0.4,2.1c-0.1,0.9-0.2,1.8,0.4,2.5c0.7,0.6,1.6,0.8,3.3,0.6c1.6-0.3,3.8-1.6,4.4-1.9
							c0.5-0.3,3.8-2.4,4.6-3.1c-0.3,1.2-0.4,2.2-0.4,2.9c0,0.7,0.2,1.3,0.7,1.7c0.4,0.4,1.1,0.6,1.8,0.6c1.6,0,3.6-0.7,6.1-1.9
							c1.4-0.8,2.8-1.6,4-2.4c0.1,1.3,0.6,2.4,1.4,3.3c0.7,0.7,1.8,1.1,3.1,1.1c1.4,0,2.9-0.4,4.6-1.2c2.7-1.3,5.1-2.9,7.1-4.7
							l-1.4,3.7c-0.2,0.4-0.3,0.8-0.3,1.1c0,0.4,0.1,0.7,0.4,0.9c0.3,0.2,0.8,0.3,1.4,0.3c0.9,0,1.7-0.2,2.6-0.3
							c1.4-0.3,2.8-0.9,4.2-1.7c0.8-0.4,2.4-1.4,4.9-3.2c-0.6,1.9-1.6,4.6-1.6,4.6h5.1c0-0.2,1.5-5.1,1.6-5.2s1.1-3.8,1.2-4.2
							s0.6-1.7,1.1-2.8s1.8-2.5,4-4s3.6-2,3.8-2.1c0.2-0.2,1.6-0.8,2.7-0.5c1.1,0.2,0.9,0.8,0.8,1.3c-0.1,0.5-1.1,3.4-1.1,3.5
							c-0.1,0.1-1.9,4.7-1.9,5.1c-0.1,0.3-1.1,2.6-1.6,5.3c-0.6,2.7,0.4,3.6,0.4,3.6c1.4,1.4,3.6,0.6,4.8,0.2s3.6-1.9,4.4-2.4
							c0.7-0.4,2.6-1.9,3-2.2c0,0.2-0.1,0.4-0.1,0.6c0,1.6,0.4,2.8,1.2,3.7c0.8,0.8,1.9,1.2,3.1,1.2c1.4,0,3.1-0.4,4.9-1.2
							c1.9-0.8,4.1-2.4,6.9-4.7l-1.3,3.3c-0.2,0.7-0.4,1.2-0.4,1.5s0.1,0.6,0.5,0.8s0.8,0.3,1.4,0.3c1.2,0,2.9-0.4,4.9-1.3
							c1.5-0.7,3.8-2,6.9-4c0,0,0.1-0.4-0.4-0.2c-0.4,0.2-1.1,0.6-4.6,1.8c-0.6,0.2-1.5,0.3-1.9,0.3c-0.7,0-1.2-0.3-1.2-1.1
							c0-0.6,0.3-1.9,0.9-3.8l4.9-16.1c1.3-4.3,2.1-6.8,2.6-7.5c0.6-1.3,2-2.9,2.6-3.4c2.9-2.4,4.1-2.2,5.8-2.4
							c0.5,0,0.6-0.4,0.1-0.4C255.2,41.5,254.5,41.5,252.5,42.2 M97.8,30.4c0.5-0.2,1-0.5,1.5-0.6c0,0,3.3-1.9,7.8-2
							c0,0,2.7-0.1,3.4,0.5c0,0,0.9,0.5-0.2,1.3c0,0-1.3,1.1-6.3,1.2c-0.1,0-0.2,0-0.3,0C102,30.9,99.9,30.7,97.8,30.4 M108.6,25.5
							c0,0-2.5,0-7.8,2.5c0,0-2.1,0.9-4.6,2.2c-4-0.5-7.8-1.2-8.5-1.4c-1.2-0.2-12.5-3-22-2.1C56,27.6,53,33.6,52.8,33.9
							c-0.2,0.3-4.6,7,1.3,13.9c0,0-2.8-5.7,0.1-10.5c0,0,2.3-4.3,8.4-5.8c0,0,7-1.5,15.6-0.4c0,0,12.7,1.4,14.1,1.6
							c-1.6,1-3.2,2-3.7,2.3c-1,0.6-4.4,3.5-6.9,6.8c-2.4,3.2-5.1,9-5.9,11.7c0,0-2.1,5.7-2.3,6.7c0,0-3.4,11-3.7,11.6
							c0,0-0.9,3.4-3.1,6.2c0,0-2.9,3.8-4.2,4.8c-1.3,1.1-6.2,5.3-13.2,6.4c0,0,3.2,1.1,13.2-3.9c0,0,7.8-4.9,10-8.3
							s3.6-6.4,4.3-9.3c0,0,3.5-12.5,4.2-15s2.8-8.6,3.7-10.1c0.8-1.4,2.4-4.3,3.6-5.3c0.7-0.7,2.6-2.6,5.4-4.5
							c2.5,0.2,8.2,0.7,9.7,0.5c1.8-0.2,8.6-0.5,9.4-4.5c0,0,0.9-3.3-3.6-3.3C108.9,25.5,108.8,25.5,108.6,25.5"/>
					</g>
				</g>
			</g>
			<g>
				<g>
					<g>
						<path id="SVGID_00000142144683302214955470000013805736127891338637_" class="st0" d="M84.8,91.2l-0.1,2.2H85
							c0.2-0.7,0.3-1.2,0.6-1.3c0.2-0.2,0.8-0.3,1.4-0.3h0.7V98c0,0.6-0.1,0.9-0.2,1c-0.2,0.2-0.4,0.2-1,0.2v0.2h3.7v-0.2
							c-0.5-0.1-0.8-0.1-1-0.2S89,98.7,89,98.2v-6.5h0.7c0.8,0,1.2,0.1,1.4,0.3c0.2,0.2,0.4,0.7,0.6,1.3H92l-0.1-2.2H84.8z
							 M109,91.2v0.2c0.4,0.1,0.8,0.2,0.9,0.3c0.2,0.2,0.2,0.6,0.2,1.3v3.3c0,0.8-0.1,1.4-0.3,1.8c-0.3,0.7-1.1,1.1-2.1,1.1
							c-0.9,0-1.6-0.3-1.9-1c-0.2-0.4-0.2-0.9-0.2-1.6v-4.1c0-0.4,0.1-0.8,0.2-0.9c0.2-0.2,0.4-0.2,0.9-0.2v-0.2h-3.6v0.2
							c0.5,0.1,0.8,0.1,0.9,0.2c0.2,0.2,0.2,0.4,0.2,0.8v3.9c0,0.8,0.2,1.4,0.4,1.9c0.5,0.9,1.4,1.3,2.8,1.3c1.4,0,2.3-0.4,2.8-1.3
							c0.2-0.5,0.4-1.2,0.4-2.1V93c0-0.7,0.1-1.1,0.2-1.2c0.2-0.2,0.5-0.3,0.9-0.3v-0.2L109,91.2L109,91.2z M115.6,92.1
							c0-0.2,0.1-0.3,0.1-0.3c0.1-0.1,0.3-0.1,0.7-0.1c0.6,0,0.9,0.1,1.3,0.2c0.6,0.2,0.9,0.8,0.9,1.5s-0.3,1.3-1,1.6
							c-0.4,0.2-1.1,0.2-1.9,0.3L115.6,92.1L115.6,92.1z M113.2,91.2v0.2c0.4,0.1,0.8,0.2,0.9,0.2c0.2,0.2,0.2,0.4,0.2,0.8V98
							c0,0.5-0.1,0.8-0.2,1c-0.1,0.2-0.4,0.2-0.9,0.3v0.2h3.5v-0.2c-0.5-0.1-0.8-0.1-0.9-0.2c-0.2-0.2-0.2-0.4-0.2-0.9v-2.5l0.6-0.1
							l3.2,3.9h2.1v-0.2c-0.2,0-0.4-0.1-0.6-0.2c-0.2-0.1-0.3-0.2-0.5-0.4l-2.6-3.2c0.7-0.1,1.2-0.3,1.7-0.7s0.6-0.8,0.6-1.4
							c0-0.9-0.4-1.6-1.4-1.9c-0.5-0.2-1.1-0.3-1.8-0.3L113.2,91.2L113.2,91.2z M122.6,91.2v0.2c0.5,0.1,0.8,0.1,1,0.2
							s0.2,0.4,0.2,0.9v5.7c0,0.4-0.1,0.8-0.2,0.9c-0.2,0.1-0.5,0.2-1,0.2v0.2h3.7v-0.2c-0.5-0.1-0.8-0.1-1-0.2s-0.2-0.4-0.2-0.9
							v-5.7c0-0.4,0.1-0.8,0.2-0.9c0.2-0.2,0.5-0.2,1-0.2v-0.2H122.6z M143.9,91.2l-2.9,6.3l-2.9-6.3h-2.5v0.2
							c0.5,0.1,0.9,0.1,1,0.2s0.2,0.4,0.2,0.9v5.2c0,0.7-0.1,1.1-0.2,1.2c-0.1,0.2-0.5,0.3-1,0.3v0.2h2.9v-0.2
							c-0.4-0.1-0.8-0.2-0.9-0.3c-0.2-0.2-0.3-0.7-0.3-1.3v-5.1l3.2,6.9h0.2l3.2-7.2V98c0,0.6-0.1,0.8-0.2,1s-0.4,0.2-0.9,0.3v0.2
							h3.6v-0.2c-0.4-0.1-0.8-0.1-0.9-0.2c-0.1-0.2-0.2-0.4-0.2-0.9v-5.7c0-0.4,0.1-0.8,0.2-0.8c0.1-0.2,0.4-0.2,0.9-0.2v-0.2H143.9
							L143.9,91.2z M170,91.2v0.2c0.2,0,0.4,0.1,0.6,0.1c0.2,0.1,0.4,0.2,0.4,0.5c0,0.1,0,0.2-0.1,0.2c-0.1,0.2-0.1,0.4-0.2,0.7
							l-1.6,4.3l-1.9-4.8c-0.1-0.2-0.1-0.3-0.1-0.3c0-0.1,0-0.1,0-0.2c0-0.2,0.1-0.3,0.3-0.4c0.1-0.1,0.4-0.1,0.6-0.1v-0.2h-3.4v0.2
							c0.2,0,0.4,0.1,0.6,0.1c0.2,0.1,0.4,0.3,0.5,0.6l0.6,1.6l-1.4,3.6l-1.9-4.8c-0.1-0.1-0.1-0.2-0.1-0.3c0-0.1-0.1-0.2-0.1-0.2
							c0-0.2,0.1-0.3,0.3-0.4c0.1-0.1,0.3-0.1,0.6-0.1v-0.2h-3.1v0.2c0.4,0,0.6,0.2,0.8,0.4c0.2,0.2,0.5,1,0.9,2.2l1.1,3l0.9,2.6
							h0.2l1.9-5.3l1.4,3.9l0.6,1.4h0.2l0.8-2.3l0.5-1.4l1.4-3.8c0.1-0.3,0.2-0.5,0.5-0.6c0.1-0.1,0.3-0.1,0.5-0.2v-0.2H170z
							 M184.1,92.1c0-0.2,0.1-0.3,0.1-0.3c0.1-0.1,0.3-0.1,0.6-0.1c0.6,0,0.9,0.1,1.3,0.2c0.6,0.2,0.9,0.8,0.9,1.5s-0.4,1.3-1,1.6
							c-0.4,0.2-1.1,0.2-1.9,0.3V92.1z M181.7,91.2v0.2c0.4,0.1,0.8,0.2,0.9,0.2c0.1,0.2,0.2,0.4,0.2,0.8V98c0,0.5-0.1,0.8-0.2,1
							c-0.1,0.2-0.4,0.2-0.9,0.3v0.2h3.5v-0.2c-0.4-0.1-0.8-0.1-0.9-0.2c-0.1-0.2-0.2-0.4-0.2-0.9v-2.5l0.6-0.1l3.2,3.9h2.1v-0.2
							c-0.2,0-0.4-0.1-0.6-0.2c-0.1-0.1-0.3-0.2-0.5-0.4l-2.6-3.2c0.7-0.1,1.2-0.3,1.7-0.7c0.4-0.3,0.6-0.8,0.6-1.4
							c0-0.9-0.4-1.6-1.4-1.9c-0.5-0.2-1.1-0.3-1.9-0.3L181.7,91.2L181.7,91.2z M193.7,99c-0.1-0.1-0.1-0.2-0.1-0.4v-6.4
							c0-0.2,0.1-0.3,0.1-0.4c0.1-0.1,0.3-0.1,0.6-0.1c1.1,0,2.1,0.3,2.8,0.8c0.8,0.7,1.2,1.7,1.2,2.9c0,1.4-0.5,2.5-1.4,3.1
							c-0.6,0.4-1.4,0.6-2.4,0.6C194,99.1,193.8,99.1,193.7,99 M191.1,91.2v0.2c0.4,0.1,0.8,0.1,0.9,0.2c0.1,0.2,0.2,0.4,0.2,0.9
							v5.7c0,0.4-0.1,0.8-0.2,0.9c-0.1,0.1-0.4,0.2-0.9,0.2v0.2h3.5c0.9,0,1.8-0.1,2.4-0.3c0.4-0.1,0.7-0.3,1-0.6
							c0.6-0.4,0.9-0.8,1.1-1.4c0.2-0.6,0.4-1.2,0.4-1.8c0-1.8-0.8-3-2.1-3.7c-0.8-0.4-1.8-0.6-2.9-0.6h-3.4V91.2z M156.4,92.8
							l1.4,3.5h-2.9L156.4,92.8z M156.6,91.1l-2.6,6.2c-0.4,0.9-0.7,1.5-0.9,1.7c-0.1,0.2-0.4,0.3-0.8,0.3v0.2h2.5v-0.2
							c-0.3,0-0.5-0.1-0.6-0.1c-0.1-0.1-0.2-0.2-0.2-0.4c0-0.1,0.1-0.2,0.1-0.4s0.2-0.7,0.6-1.5h3.4l0.5,1.2
							c0.1,0.2,0.1,0.3,0.1,0.5c0.1,0.2,0.1,0.2,0.1,0.3c0,0.2-0.1,0.3-0.1,0.3c-0.1,0.1-0.4,0.1-0.7,0.1v0.2h3.2v-0.2
							c-0.3-0.1-0.5-0.1-0.6-0.2c-0.1-0.1-0.3-0.4-0.5-0.8l-3.1-7.2L156.6,91.1L156.6,91.1z M175.7,92.8l1.4,3.5h-2.9L175.7,92.8z
							 M175.9,91.1l-2.6,6.2c-0.4,0.9-0.6,1.5-0.9,1.7c-0.1,0.2-0.4,0.3-0.8,0.3v0.2h2.5v-0.2c-0.3,0-0.5-0.1-0.6-0.1
							c-0.1-0.1-0.2-0.2-0.2-0.4c0-0.1,0.1-0.2,0.1-0.4s0.2-0.7,0.6-1.5h3.4l0.5,1.2c0.1,0.2,0.1,0.3,0.2,0.5s0.1,0.2,0.1,0.3
							c0,0.2-0.1,0.3-0.1,0.3c-0.1,0.1-0.4,0.1-0.7,0.1v0.2h3.2v-0.2c-0.3-0.1-0.5-0.1-0.6-0.2c-0.1-0.1-0.3-0.4-0.5-0.8l-3.1-7.2
							L175.9,91.1L175.9,91.1z M95.6,98.3c-0.6-0.7-0.8-1.7-0.8-2.9c0-1.3,0.2-2.3,0.8-2.9c0.6-0.7,1.2-0.9,1.9-0.9
							c0.8,0,1.3,0.3,1.9,0.9s0.8,1.6,0.8,3c0,1.3-0.2,2.3-0.8,3c-0.6,0.6-1.2,0.9-1.9,0.9C96.7,99.3,96.1,98.9,95.6,98.3
							 M94.6,92.1c-0.8,0.8-1.2,1.9-1.2,3.2c0,1.3,0.4,2.3,1.2,3.2c0.8,0.8,1.8,1.2,2.9,1.2c1.1,0,2.1-0.3,2.8-1.1
							c0.8-0.8,1.3-1.9,1.3-3.3c0-1.3-0.4-2.4-1.2-3.2c-0.8-0.8-1.8-1.1-2.9-1.1C96.4,91,95.4,91.3,94.6,92.1 M132.9,91
							c-0.1,0.2-0.1,0.2-0.1,0.3c-0.1,0.1-0.1,0.1-0.3,0.1c-0.1,0-0.3-0.1-0.7-0.2c-0.4-0.2-0.8-0.2-1.1-0.2c-0.7,0-1.2,0.2-1.7,0.7
							c-0.4,0.4-0.6,0.9-0.6,1.6c0,0.5,0.2,0.9,0.6,1.3c0.2,0.2,0.4,0.4,0.8,0.7l1.1,0.7c0.6,0.4,1.1,0.7,1.2,0.9
							c0.3,0.3,0.4,0.7,0.4,1.1s-0.1,0.8-0.4,1.1s-0.6,0.4-1.1,0.4c-0.8,0-1.4-0.3-1.9-0.8c-0.3-0.3-0.6-0.8-0.8-1.3h-0.3l0.4,2.7
							h0.3c0-0.1,0.1-0.2,0.1-0.3c0.1-0.1,0.1-0.2,0.3-0.2c0.1,0,0.3,0.1,0.8,0.2s0.9,0.2,1.2,0.2c0.8,0,1.4-0.2,1.9-0.7
							c0.5-0.4,0.8-1,0.8-1.7c0-0.5-0.1-0.9-0.4-1.3c-0.3-0.3-0.8-0.8-1.4-1.2l-1.1-0.7c-0.4-0.2-0.7-0.5-0.9-0.8s-0.3-0.5-0.3-0.8
							s0.1-0.7,0.4-0.8s0.6-0.3,0.9-0.3c0.4,0,0.9,0.2,1.4,0.5c0.4,0.3,0.8,0.9,1,1.7h0.3l-0.3-2.7h-0.4L132.9,91L132.9,91z
							 M206.3,91c-0.1,0.2-0.1,0.2-0.1,0.3c-0.1,0.1-0.1,0.1-0.4,0.1c-0.1,0-0.3-0.1-0.7-0.2c-0.4-0.2-0.8-0.2-1.1-0.2
							c-0.7,0-1.2,0.2-1.7,0.7c-0.4,0.4-0.6,0.9-0.6,1.6c0,0.5,0.2,0.9,0.6,1.3c0.2,0.2,0.4,0.4,0.8,0.7l1.1,0.7
							c0.6,0.4,1.1,0.7,1.2,0.9c0.3,0.3,0.4,0.7,0.4,1.1s-0.1,0.8-0.4,1.1s-0.6,0.4-1.1,0.4c-0.8,0-1.4-0.3-1.9-0.8
							c-0.3-0.3-0.6-0.8-0.8-1.3h-0.3l0.4,2.7h0.3c0-0.1,0.1-0.2,0.1-0.3c0.1-0.1,0.1-0.2,0.3-0.2c0.1,0,0.3,0.1,0.7,0.2
							c0.4,0.2,0.9,0.2,1.2,0.2c0.8,0,1.4-0.2,1.9-0.7c0.5-0.4,0.8-1,0.8-1.7c0-0.5-0.1-0.9-0.4-1.3c-0.3-0.3-0.8-0.8-1.5-1.2
							l-1.1-0.7c-0.4-0.2-0.8-0.5-0.9-0.8c-0.2-0.2-0.3-0.5-0.3-0.8s0.1-0.7,0.4-0.8c0.2-0.2,0.6-0.3,0.9-0.3c0.4,0,0.9,0.2,1.4,0.5
							c0.4,0.3,0.8,0.9,1,1.7h0.3l-0.3-2.7h-0.2L206.3,91L206.3,91z"/>
					</g>
				</g>
			</g>
			<g>
				<path class="st0" d="M220.1,92.6c0,2.3-3.2,4.1-4.4,5.8h3.6c0.9,0,1.1-0.2,1.2-0.9h0.3c0,1.2,0,1.8,0.1,2.3
					c-0.3-0.1-1.6-0.1-2.6-0.1h-4.2v-0.3c1.4-1.6,4.4-3.6,4.4-6.5c0-1.3-0.7-1.9-1.8-1.9c-0.9,0-1.8,0.6-2.4,1.7l-0.3-0.2
					c0.6-1.1,1.6-2.2,3.5-2.2C219.1,90.3,220.1,91.1,220.1,92.6z"/>
				<path class="st0" d="M231.3,95c0,2.8-1.8,5-4.5,5c-2.5,0-4.3-1.8-4.3-4.7c0-2.8,1.8-4.9,4.5-4.9C229.5,90.3,231.3,92.2,231.3,95
					z M224.3,95.2c0,3.2,1.2,4.4,2.8,4.4c1.6,0,2.6-1.7,2.6-4.6c0-3.2-1.2-4.4-2.8-4.4C225.3,90.7,224.3,92.3,224.3,95.2z"/>
				<path class="st0" d="M239.3,92.6c0,2.3-3.2,4.1-4.4,5.8h3.6c0.9,0,1.1-0.2,1.2-0.9h0.3c0,1.2,0,1.8,0.1,2.3
					c-0.3-0.1-1.6-0.1-2.6-0.1h-4.2v-0.3c1.4-1.6,4.4-3.6,4.4-6.5c0-1.3-0.7-1.9-1.8-1.9c-0.9,0-1.8,0.6-2.4,1.7l-0.3-0.2
					c0.6-1.1,1.6-2.2,3.5-2.2C238.3,90.3,239.3,91.1,239.3,92.6z"/>
				<path class="st0" d="M245.3,97.9c0,1.2,0.5,1.4,1.7,1.4v0.3c-0.5,0-1.5-0.1-2.4-0.1c-1.1,0-2.2,0.1-2.8,0.1v-0.3
					c1.1,0,1.9-0.3,1.9-1.4v-4.3c0-1.7-0.4-1.9-2.1-1.9v-0.4c1.7-0.1,2.8-0.2,3.6-0.9L245.3,97.9L245.3,97.9z"/>
			</g>
		</g>
		<g>
			<path class="st0" d="M221,51.2v-0.5c2.2-0.2,2.4-0.2,2.4-1.8v-7.7c0-1-0.1-1-1-1.2l-1-0.1v-0.5c1.3-0.2,2.6-0.5,3.6-1V49
				c0,1.5,0.1,1.6,2.4,1.8v0.5H221z"/>
			<path class="st0" d="M230,40.9l0.9-1.2c0.6-0.7,1.5-1.2,2.6-1.2c1.9,0,3.1,1.2,3.1,2.7c0,0.6-0.2,1.1-0.6,1.5
				c-0.3,0.3-0.9,0.7-1.4,1.1c1.9,0.4,2.9,1.6,2.9,3.1c0,3.2-3.9,4.7-5.3,4.7c-0.9,0-1.8-0.4-2.1-0.7c-0.2-0.2-0.3-0.5-0.3-0.7
				c0-0.3,0.3-0.6,0.4-0.8c0.1-0.1,0.4-0.2,0.5,0c0.6,0.5,1.4,1,2.5,1c1.4,0,2.4-1.1,2.4-3c0-1.8-1.4-2.5-2.6-2.5
				c-0.4,0-1,0.1-1.4,0.2l-0.1-0.6c1.8-0.6,3.2-1.4,3.2-2.8c0-1.2-0.8-1.8-1.9-1.8c-1.1,0-2,0.8-2.5,1.6L230,40.9z"/>
			<path class="st0" d="M240.6,39.8c-0.2,0.1-0.4,0.2-0.4,0.2c-0.7,0-1.1-0.4-1.1-1.3v-3.2h-0.8l-0.1-0.2l0.3-0.3h0.5v-0.9
				c0.2-0.2,0.5-0.5,0.8-0.7h0.1c0,0.5-0.1,1.1-0.1,1.6h1.2c0.1,0.1,0.1,0.3-0.1,0.5H240v2.8c0,0.9,0.4,1,0.6,1
				c0.2,0,0.5-0.1,0.6-0.2l0.1,0.3L240.6,39.8z"/>
			<path class="st0" d="M244.8,39.8v-0.3c0.6,0,0.7-0.1,0.7-0.8v-1.8c0-0.9-0.4-1.3-1.1-1.3c-0.4,0-0.9,0.2-1.1,0.5v2.5
				c0,0.7,0.1,0.8,0.8,0.8v0.3h-2.4v-0.2c0.6,0,0.8-0.1,0.8-0.8v-5.2c0-0.5-0.1-0.7-0.8-0.8v-0.3c0.6,0,1.2-0.2,1.6-0.3
				c0,0.4,0,0.9,0,1.3v2.3c0.4-0.4,1-0.8,1.6-0.8c0.9,0,1.5,0.5,1.5,1.8v1.9c0,0.7,0.1,0.8,0.7,0.8v0.3L244.8,39.8L244.8,39.8z"/>
		</g>
	</g>
	<g>
		<path class="st0" d="M28.2,9c0,2.9-2.4,5.3-5.3,5.3c3,0,5.3,2.3,5.3,5.3c0-3,2.4-5.3,5.3-5.3C30.5,14.3,28.2,11.9,28.2,9z"/>
		<path class="st0" d="M46.1,9c0,2.9,2.4,5.3,5.3,5.3c-3,0-5.3,2.3-5.3,5.3c0-3-2.4-5.3-5.3-5.3C43.7,14.3,46.1,11.9,46.1,9z"/>
		<path class="st0" d="M37.1,18c0,3-2.4,5.3-5.3,5.3c2.9,0,5.3,2.4,5.3,5.3c0-3,2.4-5.3,5.3-5.3C39.5,23.4,37.1,21,37.1,18z"/>
		<path class="st0" d="M37.1,0c0,3-2.4,5.3-5.3,5.3c2.9,0,5.3,2.3,5.3,5.3c0-2.9,2.4-5.3,5.3-5.3C39.5,5.3,37.1,3,37.1,0z"/>
		<path class="st0" d="M33.4,78.2c0.5-1,1-4.1,1.6-6.7c0.6-2.7,1.5-3.9,1.5-3.9c-0.2-0.4-1-0.2-1-0.2c-1.2,0.1-1.3,2.3-1.6,2.7
			s-0.8-0.1-0.8-0.1c0-0.7-0.6-1.1-0.6-1.1c-1.8-1.9-6.6-5-7.7-5.6c-1-0.7-1.5-0.5-1.6-0.2s-0.1,1.2-0.1,1.2s-1.3,0-2-0.5
			c-0.6-0.5-2.2-2.8-2.2-2.8c3,0.9,4.6-1,4.6-1c-1-0.2-1.5-1-1.5-1c1.5-0.2,2.3-1.2,2.3-1.2c-1,0-1.6-0.8-1.6-0.8
			c1.4-0.5,2.2-2,2.2-2c-0.5,0.1-2,0-2,0c1.3-0.6,2.5-2,2.5-2c-1.4,0.2-3.7-0.2-3.7-0.2c2-0.5,2.3-2.2,2.3-2.2s0.7,0.3,2.5,0.2
			c1.9-0.1,2.9-1.5,3.9-2.7c1-1.1,2.1-1.1,2.6-1.8c0.5-0.8,1.5-1.1,1.5-1.1s-0.5-0.3-1.2,0s-1.3,0-1.3,0c-1.8-0.8-3.2,0.1-3.8,0.7
			c-0.6,0.6-1.8,0.5-1.8,0.5c0.5-0.7,0.3-1.2,0.3-1.2c-1.7,1-2.6,0-4.9,0.2c-2.2,0.2-3,1.7-3.4,2s-0.5,0.1-0.5,0.1
			c-0.2-0.5,0.2-1.2,0.2-1.2s-0.8,0-1.1,0.6c-0.3,0.7-0.9,1.3-1.4,1.3c-0.6,0-1.7,0.4-1.7,0.4c0.1-0.5-0.1-1.2-0.1-1.2
			c-4.1,1.3-4.4-2-4.2-3.2s1-3.5,1-3.5s1.1,0,1.4-0.4c0.3-0.3,0.7-0.3,0.7-0.3c2-0.2,3.8-1.7,3.8-1.7s1,2.4,4.3,1.3
			c0,0,2.1-0.5,3.3-3.8c0,0,1.5-0.7,1.7-0.8c1,0.7,1.6,0.5,1.6,0.5c1.2-0.2,1.6-1.5,1.6-1.5s2.8,0.2,3.5,0.2s1-0.2,1.4-0.8
			c0.4-0.5,0.2-0.8,0.2-0.8c0.4-0.3,0.9-1.2,0.9-1.2c0.8-0.4,1.8-2,1.5-1.6c-0.3,0.2-1.1,0.4-1.1,0.4s0,0-1.5,0s-1.8,1-1.8,1
			c-1.4,0-1.9,1.3-1.9,1.3c-1.8-0.1-4.3,0.8-4.3,0.8c-2.4-1-3.5,1.1-3.5,1.1c-0.6,0.2-2.3,0.5-2.3,0.5h-1.9c0,0-1.5-2.1-3.4-2
			c-1.9,0-2.7,1.2-3.1,1.2s-1.1,0.3-1.8,0c-0.7-0.2,0.1-1,0.1-1s1.2,0,2.6-2.2s0.4-3.6,0.4-3.6c0.4-1,0.1-1.9,0.1-1.9l0.1-1.2
			l-1,0.3c-1.1,0-2.1,0.9-2.1,0.9s-0.4-0.4-1.9,0.4c-1.5,0.9-2.4,2.1-3.4,3.9s-0.9,3.3-0.9,3.3l-2.2-0.1c-1.8-0.1-2,1.9-2,1.9
			c-0.1,2,0.8,3.8,1.5,6.5c0.9,2.7,1.4,4.5,1.7,7.8c0.4,3.2,1.6,6.8,2.7,8s3.9,4,3.9,4c0.5,0.2,1.3,0,1.3,0c0.6,0.5,0.5,1.1,0.5,1.1
			c0.4,0.1,0.7-0.1,0.7-0.1c1.2,0.9,4,2.4,6.1,3.4c2.1,0.9,3.9,2.6,3.9,2.6c4.2,3.8,5.2,6.7,5.2,6.7c-0.9,0.2-0.5,1.2-0.8,1.4
			c-0.2,0.2-0.9,0.2-2.9,0.2c-1.8,0.1-2,1.9-2,2.4c-3.1,2.1-5.2,5.6-5.2,9.6c0,6.3,5.1,11.4,11.5,11.4s11.4-5.2,11.4-11.4
			C39.6,83.8,37.1,80.1,33.4,78.2z M31.8,71.1c0,1,0.8,1.3,0.8,1.3c0,0.8-0.1,3.1-0.6,3.4c-0.5,0.3-1.5,0.1-1.5,0.1
			c-1.1-0.2-0.9-1.2-0.9-1.2c0-3.2-1.6-5.9-1.6-5.9C30.4,69.8,31.8,71.1,31.8,71.1z"/>
	</g>
</g>
</svg>
