<?xml version="1.0" encoding="utf-8"?>
<!-- Generator: Adobe Illustrator 27.0.0, SVG Export Plug-In . SVG Version: 6.00 Build 0)  -->
<svg version="1.1" id="Layer_1" xmlns="http://www.w3.org/2000/svg" xmlns:xlink="http://www.w3.org/1999/xlink" x="0px" y="0px"
	 viewBox="0 0 257 100" style="enable-background:new 0 0 257 100;" xml:space="preserve">
<style type="text/css">
	.st0{fill:#FFFFFF;}
</style>
<g>
	<g>
		<g>
			<g>
				<g>
					<g>
						<defs>
							<path id="SVGID_1_" d="M146.9,51.3c0.5,2.3,3.5,0.4,3.5,0.4c1.2,0.9,0.8,1.8,1,1.8c1.6-0.5,1.9-3.1,2.2-5.6
								c0.3-2.6,2.5-2.9,2.5-2.9C150.4,45,146.4,49,146.9,51.3 M119,75.1c-0.5-0.5-0.8-1.4-0.8-2.6c0-2.2,0.7-4.5,2-6.7
								c1.3-2.2,2.7-3.8,4.3-4.7c1.5-0.9,3.3-1.3,5.4-1.3c0.8,0,1.9,0.1,3.1,0.3l-2.8,8.2c-0.8,2.5-2.2,4.3-4,5.6
								c-1.8,1.3-3.5,2-5.1,2C120.2,75.9,119.6,75.6,119,75.1 M170.9,75.1c-0.5-0.5-0.8-1.4-0.8-2.6c0-2.2,0.7-4.5,2-6.7
								c1.3-2.2,2.7-3.8,4.3-4.7c1.5-0.9,3.3-1.3,5.4-1.3c0.8,0,1.9,0.1,3.1,0.3l-2.8,8.2c-0.8,2.5-2.2,4.3-4,5.6
								c-1.8,1.3-3.5,2-5.1,2C172.1,75.9,171.4,75.6,170.9,75.1 M225.1,75.1c-0.6-0.6-0.9-1.3-0.9-2.2c0-2,0.7-4.3,2-7
								c1.3-2.7,2.8-4.5,4.2-5.4c1.5-0.9,3-1.4,4.5-1.4c0.8,0,2,0.2,3.9,0.5l-1.6,5.3c-1,3.5-1.9,5.6-2.5,6.5
								c-1,1.4-2.4,2.6-4.2,3.6c-1.2,0.7-2.3,1-3.3,1C226.4,76,225.7,75.7,225.1,75.1 M251.6,42.4c-2,0.6-3.8,1.5-5.3,2.7
								c-1.5,1.1-2.8,2.5-3.8,4.1c-1,1.6-2,4.1-3.1,7.5c-1-0.1-1.8-0.2-2.3-0.2c-2.2,0-4.7,0.8-7.4,2.4c-2.7,1.6-5.2,4-7.4,7.3
								c-1.9,2.9-3,5.4-3.3,7.7c-0.1,0-0.1,0.1-0.2,0.1c-0.1,0.1-1.7,1-2.3,1.3c-0.6,0.3-2.5,1.3-3.8,1.4c-1.3,0.1-1.3-0.8-1.2-1.8
								c0.1-1,1.1-3.7,1.1-3.7s1.5-4,1.6-4.1c0.1-0.1,1.2-3.1,2-5.1c0.8-2,0.6-3.2,0.6-3.2c-0.3-2-2.1-2.2-3.2-2.1
								c-1.1,0.1-2.4,0.3-6.4,2.5c-4,2.2-6.5,4.4-6.5,4.4c0.1-0.1,1.3-4.4,1.3-4.4c0.3-1.5-0.4-2.1-0.4-2.1c-1.2-1.1-3-0.6-3-0.6
								c-3.8,0.8-6.9,4-6.9,4c0.5-0.3,3.6-1.4,4.6-1.1c0.9,0.2,0.4,1.8,0.4,1.8c-0.1,0.3-1.1,3.6-1.2,3.8c-0.1,0.2-2,6.6-2.2,7.5
								c-0.1,0.2-0.2,0.8-0.5,1.5c-0.1-0.1-0.3,0-0.8,0.3c-0.7,0.5-4,1.9-6.1,1.9c-0.6,0-0.8-0.3-0.8-0.9c0-0.5,0.3-1.8,0.8-3.7
								c0.9-3.5,1.9-6.6,2.9-9.2l2.6-6.7c0,0-0.8-0.1-1.9,0.6c-1,0.7-1.3,0.9-1.3,0.9c-0.8-0.1-1.5-0.1-2.2-0.1
								c-2.9,0-5.3,0.3-7.1,1c-2.4,0.9-4.7,2.2-6.8,4.1c-2.2,1.9-3.9,3.9-5.2,6.2c-1.2,2.2-1.9,4.2-1.9,6c-0.9,0.4-2.1,1-3.7,1.7
								c-1,0.4-2.2,0.5-2.7,0.5c-0.5,0-1-0.3-1-0.8c0-0.2,0.8-3.1,2.5-8.6l3.4-11.1c1.2-4,2.1-6.6,2.6-8c0.7-1.9,2.7-3.6,3.4-4.1
								c1.6-1.1,3.4-1.5,4.6-1.6c0.6-0.1,0.4-0.4-0.3-0.4c-1.6,0-3.4,0.2-5.9,1.4c-2.6,1.2-4.6,2.9-6,5c-0.9,1.4-2,4.3-3.4,8.5
								l-3.7,11.6c-0.7,2.2-1.2,4-1.6,5.5c0,0,0,0-0.1,0c-0.1,0-0.3,0.2-1.8,0.9c-1.5,0.7-3.1,1.2-4,1.4c-1,0.2-1.3,0.1-1.5-0.3
								c-0.2-0.3,0-1.3,0-1.3c0-0.5,0.9-3.2,0.9-3.3c0-0.1,2.1-5.9,2.2-6.1c0.1-0.2,1.9-5.1,1.9-5.1c0.5-1.4,0.4-1.9,0.4-1.9
								c0-0.8-0.8-1.6-2-1.8c-1.1-0.2-2.9,0.4-2.9,0.4c-0.7,0.1-2.1,0.8-3,1.3c-0.9,0.5-2.6,1.8-2.6,1.8c1.4-0.6,3.1-0.8,3.9-0.8
								c0.8-0.1,1.1,0.3,1.1,0.3c0.4,0.6,0,1.5-0.1,1.8c-0.1,0.2-1,2.7-1,2.7c-1.4,3.3-2.7,7.5-3,8.4c-0.1,0.4-0.3,0.9-0.4,1.4
								c-0.2,0.1-0.5,0.2-0.8,0.4c-0.7,0.5-4,1.9-6.1,1.9c-0.6,0-0.8-0.3-0.8-0.9c0-0.5,0.3-1.8,0.8-3.7c0.9-3.5,1.9-6.6,2.9-9.2
								l2.6-6.7c0,0-0.8-0.1-1.9,0.6c-1.1,0.7-1.3,0.9-1.3,0.9c-0.7-0.1-1.5-0.1-2.2-0.1c-2.9,0-5.3,0.3-7.1,1
								c-2.4,0.9-4.7,2.2-6.8,4.1c-2.2,1.9-3.9,3.9-5.2,6.2c-1.1,1.9-1.7,3.7-1.9,5.4c-0.3,0.2-0.6,0.4-0.8,0.5
								c-1.5,1-4.5,2.3-5.9,2.3c-0.2,0-0.4-0.1-0.6-0.2c-0.1-0.1-0.3-0.3-0.3-0.6c0-0.7,0.1-1.5,0.4-2.5c0.3-0.9,1.2-3.3,2.6-7.1
								c1.1-2.7,1.8-4.6,2.1-5.7c0.2-0.6,0.3-1.2,0.3-1.8c0-0.7-0.2-1.3-0.7-1.7c-0.5-0.4-1.2-0.6-2.1-0.6c-1.2,0-2.7,0.5-4.5,1.4
								c-3.2,1.5-6.2,3.4-8.9,5.6l3.8-13.1c0.7-2.4,2.6-4.6,3.3-5.2c2.4-2.3,5.1-2.7,6-3.1c0.4-0.2,0-0.2,0-0.2s-3.1-0.1-5.6,1
								c-2.4,1-4.4,2.4-5.9,4.1c-1.5,1.7-2.7,4.1-3.6,7.3l-5,17c-0.6,2-1.4,4.5-2.5,7.6h5.1l2.7-9.3c0.6-2,1.4-3.5,2.4-4.6
								c1.5-1.6,3.3-2.9,5.3-3.9c1.4-0.7,2.6-1.1,3.6-1.1c0.8,0,1.2,0.3,1.2,0.9c0,0.4-0.4,1.6-1.2,3.8c-1.8,4.5-2.9,7.4-3.2,8.7
								c-0.4,1.4-0.6,2.4-0.6,3.1c0,1,0.2,1.7,0.7,2.2c0.5,0.5,1.1,0.7,1.9,0.7c1,0,2.2-0.4,3.7-1.1c1.7-0.8,4.3-2.6,6.4-4.3
								c0,0.2,0,0.3,0,0.5c0,1.6,0.5,2.8,1.4,3.8c0.7,0.7,1.7,1.1,3,1.1c1.4,0,2.9-0.4,4.6-1.2c2.7-1.3,5-2.9,7-4.7l-1.4,3.7
								c-0.2,0.5-0.3,0.8-0.3,1.1c0,0.4,0.1,0.7,0.4,0.9c0.3,0.2,0.7,0.3,1.3,0.3c0.8,0,1.7-0.1,2.5-0.4c1.3-0.4,2.7-0.9,4.2-1.7
								c0.6-0.3,2.7-1.7,4.9-3.3c-0.2,0.8-0.4,1.6-0.4,2.1c-0.2,0.9-0.2,1.8,0.4,2.5c0.7,0.6,1.7,0.9,3.3,0.5
								c1.6-0.3,3.8-1.5,4.4-1.9c0.5-0.3,3.7-2.4,4.5-3.1c-0.3,1.3-0.4,2.2-0.4,2.9c0,0.7,0.2,1.3,0.7,1.7c0.5,0.4,1,0.6,1.7,0.6
								c1.6,0,3.6-0.6,6-1.9c1.4-0.8,2.7-1.6,3.9-2.4c0.1,1.3,0.5,2.4,1.4,3.3c0.7,0.7,1.7,1.1,3,1.1c1.4,0,2.9-0.4,4.6-1.2
								c2.7-1.3,5-2.9,7-4.7l-1.4,3.7c-0.2,0.5-0.3,0.8-0.3,1.1c0,0.4,0.1,0.7,0.4,0.9c0.3,0.2,0.7,0.3,1.3,0.3
								c0.8,0,1.7-0.1,2.5-0.4c1.3-0.4,2.7-0.9,4.2-1.7c0.7-0.4,2.4-1.4,4.9-3.2c-0.6,1.9-1.5,4.6-1.5,4.6h5.1c0-0.2,1.5-5,1.6-5.2
								c0.1-0.2,1.1-3.8,1.3-4.2c0.1-0.4,0.6-1.6,1.1-2.7c0.5-1.1,1.7-2.5,4-4c2.2-1.5,3.5-2,3.7-2.1c0.2-0.1,1.6-0.7,2.7-0.5
								c1,0.2,0.9,0.8,0.7,1.3c-0.1,0.6-1.1,3.4-1.1,3.5c-0.1,0.1-1.8,4.7-1.9,5c-0.1,0.3-1.1,2.6-1.6,5.3c-0.6,2.7,0.5,3.6,0.5,3.6
								c1.4,1.4,3.6,0.5,4.7,0.1c1.1-0.4,3.6-1.9,4.3-2.4c0.7-0.4,2.6-2,3-2.3c0,0.2,0,0.4,0,0.6c0,1.6,0.4,2.8,1.2,3.6
								c0.8,0.8,1.8,1.2,3,1.2c1.5,0,3.1-0.4,4.9-1.2c1.8-0.8,4.1-2.4,6.8-4.6l-1.2,3.2c-0.3,0.7-0.4,1.2-0.4,1.5
								c0,0.3,0.2,0.6,0.5,0.8c0.3,0.2,0.8,0.4,1.3,0.4c1.2,0,2.8-0.5,4.9-1.4c1.5-0.7,3.8-2,6.8-4c0,0,0.1-0.4-0.4-0.1
								c-0.4,0.2-1.1,0.6-4.5,1.8c-0.6,0.2-1.5,0.3-1.9,0.3c-0.7,0-1.2-0.3-1.2-1c0-0.6,0.3-1.9,0.9-3.8l4.8-16
								c1.3-4.3,2.1-6.7,2.5-7.5c0.7-1.3,2-2.9,2.5-3.4c2.8-2.4,4.1-2.1,5.8-2.4c0.5-0.1,0.7-0.4,0.1-0.4
								C254.3,41.7,253.6,41.7,251.6,42.4 M98.1,30.7c0.5-0.2,1-0.4,1.5-0.6c0,0,3.3-1.8,7.8-1.9c0,0,2.6-0.1,3.4,0.5
								c0,0,0.9,0.6-0.3,1.3c0,0-1.3,1.1-6.3,1.2c-0.1,0-0.2,0-0.3,0C102.2,31.1,100.2,30.9,98.1,30.7 M108.9,25.8
								c0,0-2.5-0.1-7.8,2.4c0,0-2.1,0.9-4.5,2.2c-3.9-0.5-7.7-1.3-8.4-1.4c-1.3-0.2-12.4-3-21.9-2.1c-9.5,0.9-12.5,6.8-12.7,7.1
								c-0.2,0.3-4.6,7,1.3,13.8c0,0-2.8-5.7,0.1-10.4c0,0,2.3-4.3,8.3-5.7c0,0,6.9-1.4,15.4-0.4c0,0,12.6,1.4,14,1.5
								c-1.5,1-3.1,2-3.6,2.3c-1,0.6-4.4,3.4-6.8,6.7c-2.4,3.2-5,9-5.9,11.6c0,0-2,5.6-2.3,6.6c0,0-3.4,10.9-3.6,11.6
								c0,0-1,3.4-3,6.2c0,0-2.8,3.7-4.1,4.7c-1.3,1-6.2,5.3-13.1,6.4c0,0,3.2,1.1,13.1-3.9c0,0,7.7-4.9,9.9-8.3
								c2.2-3.4,3.5-6.4,4.3-9.2c0,0,3.5-12.4,4.1-14.8c0.6-2.4,2.8-8.6,3.6-10.1c0.8-1.4,2.4-4.2,3.5-5.3c0.7-0.6,2.6-2.6,5.4-4.5
								c2.5,0.2,8.1,0.7,9.6,0.5c1.8-0.2,8.5-0.5,9.4-4.5c0,0,0.9-3.3-3.6-3.3C109.1,25.8,109,25.8,108.9,25.8"/>
						</defs>
						<use xlink:href="#SVGID_1_"  style="overflow:visible;fill:#FFFFFF;"/>
						<clipPath id="SVGID_00000042006826165685225360000007642975965471078531_">
							<use xlink:href="#SVGID_1_"  style="overflow:visible;"/>
						</clipPath>
					</g>
				</g>
				<g>
					<g>
						<defs>
							<path id="SVGID_00000060007411943104514590000014586159429434541246_" d="M85.2,91l-0.1,2.1h0.3c0.1-0.7,0.3-1.1,0.6-1.3
								c0.3-0.2,0.7-0.3,1.4-0.3h0.7v6.3c0,0.5-0.1,0.9-0.2,1c-0.1,0.1-0.5,0.2-1,0.3v0.2h3.7v-0.2c-0.5,0-0.8-0.1-1-0.2
								c-0.2-0.1-0.2-0.4-0.2-0.9v-6.5h0.7c0.7,0,1.2,0.1,1.4,0.3c0.2,0.2,0.4,0.6,0.6,1.3h0.3L92.3,91H85.2z M109.2,91v0.2
								c0.5,0,0.8,0.2,0.9,0.3c0.2,0.2,0.2,0.6,0.2,1.3v3.3c0,0.8-0.1,1.4-0.3,1.8c-0.4,0.7-1,1-2.1,1c-0.9,0-1.6-0.3-1.9-1
								c-0.2-0.4-0.3-0.9-0.3-1.6v-4c0-0.4,0.1-0.7,0.2-0.9c0.1-0.1,0.5-0.2,0.9-0.2V91h-3.6v0.2c0.5,0,0.8,0.1,0.9,0.2
								c0.1,0.1,0.2,0.4,0.2,0.9v3.9c0,0.8,0.1,1.4,0.4,1.9c0.5,0.9,1.4,1.3,2.8,1.3c1.4,0,2.3-0.5,2.8-1.3c0.3-0.5,0.4-1.2,0.4-2
								v-3.3c0-0.7,0.1-1.1,0.2-1.3c0.2-0.2,0.5-0.3,1-0.4V91H109.2z M115.7,91.9c0-0.2,0-0.3,0.1-0.4c0.1-0.1,0.3-0.1,0.7-0.1
								c0.5,0,1,0.1,1.3,0.2c0.6,0.3,0.9,0.8,0.9,1.5c0,0.8-0.3,1.3-1,1.6c-0.4,0.2-1,0.3-1.9,0.3V91.9z M113.4,91v0.2
								c0.5,0,0.7,0.1,0.9,0.3c0.1,0.1,0.2,0.4,0.2,0.9v5.5c0,0.5-0.1,0.8-0.2,1c-0.1,0.1-0.4,0.2-0.9,0.3v0.2h3.5v-0.2
								c-0.5,0-0.8-0.1-0.9-0.2c-0.1-0.1-0.2-0.4-0.2-0.9v-2.5l0.5,0l3.2,3.9h2v-0.2c-0.2,0-0.5-0.1-0.6-0.2
								c-0.2-0.1-0.3-0.2-0.5-0.4l-2.6-3.2c0.7-0.1,1.2-0.3,1.7-0.7c0.4-0.3,0.6-0.8,0.6-1.5c0-0.9-0.5-1.6-1.4-1.9
								c-0.5-0.2-1.1-0.3-1.8-0.3H113.4z M122.7,91v0.2c0.5,0,0.8,0.1,1,0.2c0.2,0.1,0.2,0.4,0.2,0.9V98c0,0.5-0.1,0.8-0.2,0.9
								c-0.1,0.1-0.5,0.2-1,0.2v0.2h3.7v-0.2c-0.5,0-0.8-0.1-1-0.2c-0.2-0.1-0.2-0.4-0.2-0.9v-5.6c0-0.4,0.1-0.7,0.2-0.9
								c0.1-0.1,0.5-0.2,1-0.2V91H122.7z M143.8,91l-2.8,6.3l-2.9-6.3h-2.5v0.2c0.5,0,0.8,0.1,1,0.2c0.1,0.1,0.2,0.4,0.2,0.9v5.1
								c0,0.7-0.1,1.1-0.2,1.3c-0.1,0.2-0.5,0.3-1,0.4v0.2h2.9v-0.2c-0.5,0-0.8-0.1-0.9-0.3c-0.2-0.2-0.3-0.6-0.3-1.3v-5l3.2,6.9
								h0.2l3.2-7.2v5.7c0,0.5-0.1,0.9-0.2,1c-0.1,0.1-0.4,0.2-1,0.3v0.2h3.5v-0.2c-0.5,0-0.8-0.1-0.9-0.2c-0.1-0.1-0.2-0.4-0.2-0.9
								v-5.6c0-0.4,0.1-0.7,0.2-0.9c0.1-0.1,0.4-0.2,0.9-0.3V91H143.8z M169.7,91v0.2c0.2,0,0.4,0,0.6,0.1c0.2,0.1,0.3,0.3,0.3,0.5
								c0,0.1,0,0.1,0,0.3c0,0.2-0.1,0.4-0.2,0.6l-1.6,4.3l-1.8-4.7c-0.1-0.2-0.1-0.3-0.1-0.3c0-0.1,0-0.1,0-0.2
								c0-0.2,0.1-0.4,0.3-0.4c0.1,0,0.3-0.1,0.6-0.1V91h-3.4v0.2c0.3,0,0.5,0,0.6,0.1c0.2,0.1,0.4,0.3,0.5,0.6l0.6,1.5l-1.3,3.5
								l-1.8-4.7c0-0.1-0.1-0.2-0.1-0.3c0-0.1,0-0.2,0-0.2c0-0.2,0.1-0.3,0.3-0.4c0.1,0,0.3-0.1,0.5-0.1V91h-3.1v0.2
								c0.4,0,0.6,0.2,0.8,0.4c0.2,0.3,0.5,1,0.9,2.2l1.1,3l0.9,2.6h0.2l1.9-5.3l1.5,3.9l0.6,1.4h0.2l0.8-2.3l0.5-1.5l1.3-3.8
								c0.1-0.3,0.3-0.5,0.5-0.6c0.1-0.1,0.3-0.1,0.5-0.2V91H169.7z M183.7,91.9c0-0.2,0-0.3,0.1-0.4c0.1-0.1,0.3-0.1,0.6-0.1
								c0.5,0,0.9,0.1,1.3,0.2c0.6,0.3,0.9,0.8,0.9,1.5c0,0.8-0.3,1.3-1,1.6c-0.4,0.2-1,0.3-1.9,0.3V91.9z M181.4,91v0.2
								c0.4,0,0.7,0.1,0.9,0.3c0.1,0.1,0.2,0.4,0.2,0.9v5.5c0,0.5-0.1,0.8-0.2,1c-0.1,0.1-0.4,0.2-0.9,0.3v0.2h3.5v-0.2
								c-0.5,0-0.8-0.1-0.9-0.2c-0.1-0.1-0.2-0.4-0.2-0.9v-2.5l0.5,0l3.2,3.9h2v-0.2c-0.3,0-0.5-0.1-0.6-0.2
								c-0.2-0.1-0.3-0.2-0.5-0.4l-2.6-3.2c0.7-0.1,1.3-0.3,1.7-0.7c0.4-0.3,0.6-0.8,0.6-1.5c0-0.9-0.4-1.6-1.4-1.9
								c-0.5-0.2-1.1-0.3-1.8-0.3H181.4z M193.2,98.8c-0.1-0.1-0.1-0.2-0.1-0.4v-6.4c0-0.2,0.1-0.3,0.1-0.4c0.1-0.1,0.3-0.1,0.6-0.1
								c1.1,0,2,0.3,2.7,0.8c0.8,0.7,1.2,1.6,1.2,2.9c0,1.5-0.5,2.5-1.5,3.1c-0.6,0.4-1.4,0.6-2.4,0.6
								C193.6,98.9,193.3,98.8,193.2,98.8 M190.7,91v0.2c0.5,0,0.8,0.1,0.9,0.2c0.1,0.1,0.2,0.4,0.2,0.9V98c0,0.5-0.1,0.7-0.2,0.9
								c-0.1,0.1-0.4,0.2-0.9,0.2v0.2h3.5c0.9,0,1.7-0.1,2.4-0.4c0.3-0.1,0.7-0.3,1-0.6c0.5-0.4,0.9-0.9,1.2-1.4
								c0.3-0.6,0.4-1.2,0.4-1.8c0-1.7-0.7-3-2.2-3.6c-0.8-0.4-1.8-0.6-2.9-0.6H190.7z M156.3,92.6l1.4,3.5h-2.9L156.3,92.6z
								 M156.5,90.8l-2.6,6.2c-0.4,0.9-0.7,1.5-0.8,1.7c-0.2,0.2-0.4,0.3-0.7,0.4v0.2h2.5v-0.2c-0.3,0-0.5-0.1-0.6-0.1
								c-0.2-0.1-0.3-0.2-0.3-0.4c0-0.1,0-0.3,0.1-0.4c0.1-0.2,0.3-0.7,0.6-1.5h3.3l0.5,1.2c0.1,0.2,0.1,0.3,0.2,0.5
								c0,0.2,0.1,0.3,0.1,0.3c0,0.2-0.1,0.3-0.2,0.3c-0.1,0-0.3,0.1-0.7,0.1v0.2h3.2v-0.2c-0.3,0-0.5-0.1-0.6-0.2
								c-0.1-0.1-0.3-0.4-0.5-0.9l-3.1-7.2H156.5z M175.4,92.6l1.4,3.5H174L175.4,92.6z M175.6,90.8L173,97
								c-0.4,0.9-0.7,1.5-0.8,1.7c-0.2,0.2-0.4,0.3-0.7,0.4v0.2h2.5v-0.2c-0.3,0-0.5-0.1-0.6-0.1c-0.2-0.1-0.3-0.2-0.3-0.4
								c0-0.1,0-0.3,0.1-0.4c0.1-0.2,0.3-0.7,0.6-1.5h3.3l0.5,1.2c0.1,0.2,0.1,0.3,0.2,0.5c0,0.2,0.1,0.3,0.1,0.3
								c0,0.2-0.1,0.3-0.2,0.3c-0.1,0-0.3,0.1-0.7,0.1v0.2h3.2v-0.2c-0.3,0-0.5-0.1-0.6-0.2c-0.1-0.1-0.3-0.4-0.5-0.9l-3.1-7.2
								H175.6z M95.9,98.1c-0.5-0.6-0.8-1.6-0.8-2.9c0-1.3,0.3-2.3,0.8-2.9c0.5-0.6,1.2-0.9,1.9-0.9c0.7,0,1.4,0.3,1.9,0.9
								c0.5,0.6,0.8,1.6,0.8,3c0,1.4-0.3,2.3-0.8,3c-0.5,0.6-1.2,0.9-1.9,0.9C97,99,96.4,98.7,95.9,98.1 M94.9,91.9
								c-0.8,0.8-1.3,1.9-1.3,3.2c0,1.3,0.4,2.3,1.2,3.1c0.8,0.8,1.8,1.2,2.9,1.2c1.1,0,2-0.4,2.8-1.1c0.9-0.8,1.3-1.9,1.3-3.3
								c0-1.3-0.4-2.4-1.3-3.2c-0.8-0.7-1.7-1.1-2.9-1.1C96.7,90.8,95.7,91.2,94.9,91.9 M132.9,90.8c0,0.1-0.1,0.2-0.1,0.3
								c-0.1,0.1-0.2,0.1-0.3,0.1c-0.1,0-0.3-0.1-0.7-0.2c-0.4-0.1-0.7-0.2-1-0.2c-0.7,0-1.3,0.2-1.7,0.6c-0.4,0.4-0.6,0.9-0.6,1.6
								c0,0.5,0.2,0.9,0.5,1.3c0.2,0.2,0.4,0.4,0.8,0.6l1.1,0.7c0.6,0.4,1,0.7,1.2,0.9c0.3,0.3,0.4,0.7,0.4,1.1
								c0,0.5-0.1,0.8-0.4,1.1c-0.3,0.3-0.6,0.4-1,0.4c-0.7,0-1.4-0.3-1.9-0.9c-0.3-0.3-0.5-0.8-0.7-1.4h-0.3l0.4,2.7h0.3
								c0-0.1,0-0.2,0.1-0.3c0.1-0.1,0.1-0.1,0.3-0.1c0.1,0,0.3,0.1,0.7,0.2c0.4,0.1,0.8,0.2,1.2,0.2c0.8,0,1.4-0.2,1.9-0.7
								c0.5-0.4,0.7-1,0.7-1.6c0-0.5-0.1-0.9-0.4-1.3c-0.3-0.4-0.8-0.7-1.5-1.2l-1.1-0.7c-0.4-0.3-0.7-0.5-0.9-0.7
								c-0.2-0.2-0.3-0.5-0.3-0.8c0-0.4,0.1-0.6,0.4-0.8c0.3-0.2,0.6-0.3,0.9-0.3c0.4,0,0.9,0.2,1.4,0.5c0.4,0.3,0.8,0.9,1,1.7h0.3
								l-0.3-2.7H132.9z M205.8,90.8c0,0.1-0.1,0.2-0.1,0.3c-0.1,0.1-0.2,0.1-0.3,0.1c-0.1,0-0.3-0.1-0.7-0.2
								c-0.4-0.1-0.7-0.2-1-0.2c-0.7,0-1.2,0.2-1.7,0.6c-0.4,0.4-0.6,0.9-0.6,1.6c0,0.5,0.2,0.9,0.5,1.3c0.2,0.2,0.4,0.4,0.8,0.6
								l1.1,0.7c0.6,0.4,1,0.7,1.2,0.9c0.3,0.3,0.4,0.7,0.4,1.1c0,0.5-0.1,0.8-0.4,1.1c-0.3,0.3-0.6,0.4-1,0.4
								c-0.7,0-1.3-0.3-1.8-0.9c-0.3-0.3-0.5-0.8-0.8-1.4H201l0.4,2.7h0.3c0-0.1,0-0.2,0.1-0.3c0.1-0.1,0.2-0.1,0.3-0.1
								c0.1,0,0.3,0.1,0.7,0.2c0.4,0.1,0.8,0.2,1.2,0.2c0.8,0,1.4-0.2,1.9-0.7c0.5-0.4,0.7-1,0.7-1.6c0-0.5-0.1-0.9-0.4-1.3
								c-0.3-0.4-0.8-0.7-1.5-1.2l-1.1-0.7c-0.4-0.3-0.7-0.5-0.9-0.7c-0.2-0.2-0.3-0.5-0.3-0.8c0-0.4,0.1-0.6,0.4-0.8
								c0.3-0.2,0.6-0.3,0.9-0.3c0.4,0,0.9,0.2,1.4,0.5c0.5,0.3,0.8,0.9,1,1.7h0.3l-0.3-2.7H205.8z"/>
						</defs>
						<use xlink:href="#SVGID_00000060007411943104514590000014586159429434541246_"  style="overflow:visible;fill:#FFFFFF;"/>
						<clipPath id="SVGID_00000157308620033590785810000006514640098627539587_">
							<use xlink:href="#SVGID_00000060007411943104514590000014586159429434541246_"  style="overflow:visible;"/>
						</clipPath>
					</g>
				</g>
			</g>
			<g>
				<path class="st0" d="M239.8,40c-0.2,0.1-0.4,0.1-0.5,0.1c-0.7,0-1.1-0.4-1.1-1.3v-3.1h-0.7l0-0.1l0.3-0.3h0.5v-0.9
					c0.2-0.2,0.5-0.5,0.7-0.7l0.2,0c0,0.5,0,1.1,0,1.6h1.2c0.1,0.1,0.1,0.3-0.1,0.4h-1.2v2.8c0,0.9,0.3,1,0.6,1
					c0.3,0,0.5-0.1,0.7-0.2l0.1,0.3L239.8,40z"/>
				<path class="st0" d="M244,40v-0.3c0.6-0.1,0.7-0.1,0.7-0.8v-1.8c0-0.9-0.3-1.3-1.1-1.3c-0.4,0-0.8,0.2-1.1,0.6v2.5
					c0,0.7,0.1,0.8,0.7,0.8V40h-2.3v-0.3c0.6-0.1,0.8-0.1,0.8-0.8v-5.2c0-0.6,0-0.7-0.8-0.8v-0.3c0.6-0.1,1.2-0.2,1.6-0.4
					c0,0.4,0,0.9,0,1.3v2.3c0.4-0.4,1-0.8,1.6-0.8c0.9,0,1.5,0.5,1.5,1.8v1.9c0,0.7,0.1,0.8,0.7,0.8V40H244z"/>
			</g>
		</g>
		<g>
			<path class="st0" d="M29,9.4c0,2.9-2.4,5.3-5.3,5.3c2.9,0,5.3,2.4,5.3,5.3c0-2.9,2.4-5.3,5.3-5.3C31.3,14.7,29,12.3,29,9.4z"/>
			<path class="st0" d="M46.8,9.4c0,2.9,2.4,5.3,5.3,5.3c-2.9,0-5.3,2.4-5.3,5.3c0-2.9-2.4-5.3-5.3-5.3
				C44.4,14.7,46.8,12.3,46.8,9.4z"/>
			<path class="st0" d="M37.9,18.4c0,2.9-2.4,5.3-5.3,5.3c2.9,0,5.3,2.4,5.3,5.3c0-2.9,2.4-5.3,5.3-5.3
				C40.2,23.7,37.9,21.3,37.9,18.4z"/>
			<path class="st0" d="M37.9,0.5c0,2.9-2.4,5.3-5.3,5.3c2.9,0,5.3,2.4,5.3,5.3c0-2.9,2.4-5.3,5.3-5.3C40.2,5.8,37.9,3.4,37.9,0.5z"
				/>
			<path class="st0" d="M34.2,78c0.5-1,1-4.1,1.6-6.6c0.6-2.6,1.5-3.9,1.5-3.9c-0.2-0.5-0.9-0.3-0.9-0.3c-1.1,0.1-1.3,2.3-1.6,2.7
				c-0.3,0.4-0.7-0.1-0.7-0.1c-0.1-0.6-0.6-1.1-0.6-1.1c-1.8-1.9-6.6-5-7.6-5.6c-1-0.6-1.4-0.6-1.6-0.2c-0.2,0.4-0.1,1.2-0.1,1.2
				s-1.3,0-1.9-0.5C21.5,63.2,20,61,20,61c2.9,0.9,4.5-1,4.5-1c-1-0.2-1.4-1-1.4-1c1.5-0.2,2.3-1.1,2.3-1.1c-1,0-1.6-0.8-1.6-0.8
				c1.3-0.5,2.2-2,2.2-2C25.5,55,24,55,24,55c1.3-0.6,2.4-2,2.4-2c-1.4,0.3-3.7-0.2-3.7-0.2c2-0.5,2.3-2.1,2.3-2.1s0.7,0.4,2.5,0.3
				c1.9-0.1,2.8-1.5,3.8-2.6c1-1.1,2.1-1.1,2.6-1.9c0.5-0.8,1.4-1.1,1.4-1.1S35,45,34.3,45.4c-0.7,0.4-1.3,0-1.3,0
				c-1.8-0.8-3.2,0.1-3.8,0.7c-0.6,0.6-1.8,0.5-1.8,0.5c0.5-0.6,0.3-1.2,0.3-1.2c-1.7,0.9-2.6,0-4.8,0.2c-2.2,0.2-3,1.7-3.3,2.1
				c-0.3,0.3-0.5,0.1-0.5,0.1c-0.2-0.5,0.2-1.2,0.2-1.2s-0.8,0-1.1,0.6c-0.3,0.6-0.9,1.3-1.4,1.3c-0.5,0-1.7,0.4-1.7,0.4
				c0.2-0.5-0.2-1.2-0.2-1.2c-4,1.3-4.4-2-4.1-3.1c0.3-1.1,1-3.5,1-3.5s1.1,0,1.4-0.4c0.3-0.3,0.7-0.3,0.7-0.3
				c2-0.3,3.8-1.7,3.8-1.7s1,2.4,4.3,1.3c0,0,2.1-0.5,3.3-3.7c0,0,1.6-0.7,1.7-0.8c1,0.7,1.7,0.5,1.7,0.5c1.2-0.2,1.6-1.5,1.6-1.5
				s2.8,0.3,3.5,0.2c0.7-0.1,1-0.3,1.4-0.8c0.4-0.6,0.3-0.8,0.3-0.8c0.4-0.4,0.9-1.2,0.9-1.2c0.8-0.4,1.9-1.9,1.6-1.7
				c-0.3,0.3-1.1,0.4-1.1,0.4s0,0-1.5,0c-1.6,0-1.8,1-1.8,1c-1.4,0-1.9,1.3-1.9,1.3c-1.8-0.1-4.3,0.7-4.3,0.7
				c-2.3-1-3.4,1.1-3.4,1.1c-0.6,0.2-2.3,0.5-2.3,0.5h-1.9c0,0-1.5-2.1-3.4-2c-1.9,0-2.7,1.1-3,1.2c-0.4,0.1-1.1,0.3-1.8,0.1
				c-0.7-0.3,0.1-1,0.1-1s1.2,0,2.6-2.2c1.4-2.2,0.4-3.6,0.4-3.6c0.4-1,0.1-1.9,0.1-1.9l0.1-1.2l-1,0.3c-1.1-0.1-2.1,0.9-2.1,0.9
				s-0.4-0.4-1.9,0.4c-1.5,0.8-2.4,2.1-3.4,3.9c-1,1.8-0.9,3.3-0.9,3.3L3.2,33c-1.9-0.1-2.1,1.9-2.1,1.9c-0.1,1.9,0.7,3.8,1.5,6.5
				c0.8,2.7,1.3,4.5,1.8,7.7c0.4,3.2,1.5,6.8,2.6,8c1.1,1.2,3.9,4,3.9,4c0.5,0.2,1.3-0.1,1.3-0.1c0.6,0.6,0.5,1.1,0.5,1.1
				c0.4,0.1,0.7-0.1,0.7-0.1c1.2,0.9,3.9,2.4,6,3.4c2.1,0.9,3.9,2.5,3.9,2.5c4.1,3.7,5.1,6.6,5.1,6.6c-0.9,0.2-0.5,1.2-0.8,1.4
				c-0.3,0.2-0.8,0.2-2.9,0.2c-1.8,0-1.9,1.9-1.9,2.4c-3.1,2-5.2,5.5-5.2,9.5c0,6.3,5.1,11.4,11.4,11.4c6.3,0,11.4-5.1,11.4-11.4
				C40.3,83.7,37.8,79.9,34.2,78z M32.6,71c-0.1,1,0.8,1.3,0.8,1.3c0.1,0.8-0.1,3-0.6,3.4c-0.5,0.4-1.5,0.1-1.5,0.1
				c-1.1-0.2-0.9-1.2-0.9-1.2c0.1-3.2-1.6-5.8-1.6-5.8C31.2,69.7,32.6,71,32.6,71z"/>
		</g>
	</g>
	<g>
		<path class="st0" d="M218.7,96.3l-0.2,2.9h-6c0-0.4,0.1-0.8,0.4-1.2c0.3-0.4,0.8-0.9,1.6-1.5c0.8-0.6,1.3-1.1,1.6-1.4
			c0.5-0.6,0.7-1.3,0.7-2.2c0-0.7-0.2-1.2-0.5-1.5c-0.3-0.4-0.7-0.6-1.3-0.6c-0.5,0-0.9,0.1-1.3,0.4c-0.4,0.3-0.5,0.5-0.5,0.8
			c0,0.2,0.1,0.2,0.2,0.3c0.3,0.1,0.4,0.1,0.5,0.1c0.3,0.1,0.4,0.4,0.4,0.7c0,0.2-0.1,0.4-0.3,0.6c-0.2,0.2-0.4,0.2-0.6,0.2
			c-0.3,0-0.6-0.1-0.8-0.3s-0.3-0.5-0.3-0.8c0-0.6,0.3-1.1,0.8-1.6c0.6-0.5,1.2-0.7,2.1-0.7c0.9,0,1.7,0.3,2.3,0.8
			c0.6,0.5,0.9,1.1,0.9,1.7c0,0.7-0.4,1.4-1.1,2c-0.2,0.2-1,0.6-2.2,1.3c-0.9,0.5-1.4,1-1.7,1.4h3.2c0.6,0,1-0.1,1.2-0.4
			c0.2-0.2,0.3-0.6,0.4-1.1H218.7z"/>
		<path class="st0" d="M226.9,95c0,1.3-0.4,2.4-1.1,3.2c-0.7,0.8-1.4,1.2-2.3,1.2s-1.7-0.4-2.3-1.2c-0.7-0.8-1.1-1.9-1.1-3.2
			c0-1.3,0.4-2.4,1.1-3.2c0.7-0.8,1.5-1.2,2.4-1.2c0.9,0,1.7,0.4,2.3,1.2C226.5,92.6,226.9,93.7,226.9,95z M225.1,95
			c0-1.4-0.1-2.5-0.3-3.1c-0.3-0.7-0.7-1.1-1.3-1.1c-0.6,0-1.1,0.4-1.3,1.1c-0.2,0.6-0.4,1.7-0.4,3.1s0.1,2.5,0.4,3.1
			c0.3,0.7,0.7,1,1.3,1c0.6,0,1.1-0.4,1.3-1.1C225,97.4,225.1,96.4,225.1,95z"/>
		<path class="st0" d="M234.2,96.3l-0.2,2.9h-6c0-0.4,0.1-0.8,0.4-1.2c0.3-0.4,0.8-0.9,1.6-1.5c0.8-0.6,1.3-1.1,1.6-1.4
			c0.5-0.6,0.7-1.3,0.7-2.2c0-0.7-0.2-1.2-0.5-1.5c-0.3-0.4-0.7-0.6-1.3-0.6c-0.5,0-0.9,0.1-1.3,0.4c-0.4,0.3-0.5,0.5-0.5,0.8
			c0,0.2,0.1,0.2,0.2,0.3c0.3,0.1,0.4,0.1,0.5,0.1c0.3,0.1,0.4,0.4,0.4,0.7c0,0.2-0.1,0.4-0.3,0.6c-0.2,0.2-0.4,0.2-0.6,0.2
			c-0.3,0-0.6-0.1-0.8-0.3c-0.2-0.2-0.3-0.5-0.3-0.8c0-0.6,0.3-1.1,0.8-1.6c0.6-0.5,1.2-0.7,2.1-0.7c0.9,0,1.7,0.3,2.3,0.8
			c0.6,0.5,0.9,1.1,0.9,1.7c0,0.7-0.4,1.4-1.1,2c-0.2,0.2-1,0.6-2.2,1.3c-0.9,0.5-1.4,1-1.7,1.4h3.2c0.6,0,1-0.1,1.2-0.4
			c0.2-0.2,0.3-0.6,0.4-1.1H234.2z"/>
		<path class="st0" d="M241.8,96.9c0,0.7-0.3,1.4-1,1.8c-0.7,0.5-1.5,0.7-2.5,0.7c-0.8,0-1.5-0.2-2-0.6c-0.5-0.4-0.8-0.8-0.8-1.3
			c0-0.3,0.1-0.6,0.3-0.8c0.2-0.2,0.4-0.3,0.6-0.3c0.2,0,0.5,0.1,0.6,0.2c0.2,0.2,0.2,0.4,0.2,0.6c0,0.4-0.2,0.7-0.5,0.7
			c-0.1,0-0.2,0-0.2,0c-0.1,0-0.1,0.1-0.1,0.2c0,0.2,0.1,0.3,0.4,0.5c0.4,0.2,0.8,0.4,1.3,0.4c1.2,0,1.8-0.7,1.8-2.2
			c0-0.7-0.1-1.3-0.4-1.6c-0.3-0.3-0.7-0.5-1.3-0.5c-0.2,0-0.4,0-0.6,0.1c-0.2,0-0.4,0.1-0.4,0.1c-0.2,0-0.3-0.1-0.3-0.2
			c0-0.2,0.1-0.3,0.3-0.3c0,0,0.1,0,0.3,0c0.2,0,0.3,0,0.5,0c0.5,0,0.9-0.2,1.2-0.5c0.3-0.3,0.4-0.8,0.4-1.4c0-1.2-0.5-1.8-1.6-1.8
			c-0.4,0-0.8,0.1-1.1,0.3c-0.3,0.2-0.4,0.4-0.4,0.6c0,0.1,0.1,0.2,0.2,0.2c0.2,0.1,0.4,0.1,0.4,0.2c0.2,0.1,0.2,0.3,0.2,0.6
			c0,0.2-0.1,0.4-0.2,0.6c-0.2,0.2-0.4,0.2-0.6,0.2c-0.3,0-0.5-0.1-0.7-0.3c-0.2-0.2-0.3-0.5-0.3-0.8c0-0.5,0.2-1,0.7-1.3
			c0.5-0.4,1.2-0.6,2-0.6c0.9,0,1.7,0.2,2.2,0.6c0.5,0.4,0.8,0.8,0.8,1.4c0,0.7-0.3,1.2-0.8,1.5c-0.4,0.2-1,0.4-1.8,0.5
			C240.9,94.7,241.8,95.5,241.8,96.9z"/>
	</g>
	<path class="st0" d="M229.4,51.7h-7.9v-0.3c1.4-0.1,2.2-0.3,2.4-0.4c0.4-0.2,0.6-0.8,0.6-1.7V44c0-0.8,0-1.4-0.1-1.6
		c-0.1-0.3-0.3-0.5-0.7-0.5c-0.1,0-0.7,0-1.8-0.1c-0.1,0-0.1,0-0.2,0s-0.1,0-0.2,0v-0.3c1.7-0.1,3-0.5,3.8-1.2h1.2v9
		c0,0.9,0.2,1.5,0.6,1.7c0.3,0.2,1.1,0.3,2.4,0.4V51.7z"/>
	<path class="st0" d="M238.2,47.6l-0.2,0.8h-2.1v1.3c0,0.7,0.1,1.2,0.2,1.3c0.2,0.2,0.8,0.3,1.7,0.4v0.3H232v-0.3
		c0.9-0.1,1.5-0.2,1.6-0.4c0.1-0.1,0.2-0.6,0.2-1.3v-1.3H229l-0.3-0.4c0.9-1.3,2.7-3.8,5.4-7.7h1.7v7.3H238.2z M233.8,47.6v-6.1
		c-0.5,0.8-1.2,1.8-2.1,3.1c-0.5,0.7-1.2,1.8-2.1,3H233.8z"/>
</g>
</svg>
