<?xml version="1.0" encoding="utf-8"?>
<!-- Generator: Adobe Illustrator 27.2.0, SVG Export Plug-In . SVG Version: 6.00 Build 0)  -->
<svg version="1.1" id="Layer_1" xmlns="http://www.w3.org/2000/svg" xmlns:xlink="http://www.w3.org/1999/xlink" x="0px" y="0px"
	 viewBox="0 0 300 117" style="enable-background:new 0 0 300 117;" xml:space="preserve">
<style type="text/css">
	.st0{fill:url(#SVGID_00000163045849999947855000000011006784800408364219_);}
	.st1{fill:url(#SVGID_00000108304495561626089640000003211360637749837483_);}
	.st2{fill:url(#SVGID_00000039092665525654894150000008850671432187664554_);}
	.st3{fill:url(#SVGID_00000098905479222061914560000001556208154017408417_);}
	.st4{fill:url(#SVGID_00000096781681809924378320000004969698172008350399_);}
	.st5{fill:url(#SVGID_00000070112648904986836600000006033728968983090080_);}
	.st6{fill:url(#SVGID_00000167361563880657653090000012760565533081276830_);}
	.st7{fill:url(#SVGID_00000139994847370872097910000017252946388124257957_);}
	.st8{fill:url(#SVGID_00000080893952524906331190000000360806273203934383_);}
	.st9{fill:url(#SVGID_00000131332297360057355910000015212475543324324493_);}
	.st10{fill:url(#SVGID_00000103242097433716629980000012307560082301950338_);}
	.st11{fill:url(#SVGID_00000121960068486026070540000010479528411820688523_);}
	.st12{fill:url(#SVGID_00000005981862746872958790000018087801785004352915_);}
	.st13{fill:url(#SVGID_00000119105494895511179790000014240644358959892642_);}
	.st14{fill:url(#SVGID_00000096774525153916878460000007916718619697597321_);}
	.st15{fill:url(#SVGID_00000170247973154454050670000013229842406361495189_);}
</style>
<g>
	<g>
		<g>
			<g>
				<defs>
					<path id="SVGID_1_" d="M146.2,62.9c0.5,2.1,3.1,0.4,3.1,0.4c1.1,0.8,0.7,1.6,0.9,1.6c1.4-0.4,1.7-2.8,1.9-5.1
						c0.3-2.3,2.3-2.6,2.3-2.6C149.4,57.3,145.7,60.9,146.2,62.9 M121.2,84.2c-0.5-0.5-0.7-1.2-0.7-2.3c0-2,0.6-4,1.8-6
						c1.2-2,2.5-3.4,3.8-4.2c1.4-0.8,3-1.2,4.8-1.2c0.8,0,1.7,0.1,2.8,0.3l-2.6,7.3c-0.8,2.2-1.9,3.9-3.6,5
						c-1.6,1.2-3.1,1.8-4.5,1.8C122.3,84.9,121.7,84.7,121.2,84.2 M167.7,84.2c-0.5-0.5-0.7-1.2-0.7-2.3c0-2,0.6-4,1.8-6
						c1.2-2,2.4-3.4,3.8-4.2c1.4-0.8,3-1.2,4.8-1.2c0.8,0,1.7,0.1,2.8,0.3l-2.5,7.3c-0.8,2.2-1.9,3.9-3.6,5
						c-1.6,1.2-3.1,1.8-4.5,1.8C168.8,84.9,168.2,84.7,167.7,84.2 M216.3,84.3c-0.6-0.5-0.8-1.2-0.8-2c0-1.8,0.6-3.9,1.8-6.3
						c1.2-2.4,2.5-4,3.8-4.8c1.3-0.8,2.6-1.2,4-1.2c0.7,0,1.8,0.1,3.5,0.4l-1.4,4.8c-0.9,3.1-1.7,5-2.2,5.8
						c-0.9,1.3-2.2,2.3-3.7,3.2c-1.1,0.6-2.1,0.9-2.9,0.9C217.5,85,216.8,84.8,216.3,84.3 M240.1,54.9c-1.8,0.6-3.4,1.4-4.8,2.4
						c-1.4,1-2.5,2.2-3.4,3.7c-0.9,1.4-1.8,3.7-2.7,6.7c-0.9-0.1-1.6-0.2-2-0.2c-2,0-4.2,0.7-6.7,2.1c-2.4,1.4-4.6,3.6-6.6,6.5
						c-1.7,2.6-2.7,4.9-2.9,6.9c-0.1,0-0.1,0-0.2,0.1c-0.1,0.1-1.5,0.9-2.1,1.1c-0.6,0.2-2.3,1.1-3.4,1.2c-1.2,0.1-1.2-0.7-1.1-1.6
						c0.1-0.9,1-3.3,1-3.3s1.4-3.6,1.4-3.7c0-0.1,1.1-2.8,1.8-4.6c0.7-1.8,0.6-2.9,0.6-2.9c-0.2-1.8-1.9-2-2.8-1.9
						c-1,0.1-2.2,0.3-5.7,2.2c-3.6,1.9-5.8,4-5.8,4c0-0.1,1.1-3.9,1.1-3.9c0.3-1.3-0.4-1.9-0.4-1.9c-1-1-2.7-0.5-2.7-0.5
						c-3.4,0.7-6.2,3.6-6.2,3.6c0.4-0.3,3.2-1.2,4.1-1c0.8,0.2,0.3,1.6,0.3,1.6c-0.1,0.2-1,3.2-1.1,3.4c-0.1,0.2-1.8,5.9-2,6.7
						c-0.1,0.2-0.2,0.7-0.4,1.3c-0.1,0-0.2,0-0.7,0.3c-0.7,0.4-3.6,1.7-5.4,1.7c-0.5,0-0.8-0.3-0.8-0.8c0-0.5,0.2-1.6,0.7-3.3
						c0.8-3.1,1.7-5.9,2.6-8.3l2.3-6c0,0-0.7-0.1-1.7,0.5c-0.9,0.6-1.2,0.8-1.2,0.8c-0.7-0.1-1.3-0.1-2-0.1c-2.6,0-4.7,0.3-6.4,0.9
						c-2.1,0.8-4.2,2-6.1,3.7c-1.9,1.7-3.5,3.5-4.6,5.6c-1.1,2-1.7,3.7-1.7,5.3c-0.8,0.4-1.8,0.9-3.3,1.5c-0.9,0.4-2,0.5-2.4,0.5
						c-0.5,0-0.9-0.3-0.9-0.8c0-0.2,0.8-2.8,2.3-7.7l3-10c1.1-3.6,1.9-5.9,2.3-7.2c0.6-1.7,2.4-3.3,3-3.7c1.4-0.9,3.1-1.3,4.1-1.4
						c0.5,0,0.4-0.4-0.3-0.4c-1.5,0-3,0.2-5.3,1.3c-2.3,1.1-4.1,2.6-5.4,4.5c-0.8,1.3-1.8,3.8-3,7.6l-3.3,10.4
						c-0.6,2-1.1,3.6-1.4,4.9c0,0,0,0-0.1,0c-0.1,0-0.3,0.2-1.6,0.8c-1.3,0.7-2.8,1.1-3.6,1.3c-0.9,0.1-1.2,0.1-1.4-0.2
						c-0.2-0.3,0-1.2,0-1.2c0-0.5,0.8-2.9,0.8-3c0-0.1,1.9-5.3,1.9-5.4c0.1-0.1,1.7-4.6,1.7-4.6c0.5-1.2,0.3-1.7,0.3-1.7
						c0-0.7-0.8-1.4-1.8-1.6c-1-0.2-2.6,0.3-2.6,0.3c-0.6,0.1-1.9,0.7-2.7,1.2c-0.8,0.4-2.3,1.6-2.3,1.6c1.2-0.6,2.7-0.7,3.5-0.7
						c0.7-0.1,0.9,0.3,0.9,0.3c0.4,0.5,0,1.4-0.1,1.6c-0.1,0.2-0.9,2.4-0.9,2.4c-1.2,3-2.4,6.7-2.7,7.5c-0.1,0.3-0.2,0.8-0.4,1.3
						c-0.2,0.1-0.4,0.2-0.7,0.4c-0.7,0.4-3.6,1.7-5.4,1.7c-0.5,0-0.8-0.3-0.8-0.8c0-0.5,0.2-1.6,0.7-3.3c0.8-3.1,1.7-5.9,2.6-8.3
						l2.3-6c0,0-0.7-0.1-1.7,0.5c-0.9,0.6-1.2,0.8-1.2,0.8c-0.7-0.1-1.3-0.1-2-0.1c-2.6,0-4.7,0.3-6.4,0.9c-2.1,0.8-4.2,2-6.1,3.7
						c-1.9,1.7-3.5,3.5-4.6,5.6c-1,1.7-1.5,3.3-1.7,4.8c-0.3,0.2-0.5,0.3-0.8,0.5c-1.3,0.9-4.1,2.1-5.3,2.1c-0.2,0-0.4-0.1-0.5-0.2
						c-0.1-0.1-0.2-0.3-0.2-0.5c0-0.6,0.1-1.4,0.4-2.2c0.2-0.8,1-2.9,2.4-6.3c1-2.5,1.6-4.1,1.9-5.1c0.2-0.5,0.2-1.1,0.2-1.6
						c0-0.6-0.2-1.2-0.7-1.5c-0.5-0.4-1.1-0.5-1.9-0.5c-1,0-2.4,0.4-4.1,1.2c-2.9,1.4-5.5,3-8,5l3.4-11.7c0.6-2.2,2.3-4.1,2.9-4.7
						c2.2-2,4.6-2.4,5.4-2.7c0.3-0.1,0-0.2,0-0.2s-2.8-0.1-5.1,0.9c-2.2,0.9-3.9,2.1-5.3,3.6c-1.3,1.5-2.4,3.7-3.3,6.5l-4.5,15.2
						c-0.5,1.8-1.3,4-2.2,6.8h4.5l2.4-8.3c0.5-1.8,1.2-3.2,2.1-4.1c1.4-1.4,3-2.6,4.8-3.5c1.3-0.7,2.4-1,3.2-1c0.7,0,1,0.3,1,0.8
						c0,0.3-0.4,1.5-1.1,3.4c-1.6,4-2.6,6.6-2.9,7.8c-0.3,1.2-0.5,2.1-0.5,2.8c0,0.9,0.2,1.6,0.7,2c0.4,0.4,1,0.6,1.7,0.6
						c0.9,0,2-0.3,3.3-1c1.6-0.8,3.9-2.4,5.7-3.8c0,0.1,0,0.3,0,0.4c0,1.4,0.4,2.5,1.3,3.4c0.6,0.6,1.5,1,2.7,1
						c1.2,0,2.6-0.4,4.1-1.1c2.4-1.2,4.5-2.6,6.3-4.2l-1.2,3.3c-0.2,0.4-0.2,0.7-0.2,1c0,0.4,0.1,0.6,0.4,0.8
						c0.3,0.2,0.7,0.3,1.2,0.3c0.7,0,1.5-0.1,2.3-0.3c1.2-0.3,2.4-0.8,3.7-1.5c0.6-0.3,2.4-1.5,4.4-2.9c-0.2,0.7-0.3,1.4-0.4,1.9
						c-0.1,0.8-0.2,1.7,0.4,2.2c0.6,0.5,1.5,0.8,2.9,0.5c1.5-0.3,3.4-1.4,3.9-1.7c0.5-0.3,3.3-2.2,4.1-2.8c-0.3,1.1-0.4,2-0.4,2.6
						c0,0.6,0.2,1.1,0.6,1.5c0.4,0.4,0.9,0.6,1.6,0.6c1.4,0,3.2-0.6,5.4-1.7c1.3-0.7,2.5-1.4,3.5-2.2c0.1,1.2,0.5,2.2,1.2,2.9
						c0.6,0.6,1.5,1,2.7,1c1.2,0,2.6-0.4,4.1-1.1c2.4-1.2,4.5-2.6,6.3-4.2l-1.2,3.3c-0.2,0.4-0.2,0.7-0.2,1c0,0.4,0.1,0.6,0.4,0.8
						c0.3,0.2,0.7,0.3,1.2,0.3c0.7,0,1.5-0.1,2.3-0.3c1.2-0.3,2.4-0.8,3.7-1.5c0.6-0.3,2.1-1.3,4.4-2.9c-0.6,1.7-1.4,4.1-1.4,4.1
						h4.5c0-0.1,1.3-4.5,1.4-4.7c0-0.2,1-3.4,1.1-3.8c0.1-0.4,0.5-1.5,1-2.4c0.4-1,1.6-2.3,3.6-3.6c2-1.3,3.2-1.8,3.4-1.9
						c0.2-0.1,1.5-0.7,2.4-0.5c0.9,0.2,0.8,0.7,0.7,1.2c-0.1,0.5-1,3-1,3.1c-0.1,0.1-1.6,4.2-1.7,4.5c-0.1,0.3-1,2.3-1.5,4.7
						c-0.5,2.4,0.4,3.2,0.4,3.2c1.3,1.3,3.3,0.5,4.2,0.1c1-0.3,3.2-1.7,3.9-2.1c0.6-0.4,2.3-1.7,2.6-2c0,0.2,0,0.4,0,0.5
						c0,1.4,0.4,2.5,1.1,3.3c0.7,0.7,1.6,1.1,2.7,1.1c1.3,0,2.8-0.4,4.4-1.1c1.6-0.7,3.7-2.1,6.1-4.2l-1.1,2.9
						c-0.2,0.6-0.3,1.1-0.3,1.3c0,0.3,0.2,0.5,0.5,0.7c0.3,0.2,0.7,0.3,1.2,0.3c1.1,0,2.5-0.4,4.4-1.2c1.3-0.6,3.4-1.8,6.1-3.6
						c0,0,0.1-0.3-0.3-0.1c-0.4,0.2-1,0.5-4,1.6c-0.5,0.2-1.3,0.3-1.7,0.3c-0.6,0-1.1-0.3-1.1-0.9c0-0.6,0.3-1.7,0.8-3.4l4.3-14.3
						c1.2-3.8,1.9-6,2.3-6.7c0.6-1.2,1.8-2.6,2.3-3c2.5-2.1,3.6-1.9,5.2-2.1c0.4-0.1,0.6-0.4,0.1-0.4
						C242.5,54.3,241.9,54.3,240.1,54.9 M102.4,44.4c0.4-0.2,0.9-0.4,1.3-0.6c0,0,2.9-1.6,7-1.7c0,0,2.4-0.1,3,0.5
						c0,0,0.8,0.5-0.2,1.2c0,0-1.2,1-5.6,1.1c-0.1,0-0.2,0-0.3,0C106.2,44.8,104.3,44.7,102.4,44.4 M112.1,40.1c0,0-2.2-0.1-7,2.2
						c0,0-1.9,0.8-4.1,2c-3.5-0.5-6.9-1.1-7.6-1.2c-1.1-0.2-11.1-2.7-19.6-1.9c-8.5,0.8-11.2,6.1-11.4,6.4
						c-0.2,0.3-4.1,6.3,1.1,12.4c0,0-2.5-5.1,0.1-9.3c0,0,2.1-3.9,7.5-5.1c0,0,6.2-1.3,13.8-0.4c0,0,11.3,1.3,12.5,1.4
						c-1.4,0.9-2.8,1.8-3.2,2.1c-0.9,0.5-3.9,3-6.1,6c-2.2,2.9-4.5,8-5.2,10.4c0,0-1.8,5-2.1,6c0,0-3,9.8-3.3,10.4
						c0,0-0.9,3-2.7,5.6c0,0-2.5,3.3-3.7,4.2c-1.2,0.9-5.5,4.7-11.8,5.7c0,0,2.9,0.9,11.7-3.5c0,0,6.9-4.4,8.9-7.4
						c2-3.1,3.2-5.7,3.8-8.3c0,0,3.1-11.1,3.7-13.3c0.6-2.2,2.5-7.7,3.2-9c0.7-1.2,2.2-3.8,3.1-4.7c0.6-0.6,2.3-2.3,4.8-4
						c2.2,0.2,7.3,0.6,8.6,0.5c1.6-0.2,7.6-0.5,8.4-4c0,0,0.8-3-3.2-3C112.4,40.1,112.2,40.1,112.1,40.1"/>
				</defs>
				
					<linearGradient id="SVGID_00000128477363393074400060000001751844529351657359_" gradientUnits="userSpaceOnUse" x1="88.5078" y1="125.9292" x2="201.9828" y2="12.4543">
					<stop  offset="0" style="stop-color:#F5DE7D"/>
					<stop  offset="0.3433" style="stop-color:#EEB860"/>
					<stop  offset="0.7155" style="stop-color:#F5DE7D"/>
				</linearGradient>
				
					<use xlink:href="#SVGID_1_"  style="overflow:visible;fill:url(#SVGID_00000128477363393074400060000001751844529351657359_);"/>
				<clipPath id="SVGID_00000163066698114571683160000004216303265715705220_">
					<use xlink:href="#SVGID_1_"  style="overflow:visible;"/>
				</clipPath>
			</g>
		</g>
		<g>
			
				<linearGradient id="SVGID_00000147928756323149948620000000954305097768070286_" gradientUnits="userSpaceOnUse" x1="272.6539" y1="23.3075" x2="278.2603" y2="17.7011">
				<stop  offset="0" style="stop-color:#F5DE7D"/>
				<stop  offset="0.3433" style="stop-color:#EEB860"/>
				<stop  offset="0.7155" style="stop-color:#F5DE7D"/>
			</linearGradient>
			<path style="fill:url(#SVGID_00000147928756323149948620000000954305097768070286_);" d="M275.5,14.9c0,3.1-2.5,5.6-5.6,5.6
				c3.1,0,5.6,2.5,5.6,5.6c0-3.1,2.5-5.6,5.6-5.6C278,20.5,275.5,18,275.5,14.9z"/>
			
				<linearGradient id="SVGID_00000158740620096765965530000011053353867193520541_" gradientUnits="userSpaceOnUse" x1="291.5912" y1="23.3072" x2="297.197" y2="17.7014">
				<stop  offset="0" style="stop-color:#F5DE7D"/>
				<stop  offset="0.3433" style="stop-color:#EEB860"/>
				<stop  offset="0.7155" style="stop-color:#F5DE7D"/>
			</linearGradient>
			<path style="fill:url(#SVGID_00000158740620096765965530000011053353867193520541_);" d="M294.4,14.9c0,3.1,2.5,5.6,5.6,5.6
				c-3.1,0-5.6,2.5-5.6,5.6c0-3.1-2.5-5.6-5.6-5.6C291.9,20.5,294.4,18,294.4,14.9z"/>
			
				<linearGradient id="SVGID_00000042016965067545666620000005439657761738932405_" gradientUnits="userSpaceOnUse" x1="282.1136" y1="32.8654" x2="287.7211" y2="27.2579">
				<stop  offset="0" style="stop-color:#F5DE7D"/>
				<stop  offset="0.3433" style="stop-color:#EEB860"/>
				<stop  offset="0.7155" style="stop-color:#F5DE7D"/>
			</linearGradient>
			<path style="fill:url(#SVGID_00000042016965067545666620000005439657761738932405_);" d="M284.9,24.5c0,3.1-2.5,5.6-5.6,5.6
				c3.1,0,5.6,2.5,5.6,5.6c0-3.1,2.5-5.6,5.6-5.6C287.4,30.1,284.9,27.6,284.9,24.5z"/>
			
				<linearGradient id="SVGID_00000152245361741749937860000013195733888867212220_" gradientUnits="userSpaceOnUse" x1="282.1137" y1="13.8223" x2="287.721" y2="8.2151">
				<stop  offset="0" style="stop-color:#F5DE7D"/>
				<stop  offset="0.3433" style="stop-color:#EEB860"/>
				<stop  offset="0.7155" style="stop-color:#F5DE7D"/>
			</linearGradient>
			<path style="fill:url(#SVGID_00000152245361741749937860000013195733888867212220_);" d="M284.9,5.4c0,3.1-2.5,5.6-5.6,5.6
				c3.1,0,5.6,2.5,5.6,5.6c0-3.1,2.5-5.6,5.6-5.6C287.4,11,284.9,8.5,284.9,5.4z"/>
			
				<linearGradient id="SVGID_00000116913573160505183930000018105164614360931758_" gradientUnits="userSpaceOnUse" x1="249.3878" y1="89.7188" x2="293.5905" y2="45.5161">
				<stop  offset="0" style="stop-color:#F5DE7D"/>
				<stop  offset="0.3433" style="stop-color:#EEB860"/>
				<stop  offset="0.7155" style="stop-color:#F5DE7D"/>
			</linearGradient>
			<path style="fill:url(#SVGID_00000116913573160505183930000018105164614360931758_);" d="M281,87.9c0.6-1,1.1-4.3,1.7-7
				c0.7-2.8,1.6-4.2,1.6-4.2c-0.2-0.5-1-0.3-1-0.3c-1.2,0.1-1.4,2.5-1.7,2.9c-0.3,0.4-0.8-0.1-0.8-0.1c-0.1-0.7-0.7-1.2-0.7-1.2
				c-1.9-2-7-5.3-8.1-5.9c-1.1-0.7-1.5-0.6-1.7-0.2c-0.2,0.4-0.1,1.3-0.1,1.3s-1.4,0-2-0.5c-0.7-0.5-2.3-2.9-2.3-2.9
				c3.1,0.9,4.8-1.1,4.8-1.1c-1-0.2-1.5-1.1-1.5-1.1c1.6-0.2,2.4-1.2,2.4-1.2c-1,0-1.7-0.9-1.7-0.9c1.4-0.5,2.4-2.1,2.4-2.1
				c-0.5,0.1-2.1,0.1-2.1,0.1c1.4-0.7,2.6-2.1,2.6-2.1c-1.5,0.3-3.9-0.2-3.9-0.2c2.1-0.5,2.4-2.3,2.4-2.3s0.7,0.4,2.7,0.3
				c2-0.1,3-1.6,4.1-2.8c1-1.2,2.2-1.2,2.8-2c0.5-0.8,1.5-1.2,1.5-1.2s-0.5-0.3-1.2,0.1c-0.7,0.4-1.4,0-1.4,0
				c-1.9-0.9-3.4,0.1-4,0.7c-0.6,0.6-1.9,0.5-1.9,0.5c0.6-0.7,0.3-1.3,0.3-1.3c-1.8,1-2.8,0-5.2,0.2c-2.4,0.2-3.2,1.8-3.5,2.2
				c-0.4,0.4-0.5,0.1-0.5,0.1c-0.2-0.6,0.2-1.2,0.2-1.2s-0.8,0-1.2,0.7c-0.3,0.7-0.9,1.4-1.5,1.4c-0.6,0-1.8,0.4-1.8,0.4
				c0.2-0.6-0.2-1.2-0.2-1.2c-4.3,1.4-4.7-2.1-4.4-3.3c0.3-1.2,1-3.7,1-3.7s1.1,0,1.5-0.4c0.3-0.3,0.7-0.3,0.7-0.3
				c2.1-0.3,4-1.8,4-1.8s1,2.5,4.5,1.4c0,0,2.2-0.5,3.5-4c0,0,1.7-0.7,1.8-0.9c1,0.7,1.8,0.5,1.8,0.5c1.3-0.2,1.7-1.6,1.7-1.6
				s3,0.3,3.7,0.2c0.8-0.1,1-0.3,1.5-0.9c0.4-0.6,0.3-0.9,0.3-0.9c0.4-0.4,0.9-1.3,0.9-1.3c0.8-0.4,2-2,1.7-1.8
				c-0.3,0.3-1.2,0.4-1.2,0.4s0,0-1.6,0c-1.7,0-1.9,1-1.9,1c-1.5,0-2,1.4-2,1.4c-1.9-0.1-4.6,0.8-4.6,0.8c-2.5-1-3.6,1.2-3.6,1.2
				c-0.7,0.2-2.4,0.5-2.4,0.5h-2c0,0-1.6-2.2-3.6-2.1c-2,0-2.9,1.2-3.2,1.3c-0.4,0.1-1.2,0.3-1.9,0.1c-0.7-0.3,0.1-1,0.1-1
				s1.3,0,2.7-2.4c1.5-2.4,0.4-3.8,0.4-3.8c0.4-1,0.1-2,0.1-2l0.1-1.3l-1,0.3c-1.2-0.1-2.3,0.9-2.3,0.9s-0.4-0.4-2,0.4
				c-1.6,0.9-2.6,2.2-3.6,4.1c-1,1.9-0.9,3.5-0.9,3.5L248,40c-2-0.1-2.3,2-2.3,2c-0.1,2,0.8,4.1,1.6,6.9c0.9,2.9,1.4,4.8,1.9,8.2
				c0.4,3.4,1.6,7.2,2.8,8.5c1.2,1.3,4.1,4.3,4.1,4.3c0.5,0.2,1.4-0.1,1.4-0.1c0.7,0.6,0.6,1.2,0.6,1.2c0.4,0.1,0.7-0.1,0.7-0.1
				c1.3,0.9,4.2,2.6,6.4,3.6c2.2,1,4.1,2.7,4.1,2.7c4.4,3.9,5.4,7,5.4,7c-0.9,0.2-0.5,1.3-0.8,1.5c-0.3,0.2-0.9,0.2-3.1,0.2
				c-1.9,0-2,2-2,2.5c-3.3,2.2-5.5,5.9-5.5,10.1c0,6.7,5.4,12.1,12.1,12.1c6.7,0,12.1-5.4,12.1-12.1C287.5,94,284.9,89.9,281,87.9z
				 M279.3,80.5c-0.1,1,0.8,1.4,0.8,1.4c0.1,0.8-0.1,3.2-0.7,3.6c-0.6,0.4-1.6,0.1-1.6,0.1c-1.2-0.2-0.9-1.3-0.9-1.3
				c0.1-3.4-1.7-6.2-1.7-6.2C277.8,79.1,279.3,80.5,279.3,80.5z"/>
		</g>
		<g>
			<g>
				<g>
					<defs>
						<path id="SVGID_00000003819273746971673700000011342592058906583424_" d="M59.5,100.8l-0.1,2.4h0.3c0.1-0.8,0.4-1.2,0.6-1.5
							c0.3-0.2,0.8-0.3,1.6-0.3h0.8v7c0,0.6-0.1,1-0.2,1.1c-0.1,0.2-0.5,0.2-1.1,0.3v0.3h4.1v-0.3c-0.6,0-0.9-0.1-1.1-0.2
							c-0.2-0.1-0.3-0.5-0.3-1v-7.2h0.8c0.8,0,1.3,0.1,1.6,0.3c0.3,0.2,0.5,0.7,0.6,1.5h0.3l-0.1-2.4H59.5z M86.2,100.8v0.3
							c0.5,0.1,0.9,0.2,1,0.4c0.2,0.2,0.3,0.7,0.3,1.4v3.6c0,0.9-0.1,1.6-0.3,2c-0.4,0.8-1.2,1.1-2.3,1.1c-1,0-1.8-0.4-2.1-1.1
							c-0.2-0.4-0.3-1-0.3-1.7v-4.5c0-0.5,0.1-0.8,0.2-1c0.2-0.1,0.5-0.2,1-0.3v-0.3h-4v0.3c0.5,0,0.9,0.1,1,0.3
							c0.2,0.1,0.2,0.5,0.2,1v4.4c0,0.9,0.1,1.6,0.4,2.1c0.5,1,1.6,1.5,3.1,1.5c1.5,0,2.6-0.5,3.1-1.5c0.3-0.5,0.4-1.3,0.4-2.3v-3.6
							c0-0.7,0.1-1.2,0.3-1.4c0.2-0.2,0.5-0.3,1.1-0.4v-0.3H86.2z M93.5,101.8c0-0.2,0-0.3,0.1-0.4c0.1-0.1,0.3-0.1,0.7-0.1
							c0.6,0,1.1,0.1,1.4,0.2c0.7,0.3,1,0.8,1,1.7c0,0.8-0.4,1.4-1.1,1.7c-0.4,0.2-1.2,0.3-2.2,0.3V101.8z M90.8,100.8v0.3
							c0.5,0,0.8,0.1,1,0.3c0.1,0.2,0.2,0.5,0.2,0.9v6.1c0,0.6-0.1,0.9-0.2,1.1c-0.1,0.2-0.5,0.3-1,0.3v0.3h3.9v-0.3
							c-0.5,0-0.9-0.1-1-0.3c-0.2-0.1-0.2-0.5-0.2-1v-2.8l0.6,0l3.5,4.3h2.3v-0.3c-0.3,0-0.5-0.1-0.7-0.2c-0.2-0.1-0.4-0.3-0.5-0.5
							l-2.9-3.6c0.8-0.1,1.4-0.4,1.8-0.7c0.5-0.4,0.7-0.9,0.7-1.6c0-1-0.5-1.7-1.5-2.1c-0.5-0.2-1.2-0.3-2-0.3H90.8z M101.3,100.8
							v0.3c0.6,0,0.9,0.1,1.1,0.3c0.2,0.1,0.3,0.5,0.3,1v6.3c0,0.5-0.1,0.9-0.3,1c-0.2,0.1-0.5,0.2-1.1,0.2v0.3h4.1v-0.3
							c-0.6,0-0.9-0.1-1.1-0.2c-0.2-0.1-0.2-0.5-0.2-1v-6.3c0-0.5,0.1-0.8,0.2-1c0.2-0.2,0.5-0.2,1.1-0.3v-0.3H101.3z M124.7,100.8
							l-3.1,7l-3.2-7h-2.7v0.3c0.6,0,0.9,0.1,1.1,0.3c0.2,0.1,0.2,0.5,0.2,1v5.7c0,0.7-0.1,1.2-0.2,1.4c-0.2,0.2-0.5,0.3-1.1,0.4
							v0.3h3.3v-0.3c-0.5-0.1-0.8-0.2-1-0.3c-0.2-0.2-0.3-0.7-0.3-1.5v-5.6l3.5,7.7h0.2l3.6-8v6.3c0,0.6-0.1,1-0.2,1.1
							c-0.1,0.2-0.5,0.3-1.1,0.3v0.3h3.9v-0.3c-0.5,0-0.9-0.1-1-0.3c-0.2-0.2-0.2-0.5-0.2-1v-6.2c0-0.5,0.1-0.8,0.2-1
							c0.2-0.2,0.5-0.2,1-0.3v-0.3H124.7z M153.5,100.8v0.3c0.3,0,0.5,0,0.6,0.1c0.2,0.1,0.4,0.3,0.4,0.5c0,0.1,0,0.2,0,0.3
							c0,0.2-0.1,0.4-0.2,0.7l-1.7,4.8l-2-5.3c-0.1-0.2-0.1-0.3-0.1-0.4c0-0.1,0-0.1,0-0.2c0-0.2,0.1-0.4,0.3-0.5
							c0.1,0,0.4-0.1,0.7-0.1v-0.3h-3.8v0.3c0.3,0,0.5,0,0.7,0.1c0.2,0.1,0.4,0.3,0.6,0.6l0.7,1.7l-1.5,3.9l-2-5.3
							c0-0.1-0.1-0.2-0.1-0.3c0-0.1,0-0.2,0-0.3c0-0.2,0.1-0.3,0.3-0.4c0.1,0,0.3-0.1,0.6-0.1v-0.3h-3.4v0.3c0.4,0,0.7,0.2,0.9,0.5
							c0.2,0.3,0.5,1.1,1,2.5l1.2,3.3l1,2.9h0.2l2.1-5.9l1.6,4.3l0.6,1.6h0.2l0.9-2.5l0.6-1.6l1.5-4.2c0.1-0.3,0.3-0.5,0.5-0.7
							c0.1-0.1,0.3-0.1,0.6-0.2v-0.3H153.5z M169.1,101.8c0-0.2,0-0.3,0.1-0.4c0.1-0.1,0.3-0.1,0.7-0.1c0.6,0,1.1,0.1,1.4,0.2
							c0.7,0.3,1,0.8,1,1.7c0,0.8-0.4,1.4-1.1,1.7c-0.4,0.2-1.2,0.3-2.2,0.3V101.8z M166.5,100.8v0.3c0.5,0,0.8,0.1,1,0.3
							c0.1,0.2,0.2,0.5,0.2,0.9v6.1c0,0.6-0.1,0.9-0.2,1.1c-0.1,0.2-0.5,0.3-1,0.3v0.3h3.9v-0.3c-0.5,0-0.9-0.1-1-0.3
							c-0.2-0.1-0.2-0.5-0.2-1v-2.8l0.6,0l3.5,4.3h2.2v-0.3c-0.3,0-0.5-0.1-0.7-0.2c-0.2-0.1-0.4-0.3-0.5-0.5l-2.9-3.6
							c0.8-0.1,1.4-0.4,1.9-0.7c0.4-0.4,0.7-0.9,0.7-1.6c0-1-0.5-1.7-1.5-2.1c-0.5-0.2-1.2-0.3-2-0.3H166.5z M179.7,109.4
							c-0.1-0.1-0.2-0.2-0.2-0.5v-7.1c0-0.2,0.1-0.4,0.2-0.4c0.1-0.1,0.3-0.1,0.6-0.1c1.2,0,2.3,0.3,3,0.9c0.9,0.7,1.3,1.8,1.3,3.3
							c0,1.6-0.5,2.8-1.6,3.4c-0.7,0.4-1.6,0.7-2.7,0.7C180,109.5,179.8,109.5,179.7,109.4 M176.8,100.8v0.3c0.5,0,0.9,0.1,1,0.3
							c0.1,0.1,0.2,0.5,0.2,1v6.3c0,0.5-0.1,0.8-0.2,1c-0.2,0.1-0.5,0.2-1,0.3v0.3h3.9c1.1,0,1.9-0.1,2.7-0.4
							c0.4-0.1,0.8-0.3,1.1-0.6c0.6-0.4,1-1,1.3-1.6c0.3-0.6,0.4-1.3,0.4-2c0-1.9-0.8-3.3-2.4-4c-0.9-0.4-2-0.6-3.2-0.6H176.8z
							 M138.5,102.6l1.6,3.9h-3.2L138.5,102.6z M138.7,100.6l-2.9,6.9c-0.4,1-0.8,1.7-0.9,1.9c-0.2,0.2-0.5,0.4-0.8,0.4v0.3h2.8
							v-0.3c-0.3,0-0.6-0.1-0.7-0.1c-0.2-0.1-0.3-0.3-0.3-0.5c0-0.1,0-0.3,0.1-0.5c0.1-0.2,0.3-0.8,0.6-1.7h3.7l0.6,1.4
							c0.1,0.2,0.1,0.4,0.2,0.5c0,0.2,0.1,0.3,0.1,0.4c0,0.2-0.1,0.3-0.2,0.4c-0.1,0-0.4,0.1-0.8,0.1v0.3h3.6v-0.3
							c-0.3,0-0.6-0.1-0.7-0.3c-0.1-0.1-0.3-0.4-0.5-1l-3.5-8H138.7z M159.8,102.6l1.6,3.9h-3.2L159.8,102.6z M160,100.6l-2.9,6.9
							c-0.4,1-0.7,1.7-0.9,1.9c-0.2,0.2-0.5,0.4-0.8,0.4v0.3h2.8v-0.3c-0.3,0-0.6-0.1-0.7-0.1c-0.2-0.1-0.3-0.3-0.3-0.5
							c0-0.1,0-0.3,0.1-0.5c0.1-0.2,0.3-0.8,0.7-1.7h3.7l0.6,1.4c0.1,0.2,0.1,0.4,0.2,0.5c0,0.2,0.1,0.3,0.1,0.4
							c0,0.2-0.1,0.3-0.2,0.4c-0.1,0-0.4,0.1-0.8,0.1v0.3h3.6v-0.3c-0.3,0-0.6-0.1-0.7-0.3c-0.1-0.1-0.3-0.4-0.6-1l-3.5-8H160z
							 M71.4,108.7c-0.6-0.7-0.9-1.8-0.9-3.3c0-1.5,0.3-2.6,0.9-3.3c0.6-0.7,1.3-1,2.1-1c0.8,0,1.5,0.3,2.1,1
							c0.6,0.7,0.9,1.8,0.9,3.3c0,1.5-0.3,2.6-0.9,3.3c-0.6,0.7-1.3,1-2.1,1C72.7,109.7,71.9,109.4,71.4,108.7 M70.3,101.8
							c-0.9,0.9-1.4,2.1-1.4,3.6c0,1.4,0.4,2.6,1.3,3.5c0.9,0.9,2,1.3,3.3,1.3c1.2,0,2.3-0.4,3.1-1.2c1-0.9,1.5-2.1,1.5-3.6
							c0-1.5-0.5-2.7-1.4-3.6c-0.9-0.8-1.9-1.2-3.2-1.2C72.2,100.6,71.2,101,70.3,101.8 M112.6,100.6c0,0.1-0.1,0.3-0.2,0.3
							c-0.1,0.1-0.2,0.1-0.4,0.1c-0.1,0-0.3-0.1-0.8-0.2c-0.4-0.1-0.8-0.2-1.2-0.2c-0.8,0-1.4,0.2-1.9,0.7c-0.5,0.5-0.7,1.1-0.7,1.8
							c0,0.5,0.2,1,0.6,1.5c0.2,0.2,0.5,0.5,0.9,0.7l1.2,0.7c0.7,0.4,1.1,0.8,1.4,1c0.3,0.3,0.5,0.7,0.5,1.2c0,0.5-0.2,0.9-0.5,1.2
							c-0.3,0.3-0.7,0.4-1.2,0.4c-0.8,0-1.5-0.3-2.1-1c-0.3-0.4-0.6-0.9-0.8-1.5h-0.3l0.4,3h0.3c0-0.1,0.1-0.2,0.1-0.3
							c0.1-0.1,0.2-0.2,0.3-0.2c0.1,0,0.3,0.1,0.8,0.3c0.5,0.2,0.9,0.3,1.3,0.3c0.9,0,1.6-0.2,2.1-0.7c0.6-0.5,0.8-1.1,0.8-1.8
							c0-0.5-0.2-1-0.5-1.4c-0.3-0.4-0.9-0.8-1.6-1.3l-1.2-0.8c-0.5-0.3-0.8-0.6-1-0.8c-0.2-0.3-0.3-0.6-0.3-0.9
							c0-0.4,0.1-0.7,0.4-0.9c0.3-0.2,0.6-0.3,1-0.3c0.5,0,1,0.2,1.5,0.5c0.5,0.4,0.9,1,1.1,1.9h0.3l-0.3-3H112.6z M193.7,100.6
							c0,0.1-0.1,0.3-0.2,0.3c-0.1,0.1-0.2,0.1-0.4,0.1c-0.1,0-0.3-0.1-0.8-0.2c-0.4-0.1-0.8-0.2-1.2-0.2c-0.8,0-1.4,0.2-1.9,0.7
							c-0.5,0.5-0.7,1.1-0.7,1.8c0,0.5,0.2,1,0.6,1.5c0.2,0.2,0.5,0.5,0.9,0.7l1.2,0.7c0.7,0.4,1.1,0.8,1.4,1
							c0.3,0.3,0.5,0.7,0.5,1.2c0,0.5-0.2,0.9-0.5,1.2c-0.3,0.3-0.7,0.4-1.2,0.4c-0.8,0-1.5-0.3-2.1-1c-0.3-0.4-0.6-0.9-0.8-1.5
							h-0.3l0.4,3h0.3c0-0.1,0.1-0.2,0.1-0.3c0.1-0.1,0.2-0.2,0.3-0.2c0.1,0,0.3,0.1,0.8,0.3c0.5,0.2,0.9,0.3,1.4,0.3
							c0.9,0,1.6-0.2,2.1-0.7c0.6-0.5,0.8-1.1,0.8-1.8c0-0.5-0.1-1-0.4-1.4c-0.3-0.4-0.9-0.8-1.6-1.3l-1.2-0.8
							c-0.5-0.3-0.8-0.6-1-0.8c-0.2-0.3-0.3-0.6-0.3-0.9c0-0.4,0.1-0.7,0.4-0.9c0.3-0.2,0.6-0.3,1-0.3c0.5,0,1,0.2,1.5,0.5
							c0.5,0.4,0.9,1,1.1,1.9h0.3l-0.3-3H193.7z"/>
					</defs>
					
						<linearGradient id="SVGID_00000179644588314090688850000004993651292369985693_" gradientUnits="userSpaceOnUse" x1="91.5465" y1="140.201" x2="162.5701" y2="69.1775">
						<stop  offset="0" style="stop-color:#F5DE7D"/>
						<stop  offset="0.3433" style="stop-color:#EEB860"/>
						<stop  offset="0.7155" style="stop-color:#F5DE7D"/>
					</linearGradient>
					
						<use xlink:href="#SVGID_00000003819273746971673700000011342592058906583424_"  style="overflow:visible;fill:url(#SVGID_00000179644588314090688850000004993651292369985693_);"/>
					<clipPath id="SVGID_00000089551402006583717620000006381623991129768347_">
						<use xlink:href="#SVGID_00000003819273746971673700000011342592058906583424_"  style="overflow:visible;"/>
					</clipPath>
				</g>
			</g>
			<g>
				
					<linearGradient id="SVGID_00000138537273381191225920000007067455863135952566_" gradientUnits="userSpaceOnUse" x1="201.0999" y1="105.1302" x2="208.0275" y2="105.1302">
					<stop  offset="0" style="stop-color:#F5DE7D"/>
					<stop  offset="0.3433" style="stop-color:#EEB860"/>
					<stop  offset="0.7155" style="stop-color:#F5DE7D"/>
				</linearGradient>
				<path style="fill:url(#SVGID_00000138537273381191225920000007067455863135952566_);" d="M208,106.7l-0.2,3.2h-6.7
					c0-0.4,0.2-0.9,0.5-1.3c0.3-0.5,0.9-1,1.8-1.7c0.9-0.7,1.5-1.2,1.8-1.6c0.5-0.7,0.8-1.5,0.8-2.4c0-0.7-0.2-1.3-0.5-1.7
					c-0.3-0.4-0.8-0.6-1.4-0.6c-0.5,0-1,0.2-1.4,0.5c-0.4,0.3-0.6,0.6-0.6,0.9c0,0.2,0.1,0.3,0.2,0.3c0.3,0.1,0.5,0.1,0.5,0.1
					c0.3,0.2,0.5,0.4,0.5,0.8c0,0.3-0.1,0.5-0.3,0.7c-0.2,0.2-0.4,0.3-0.6,0.3c-0.3,0-0.6-0.1-0.8-0.4c-0.2-0.2-0.3-0.5-0.3-0.9
					c0-0.7,0.3-1.3,0.9-1.8c0.6-0.5,1.4-0.8,2.3-0.8c1,0,1.9,0.3,2.6,0.8c0.7,0.5,1,1.2,1,1.9c0,0.8-0.4,1.5-1.2,2.2
					c-0.3,0.2-1.1,0.7-2.4,1.5c-1,0.6-1.6,1.1-1.8,1.6h3.5c0.7,0,1.1-0.1,1.4-0.4c0.2-0.2,0.3-0.6,0.4-1.2H208z"/>
				
					<linearGradient id="SVGID_00000078020591756911666360000014561523850221979822_" gradientUnits="userSpaceOnUse" x1="209.4488" y1="105.2233" x2="217.0665" y2="105.2233">
					<stop  offset="0" style="stop-color:#F5DE7D"/>
					<stop  offset="0.3433" style="stop-color:#EEB860"/>
					<stop  offset="0.7155" style="stop-color:#F5DE7D"/>
				</linearGradient>
				<path style="fill:url(#SVGID_00000078020591756911666360000014561523850221979822_);" d="M217.1,105.2c0,1.5-0.4,2.7-1.2,3.6
					c-0.7,0.9-1.6,1.3-2.6,1.3s-1.9-0.4-2.6-1.3c-0.8-0.9-1.2-2.1-1.2-3.6c0-1.5,0.4-2.6,1.2-3.6c0.7-0.9,1.6-1.3,2.6-1.3
					c1,0,1.9,0.4,2.6,1.3C216.7,102.6,217.1,103.8,217.1,105.2z M215.1,105.2c0-1.6-0.1-2.7-0.4-3.4c-0.3-0.8-0.8-1.2-1.4-1.2
					c-0.7,0-1.2,0.4-1.5,1.2c-0.3,0.7-0.4,1.9-0.4,3.4c0,1.6,0.1,2.7,0.4,3.4c0.3,0.8,0.8,1.2,1.5,1.2c0.7,0,1.2-0.4,1.5-1.2
					C215,108,215.1,106.8,215.1,105.2z"/>
				
					<linearGradient id="SVGID_00000034770946957416618190000009839003295349330819_" gradientUnits="userSpaceOnUse" x1="218.3156" y1="105.1302" x2="225.2431" y2="105.1302">
					<stop  offset="0" style="stop-color:#F5DE7D"/>
					<stop  offset="0.3433" style="stop-color:#EEB860"/>
					<stop  offset="0.7155" style="stop-color:#F5DE7D"/>
				</linearGradient>
				<path style="fill:url(#SVGID_00000034770946957416618190000009839003295349330819_);" d="M225.2,106.7l-0.2,3.2h-6.7
					c0-0.4,0.2-0.9,0.5-1.3c0.3-0.5,0.9-1,1.8-1.7c0.9-0.7,1.5-1.2,1.8-1.6c0.5-0.7,0.8-1.5,0.8-2.4c0-0.7-0.2-1.3-0.5-1.7
					c-0.3-0.4-0.8-0.6-1.4-0.6c-0.5,0-1,0.2-1.4,0.5c-0.4,0.3-0.6,0.6-0.6,0.9c0,0.2,0.1,0.3,0.2,0.3c0.3,0.1,0.5,0.1,0.5,0.1
					c0.3,0.2,0.5,0.4,0.5,0.8c0,0.3-0.1,0.5-0.3,0.7c-0.2,0.2-0.4,0.3-0.6,0.3c-0.3,0-0.6-0.1-0.8-0.4c-0.2-0.2-0.3-0.5-0.3-0.9
					c0-0.7,0.3-1.3,0.9-1.8c0.6-0.5,1.4-0.8,2.3-0.8c1,0,1.9,0.3,2.6,0.8c0.7,0.5,1,1.2,1,1.9c0,0.8-0.4,1.5-1.2,2.2
					c-0.3,0.2-1.1,0.7-2.4,1.5c-1,0.6-1.6,1.1-1.8,1.6h3.5c0.7,0,1.1-0.1,1.4-0.4c0.2-0.2,0.3-0.6,0.4-1.2H225.2z"/>
				
					<linearGradient id="SVGID_00000070810537157050939570000006257602220392357034_" gradientUnits="userSpaceOnUse" x1="226.7541" y1="105.2233" x2="233.7508" y2="105.2233">
					<stop  offset="0" style="stop-color:#F5DE7D"/>
					<stop  offset="0.3433" style="stop-color:#EEB860"/>
					<stop  offset="0.7155" style="stop-color:#F5DE7D"/>
				</linearGradient>
				<path style="fill:url(#SVGID_00000070810537157050939570000006257602220392357034_);" d="M233.8,107.3c0,0.8-0.4,1.5-1.2,2
					c-0.7,0.5-1.7,0.8-2.7,0.8c-0.9,0-1.6-0.2-2.2-0.6c-0.6-0.4-0.9-0.9-0.9-1.4c0-0.4,0.1-0.7,0.3-0.9c0.2-0.2,0.4-0.3,0.7-0.3
					c0.3,0,0.5,0.1,0.7,0.3c0.2,0.2,0.3,0.4,0.3,0.7c0,0.5-0.2,0.7-0.6,0.8c-0.2,0-0.2,0-0.2,0c-0.1,0-0.1,0.1-0.1,0.2
					c0,0.2,0.2,0.4,0.5,0.6c0.4,0.3,0.9,0.4,1.5,0.4c1.4,0,2-0.8,2-2.5c0-0.8-0.1-1.4-0.4-1.8c-0.3-0.4-0.8-0.6-1.4-0.6
					c-0.2,0-0.4,0-0.7,0.1c-0.3,0.1-0.4,0.1-0.4,0.1c-0.2,0-0.3-0.1-0.3-0.3c0-0.2,0.1-0.3,0.4-0.3c0,0,0.1,0,0.3,0
					c0.2,0,0.4,0,0.5,0c0.6,0,1-0.2,1.4-0.6c0.3-0.4,0.5-0.9,0.5-1.5c0-1.3-0.6-2-1.8-2c-0.5,0-0.9,0.1-1.2,0.4
					c-0.3,0.2-0.5,0.4-0.5,0.7c0,0.1,0.1,0.2,0.3,0.2c0.3,0.1,0.4,0.1,0.5,0.2c0.2,0.1,0.3,0.4,0.3,0.7c0,0.3-0.1,0.5-0.3,0.7
					c-0.2,0.2-0.4,0.3-0.7,0.3c-0.3,0-0.6-0.1-0.8-0.4c-0.2-0.2-0.3-0.5-0.3-0.8c0-0.6,0.3-1.1,0.8-1.5c0.6-0.4,1.3-0.6,2.2-0.6
					c1,0,1.8,0.2,2.5,0.7c0.6,0.4,0.9,0.9,0.9,1.5c0,0.8-0.3,1.3-0.9,1.7c-0.4,0.2-1.1,0.4-2,0.6
					C232.7,104.9,233.8,105.7,233.8,107.3z"/>
			</g>
		</g>
	</g>
	<g>
		<g>
			
				<linearGradient id="SVGID_00000064334945535163608630000010322719163172592046_" gradientUnits="userSpaceOnUse" x1="0" y1="92.4483" x2="28.881" y2="92.4483">
				<stop  offset="0" style="stop-color:#F5DE7D"/>
				<stop  offset="0.3433" style="stop-color:#EEB860"/>
				<stop  offset="0.7155" style="stop-color:#F5DE7D"/>
			</linearGradient>
			<path style="fill:url(#SVGID_00000064334945535163608630000010322719163172592046_);" d="M28.4,111c-4.6-0.2-6.9-0.4-8.2-0.9
				c-1.4-0.5-1.5-1.6-1.5-3.2c0-0.5,0.3-2.1,0.7-4.2l5.9-29.3h-4c-4.5,4.8-8.9,6.2-15.4,7.1l-0.1,0.6c3-0.1,5.3-0.3,6.8-0.5
				c0.9-0.1,1.5-0.1,1.9-0.1c2,0,2.4,0.8,2.4,2.2c0,0.9-0.2,2.5-0.7,4.6l-2.8,13.9c-0.1,0.6-0.2,1.1-0.3,1.6
				c-1.3,6.9-1.5,7.8-13.1,8.1L0,111.5h28.8l0.1-0.5L28.4,111z"/>
			
				<linearGradient id="SVGID_00000102506810484527018830000011451386066829300102_" gradientUnits="userSpaceOnUse" x1="24.5509" y1="92.4483" x2="55.4632" y2="92.4483">
				<stop  offset="0" style="stop-color:#F5DE7D"/>
				<stop  offset="0.3433" style="stop-color:#EEB860"/>
				<stop  offset="0.7155" style="stop-color:#F5DE7D"/>
			</linearGradient>
			<path style="fill:url(#SVGID_00000102506810484527018830000011451386066829300102_);" d="M47.1,97.4l4.8-24.1h-4.1
				c-5.5,6.2-10.6,11.6-15.2,16.4c-2.9,3.1-5.7,6-8.1,8.6l0.7,2h15.4l-1.1,5.4c-0.9,4.6-1.3,4.6-7.7,5.1l-0.1,0.7h20.8l0.2-0.7
				l-0.7,0c-4.2-0.2-6.7-0.2-6.7-2.3c0-0.8-0.1-1.7,0.1-2.8l1-5.4h7.2l1.8-2.9H47.1z M41.2,97.4H26.8l0.2-0.2
				c10.7-11.8,17.1-18.3,17.8-19l0.3-0.3L41.2,97.4z"/>
		</g>
		<g>
			
				<linearGradient id="SVGID_00000119814218996409894120000010752480742733327267_" gradientUnits="userSpaceOnUse" x1="54.5092" y1="75.8966" x2="57.5977" y2="75.8966">
				<stop  offset="0" style="stop-color:#F5DE7D"/>
				<stop  offset="0.3433" style="stop-color:#EEB860"/>
				<stop  offset="0.7155" style="stop-color:#F5DE7D"/>
			</linearGradient>
			<path style="fill:url(#SVGID_00000119814218996409894120000010752480742733327267_);" d="M57.6,75h-1.1l-0.5,2.5
				c-0.1,0.3-0.1,0.6-0.1,0.8c0,0.3,0.1,0.4,0.4,0.4c0.5,0,0.9-0.6,1.3-1.7l0.2,0c-0.3,1.2-0.9,1.9-1.7,1.9c-0.6,0-1-0.4-1-1.1
				c0-0.3,0.1-0.8,0.2-1.2l0.4-1.7h-0.9l0-0.2h0.9l0.3-1.6c0.1,0.1,0.2,0.1,0.4,0.1c0.3,0,0.6-0.3,0.8-0.7l-0.4,2.1h1.1L57.6,75z"/>
			
				<linearGradient id="SVGID_00000095311152913916892820000002555813190555951792_" gradientUnits="userSpaceOnUse" x1="57.9698" y1="75.9485" x2="63.1346" y2="75.9485">
				<stop  offset="0" style="stop-color:#F5DE7D"/>
				<stop  offset="0.3433" style="stop-color:#EEB860"/>
				<stop  offset="0.7155" style="stop-color:#F5DE7D"/>
			</linearGradient>
			<path style="fill:url(#SVGID_00000095311152913916892820000002555813190555951792_);" d="M62.7,78.3c-0.3,0.5-0.6,0.7-1.1,0.7
				c-0.4,0-0.9-0.3-0.9-1c0-0.2,0.1-0.5,0.2-0.8l0.4-1.3c0.1-0.2,0.1-0.4,0.1-0.6c0-0.2-0.1-0.3-0.3-0.3c-0.6,0-1.3,1.3-2.2,3.9h-1
				l1.1-5c0-0.1,0-0.2,0-0.3c0-0.3-0.1-0.4-0.9-0.4l0-0.1c0.8-0.1,1.5-0.1,2.1-0.2l-1,4.5c0.7-1.7,1.3-2.6,2-2.6c0.6,0,1,0.5,1,1.1
				c0,0.4-0.1,0.9-0.3,1.3l-0.3,0.9c0,0.1-0.1,0.3-0.1,0.4c0,0.2,0.1,0.3,0.2,0.3c0.3,0,0.8-0.5,1.1-1.4l0.1,0.1
				C63,77.8,62.9,78,62.7,78.3z"/>
		</g>
		<g>
			
				<linearGradient id="SVGID_00000131350484666237993720000000036411973694907540_" gradientUnits="userSpaceOnUse" x1="36.6436" y1="67.0873" x2="42.7619" y2="67.0873">
				<stop  offset="0" style="stop-color:#F5DE7D"/>
				<stop  offset="0.3433" style="stop-color:#EEB860"/>
				<stop  offset="0.7155" style="stop-color:#F5DE7D"/>
			</linearGradient>
			<path style="fill:url(#SVGID_00000131350484666237993720000000036411973694907540_);" d="M42.2,66.5H42v-0.4c0-0.3,0-0.7-0.1-1
				c-0.2-0.8-0.4-1.1-1.2-1.1h-0.1l-1.2,5.5c0,0,0,0.1,0,0.1c0,0.3,0.1,0.4,1.1,0.5l0,0.2h-3.7l0-0.2c1.1-0.1,1.3-0.2,1.4-0.7
				l1.2-5.4h-0.2c-1,0-1.5,0.7-2.3,2.5h-0.2l0.6-2.7h5.5L42.2,66.5z"/>
			
				<linearGradient id="SVGID_00000098204947617480826950000009893230426021149089_" gradientUnits="userSpaceOnUse" x1="43.0155" y1="67.0042" x2="48.8504" y2="67.0042">
				<stop  offset="0" style="stop-color:#F5DE7D"/>
				<stop  offset="0.3433" style="stop-color:#EEB860"/>
				<stop  offset="0.7155" style="stop-color:#F5DE7D"/>
			</linearGradient>
			<path style="fill:url(#SVGID_00000098204947617480826950000009893230426021149089_);" d="M48.4,69.6c-0.3,0.5-0.7,0.8-1.2,0.8
				c-0.5,0-1-0.4-1-1.1c0-0.2,0.1-0.6,0.2-0.9l0.5-1.5c0.1-0.2,0.1-0.4,0.1-0.6c0-0.2-0.1-0.3-0.3-0.3c-0.7,0-1.5,1.5-2.4,4.4H43
				l1.2-5.6c0-0.1,0-0.2,0-0.3c0-0.4-0.1-0.4-1-0.4l0-0.2c0.9-0.1,1.7-0.2,2.3-0.3l-1.1,5c0.8-1.9,1.4-3,2.2-3
				c0.7,0,1.1,0.5,1.1,1.2c0,0.5-0.2,1-0.3,1.5l-0.3,1c0,0.1-0.1,0.3-0.1,0.4c0,0.2,0.1,0.3,0.3,0.3c0.4,0,0.9-0.6,1.3-1.6l0.2,0.1
				C48.7,69,48.5,69.3,48.4,69.6z"/>
			
				<linearGradient id="SVGID_00000043439025422525551610000008313010049753398188_" gradientUnits="userSpaceOnUse" x1="49.3288" y1="68.0597" x2="53.8247" y2="68.0597">
				<stop  offset="0" style="stop-color:#F5DE7D"/>
				<stop  offset="0.3433" style="stop-color:#EEB860"/>
				<stop  offset="0.7155" style="stop-color:#F5DE7D"/>
			</linearGradient>
			<path style="fill:url(#SVGID_00000043439025422525551610000008313010049753398188_);" d="M51.4,70.5c-1.2,0-2.1-0.8-2.1-1.9
				c0-1.5,1.6-2.9,3-2.9c0.8,0,1.3,0.4,1.3,0.9c0,0.8-1,1.5-2.9,1.6c-0.1,0.3-0.1,0.7-0.1,1c0,0.7,0.3,1.1,1,1.1
				c0.8,0,1.5-0.6,2.1-1.7l0.2,0.1C53.2,69.9,52.4,70.5,51.4,70.5z M52.2,65.9c-0.6,0-1.2,0.8-1.5,2.1c1.4-0.1,2.1-0.8,2.1-1.5
				C52.8,66.1,52.6,65.9,52.2,65.9z"/>
		</g>
	</g>
</g>
</svg>
