<?xml version="1.0" encoding="utf-8"?>
<!-- Generator: Adobe Illustrator 26.5.0, SVG Export Plug-In . SVG Version: 6.00 Build 0)  -->
<svg version="1.1" id="Layer_1" xmlns="http://www.w3.org/2000/svg" xmlns:xlink="http://www.w3.org/1999/xlink" x="0px" y="0px"
	 viewBox="0 0 128 128" style="enable-background:new 0 0 128 128;" xml:space="preserve">
<style type="text/css">
	.st0{fill:#B4E4FC;}
	.st1{fill:#08A3F4;}
</style>
<g>
	<path class="st0" d="M100,16.5h-5.9v5.6c0,4.7-3.8,8.5-8.5,8.5H42.4c-4.7,0-8.5-3.8-8.5-8.5v-5.6H28c-5.8,0-10.6,4.7-10.6,10.6
		v90.4c0,5.8,4.7,10.6,10.6,10.6h72c5.8,0,10.6-4.7,10.6-10.6V27.1C110.6,21.2,105.8,16.5,100,16.5z"/>
	<path class="st1" d="M61.1,64.5H34.4c-2.6,0-4.7-2.1-4.7-4.7s2.1-4.7,4.7-4.7h26.7c2.6,0,4.7,2.1,4.7,4.7S63.7,64.5,61.1,64.5z"/>
	<path class="st1" d="M86.6,85.7H34.4c-2.6,0-4.7-2.1-4.7-4.7c0-2.6,2.1-4.7,4.7-4.7h52.2c2.6,0,4.7,2.1,4.7,4.7
		C91.3,83.5,89.2,85.7,86.6,85.7z"/>
	<path class="st1" d="M79.4,8.5h-5.5V6.3C73.8,2.8,71,0,67.5,0h-7.1c-3.5,0-6.3,2.8-6.3,6.3v2.2h-5.5c-3.5,0-6.3,2.8-6.3,6.3v4.4
		c0,3.5,2.8,6.3,6.3,6.3h30.7c3.5,0,6.3-2.8,6.3-6.3v-4.4C85.6,11.3,82.8,8.5,79.4,8.5z"/>
</g>
</svg>
