<?xml version="1.0" encoding="utf-8"?>
<!-- Generator: Adobe Illustrator 26.5.0, SVG Export Plug-In . SVG Version: 6.00 Build 0)  -->
<svg version="1.1" id="Layer_1" xmlns="http://www.w3.org/2000/svg" xmlns:xlink="http://www.w3.org/1999/xlink" x="0px" y="0px"
	 viewBox="0 0 342.1 46.4" style="enable-background:new 0 0 342.1 46.4;" xml:space="preserve">
<style type="text/css">
	.st0{fill:#B6932F;}
</style>
<g>
	<path class="st0" d="M17,31.2c0.3,3.3-2.6,3.5-2.4-0.2c-0.3-3.9,2.4-11.8,3.3-13.8c-4.8,0-6.9,0-9.7,0C7.7,18,1.7,29.5,2,32.9
		c0,0.5-1.1,1.7-1.8,0c-0.3-0.9-0.3-2.3,0.1-4c0.9-4.4,4-11.1,4.2-11.8c-0.7,0-2.6,0-3.1,0.1c-0.8,0.3-0.9-1.3,0.5-1.6
		c0.7-0.1,3,0,3.3-0.1C6,13.8,11.8,2.5,9,2.2c-0.4,0-0.9,0-1.5,0.3C4.5,4,1,10,3,11.4C3.7,12.2,2,13.1,1.1,12
		C-1.1,9.1,4.6,0.1,9.4,0.1c8.2,0,0.8,12.2-0.6,15.6h9.5c1.8-4.1,4.6-10.9,5.2-14c0.6-3.5,4.2-0.7,3.7,1.6C26.4,7,23,13.7,22.2,15.7
		c1,0,1.7,0,2.4,0c1,0,0.7,1.5-0.5,1.6c-1.3,0-2.3,0-2.6,0C21,18.2,17.3,26.8,17,31.2z"/>
	<path class="st0" d="M35.9,28c-0.6,1.4-0.4,2,0,2.2c2.2,1.1,6.4-7.7,7-8.9h1.8c-1.1,2.1-5.3,11.6-9.4,11.2c-3-0.3-2.8-3.8-1.9-6.1
		c0.3-0.7,0.5-1.8,0.7-2.4c-1.2,2.7-3.8,9.2-7.6,8.6c-6.6-1-2.3-16.4,7.5-16.3c1.5,0,3.8,0.8,3.7,3.1c-0.1,1.4-2.2,1.4-2.5,0.9
		c-1.3-1.8-3.4-0.7-4.4,0c-3.9,2.9-5.9,9.7-3.4,10.1c2.3,0.3,5.6-7,6.4-8.7c0.8-1.7,4.8-0.6,3.9,2.3C37.2,25.2,36.5,26.6,35.9,28z"
		/>
	<path class="st0" d="M53.7,30.2c1.9,0,4.9-5.3,6.7-8.9h1.7c-1.9,4.1-5.5,11.1-9.2,11.2c-2.9,0-3.6-2.7-2.7-5.7
		c0.8-2.6,3.3-7.8,2.6-7.9c-1.1-0.3-7.8,10-9,12.4c-1,2.2-3.8,0.6-3.4-1.4c0.1-1,0.5-2.2,0.9-3.4c1-3.1,2-6,2.7-9.1
		c0.6-2.4,3.9-1.3,3.6,0.9c-0.3,2.3-2.4,6.5-3.6,9.2c1.1-1.8,4.5-7.1,7.3-9.9c0.9-0.9,1.9-1.4,2.8-1.5c1.4-0.1,2.7,1,2.6,2.3
		c-0.2,3.2-3.8,7.4-3.9,10.5C52.9,29.8,53.1,30.2,53.7,30.2z"/>
	<path class="st0" d="M79.3,1.2c3.2-1.7,5.2,0.3,4.1,4.4c-1.9,7.4-9.9,18-11.1,19.1C72.1,26,72,29.7,73.8,30
		c1.6,0.3,4.5-4.2,6.8-8.7h1.7c-2.3,4.5-6.1,11-9.1,11.1c-2.5,0.1-3.6-3.4-3.6-4.7c-1.6,1.9-4,4.8-6.8,4.8
		c-7.5-0.1-3.5-16.6,4.9-16.4c1.1,0,2,0.4,2.6,1.4C71.2,12.9,74.9,3.5,79.3,1.2z M69.5,22c-0.5-1.8-1.2-2.6-2.3-2.6
		C63.4,19.7,59,30,63.5,30.2c1.1,0.1,3.6-1.5,5.9-4.9C69.5,24.2,69.5,22.8,69.5,22z M81.6,5.5c0.3-1.1,0.1-2.1-1.2-1.1
		c-2.6,1.9-7.6,13-7.8,17.3C75,18.5,79.7,11.7,81.6,5.5z"/>
	<path class="st0" d="M88.3,4.9c6.7-7.6,12.4-4,10,2.9c-1.7,5-8,12.5-14.4,13.8c-2.8,10.8,5.4,10.9,8.7,2.6
		c-3.6-0.3-1.9-5.2,0.6-6.3c1.7-0.7,3.4,1,2.7,4.7c0.7,0.3,3.6-0.3,4.7-1.2c0.7-0.6,1.9-0.9,1.7,0.1c-0.5,1.7-4.4,2.8-6.9,2.8
		c-1.4,3.5-5.9,8.8-10.7,8.1C76.1,31.1,81.4,12.6,88.3,4.9z M96.4,7.1c0.7-2.7-0.2-4.4-4-0.9c-3.6,3.2-6.8,10.3-8,13.5
		C89.2,18.5,95.1,11.8,96.4,7.1z"/>
	<path class="st0" d="M114.6,24.4c-0.8,0.5-1.4,0.8-1.9,0.9c-0.7,2.1-3.5,7.2-8.4,7.2c-9.1,0.1-5.5-16.4,4.1-16.4
		c1.3,0,3.7,0.5,4,2.2c0.3,1.8-2,1.8-2.3,1.1c-0.8-0.8-2.2-0.4-2.8-0.1c-4.4,1.9-7.4,11-2.1,11c2.2,0,4.5-2.5,5.4-4.5
		c-0.7,0.2-1.7,0-2-0.9c-0.6-1.6,1.3-4.6,3.1-4.5c1,0,1.9,1.5,1.7,3c0.7-0.3,1.9-1,2.6-2.2h0c1.5-2.7,4.1-4.7,7.3-4.5
		c1.2,0.1,3.3,0.8,3.5,2.3c0.3,1.8-1.9,1.7-2.2,1c-0.8-0.7-2.2-0.4-2.7-0.1c-4.2,1.8-6.5,9.6-2,10.4c2.1,0,4-1.5,4.8-3.4
		c-3-0.7-1.8-5.9,1-5.6c1.3,0.1,2,2,1.7,3.6c0.7-0.2,2.8-1.4,3.9-3.6h1.7c-1.8,4-5.1,5.3-6.1,5.5c-0.6,1.7-3.2,5.5-7.6,5.5
		C115.3,32.3,113.6,28.3,114.6,24.4z"/>
	<path class="st0" d="M150.8,21.3c-2.4,4.4-7.1,11.3-9.8,11.2c-4.1-0.1-3.5-6.2-2.8-8.6c0.5-1.8,1.9-0.1,3.8-2.6
		c1.8-2.2,1.3-4.1-0.8-2.3c-2.9,2.4-7.3,9.4-8.1,12.3c-0.6,2.7-3.9,0.8-3.7-1.5c1.3-9.2,4.6-20.7,9.4-26.1c4.4-5.3,9.9-3.2,8.4,2.3
		c-2.2,7.5-9.5,13.1-12.5,14.6c-0.7,2.2-2,6.4-2.3,8.3c1.5-3.4,4.8-8.8,8.2-11.3c6.3-4.6,7.8,2.8,1.1,6.2c-0.6,2-1.5,6.4-0.1,6.4
		c1.7,0,5.8-5.3,7.5-8.8H150.8z M144.6,3.5c-3.5-0.7-8.6,12.5-9.3,14.8C142.3,14.3,147.2,4,144.6,3.5z"/>
	<path class="st0" d="M176.1,21.3c-1.5,3.3-4.4,5.9-7.5,6.2c0.4,4.4-3.8,18.4-8.8,18.9c-11.3,1.1,1.4-49.9,12.6-45.5
		c5.8,2.3-4.7,17-10.6,20.2c-1.3,2.9-7.2,23.5-2.1,23.7c3,0.1,7-13.2,6.1-17.2c-7.4-0.6-0.4-11.7,2.7-1.8c0.2,0.2,3.4,0,5.8-4.4
		H176.1z M171.4,3.8c-2.6-0.3-8.2,12.3-8.9,14.6C167.2,15.5,173.7,4,171.4,3.8z"/>
	<path class="st0" d="M182.2,16.1c1.3,0,3.6,0.6,4,2.2c0.4,1.8-2,1.8-2.3,1.1c-0.8-0.8-2.3-0.4-2.9-0.1c-4.4,1.9-7.4,11-2.1,11
		c2.2,0,4.2-1.7,5.1-3.7c-3.1-0.8-1.5-6,1.4-6c1.3,0,2.1,1.8,1.2,4.1c0.8,0.1,2.7-0.9,4-3.4h1.7c-1.8,3.9-4.6,5.4-6.4,5.5
		c-0.8,1.6-3.6,5.7-7.7,5.7C169.3,32.3,172.7,16,182.2,16.1z"/>
	<path class="st0" d="M193.3,19c-0.4,1-0.8,1.8-1,2.3c-0.3,0.6-0.9,0.9-1.4,0.9c-0.4,0-0.7-0.3-0.4-0.9c0.4-0.9,0.7-1.7,1-2.4
		c-3.1-0.4-1.2-5.1,1.1-5.7c2.1-0.6,1.9,0.9,1.5,3c1.3,0.2,3,0,4.3-0.3c2.1-0.5,3.7,1.8,2.5,4.6c-0.4,0.9-7.1,9-4.6,10.3
		c2.3,1.2,7.1-6.7,8.6-9.5h1.8c-2.2,4.1-7,12.2-11,11.7c-1.9-0.3-2.6-2.4-2.3-4.5c0.5-3.9,5-8.4,4-9.4C196.8,18.7,194.9,19,193.3,19
		z"/>
	<path class="st0" d="M231.8,7.9c2.7-0.3,3.1-4.9-2.2-4.8c-5.4,0.1-10.4,5.8-8.4,10.8c1.4-0.7,4.7-2,7.7-1.5
		c3.6,0.6,3.2,4.5-0.2,5.7c-2.5,0.9-5.7,0.1-7.1-1.2c-6.2,4-8,13.6,0.7,14.6c5.8,0.6,11.9-4.6,14.7-10.3c0.3-0.5,2.1-0.8,1.7,0.1
		c-2.7,6.3-10.8,14-19.5,12.2c-8.6-1.8-7.8-13.7,0.4-18.7c-4-7.6,4.1-15.4,11.1-14.8c8.1,0.8,5.2,9.5,1.7,9.5
		C230.7,9.5,231,8,231.8,7.9z M229.5,15.4c0.1-1.2-3.1-1.7-6.6,0.6C225.5,17.9,229.3,17.1,229.5,15.4z"/>
	<path class="st0" d="M247.6,30.2c1.9,0,4.9-5.3,6.7-8.9h1.7c-1.9,4.1-5.5,11.1-9.2,11.2c-2.9,0-3.6-2.7-2.7-5.7
		c0.8-2.6,3.3-7.8,2.6-7.9c-1.1-0.3-7.8,10-9,12.4c-1,2.2-3.8,0.6-3.4-1.4c0.1-1,0.5-2.2,0.9-3.4c1-3.1,2-6,2.7-9.1
		c0.6-2.4,3.9-1.3,3.6,0.9c-0.3,2.3-2.4,6.5-3.6,9.2c1.1-1.8,4.5-7.1,7.3-9.9c0.9-0.9,1.9-1.4,2.8-1.5c1.4-0.1,2.7,1,2.6,2.3
		c-0.2,3.2-3.8,7.4-3.9,10.5C246.7,29.8,247,30.2,247.6,30.2z"/>
	<path class="st0" d="M268.3,21.3c-2.3,4.4-7.3,11.1-11.9,11.2c-2.6,0-3.9-2.4-3.6-5.4c0.2-2.7,1.7-6.7,2.7-9.4c-0.8,0-2,0-2.5-0.1
		c-1.2-0.1-0.7-1.7,0.7-1.9c2.4-0.1,0.9,0,2.5,0c0.5-1.3,0.8-2,1.1-3.4c0.6-2.4,3.6-1.2,3.5,1c0,1-0.3,1.5-0.8,2.4
		c2.8,0,3.2,0,3.6,0c2.2,0.2,1.4,1.7,0.1,1.8c-1.2,0.1-3.3,0.2-4.2,0.1c-1.3,2.8-2.6,6.1-3.3,9.5c-1.3,5.8,5.7,2.9,10.5-6H268.3z"/>
	<path class="st0" d="M269.3,19c-0.4,1-0.8,1.8-1,2.3c-0.3,0.6-0.9,0.9-1.4,0.9c-0.4,0-0.7-0.3-0.4-0.9c0.4-0.9,0.7-1.7,1-2.4
		c-3.1-0.4-1.2-5.1,1.1-5.7c2.1-0.6,1.9,0.9,1.5,3c1.3,0.2,3,0,4.3-0.3c2.1-0.5,3.7,1.8,2.5,4.6c-0.4,0.9-7.1,9-4.6,10.3
		c2.3,1.2,7.1-6.7,8.6-9.5h1.8c-2.2,4.1-7,12.2-11,11.7c-1.9-0.3-2.6-2.4-2.3-4.5c0.5-3.9,5-8.4,4-9.4C272.8,18.7,271,19,269.3,19z"
		/>
	<path class="st0" d="M291.3,28c-0.6,1.4-0.4,2,0,2.2c2.2,1.1,6.4-7.7,7-8.9h1.8c-1.1,2.1-5.3,11.6-9.4,11.2c-3-0.3-2.8-3.8-1.9-6.1
		c0.3-0.7,0.5-1.8,0.7-2.4c-1.2,2.7-3.8,9.2-7.6,8.6c-6.6-1-2.3-16.4,7.5-16.3c1.5,0,3.8,0.8,3.7,3.1c-0.1,1.4-2.2,1.4-2.5,0.9
		c-1.3-1.8-3.4-0.7-4.4,0c-3.9,2.9-5.9,9.7-3.4,10.1c2.3,0.3,5.6-7,6.4-8.7c0.8-1.7,4.8-0.6,3.9,2.3C292.6,25.2,291.9,26.6,291.3,28
		z"/>
	<path class="st0" d="M309.1,30.2c1.9,0,4.9-5.3,6.7-8.9h1.7c-1.9,4.1-5.5,11.1-9.2,11.2c-2.9,0-3.6-2.7-2.7-5.7
		c0.8-2.6,3.3-7.8,2.6-7.9c-1.1-0.3-7.8,10-9,12.4c-1,2.2-3.8,0.6-3.4-1.4c0.1-1,0.5-2.2,0.9-3.4c1-3.1,2-6,2.7-9.1
		c0.6-2.4,3.9-1.3,3.6,0.9c-0.3,2.3-2.4,6.5-3.6,9.2c1.1-1.8,4.5-7.1,7.3-9.9c0.9-0.9,1.9-1.4,2.8-1.5c1.4-0.1,2.7,1,2.6,2.3
		c-0.2,3.2-3.8,7.4-3.9,10.5C308.2,29.8,308.4,30.2,309.1,30.2z"/>
	<path class="st0" d="M329.8,21.3c-2.3,4.4-7.3,11.1-11.9,11.2c-2.6,0-3.9-2.4-3.6-5.4c0.2-2.7,1.7-6.7,2.7-9.4c-0.8,0-2,0-2.5-0.1
		c-1.2-0.1-0.7-1.7,0.7-1.9c2.4-0.1,0.9,0,2.5,0c0.5-1.3,0.8-2,1.1-3.4c0.6-2.4,3.6-1.2,3.5,1c0,1-0.3,1.5-0.8,2.4
		c2.8,0,3.2,0,3.6,0c2.2,0.2,1.4,1.7,0.1,1.8c-1.2,0.1-3.3,0.2-4.2,0.1c-1.3,2.8-2.6,6.1-3.3,9.5c-1.3,5.8,5.7,2.9,10.5-6H329.8z"/>
	<path class="st0" d="M328.3,21.9c-2.2-5,10-9.6,13.4-5.9c0.6,0.8,0.5,2.1-0.2,3c-0.8,1.2-3.7,0.6-2.9-0.2c0.6-0.7,0.3-1.3-1.2-1.1
		c-2.6,0.2-5.8,1.8-6,2.8c-0.4,2.2,5.7,4.1,5.5,7.8c-0.2,2.9-3,4.9-6.5,4.9c-4.9,0-5.3-2.9-3.6-4.2c1.4-1.1,3.5-0.8,1.9,0.7
		c-1.7,1.7,2.9,2.1,5,0C336.1,27.4,329.2,24,328.3,21.9z"/>
</g>
</svg>
