<?xml version="1.0" encoding="utf-8"?>
<!-- Generator: Adobe Illustrator 26.5.0, SVG Export Plug-In . SVG Version: 6.00 Build 0)  -->
<svg version="1.1" id="Layer_1" xmlns="http://www.w3.org/2000/svg" xmlns:xlink="http://www.w3.org/1999/xlink" x="0px" y="0px"
	 viewBox="0 0 251.6 50.5" style="enable-background:new 0 0 251.6 50.5;" xml:space="preserve">
<style type="text/css">
	.st0{fill:#B6932F;}
</style>
<g>
	<path class="st0" d="M7.6,31.7c10.3-0.8,14.1-18.4,15.3-26c1.6-9.9-11.1,3.8-6.6,7.7c0.7,0.8-0.5,2.1-1.6,1.1
		C11.1,11.4,16.6,0.1,23.1,0c2,0,3.5,1.6,3.4,5.3C26.3,13,19.7,33.7,7.4,33.8c-10.1,0-9.3-13.4-1.1-15.4c2.6-0.6,5.2,0.5,5.4,3.6
		c0,1.8-2.1,1.6-1.7,0.3c0-2-1.9-2.7-3.6-2.2C0.9,21.7-0.5,32.4,7.6,31.7z"/>
	<path class="st0" d="M28.6,32.2c-4.8-0.2-3.2-9.9-0.3-14.8c1.9-3.2,5.1-0.2,3.9,1.4c-3.3,4.4-4.9,10.8-3.2,11.3
		c1.6,0.5,3.9-3.1,5.9-6.7c1.5-2.7,2.6-5.5,3.2-6.5c0.7-1.2,2-1.1,2.7-0.5c0.6,0.4,1.1,1.2,1.1,2.1c-0.2,3.2-4,7.3-4.1,10.5
		c0,0.8,0.4,1.2,1,1.2c2.3,0,5.2-5.5,6.8-9h1.7c-1.9,4.1-5.6,11.2-9.4,11.2c-2.8-0.1-3.3-3.2-2.4-6.1c0.4-1.2,0.8-2.4,1.3-3.6
		c-0.5,1-1.6,3.5-2.2,4.5C32.9,29.8,30.8,32.3,28.6,32.2z"/>
	<path class="st0" d="M64.4,1.2c3.2-1.7,5.2,0.3,4.1,4.4c-1.9,7.4-9.9,18-11.1,19.1c-0.2,1.4-0.3,5.1,1.5,5.3
		c1.6,0.3,4.5-4.2,6.8-8.7h1.7c-2.3,4.5-6.1,11-9.1,11.1c-2.5,0.1-3.6-3.4-3.6-4.7c-1.6,1.9-4,4.8-6.8,4.8
		c-7.5-0.1-3.5-16.6,4.9-16.4c1.1,0,2,0.4,2.6,1.4C56.3,12.9,60,3.5,64.4,1.2z M54.6,22c-0.5-1.8-1.2-2.6-2.3-2.6
		c-3.8,0.2-8.1,10.5-3.7,10.7c1.1,0.1,3.6-1.5,5.9-4.9C54.6,24.2,54.6,22.8,54.6,22z M66.7,5.5c0.3-1.1,0.1-2.1-1.2-1.1
		c-2.6,1.9-7.6,13-7.8,17.3C60.1,18.5,64.8,11.7,66.7,5.5z"/>
	<path class="st0" d="M83.1,21.3h1.7c-0.9,2.1-4.3,8.3-8.4,10.4c-1.2,7.2-4.6,17.3-12.9,18.7C54,51.9,53.1,39.9,65,34.7
		c3-1.3,6.1-2.4,8.2-3.4c0.2-1.6,0.9-5,1.1-7.1c-1.2,2.7-4,8.3-7.3,8.2c-7.3-0.3-2.4-16.6,7.4-16.3c1.5,0,3.7,0.9,3.7,3
		c0,1.5-2.3,1.7-2.5,1c-0.8-1.9-3.2-0.8-4-0.3c-4.7,2.9-6.3,10.4-4.1,10.4c3.1,0,5.9-7,6.8-8.7c0.8-1.6,4-0.8,3.6,1.8
		c0,1.1-1,5.4-1.2,6.3C79.1,28,81.8,24,83.1,21.3z M65.3,36.6c-8.7,4.3-8.9,13-2.1,11.9c6.6-1,8.7-9.2,9.8-15.2
		C71.1,34.1,68.1,35.2,65.3,36.6z"/>
	<path class="st0" d="M84.7,30.2c1.7,0,5.3-5.3,7.1-8.9h1.7c-1.8,3.9-5.9,11.2-9.7,11.2c-2.8,0-3.3-3.2-2.4-6.1c1-3.1,2.2-5.7,3-9
		c0.6-2.4,3.6-1.2,3.5,1c-0.2,3.2-4,7.4-4.1,10.5C83.7,29.8,84.1,30.2,84.7,30.2z M89.7,13.5c-0.7,1.2-1.9,1.6-2.8,1
		c-0.9-0.6-1.1-2-0.4-3.2c0.6-1.2,1.9-1.6,2.8-1C90.2,10.9,90.4,12.3,89.7,13.5z"/>
	<path class="st0" d="M102.4,30.2c1.9,0,4.9-5.3,6.7-8.9h1.7c-1.9,4.1-5.5,11.1-9.2,11.2c-2.9,0-3.6-2.7-2.7-5.7
		c0.8-2.6,3.3-7.8,2.6-7.9c-1.1-0.3-7.8,10-9,12.4c-1,2.2-3.8,0.6-3.4-1.4c0.1-1,0.5-2.2,0.9-3.4c1-3.1,2-6,2.7-9.1
		c0.6-2.4,3.9-1.3,3.6,0.9c-0.3,2.3-2.4,6.5-3.6,9.2c1.1-1.8,4.5-7.1,7.3-9.9c0.9-0.9,1.9-1.4,2.8-1.5c1.4-0.1,2.7,1,2.6,2.3
		c-0.2,3.2-3.8,7.4-3.9,10.5C101.6,29.8,101.8,30.2,102.4,30.2z"/>
	<path class="st0" d="M126.5,21.3h1.7c-0.9,2.1-4.3,8.3-8.4,10.4c-1.2,7.2-4.6,17.3-12.9,18.7c-9.6,1.6-10.5-10.4,1.4-15.6
		c3-1.3,6.1-2.4,8.2-3.4c0.2-1.6,0.9-5,1.1-7.1c-1.2,2.7-4,8.3-7.3,8.2c-7.3-0.3-2.4-16.6,7.4-16.3c1.5,0,3.7,0.9,3.7,3
		c0,1.5-2.3,1.7-2.5,1c-0.8-1.9-3.2-0.8-4-0.3c-4.7,2.9-6.3,10.4-4.1,10.4c3.1,0,5.9-7,6.8-8.7c0.8-1.6,4-0.8,3.6,1.8
		c0,1.1-1,5.4-1.2,6.3C122.5,28,125.2,24,126.5,21.3z M108.7,36.6c-8.7,4.3-8.9,13-2.1,11.9c6.6-1,8.7-9.2,9.8-15.2
		C114.5,34.1,111.5,35.2,108.7,36.6z"/>
	<path class="st0" d="M160.5,21.4c-3.3,6.3-10.7,12.1-17.3,12C127.2,33.2,138-0.2,153.6,0c10.8,0.1,6.8,15.8-1.9,15.4
		c-4.7-0.2-4-6.3-1.1-8.1c1.1-1,2.8,0.1,1.3,1.3c-2.1,1.7-2.7,5.4,0.2,5.2c5.7-0.4,8.8-10,2.4-10.2c-11.3-0.2-20.7,22.8-13.1,26.9
		c3.5,1.9,12.6-0.7,17.5-9.3C159.3,20.4,160.9,20.6,160.5,21.4z"/>
	<path class="st0" d="M161.5,19c-0.4,1-0.8,1.8-1,2.3c-0.3,0.6-0.9,0.9-1.4,0.9c-0.4,0-0.7-0.3-0.4-0.9c0.4-0.9,0.7-1.7,1-2.4
		c-3.1-0.4-1.2-5.1,1.1-5.7c2.1-0.6,1.9,0.9,1.5,3c1.3,0.2,3,0,4.3-0.3c2.1-0.5,3.7,1.8,2.5,4.6c-0.4,0.9-7.1,9-4.6,10.3
		c2.3,1.2,7.1-6.7,8.6-9.5h1.8c-2.2,4.1-7,12.2-11.1,11.7c-1.9-0.3-2.6-2.4-2.3-4.5c0.5-3.9,5-8.4,4-9.4C165,18.7,163.1,19,161.5,19
		z"/>
	<path class="st0" d="M174.6,30.2c1.7,0,5.3-5.3,7.1-8.9h1.7c-1.8,3.9-5.9,11.2-9.7,11.2c-2.8,0-3.3-3.2-2.4-6.1c1-3.1,2.2-5.7,3-9
		c0.6-2.4,3.6-1.2,3.5,1c-0.2,3.2-4,7.4-4.1,10.5C173.6,29.8,174,30.2,174.6,30.2z M179.7,13.5c-0.7,1.2-1.9,1.6-2.8,1
		c-0.9-0.6-1.1-2-0.4-3.2c0.6-1.2,1.9-1.6,2.8-1C180.1,10.9,180.3,12.3,179.7,13.5z"/>
	<path class="st0" d="M195.7,21.3c-2.3,4.4-7.3,11.1-11.9,11.2c-2.6,0-3.9-2.4-3.6-5.4c0.2-2.7,1.7-6.7,2.7-9.4c-0.8,0-2,0-2.5-0.1
		c-1.2-0.1-0.7-1.7,0.7-1.9c2.4-0.1,0.9,0,2.5,0c0.5-1.3,0.8-2,1.1-3.4c0.6-2.4,3.6-1.2,3.5,1c0,1-0.3,1.5-0.8,2.4
		c2.8,0,3.2,0,3.6,0c2.2,0.2,1.4,1.7,0.1,1.8c-1.2,0.1-3.3,0.2-4.2,0.1c-1.3,2.8-2.6,6.1-3.3,9.5c-1.3,5.8,5.7,2.9,10.5-6H195.7z"/>
	<path class="st0" d="M211.3,21.3c-3.2,6.7-8.9,11.3-13.6,11.2c-9.3-0.2-5.5-16.3,4.6-16.3c4.1,0,5.1,4.6,1.7,7.2
		c-2.1,1.6-5.4,2.7-8.4,2.8c-0.4,2,0.3,4,2.7,4.2c3.7,0.3,8.3-3.5,11.3-9.1H211.3z M196,24.4c2.6,0.3,8.4-1.9,7.7-4.4
		C203.2,18,197.2,20.3,196,24.4z"/>
	<path class="st0" d="M212.2,19c-0.4,1-0.8,1.8-1,2.3c-0.3,0.6-0.9,0.9-1.4,0.9c-0.4,0-0.7-0.3-0.4-0.9c0.4-0.9,0.7-1.7,1-2.4
		c-3.1-0.4-1.2-5.1,1.1-5.7c2.1-0.6,1.9,0.9,1.5,3c1.3,0.2,3,0,4.3-0.3c2.1-0.5,3.7,1.8,2.5,4.6c-0.4,0.9-7.1,9-4.6,10.3
		c2.3,1.2,7.1-6.7,8.6-9.5h1.8c-2.2,4.1-7,12.2-11.1,11.7c-1.9-0.3-2.6-2.4-2.3-4.5c0.5-3.9,5-8.4,4-9.4
		C215.7,18.7,213.9,19,212.2,19z"/>
	<path class="st0" d="M225.4,30.2c1.7,0,5.3-5.3,7.1-8.9h1.7c-1.8,3.9-5.9,11.2-9.7,11.2c-2.8,0-3.3-3.2-2.4-6.1c1-3.1,2.2-5.7,3-9
		c0.6-2.4,3.6-1.2,3.5,1c-0.2,3.2-4,7.4-4.1,10.5C224.3,29.8,224.7,30.2,225.4,30.2z M230.4,13.5c-0.7,1.2-1.9,1.6-2.8,1
		c-0.9-0.6-1.1-2-0.4-3.2c0.6-1.2,1.9-1.6,2.8-1C230.9,10.9,231.1,12.3,230.4,13.5z"/>
	<path class="st0" d="M242.8,28c-0.6,1.4-0.4,2,0,2.2c2.2,1.1,6.4-7.7,7-8.9h1.8c-1.1,2.1-5.3,11.6-9.4,11.2c-3-0.3-2.8-3.8-1.9-6.1
		c0.3-0.7,0.5-1.8,0.7-2.4c-1.2,2.7-3.8,9.2-7.6,8.6c-6.6-1-2.3-16.4,7.5-16.3c1.5,0,3.8,0.8,3.7,3.1c-0.1,1.4-2.2,1.4-2.5,0.9
		c-1.3-1.8-3.4-0.7-4.4,0c-3.9,2.9-5.9,9.7-3.4,10.1c2.3,0.3,5.6-7,6.4-8.7c0.8-1.7,4.8-0.6,3.9,2.3C244.1,25.2,243.4,26.6,242.8,28
		z"/>
</g>
</svg>
