<?xml version="1.0" encoding="utf-8"?>
<!-- Generator: Adobe Illustrator 27.2.0, SVG Export Plug-In . SVG Version: 6.00 Build 0)  -->
<svg version="1.1" id="Layer_1" xmlns="http://www.w3.org/2000/svg" xmlns:xlink="http://www.w3.org/1999/xlink" x="0px" y="0px"
	 viewBox="0 0 215.4 205.3" style="enable-background:new 0 0 215.4 205.3;" xml:space="preserve">
<style type="text/css">
	.st0{fill:#14463D;}
</style>
<g id="BG">
</g>
<g id="LINE_LOGO_1_">
	<g>
		<g>
			<path class="st0" d="M107.7,5c56.6,0,102.7,37,102.7,82.6c0,18.2-6.9,34.2-21.8,50.6L185,142c-22.8,23.9-67.9,52.4-78.9,57.1
				c-2.2,0.9-3.4,1.1-4.1,1.2c0-0.8,0.2-1.9,0.3-2.3v-0.3c0.3-1.6,1.5-9.1,1.5-9.1v-0.1v-0.1c0.7-5.2,0.5-8.9-0.6-11.7
				c-1.5-3.7-5.6-6.2-12.3-7.7h-0.2h-0.2c-24-3.2-45.9-13.2-61.6-28.1C13.6,126.1,5,107.1,5,87.6C5,42,51.1,5,107.7,5 M107.7,1
				C48.9,1,1,39.8,1,87.6c0,42.8,38,78.6,89.2,85.4c3.5,0.8,8.2,2.3,9.4,5.3c1.1,2.7,0.7,6.9,0.3,9.6c0,0-1.3,7.5-1.5,9.1
				c-0.4,2.1-1.4,7.3,3.4,7.3c1.4,0,3.3-0.4,5.9-1.5c11.4-4.8,61.4-36.2,83.8-61.9l0,0c15.5-17,22.9-34.2,22.9-53.3
				C214.4,39.8,166.5,1,107.7,1L107.7,1z"/>
		</g>
	</g>
	<g>
		<path class="st0" d="M178.9,115.1H149l0,0c-1.1,0-2-0.9-2-2l0,0l0,0V66.6l0,0l0,0c0-1.1,0.9-2,2-2l0,0h29.9c1.1,0,2,0.9,2,2v7.6
			c0,1.1-0.9,2-2,2h-20.4V84h20.4c1.1,0,2,0.9,2,2v7.6c0,1.1-0.9,2-2,2h-20.4v7.9h20.4c1.1,0,2,0.9,2,2v7.6
			C180.9,114.2,180,115.1,178.9,115.1z"/>
		<path class="st0" d="M68,115.1c1.1,0,2-0.9,2-2v-7.6c0-1.1-0.9-2-2-2H47.6v-37c0-1.1-0.9-2-2-2H38c-1.1,0-2,0.9-2,2V113l0,0l0,0
			c0,1.1,0.9,2,2,2l0,0L68,115.1L68,115.1z"/>
		<path class="st0" d="M86.1,64.5h-7.6c-1.1,0-2,0.9-2,2v46.6c0,1.1,0.9,2,2,2h7.6c1.1,0,2-0.9,2-2V66.5
			C88.1,65.4,87.2,64.5,86.1,64.5z"/>
		<path class="st0" d="M137.6,64.5H130c-1.1,0-2,0.9-2,2v27.7l-21.3-28.8c0-0.1-0.1-0.1-0.2-0.2l0,0l-0.1-0.1l0,0l-0.1-0.1
			c0,0,0,0-0.1,0l-0.1-0.1c0,0,0,0-0.1,0c0,0-0.1,0-0.1-0.1c0,0,0,0-0.1,0c0,0-0.1,0-0.1-0.1c0,0,0,0-0.1,0h-0.1c0,0,0,0-0.1,0h-0.1
			h-0.1h-0.1H105c0,0,0,0-0.1,0h-7.5c-1.1,0-2,0.9-2,2v46.6c0,1.1,0.9,2,2,2h7.6c1.1,0,2-0.9,2-2V85.5l21.3,28.8
			c0.1,0.2,0.3,0.4,0.5,0.5l0,0l0.1,0.1c0,0,0,0,0.1,0h0.1h0.1c0,0,0,0,0.1,0h0.1l0,0c0.2,0,0.3,0.1,0.5,0.1h7.5c1.1,0,2-0.9,2-2
			V66.5C139.6,65.4,138.7,64.5,137.6,64.5z"/>
	</g>
</g>
</svg>
