<?xml version="1.0" encoding="utf-8"?>
<!-- Generator: Adobe Illustrator 27.1.1, SVG Export Plug-In . SVG Version: 6.00 Build 0)  -->
<svg version="1.1" id="Layer_1" xmlns="http://www.w3.org/2000/svg" xmlns:xlink="http://www.w3.org/1999/xlink" x="0px" y="0px"
	 viewBox="0 0 128 128" style="enable-background:new 0 0 128 128;" xml:space="preserve">
<style type="text/css">
	.st0{fill:#2A6118;}
</style>
<g>
	<path class="st0" d="M66.7,53.9c-8,0-14.5-6.5-14.5-14.5s6.5-14.5,14.5-14.5s14.5,6.5,14.5,14.5S74.7,53.9,66.7,53.9z M66.7,26.8
		c-6.9,0-12.6,5.6-12.6,12.6S59.7,52,66.7,52c6.9,0,12.6-5.6,12.6-12.6S73.7,26.8,66.7,26.8z"/>
	<path class="st0" d="M66.7,116.2l-0.8-1c-1.6-2.1-39.4-52.7-39.4-74.4c0-22.2,18-40.2,40.2-40.2s40.2,18,40.2,40.2
		c0,21.7-37.8,72.3-39.4,74.4L66.7,116.2z M66.7,2.5c-21.1,0-38.3,17.2-38.3,38.3c0,19.4,32.8,64.7,38.3,72.2
		c5.5-7.4,38.3-52.8,38.3-72.2C105,19.7,87.8,2.5,66.7,2.5z"/>
	<polygon class="st0" points="1.4,112.4 0,111.1 11.9,99.2 47.1,99.2 47.1,101.1 12.7,101.1 	"/>
	<g>
		<rect x="1.4" y="124.1" transform="matrix(0.7071 -0.7071 0.7071 0.7071 -87.2847 39.32)" class="st0" width="4.8" height="1.9"/>
		<path class="st0" d="M13.3,116.9l-1.4-1.4l4.7-4.7h4.1v1.9h-3.3L13.3,116.9z M40.9,112.7h-10v-1.9h10V112.7z"/>
		<rect x="50.9" y="110.8" class="st0" width="4.8" height="1.9"/>
	</g>
	<polygon class="st0" points="113.2,101.1 86.7,101.1 86.7,99.2 112.3,99.2 120.7,88 122.2,89.1 	"/>
	<g>
		
			<rect x="119.5" y="101.1" transform="matrix(0.5998 -0.8001 0.8001 0.5998 -32.8962 138.3537)" class="st0" width="4.8" height="1.9"/>
		<polygon class="st0" points="115.2,112.7 109.8,112.7 109.8,110.8 114.2,110.8 116.8,107.3 118.3,108.5 		"/>
		<rect x="92.5" y="110.8" class="st0" width="8.7" height="1.9"/>
		<rect x="78.9" y="110.8" class="st0" width="4.8" height="1.9"/>
	</g>
	<polygon class="st0" points="13.4,126.4 12.1,125.1 16.7,120.4 118.1,120.4 126.5,109.2 128,110.4 119,122.4 17.5,122.4 	"/>
</g>
</svg>
