<?xml version="1.0" encoding="utf-8"?>
<!-- Generator: Adobe Illustrator 27.2.0, SVG Export Plug-In . SVG Version: 6.00 Build 0)  -->
<svg version="1.1" id="Layer_1" xmlns="http://www.w3.org/2000/svg" xmlns:xlink="http://www.w3.org/1999/xlink" x="0px" y="0px"
	 viewBox="0 0 128 128" style="enable-background:new 0 0 128 128;" xml:space="preserve">
<style type="text/css">
	.st0{fill:#14463D;}
</style>
<g>
	<path class="st0" d="M81.9,39.8c0-8.4-6.8-15.3-15.3-15.3s-15.3,6.8-15.3,15.3S58.2,55,66.7,55S81.9,48.2,81.9,39.8z M66.7,51.2
		c-6.3,0-11.4-5.1-11.4-11.4s5.1-11.4,11.4-11.4s11.4,5.1,11.4,11.4S73,51.2,66.7,51.2z"/>
	<path class="st0" d="M65.9,116c0.2,0.2,0.5,0.4,0.8,0.4c0.3,0,0.6-0.1,0.8-0.4l0.8-1c0.4-0.5,39-51.8,39-73.9
		c0-22.4-18.2-40.6-40.6-40.6S26.1,18.8,26.1,41.2c0,22.1,38.6,73.3,39,73.9L65.9,116z M29.9,41.2c0-20.3,16.5-36.7,36.7-36.7
		s36.7,16.5,36.7,36.7c0,18.4-31.2,61.8-36.7,69.4C58.9,99.9,29.9,58.9,29.9,41.2z"/>
	<path class="st0" d="M2.4,112.6c0.3,0,0.5-0.1,0.7-0.3l10.8-10.8h33.5c0.5,0,1-0.4,1-1v-1.9c0-0.5-0.4-1-1-1H12.7
		c-0.3,0-0.5,0.1-0.7,0.3L0.3,109.7c-0.2,0.2-0.3,0.4-0.3,0.7c0,0.3,0.1,0.5,0.3,0.7l1.4,1.3C1.9,112.6,2.1,112.6,2.4,112.6z"/>
	<path class="st0" d="M6.5,121.1c-0.2-0.2-0.4-0.3-0.7-0.3s-0.5,0.1-0.7,0.3l-3.3,3.3c-0.4,0.4-0.4,1,0,1.4l1.3,1.3
		c0.2,0.2,0.4,0.3,0.7,0.3s0.5-0.1,0.7-0.3l3.3-3.3c0.2-0.2,0.3-0.4,0.3-0.7c0-0.3-0.1-0.5-0.3-0.7L6.5,121.1z"/>
	<path class="st0" d="M13.4,116.8c0.2,0.2,0.4,0.3,0.7,0.3c0,0,0,0,0,0c0.3,0,0.5-0.1,0.7-0.3l3.7-3.8h2.8c0.5,0,1-0.4,1-1v-1.9
		c0-0.5-0.4-1-1-1h-4c-0.3,0-0.5,0.1-0.7,0.3L12,114c-0.4,0.4-0.4,1,0,1.4L13.4,116.8z"/>
	<path class="st0" d="M31.4,109.1c-0.5,0-1,0.4-1,1v1.9c0,0.5,0.4,1,1,1h9.8c0.5,0,1-0.4,1-1v-1.9c0-0.5-0.4-1-1-1H31.4z"/>
	<path class="st0" d="M51.1,109.1c-0.5,0-1,0.4-1,1v1.9c0,0.5,0.4,1,1,1h4.7c0.5,0,1-0.4,1-1v-1.9c0-0.5-0.4-1-1-1H51.1z"/>
	<path class="st0" d="M85.4,98.7v1.9c0,0.5,0.4,1,1,1h26.1c0.3,0,0.6-0.1,0.8-0.4l8.9-11.8c0.2-0.2,0.2-0.5,0.2-0.7
		c0-0.3-0.2-0.5-0.4-0.7l-1.5-1.1c-0.2-0.1-0.4-0.2-0.6-0.2c-0.3,0-0.6,0.1-0.8,0.4l-8,10.6H86.4C85.8,97.7,85.4,98.1,85.4,98.7z"/>
	<path class="st0" d="M121.6,98c-0.3,0-0.6,0.1-0.8,0.4l-2.8,3.8c-0.2,0.2-0.2,0.5-0.2,0.7c0,0.3,0.2,0.5,0.4,0.6l1.5,1.1
		c0.2,0.1,0.4,0.2,0.6,0.2c0.3,0,0.6-0.1,0.8-0.4l2.8-3.8c0.2-0.2,0.2-0.5,0.2-0.7c0-0.3-0.2-0.5-0.4-0.6l-1.5-1.1
		C122.1,98.1,121.9,98,121.6,98z"/>
	<path class="st0" d="M116.6,105.9c-0.2-0.1-0.4-0.2-0.6-0.2c0,0-0.1,0-0.1,0c-0.3,0-0.5,0.2-0.7,0.4l-2.3,3h-3.8c-0.5,0-1,0.4-1,1
		v1.9c0,0.5,0.4,1,1,1h5.3c0.3,0,0.6-0.1,0.8-0.4l3.1-4.1c0.3-0.4,0.2-1-0.2-1.4L116.6,105.9z"/>
	<path class="st0" d="M92.1,109.1c-0.5,0-1,0.4-1,1v1.9c0,0.5,0.4,1,1,1h8.6c0.5,0,1-0.4,1-1v-1.9c0-0.5-0.4-1-1-1H92.1z"/>
	<path class="st0" d="M78.7,109.1c-0.5,0-1,0.4-1,1v1.9c0,0.5,0.4,1,1,1h4.7c0.5,0,1-0.4,1-1v-1.9c0-0.5-0.4-1-1-1H78.7z"/>
	<path class="st0" d="M127.6,108.9l-1.5-1.2c-0.2-0.1-0.4-0.2-0.6-0.2c0,0-0.1,0-0.1,0c-0.3,0-0.5,0.2-0.7,0.4l-8,10.6H17.4
		c-0.3,0-0.5,0.1-0.7,0.3l-4.5,4.6c-0.4,0.4-0.4,1,0,1.4l1.3,1.3c0.2,0.2,0.4,0.3,0.7,0.3c0.2,0,0.5-0.1,0.7-0.3l3.8-3.7h99.5
		c0.3,0,0.6-0.1,0.8-0.4l8.9-11.8C128.1,109.9,128,109.3,127.6,108.9z"/>
</g>
</svg>
