<?xml version="1.0" encoding="utf-8"?>
<!-- Generator: Adobe Illustrator 26.4.1, SVG Export Plug-In . SVG Version: 6.00 Build 0)  -->
<svg version="1.1" id="Layer_1" xmlns="http://www.w3.org/2000/svg" xmlns:xlink="http://www.w3.org/1999/xlink" x="0px" y="0px"
	 viewBox="0 0 64 49.8" style="enable-background:new 0 0 64 49.8;" xml:space="preserve">
<style type="text/css">
	.st0{fill:#FFFFFF;}
</style>
<g>
	<path class="st0" d="M52.7,0H25.6c-6.2,0-11.3,5.1-11.3,11.3v7H19v-7c0-3.6,3-6.6,6.6-6.6h27.1c3.6,0,6.6,3,6.6,6.6v27.1
		c0,3.6-3,6.6-6.6,6.6H25.6c-3.6,0-6.6-3-6.6-6.6v-5.8h-4.7v5.8c0,6.2,5.1,11.3,11.3,11.3h27.1c6.2,0,11.3-5.1,11.3-11.3V11.3
		C64,5.1,58.9,0,52.7,0z"/>
	<path class="st0" d="M50.5,23L40.4,12.9c-0.7-0.7-1.6-1-2.5-1s-1.8,0.4-2.5,1s-1,1.6-1,2.5s0.4,1.8,1,2.5l4,4H3.6
		c-2,0-3.6,1.6-3.6,3.6S1.6,29,3.6,29h35.9L36,32.4c-0.7,0.7-1,1.6-1,2.5c0,1,0.4,1.8,1,2.5c0.7,0.7,1.6,1,2.5,1
		c0.9,0,1.8-0.4,2.5-1l9.5-9.5c0.7-0.7,1-1.6,1-2.5S51.2,23.6,50.5,23z"/>
</g>
</svg>
