<?xml version="1.0" encoding="utf-8"?>
<!-- Generator: Adobe Illustrator 27.1.1, SVG Export Plug-In . SVG Version: 6.00 Build 0)  -->
<svg version="1.1" id="Layer_1" xmlns="http://www.w3.org/2000/svg" xmlns:xlink="http://www.w3.org/1999/xlink" x="0px" y="0px"
	 viewBox="0 0 300 106.3" style="enable-background:new 0 0 300 106.3;" xml:space="preserve">
<style type="text/css">
	.st0{fill:#49843D;}
	.st1{fill:#9F742B;}
</style>
<image style="overflow:visible;" width="172" height="465" xlink:href="54D6F042.jpg"  transform="matrix(0.24 0 0 0.24 3.6 -2.66)">
</image>
<g>
	<path class="st0" d="M73.2,83.2l-2.6-2.7c-2,1.7-4.5,2.7-7.3,2.7c-4.8,0-8.3-2.7-8.3-6.6c0-3,1.5-5.1,4.8-7.1
		c-1.6-1.8-2.2-3.4-2.2-5.1c0-3.5,2.7-5.9,6.8-5.9c3.8,0,6.3,2.1,6.3,5.5c0,2.5-1.3,4.3-4.3,6.1l4,4.1c0.5-1.1,0.8-2.3,1.1-3.7
		l3.9,1.3c-0.4,2.1-1.1,3.9-2,5.4l2.6,2.6L73.2,83.2z M67.7,77.6l-5.3-5.4c-2,1.3-2.7,2.4-2.7,3.8c0,1.7,1.5,3,3.9,3
		C65.2,79,66.6,78.5,67.7,77.6z M62,64.3c0,0.9,0.3,1.6,1.7,3c2.2-1.3,2.8-2.2,2.8-3.2c0-1.2-0.7-2-2.2-2C62.9,62.2,62,63.1,62,64.3
		z"/>
	<path class="st0" d="M84.9,80.4l1.7-4.2c1.8,1.5,4.6,2.5,7.2,2.5c3,0,4.2-1.1,4.2-2.6c0-4.5-12.7-1.4-12.7-10.3
		c0-4.1,3-7.5,9.2-7.5c2.7,0,5.5,0.7,7.6,2.1l-1.6,4.2c-2-1.3-4.1-1.9-6-1.9c-3,0-4.1,1.2-4.1,2.7C90.3,70,103,67,103,75.8
		c0,4-3,7.4-9.3,7.4C90.3,83.2,86.8,82.1,84.9,80.4z"/>
	<path class="st0" d="M121.7,64.4v18.4h-4.6v-2.2c-1.3,1.6-3.1,2.5-5.2,2.5c-4.2,0-7.2-2.6-7.2-8.3V64.4h4.9V74
		c0,3.1,1.2,4.4,3.4,4.4c2.2,0,3.9-1.6,3.9-5v-9.1L121.7,64.4L121.7,64.4z"/>
	<path class="st0" d="M123.9,81.1l1.6-3.8c1.5,1.1,3.8,1.8,5.8,1.8c2.2,0,3.1-0.6,3.1-1.7c0-3-10.1,0.1-10.1-7.3
		c0-3.5,2.9-5.9,7.8-5.9c2.3,0,4.9,0.6,6.5,1.6l-1.6,3.8c-1.7-1-3.3-1.4-4.8-1.4c-2.2,0-3.1,0.8-3.1,1.7c0,3.1,10.1,0.1,10.1,7.4
		c0,3.4-2.9,5.8-7.9,5.8C128.3,83.1,125.4,82.2,123.9,81.1z"/>
	<path class="st0" d="M152.9,81.9c-1,0.8-2.5,1.2-4,1.2c-4,0-6.3-2.2-6.3-6.6v-7.6H140v-4.1h2.6v-4.5h4.9v4.5h4.2v4.1h-4.2v7.5
		c0,1.6,0.8,2.4,2.1,2.4c0.7,0,1.4-0.2,2-0.7L152.9,81.9z"/>
	<path class="st0" d="M170.4,72.3v10.5h-4.5v-2.3c-0.9,1.7-2.6,2.6-5.1,2.6c-3.9,0-6.3-2.4-6.3-5.6s2.1-5.5,7.2-5.5h3.9
		c0-2.3-1.2-3.6-3.9-3.6c-1.8,0-3.6,0.6-4.8,1.7l-1.7-3.7c1.8-1.4,4.5-2.2,7.2-2.2C167.5,64.1,170.4,66.7,170.4,72.3z M165.6,77
		v-1.9h-3.3c-2.3,0-3,0.9-3,2.2c0,1.3,1,2.2,2.7,2.2C163.6,79.5,165,78.6,165.6,77z"/>
	<path class="st0" d="M173.6,58.8c0-1.7,1.2-3,3-3s3,1.2,3,2.9c0,1.8-1.2,3.1-3,3.1S173.6,60.5,173.6,58.8z M174.1,64.4h4.9v18.4
		h-4.9V64.4z"/>
	<path class="st0" d="M200,72.2v10.5h-4.9V73c0-3-1.2-4.3-3.4-4.3c-2.3,0-4,1.6-4,5v9.1h-4.9V64.4h4.6v2.2c1.3-1.6,3.3-2.4,5.5-2.4
		C197,64.1,200,66.6,200,72.2z"/>
	<path class="st0" d="M218.5,72.3v10.5H214v-2.3c-0.9,1.7-2.6,2.6-5.1,2.6c-3.9,0-6.3-2.4-6.3-5.6s2.1-5.5,7.2-5.5h3.9
		c0-2.3-1.2-3.6-3.9-3.6c-1.8,0-3.6,0.6-4.8,1.7l-1.7-3.7c1.8-1.4,4.5-2.2,7.2-2.2C215.6,64.1,218.5,66.7,218.5,72.3z M213.7,77
		v-1.9h-3.3c-2.3,0-3,0.9-3,2.2c0,1.3,1,2.2,2.7,2.2C211.7,79.5,213.1,78.6,213.7,77z"/>
	<path class="st0" d="M240.5,73.6c0,5.8-3.6,9.5-8.4,9.5c-2.2,0-4.1-0.8-5.3-2.4v2.1h-4.6V57.4h4.9v8.9c1.2-1.5,3-2.2,5-2.2
		C236.9,64.1,240.5,67.8,240.5,73.6z M235.6,73.6c0-3.2-1.8-5.1-4.3-5.1c-2.4,0-4.3,1.9-4.3,5.1s1.8,5.1,4.3,5.1
		C233.7,78.7,235.6,76.8,235.6,73.6z"/>
	<path class="st0" d="M242.5,58.8c0-1.7,1.2-3,3-3s3,1.2,3,2.9c0,1.8-1.2,3.1-3,3.1S242.5,60.5,242.5,58.8z M243.1,64.4h4.9v18.4
		h-4.9V64.4z"/>
	<path class="st0" d="M251.8,57.4h4.9v25.4h-4.9L251.8,57.4L251.8,57.4z"/>
	<path class="st0" d="M259.9,58.8c0-1.7,1.2-3,3-3s3,1.2,3,2.9c0,1.8-1.2,3.1-3,3.1S259.9,60.5,259.9,58.8z M260.4,64.4h4.9v18.4
		h-4.9V64.4z"/>
	<path class="st0" d="M280.6,81.9c-1,0.8-2.5,1.2-4,1.2c-4,0-6.3-2.2-6.3-6.6v-7.6h-2.6v-4.1h2.6v-4.5h4.9v4.5h4.2v4.1h-4.2v7.5
		c0,1.6,0.8,2.4,2.1,2.4c0.7,0,1.4-0.2,2-0.7L280.6,81.9z"/>
	<path class="st0" d="M299.7,64.4l-7.6,19.5c-1.6,4.4-3.9,5.8-6.9,5.8c-1.7,0-3.6-0.6-4.7-1.7l1.8-3.8c0.7,0.7,1.8,1.2,2.7,1.2
		c1.3,0,2.1-0.6,2.7-2.3l0.1-0.2l-7.3-18.5h5l4.7,12.5l4.7-12.5H299.7z"/>
</g>
<g>
	<path class="st1" d="M58.9,100.4v-7.7h-3V91h7.8v1.7h-3v7.7C60.7,100.4,58.9,100.4,58.9,100.4z"/>
	<path class="st1" d="M69.5,100.4v-3.7c0-1-0.6-1.7-1.5-1.7s-1.5,0.7-1.5,1.7v3.7h-1.7V91l1.7-0.5v3.7h0.1c0.4-0.4,1-0.8,1.9-0.8
		c1.6,0,2.6,1.1,2.6,3.2v3.8C71.1,100.4,69.5,100.4,69.5,100.4z"/>
	<path class="st1" d="M79.2,100.4L78,99.7h-0.1c-0.7,0.7-1.3,0.8-2.1,0.8c-2.1,0-3.3-1.5-3.3-3.6c0-2,1.1-3.6,3.2-3.6
		c0.9,0,1.5,0.3,1.8,0.8h0.1v-0.6h1.7L79.2,100.4L79.2,100.4L79.2,100.4z M77.7,97c0-1.2-0.7-2-1.7-2s-1.7,0.8-1.7,2s0.7,2,1.7,2
		S77.7,98.2,77.7,97z"/>
	<path class="st1" d="M82.2,92.9l-1.1-1.2v-0.1l1.1-1.2h0.1l1.1,1.2v0.1L82.2,92.9L82.2,92.9z M81.4,100.4v-6.8h1.7v6.8H81.4z"/>
	<path class="st1" d="M85.2,100.4V91l1.7-0.5v9.9H85.2z"/>
	<path class="st1" d="M95.1,100.4l-1.2-0.7h-0.1c-0.7,0.7-1.3,0.8-2.1,0.8c-2.1,0-3.3-1.5-3.3-3.6c0-2,1.1-3.6,3.2-3.6
		c0.9,0,1.5,0.3,1.8,0.8h0.1v-0.6h1.7L95.1,100.4L95.1,100.4L95.1,100.4z M93.6,97c0-1.2-0.7-2-1.7-2s-1.7,0.8-1.7,2s0.7,2,1.7,2
		S93.6,98.2,93.6,97z"/>
	<path class="st1" d="M101.8,100.4v-3.7c0-1-0.6-1.7-1.5-1.7s-1.5,0.7-1.5,1.7v3.7h-1.7v-6.9h0.2l1.3,1h0.1c0.4-0.6,1.1-1.1,2.2-1.1
		c1.6,0,2.6,1.1,2.6,3.2v3.8H101.8z"/>
	<path class="st1" d="M111.5,100.4l-1.2-0.7h-0.1c-0.7,0.7-1.3,0.8-2.1,0.8c-2.1,0-3.3-1.5-3.3-3.6s1.2-3.6,3.2-3.6
		c0.9,0,1.4,0.3,1.9,0.8h0.1V91l1.7-0.5v10L111.5,100.4L111.5,100.4z M110,97c0-1.2-0.7-2-1.7-2s-1.7,0.8-1.7,2s0.7,2,1.7,2
		C109.3,98.9,110,98.1,110,97z"/>
	<path class="st1" d="M120,100.4v-7.7h-3V91h7.8v1.7h-3v7.7C121.8,100.4,120,100.4,120,100.4z"/>
	<path class="st1" d="M127.7,100.5c-2.2,0-3.5-1.6-3.5-3.6c0-1.9,1.3-3.6,3.5-3.6s3.5,1.6,3.5,3.6C131.3,98.9,130,100.5,127.7,100.5
		z M127.7,95c-1.3,0-1.9,1-1.9,2s0.6,2,1.9,2s1.9-1,1.9-2C129.6,96,129,95,127.7,95z"/>
	<path class="st1" d="M138.2,100.4l-1.2-0.7l0,0c-0.5,0.5-1.1,0.8-2.1,0.8c-1.6,0-2.8-1-2.8-3.1v-3.9h1.7v3.8c0,1,0.6,1.6,1.5,1.6
		s1.5-0.6,1.5-1.6v-3.8h1.7v6.8L138.2,100.4L138.2,100.4z"/>
	<path class="st1" d="M140.1,100.4v-6.9h0.2l1.2,1h0.1c0.4-0.7,1.1-1.1,2.1-1.1c0.4,0,0.7,0.1,1,0.2v1.6c-0.2-0.1-0.4-0.1-0.7-0.1
		c-1.3,0-2.1,0.9-2.1,2.3v2.9L140.1,100.4L140.1,100.4z"/>
	<path class="st1" d="M146.4,92.9l-1.1-1.2v-0.1l1.1-1.2h0.1l1.1,1.2v0.1L146.4,92.9L146.4,92.9z M145.6,100.4v-6.8h1.7v6.8H145.6z"
		/>
	<path class="st1" d="M150.3,97.6c-0.9-0.2-1.7-0.8-1.7-2.1c0-1.4,1.1-2.2,2.6-2.2c0.7,0,1.4,0.2,1.9,0.4v1.6
		c-0.6-0.2-1.3-0.4-1.9-0.4c-0.5,0-0.9,0.1-0.9,0.5s0.3,0.5,0.9,0.7l0.7,0.2c1.1,0.3,1.8,1,1.8,2.1c0,1.4-1,2.2-2.6,2.2
		c-1,0-1.8-0.3-2.5-0.7v-1.6c0.8,0.5,1.5,0.7,2.4,0.7c0.7,0,1-0.2,1-0.5s-0.2-0.5-1-0.7L150.3,97.6z"/>
	<path class="st1" d="M163.7,100.4v-3.8c0-1-0.6-1.6-1.4-1.6c-0.8,0-1.4,0.6-1.4,1.6v3.8h-1.7v-3.8c0-1-0.6-1.6-1.4-1.6
		s-1.4,0.6-1.4,1.6v3.8H155v-6.9h0.2l1.2,0.7h0.1c0.5-0.6,1-0.8,1.8-0.8c0.9,0,1.7,0.4,2.2,1.1c0.6-0.8,1.4-1.1,2.2-1.1
		c1.6,0,2.7,1,2.7,3.1v3.9C165.4,100.4,163.7,100.4,163.7,100.4z"/>
	<path class="st1" d="M177.6,100.4l-0.9-2.2H173l-0.9,2.2h-1.8l3.6-9l-0.3-0.6h1.9l3.8,9.6H177.6z M175.5,95.1
		c-0.3-0.8-0.4-1.2-0.7-1.9h-0.1c-0.2,0.7-0.4,1.2-0.7,1.9l-0.5,1.4h2.4L175.5,95.1z"/>
	<path class="st1" d="M186.2,100.4l-0.8-2.5c-0.2-0.7-0.4-1.6-0.6-2.3h-0.1c-0.2,0.7-0.4,1.6-0.6,2.3l-0.8,2.5h-1.8l-2-6.8h1.8
		l0.6,2.3c0.2,0.9,0.4,1.3,0.6,2.4h0.1c0.3-1,0.4-1.5,0.6-2.4l0.5-2l-0.3-0.5h2.1l0.7,2.5c0.2,0.9,0.4,1.3,0.6,2.4h0.1
		c0.2-0.8,0.4-1.6,0.6-2.4l0.6-2.3h1.7l-2,6.8H186.2z"/>
	<path class="st1" d="M196.9,100.4l-1.2-0.7h-0.1c-0.7,0.7-1.3,0.8-2.1,0.8c-2.1,0-3.3-1.5-3.3-3.6c0-2,1.1-3.6,3.2-3.6
		c0.9,0,1.5,0.3,1.8,0.8h0.1v-0.6h1.7L196.9,100.4L196.9,100.4L196.9,100.4z M195.4,97c0-1.2-0.7-2-1.7-2s-1.7,0.8-1.7,2
		s0.7,2,1.7,2S195.4,98.2,195.4,97z"/>
	<path class="st1" d="M199.1,100.4v-6.9h0.2l1.2,1h0.1c0.4-0.7,1.1-1.1,2.1-1.1c0.4,0,0.7,0.1,1,0.2v1.6c-0.2-0.1-0.4-0.1-0.7-0.1
		c-1.3,0-2.1,0.9-2.1,2.3v2.9L199.1,100.4L199.1,100.4z"/>
	<path class="st1" d="M210.4,100.4l-1.2-0.7h-0.1c-0.7,0.7-1.3,0.8-2.1,0.8c-2.1,0-3.3-1.5-3.3-3.6s1.2-3.6,3.2-3.6
		c0.9,0,1.4,0.3,1.9,0.8h0.1V91l1.7-0.5v10L210.4,100.4L210.4,100.4z M209,97c0-1.2-0.7-2-1.7-2s-1.7,0.8-1.7,2s0.7,2,1.7,2
		S209,98.1,209,97z"/>
	<path class="st1" d="M213.9,97.6c-0.9-0.2-1.7-0.8-1.7-2.1c0-1.4,1.1-2.2,2.6-2.2c0.7,0,1.4,0.2,1.9,0.4v1.6
		c-0.6-0.2-1.3-0.4-1.9-0.4c-0.5,0-0.9,0.1-0.9,0.5s0.3,0.5,0.9,0.7l0.7,0.2c1.1,0.3,1.8,1,1.8,2.1c0,1.4-1,2.2-2.6,2.2
		c-1,0-1.8-0.3-2.5-0.7v-1.6c0.8,0.5,1.5,0.7,2.4,0.7c0.7,0,1-0.2,1-0.5s-0.2-0.5-1-0.7L213.9,97.6z"/>
	<path class="st1" d="M223.6,100.4v-7h-1.5l0.4-1.7h2.9v8.7H223.6z"/>
	<path class="st1" d="M230.6,100.4v-1.9h-3.7v-1.6l3.6-5.2h1.9v5.2h1v1.6h-1v1.9H230.6z M230.6,93.8l-2.1,3.1h2.1V93.8z"/>
	<path class="st1" d="M237.1,95.6c-0.3,0.2-0.5,0.3-1,0.3c-0.9,0-1.5-0.5-1.5-1.7v-1.4h-0.8l0.2-0.9h0.6v-1l1-0.3v1.3h1.2l-0.2,0.9
		h-1v1.4c0,0.6,0.2,0.8,0.7,0.8c0.3,0,0.6-0.1,0.8-0.3V95.6z"/>
	<path class="st1" d="M240.5,95.9v-2.1c0-0.6-0.3-1-0.9-1c-0.5,0-0.9,0.4-0.9,1v2.1h-1v-5.5l1-0.3v2.2l0,0c0.3-0.3,0.6-0.5,1.1-0.5
		c0.9,0,1.5,0.6,1.5,1.9v2.2C241.3,95.9,240.5,95.9,240.5,95.9z"/>
	<path class="st1" d="M246.7,100.4v-1.6l2.8-2.6c1.1-1,1.4-1.5,1.4-2c0-0.7-0.5-1-1.3-1s-1.5,0.3-2.6,0.9v-1.8
		c0.9-0.5,1.6-0.8,2.7-0.8c2,0,3,0.9,3,2.5c0,1.5-0.8,2.2-2.3,3.7l-1,1h3.4v1.7C252.8,100.4,246.7,100.4,246.7,100.4z"/>
	<path class="st1" d="M253.8,96c0-2.5,1.1-4.5,3.5-4.5c2.4,0,3.5,2.1,3.5,4.5c0,2.5-1.1,4.5-3.5,4.5S253.8,98.5,253.8,96z M259.1,96
		c0-1.6-0.5-2.8-1.8-2.8s-1.8,1.3-1.8,2.8c0,1.6,0.5,2.8,1.8,2.8C258.6,98.9,259.1,97.6,259.1,96z"/>
	<path class="st1" d="M261.9,100.4v-1.6l2.8-2.6c1.1-1,1.4-1.5,1.4-2c0-0.7-0.5-1-1.3-1s-1.5,0.3-2.6,0.9v-1.8
		c0.9-0.5,1.6-0.8,2.7-0.8c2,0,3,0.9,3,2.5c0,1.5-0.8,2.2-2.3,3.7l-1,1h3.4v1.7C268,100.4,261.9,100.4,261.9,100.4z"/>
	<path class="st1" d="M270.2,96.7l0.4-1.5h1.3c0.9,0,1.3-0.4,1.3-1s-0.4-1-1.3-1c-0.7,0-1.4,0.2-2.4,0.7v-1.7
		c0.8-0.5,1.5-0.7,2.6-0.7c2,0,2.9,0.9,2.9,2.4c0,0.8-0.3,1.4-0.8,1.9c0.7,0.4,1,1.1,1,2c0,1.7-1.1,2.7-3.1,2.7c-1.4,0-2.4-0.5-3-1
		v-1.7c0.8,0.5,1.7,1,2.8,1c1.1,0,1.5-0.5,1.5-1.2s-0.4-1-1.4-1L270.2,96.7L270.2,96.7z"/>
</g>
<g>
	<g>
		<path class="st0" d="M64.1,53c-1.7,0-3-0.1-4.1-0.5c-1.1-0.3-1.9-0.8-2.6-1.4c-0.6-0.6-1.1-1.5-1.4-2.4c-0.3-1-0.4-2.1-0.4-3.3
			l-0.1-25.8h6.7l0.1,25.2c0,0.8,0.2,1.5,0.6,1.9c0.4,0.5,1,0.7,1.9,0.7l11.9-0.1V53L64.1,53z"/>
		<path class="st0" d="M89.8,53.4c-1.7,0-3.3-0.3-4.8-0.9c-1.5-0.6-2.7-1.4-3.8-2.5c-1.1-1.1-1.9-2.3-2.5-3.8s-0.9-3.1-0.9-4.8
			c0-1.8,0.3-3.4,0.9-4.8c0.6-1.5,1.4-2.7,2.5-3.8c1.1-1.1,2.3-1.9,3.8-2.5s3.1-0.9,4.8-0.9c1.7,0,3.3,0.3,4.8,0.9s2.7,1.4,3.8,2.5
			c1.1,1.1,1.9,2.3,2.5,3.8s0.9,3.1,0.9,4.8c0,1.8-0.3,3.4-0.9,4.8c-0.6,1.5-1.4,2.7-2.5,3.8s-2.3,1.9-3.8,2.5
			C93.1,53.1,91.5,53.4,89.8,53.4z M89.8,48.3c1.7,0,3-0.6,4-1.7c1-1.2,1.5-2.9,1.5-5.2s-0.5-4-1.5-5.2c-1-1.1-2.3-1.7-4-1.7
			s-3,0.6-4,1.7c-1,1.2-1.5,2.9-1.5,5.2s0.5,4,1.5,5.2C86.7,47.7,88.1,48.3,89.8,48.3z"/>
		<path class="st0" d="M138.9,29.3l0.1,12.9c0,6.8-3.5,10.8-10,10.8c-3,0-5.4-0.8-7.1-3.3c-1.6,2.3-4,3.3-7.1,3.3
			c-6.5,0-10-3.9-10-10.7l-0.1-12.9h6.3l0.1,12.3c0,3.9,1.2,5.6,3.8,5.6c2.6,0,3.9-1.8,3.9-5.6l-0.1-12.3h6.3l0.1,12.3
			c0,3.9,1.3,5.6,4,5.6c2.6,0,3.8-1.8,3.8-5.6l-0.1-12.3L138.9,29.3z"/>
		<path class="st0" d="M152.6,35.8c-0.1-10.1,7.1-17.3,16.7-17.4c5.4,0,9.8,2.1,12.8,5.9l-4.6,4.6c-2.1-2.6-4.7-3.9-7.8-3.9
			c-5.8,0-9.9,4.5-9.9,10.8s4.2,10.7,10,10.7c3.1,0,5.7-1.4,7.8-4l4.6,4.6c-2.9,3.9-7.4,6-12.8,6C159.8,53.1,152.6,45.9,152.6,35.8z
			"/>
		<path class="st0" d="M206.8,40.9c0,2-0.3,3.8-0.8,5.3s-1.3,2.7-2.3,3.7s-2.2,1.7-3.6,2.2c-1.4,0.5-3,0.8-4.8,0.8s-3.5-0.3-5-1
			c-1.5-0.6-2.7-1.5-3.7-2.7c-1-1.1-1.8-2.5-2.3-4c-0.5-1.6-0.8-3.2-0.8-5.1c0-1.7,0.2-3.3,0.8-4.7c0.5-1.4,1.3-2.6,2.2-3.6
			c1-1,2.1-1.7,3.4-2.3c1.3-0.5,2.8-0.8,4.4-0.8c1.6,0,3,0.3,4.1,0.8c1.1,0.6,2,1.2,2.6,2v-2.2h5.7L206.8,40.9z M195.4,47.8
			c1.6,0,2.9-0.6,3.9-1.7c1-1.2,1.4-2.9,1.4-5.2s-0.5-4-1.5-5.2c-1-1.1-2.3-1.7-3.9-1.7c-1.6,0-2.9,0.6-3.9,1.7
			c-1,1.2-1.4,2.9-1.4,5.2s0.5,4,1.5,5.2C192.5,47.2,193.8,47.8,195.4,47.8z"/>
		<path class="st0" d="M209.5,52.2l-0.1-13.1c0-3.3,1-5.8,3-7.6c2-1.8,4.8-2.7,8.4-2.7c0.5,0,1,0,1.3,0c0.4,0,0.7,0,1,0.1
			c0.3,0,0.6,0.1,0.9,0.1c0.3,0,0.6,0.1,1,0.1v5.1c-0.6-0.1-1.2-0.2-1.8-0.2c-0.6-0.1-1.2-0.1-1.7-0.1c-1.7,0-3.1,0.4-4.1,1.3
			c-1,0.9-1.5,2.1-1.5,3.8l0.1,13.3L209.5,52.2z"/>
		<path class="st0" d="M227.2,18.7h6.5l0.1,12.1c0.7-0.7,1.6-1.3,2.6-1.6c1-0.3,2.1-0.5,3.3-0.5c1.6,0,3.1,0.2,4.4,0.8
			c1.3,0.5,2.5,1.3,3.4,2.2c1,1,1.7,2.1,2.2,3.5s0.8,2.9,0.8,4.7s-0.2,3.5-0.8,5.1c-0.5,1.6-1.3,2.9-2.2,4.1c-1,1.1-2.2,2-3.5,2.7
			c-1.4,0.7-3,1-4.7,1c-1.8,0-3.4-0.3-4.9-0.8s-2.8-1.3-3.8-2.3c-1.1-1-1.9-2.3-2.5-3.7c-0.6-1.5-0.9-3.2-0.9-5L227.2,18.7z
			 M238.9,47.5c1.6,0,2.9-0.6,3.9-1.7c1-1.2,1.4-2.9,1.4-5.2s-0.5-4-1.5-5.2c-1-1.1-2.3-1.7-3.9-1.7c-1.6,0-2.9,0.6-3.9,1.7
			c-1,1.2-1.4,2.9-1.4,5.2s0.5,4,1.5,5.2C235.9,47,237.2,47.5,238.9,47.5z"/>
		<path class="st0" d="M265,52.5c-1.7,0-3.3-0.3-4.8-0.9c-1.5-0.6-2.7-1.4-3.8-2.5c-1.1-1.1-1.9-2.3-2.5-3.8s-0.9-3.1-0.9-4.8
			c0-1.8,0.3-3.4,0.9-4.8c0.6-1.5,1.4-2.7,2.5-3.8c1.1-1.1,2.3-1.9,3.8-2.5s3.1-0.9,4.8-0.9c1.7,0,3.3,0.3,4.8,0.9s2.7,1.4,3.8,2.5
			c1.1,1.1,1.9,2.3,2.5,3.8s0.9,3.1,0.9,4.8c0,1.8-0.3,3.4-0.9,4.8c-0.6,1.5-1.4,2.7-2.5,3.8s-2.3,1.9-3.8,2.5
			C268.3,52.2,266.7,52.5,265,52.5z M265,47.4c1.7,0,3-0.6,4-1.7c1-1.2,1.5-2.9,1.5-5.2s-0.5-4-1.5-5.2c-1-1.1-2.3-1.7-4-1.7
			s-3,0.6-4,1.7c-1,1.2-1.5,2.9-1.5,5.2s0.5,4,1.5,5.2C261.9,46.8,263.3,47.4,265,47.4z"/>
		<path class="st0" d="M293.5,51.8l-0.1-14.4c0-1.5-0.3-2.5-1-3.1c-0.6-0.6-1.7-0.9-3.1-0.9s-2.5,0.3-3.1,0.9
			c-0.6,0.6-0.9,1.7-0.9,3.1l0.1,14.4H279l-0.1-15.1c0-2.9,0.9-5,2.8-6.4s4.4-2.1,7.7-2.1c3.3,0,5.8,0.6,7.7,2
			c1.9,1.3,2.8,3.5,2.9,6.3l0.1,15.1L293.5,51.8z"/>
	</g>
</g>
<g>
	<g>
		<g>
			<path class="st0" d="M285.4,21.6c0.2-0.3-2.8-1.8-4-2.1c-2.2-0.5-4.4-0.6-6.5,0.2c-1.7,0.6-3.5,1.8-4.2,3.5
				c-0.8,1.8-1.2,4-0.3,5.1c1.8-4.3,6-6.3,10.1-6.6c-4,0.8-7.6,3.3-8.9,7.3c0,0.1,3.4,0.2,3.7,0.2c1.5-0.2,2.5-0.7,3.6-1.8
				C279.2,26.6,284.9,21,285.4,21.6L285.4,21.6z"/>
			<g>
				<path class="st0" d="M258.2,13.9c0-0.3,3.3,0,4.5,0.5c2.1,0.7,4.1,1.9,5.4,3.6c1.2,1.4,2,3.3,1.8,5.1c-0.3,1.9-1.1,3.9-2.4,4.2
					c0.7-4.4-1.8-8.2-5.1-10.7c3,2.8,4.7,6.7,3.8,10.6c0,0.1-3-1.6-3.2-1.8c-1.2-0.9-1.8-1.9-2.1-3.4
					C260.8,21.2,258.8,13.7,258.2,13.9L258.2,13.9z"/>
			</g>
		</g>
	</g>
</g>
</svg>
