<?xml version="1.0" encoding="utf-8"?>
<!-- Generator: Adobe Illustrator 26.5.0, SVG Export Plug-In . SVG Version: 6.00 Build 0)  -->
<svg version="1.1" id="Layer_1" xmlns="http://www.w3.org/2000/svg" xmlns:xlink="http://www.w3.org/1999/xlink" x="0px" y="0px"
	 viewBox="0 0 128 128" style="enable-background:new 0 0 128 128;" xml:space="preserve">
<style type="text/css">
	.st0{fill:#1C2E55;}
</style>
<g>
	<path class="st0" d="M118.5,110H9.5c-5.2,0-9.5-4.3-9.5-9.5v-73C0,22.3,4.3,18,9.5,18h109c5.2,0,9.5,4.3,9.5,9.5v73.1
		C128,105.8,123.7,110,118.5,110z M9.5,19.5c-4.4,0-7.9,3.6-7.9,7.9v73.1c0,4.4,3.6,7.9,7.9,7.9h109c4.4,0,7.9-3.6,7.9-7.9v-73
		c0-4.4-3.6-7.9-7.9-7.9H9.5V19.5z"/>
	<path class="st0" d="M63.6,72.2c-2.2,0-4.4-0.8-6.3-2.3L2.2,23.2c-0.3-0.3-0.4-0.8-0.1-1.1c0.3-0.3,0.8-0.4,1.1-0.1l55.1,46.7
		c3,2.6,7.5,2.6,10.5,0l55.9-47.5c0.3-0.3,0.8-0.2,1.1,0.1c0.3,0.3,0.2,0.8-0.1,1.1L69.8,69.9C68,71.4,65.8,72.2,63.6,72.2z"/>
	<g>
		<path class="st0" d="M23.3,89.8c-0.2,0-0.4-0.1-0.6-0.2c-0.3-0.3-0.3-0.8,0-1.1l26.7-26.7c0.3-0.3,0.8-0.3,1.1,0
			c0.3,0.3,0.3,0.8,0,1.1L23.8,89.6C23.7,89.7,23.5,89.8,23.3,89.8z"/>
		<path class="st0" d="M104.7,89.8c-0.2,0-0.4-0.1-0.6-0.2L77.4,62.9c-0.3-0.3-0.3-0.8,0-1.1s0.8-0.3,1.1,0l26.7,26.7
			c0.3,0.3,0.3,0.8,0,1.1C105.1,89.7,104.9,89.8,104.7,89.8z"/>
	</g>
</g>
</svg>
