<?xml version="1.0" encoding="utf-8"?>
<!-- Generator: Adobe Illustrator 26.4.1, SVG Export Plug-In . SVG Version: 6.00 Build 0)  -->
<svg version="1.1" id="Layer_1" xmlns="http://www.w3.org/2000/svg" xmlns:xlink="http://www.w3.org/1999/xlink" x="0px" y="0px"
	 viewBox="0 0 300 50" style="enable-background:new 0 0 300 50;" xml:space="preserve">
<style type="text/css">
	.st0{fill:#B6932F;}
</style>
<g>
	<path class="st0" d="M111.6,39.6c-1.9-4.1,3.9-18.5,5.6-22.7c0.3-0.8,3.3-8.4,0.4-7.4c-4,1.3-8.4,11.1-5.7,13.1
		c0.8,0.8-0.9,2.4-2,0.8c-2.5-3.5,2.5-16.3,9.6-16.5c3-0.1,4.6,3,2.5,8s-6.9,14.4-8,19.7c3.1-7.1,11.1-21.1,18.4-26.3
		c4.5-3.3,6.9,0.1,6.3,3.4c-1.5,9-14.5,24.3-5.1,30.3c0.9,0.2,0.4,1.6-1.2,1.2c-11.3-5.7,0.8-25.8,2.2-30.9c1-3.5-1.1-2.4-3.5-0.1
		c-5.4,5.4-13,16.7-16.8,26.5C113.7,40.2,112.3,41.4,111.6,39.6z"/>
	<path class="st0" d="M154.6,28.1c-3.2,6.7-8.9,11.3-13.6,11.2c-9.3-0.2-5.5-16.3,4.6-16.3c4.1,0,5.1,4.6,1.7,7.2
		c-2.1,1.6-5.4,2.7-8.4,2.8c-0.4,2,0.3,4,2.7,4.2c3.7,0.3,8.3-3.5,11.3-9.1C152.9,28.1,154.6,28.1,154.6,28.1z M139.1,31.1
		c2.6,0.3,8.4-1.9,7.7-4.4C146.4,24.9,140.4,27.1,139.1,31.1z"/>
	<path class="st0" d="M153.4,39.2c-5.6,0-0.1-12.7,1-15.2c1.1-2.4,4.6-0.6,3.4,1.9c-2.1,4.2-5.2,11.1-3.6,11c1.6,0,7-10.2,7.7-11.9
		c1.9-4.4,5-1.8,4.1,0.8c-1.2,3.5-4.6,11.2-2.6,11.3c2.6,0.2,5.4-8.2,6.4-10.6c-0.6-2.5-0.2-5.7,3.1-5.7c2.4,0,0.4,4.6-0.3,5.7
		c-0.5,0.9,1.7,5.1,4.3,1.6c0.3-0.8,2-0.6,1.7,0c-1.6,3.7-6.1,3.7-7.3,0.4c-1.4,3.2-4.9,10.5-8,10.7c-5.4,0.3-2.4-7.7-1.6-10.3
		C160.1,32.1,155.9,39.2,153.4,39.2z"/>
	<path class="st0" d="M177.1,28.8c-2.2-5,10-9.6,13.4-5.9c0.6,0.8,0.5,2.1-0.2,3c-0.8,1.2-3.7,0.6-2.9-0.2c0.6-0.7,0.3-1.3-1.2-1.1
		c-2.6,0.2-5.8,1.8-6,2.8c-0.4,2.2,5.7,4.1,5.5,7.8c-0.2,2.9-3,4.9-6.5,4.9c-4.9,0-5.3-2.9-3.6-4.2c1.4-1.1,3.5-0.8,1.9,0.7
		c-1.7,1.7,2.9,2.1,5,0C185,34.2,178.1,30.9,177.1,28.8z"/>
</g>
</svg>
