<?xml version="1.0" encoding="utf-8"?>
<!-- Generator: Adobe Illustrator 26.5.0, SVG Export Plug-In . SVG Version: 6.00 Build 0)  -->
<svg version="1.1" id="Layer_1" xmlns="http://www.w3.org/2000/svg" xmlns:xlink="http://www.w3.org/1999/xlink" x="0px" y="0px"
	 viewBox="0 0 256 256" style="enable-background:new 0 0 256 256;" xml:space="preserve">
<g>
	<g>
		<path d="M112.8,138.9c-2.3,0-4.6-0.8-6.5-2.5c-2.9-2.7-9.9-5.8-20.1-5.8s-17.2,3.1-20.1,5.8c-3.8,3.6-9.9,3.3-13.4-0.5
			c-3.6-3.8-3.3-9.9,0.5-13.4c7.3-6.8,19.7-10.9,33-10.9s25.6,4.1,33,10.9c3.8,3.6,4.1,9.6,0.5,13.4
			C117.9,137.9,115.3,138.9,112.8,138.9z"/>
	</g>
	<path d="M131.4,176.2H57.5c-5.2,0-9.5-4.3-9.5-9.5s4.3-9.5,9.5-9.5h73.9c5.2,0,9.5,4.3,9.5,9.5S136.7,176.2,131.4,176.2z"/>
	<path d="M207.2,71.6h-62.9c-5.2,0-9.5-4.3-9.5-9.5s4.3-9.5,9.5-9.5h62.9c5.2,0,9.5,4.3,9.5,9.5S212.5,71.6,207.2,71.6z"/>
	<path d="M207.2,106.1h-62.9c-5.2,0-9.5-4.3-9.5-9.5s4.3-9.5,9.5-9.5h62.9c5.2,0,9.5,4.3,9.5,9.5S212.5,106.1,207.2,106.1z"/>
	<path d="M92.4,211.6H57.5c-5.2,0-9.5-4.3-9.5-9.5s4.3-9.5,9.5-9.5h34.9c5.2,0,9.5,4.3,9.5,9.5S97.7,211.6,92.4,211.6z"/>
	<path d="M86.3,100.1C69.6,100.1,56,86.5,56,69.8s13.6-30.3,30.3-30.3s30.3,13.6,30.3,30.3C116.6,86.5,103,100.1,86.3,100.1z
		 M86.3,58.4C80,58.4,75,63.5,75,69.7C75,76,80.1,81,86.3,81s11.3-5,11.3-11.3C97.6,63.5,92.5,58.4,86.3,58.4z"/>
	<path d="M110.7,254.6H62.8c-34.3,0-62.2-27.9-62.2-62.2V62.8c0-34.3,27.9-62.2,62.2-62.2h129.7c34.3,0,62.2,27.9,62.2,62.2v52.6
		c0,5.2-4.3,9.5-9.5,9.5s-9.5-4.3-9.5-9.5V62.8c0-23.8-19.4-43.2-43.2-43.2H62.8C39,19.6,19.6,39,19.6,62.8v129.7
		c0,23.8,19.4,43.2,43.2,43.2h47.9c5.2,0,9.5,4.3,9.5,9.5S115.9,254.6,110.7,254.6z"/>
</g>
<path d="M139.3,252c-3.5-3.5-4.8-8.7-3.4-13.4l11.2-37.9c1.6-5.3,4.4-10.1,8.3-14l40.7-40.7c13.9-13.9,36.3-14.2,49.8-0.6
	c13.6,13.6,13.3,35.9-0.6,49.8l-40.7,40.7c-3.9,3.9-8.7,6.8-14,8.3l-37.9,11.2C148,256.9,142.9,255.5,139.3,252z M234.7,156.7
	c-7.3-7.3-19.5-7.1-27.2,0.6L166.8,198c-2,2-3.5,4.5-4.3,7.2l-9.9,33.6l33.6-9.9c2.7-0.8,5.2-2.3,7.2-4.3l40.7-40.7
	C241.7,176.2,242,164,234.7,156.7z"/>
</svg>
