<?xml version="1.0" encoding="utf-8"?>
<!-- Generator: Adobe Illustrator 26.5.0, SVG Export Plug-In . SVG Version: 6.00 Build 0)  -->
<svg version="1.1" id="Layer_1" xmlns="http://www.w3.org/2000/svg" xmlns:xlink="http://www.w3.org/1999/xlink" x="0px" y="0px"
	 viewBox="0 0 128 128" style="enable-background:new 0 0 128 128;" xml:space="preserve">
<style type="text/css">
	.st0{fill:url(#SVGID_1_);}
	.st1{fill:#FFF9B5;}
	.st2{fill:#EC921A;}
	.st3{fill:url(#SVGID_00000065066051455863767580000013660568045376037016_);}
	.st4{fill:#FFFFFF;}
</style>
<g>
	<g>
		<g>
			<linearGradient id="SVGID_1_" gradientUnits="userSpaceOnUse" x1="58.0286" y1="8.723879e-05" x2="58.0286" y2="126.216">
				<stop  offset="0" style="stop-color:#FFF15A"/>
				<stop  offset="1" style="stop-color:#FEAA27"/>
			</linearGradient>
			<path class="st0" d="M61.7,0H24.7C14.3,0,6,8.4,6,18.7v90.6c0,10.3,8.4,18.7,18.7,18.7h66.8c10.3,0,18.7-8.4,18.7-18.7V48.4
				L61.7,0z"/>
			<path class="st1" d="M80.4,48.4c-10.3,0-18.7-8.4-18.7-18.7V0l48.4,48.4H80.4z"/>
		</g>
		<g>
			<path class="st2" d="M50.7,85.6H29.9c-3,0-5.4-2.4-5.4-5.4s2.4-5.4,5.4-5.4h20.8c3,0,5.4,2.4,5.4,5.4S53.7,85.6,50.7,85.6z"/>
			<path class="st2" d="M86.2,108.3H29.9c-3,0-5.4-2.4-5.4-5.4s2.4-5.4,5.4-5.4h56.3c3,0,5.4,2.4,5.4,5.4S89.2,108.3,86.2,108.3z"/>
		</g>
	</g>
	<g>
		<g>
			
				<linearGradient id="SVGID_00000104706586004871306280000017364660644735316634_" gradientUnits="userSpaceOnUse" x1="94.2631" y1="22.8398" x2="128" y2="22.8398" gradientTransform="matrix(-3.267949e-07 1 -1 -3.267949e-07 128 2.091488e-05)">
				<stop  offset="0" style="stop-color:#78FE80"/>
				<stop  offset="1" style="stop-color:#41F344"/>
			</linearGradient>
			<path style="fill:url(#SVGID_00000104706586004871306280000017364660644735316634_);" d="M105.2,128c9.3,0,16.9-7.6,16.9-16.9
				c0-9.3-7.6-16.9-16.9-16.9c-9.3,0-16.9,7.6-16.9,16.9C88.3,120.4,95.9,128,105.2,128z"/>
		</g>
		<path class="st4" d="M101.2,119.3c-0.5,0-1-0.2-1.4-0.6l-4.5-4.5c-0.8-0.8-0.8-2,0-2.8c0.8-0.8,2-0.8,2.8,0l3.1,3.1l11-11
			c0.8-0.8,2-0.8,2.8,0c0.8,0.8,0.8,2,0,2.8l-12.4,12.4C102.2,119.1,101.7,119.3,101.2,119.3z"/>
	</g>
</g>
</svg>
