<?xml version="1.0" encoding="utf-8"?>
<!-- Generator: Adobe Illustrator 26.5.0, SVG Export Plug-In . SVG Version: 6.00 Build 0)  -->
<svg version="1.1" id="Layer_1" xmlns="http://www.w3.org/2000/svg" xmlns:xlink="http://www.w3.org/1999/xlink" x="0px" y="0px"
	 viewBox="0 0 128 128" style="enable-background:new 0 0 128 128;" xml:space="preserve">
<style type="text/css">
	.st0{fill:url(#SVGID_1_);}
	.st1{fill:#FFFFFF;}
</style>
<g>
	
		<linearGradient id="SVGID_1_" gradientUnits="userSpaceOnUse" x1="0" y1="64" x2="128" y2="64" gradientTransform="matrix(6.123234e-17 1 -1 6.123234e-17 128 0)">
		<stop  offset="0" style="stop-color:#FF3F3F"/>
		<stop  offset="1" style="stop-color:#A40000"/>
	</linearGradient>
	<path class="st0" d="M0,64c0,35.2,28.8,64,64,64s64-28.8,64-64S99.2,0,64,0S0,28.8,0,64z"/>
</g>
<path class="st1" d="M72.5,64l20.7-20.7c2.3-2.3,2.3-6.1,0-8.5c-2.3-2.3-6.1-2.3-8.5,0L64,55.5L43.3,34.8c-2.3-2.3-6.1-2.3-8.5,0
	c-2.3,2.3-2.3,6.1,0,8.5L55.5,64L34.8,84.7c-2.3,2.3-2.3,6.1,0,8.5c1.2,1.2,2.7,1.8,4.2,1.8s3.1-0.6,4.2-1.8L64,72.5l20.7,20.7
	c1.2,1.2,2.7,1.8,4.2,1.8s3.1-0.6,4.2-1.8c2.3-2.3,2.3-6.1,0-8.5L72.5,64z"/>
</svg>
