<?xml version="1.0" encoding="utf-8"?>
<!-- Generator: Adobe Illustrator 26.5.0, SVG Export Plug-In . SVG Version: 6.00 Build 0)  -->
<svg version="1.1" id="Layer_1" xmlns="http://www.w3.org/2000/svg" xmlns:xlink="http://www.w3.org/1999/xlink" x="0px" y="0px"
	 viewBox="0 0 128 128" style="enable-background:new 0 0 128 128;" xml:space="preserve">
<style type="text/css">
	.st0{fill:url(#SVGID_1_);}
	.st1{fill:#FFF9B5;}
	.st2{fill:#EC921A;}
</style>
<g>
	<g>
		<g>
			
				<linearGradient id="SVGID_1_" gradientUnits="userSpaceOnUse" x1="64" y1="128" x2="64" y2="1.7841" gradientTransform="matrix(1 0 0 -1 0 128)">
				<stop  offset="0" style="stop-color:#FFF15A"/>
				<stop  offset="1" style="stop-color:#FEAA27"/>
			</linearGradient>
			<path class="st0" d="M67.6,0h-37C20.2,0,11.9,8.4,11.9,18.7v90.6c0,10.3,8.4,18.7,18.7,18.7h66.8c10.3,0,18.7-8.4,18.7-18.7V48.4
				L67.6,0z"/>
			<path class="st1" d="M86.3,48.4C76,48.4,67.6,40,67.6,29.7V0L116,48.4H86.3z"/>
		</g>
		<g>
			<path class="st2" d="M56.6,85.6H35.8c-3,0-5.4-2.4-5.4-5.4s2.4-5.4,5.4-5.4h20.8c3,0,5.4,2.4,5.4,5.4S59.6,85.6,56.6,85.6z"/>
			<path class="st2" d="M92.1,108.3H35.8c-3,0-5.4-2.4-5.4-5.4s2.4-5.4,5.4-5.4h56.3c3,0,5.4,2.4,5.4,5.4S95.1,108.3,92.1,108.3z"/>
		</g>
	</g>
</g>
</svg>
