<?xml version="1.0" encoding="utf-8"?>
<!-- Generator: Adobe Illustrator 26.5.0, SVG Export Plug-In . SVG Version: 6.00 Build 0)  -->
<svg version="1.1" id="Layer_1" xmlns="http://www.w3.org/2000/svg" xmlns:xlink="http://www.w3.org/1999/xlink" x="0px" y="0px"
	 viewBox="0 0 128 128" style="enable-background:new 0 0 128 128;" xml:space="preserve">
<style type="text/css">
	.st0{fill:url(#SVGID_1_);}
	.st1{fill:#FFFFFF;}
</style>
<g>
	<g>
		
			<linearGradient id="SVGID_1_" gradientUnits="userSpaceOnUse" x1="-2.728484e-12" y1="64" x2="128" y2="64" gradientTransform="matrix(-3.267949e-07 1 -1 -3.267949e-07 128 2.091488e-05)">
			<stop  offset="0" style="stop-color:#78FE80"/>
			<stop  offset="1" style="stop-color:#41F344"/>
		</linearGradient>
		<path class="st0" d="M64,128c35.2,0,64-28.8,64-64S99.2,0,64,0S0,28.8,0,64S28.8,128,64,128z"/>
	</g>
	<path class="st1" d="M49.1,95.1c-1.9,0-3.8-0.7-5.3-2.2L26.5,75.6c-2.9-2.9-2.9-7.7,0-10.6c2.9-2.9,7.7-2.9,10.6,0L49.1,77
		l41.8-41.8c2.9-2.9,7.7-2.9,10.6,0c2.9,2.9,2.9,7.7,0,10.6L54.4,92.9C52.9,94.3,51,95.1,49.1,95.1z"/>
</g>
</svg>
