<?xml version="1.0" encoding="utf-8"?>
<!-- Generator: Adobe Illustrator 26.5.0, SVG Export Plug-In . SVG Version: 6.00 Build 0)  -->
<svg version="1.1" id="Layer_1" xmlns="http://www.w3.org/2000/svg" xmlns:xlink="http://www.w3.org/1999/xlink" x="0px" y="0px"
	 viewBox="0 0 420.9 50.1" style="enable-background:new 0 0 420.9 50.1;" xml:space="preserve">
<style type="text/css">
	.st0{fill:#B6932F;}
</style>
<g>
	<path class="st0" d="M11.5,33.6c-1.5,0.5-2.8,0.7-4.4,0.5c-7.4-0.9-10.3-11.8-2.3-20.4C5.3,7.8,9.5,0,17.6,0
		c8.6,0,10.9,8.2,9.7,13.7c-0.2,0.9-0.4,1.8-0.6,2.7c-1.7,5.9-6.9,13.8-13.4,16.5c2.1,2.3,4.4,3.4,7.3,3.9c1.8,0.1,1.3,1.8-1,1.3
		C16.4,37.4,13.5,35.8,11.5,33.6z M10.1,32.1C6.6,28,5.4,23.6,4.8,18.3C1.3,23.4,0.9,33.7,10.1,32.1z M17.5,2.1
		c-4.5-0.1-9,4.1-10,9.1c2.1-1.9,5.5-3.8,8.2-4.3c2.3-0.6,4,2.7,2.5,3.9c-3.6,0.4-8.4,1.7-11.2,5c-0.1,3.9,0.9,11,4.9,15.6
		C22.7,26.5,29.4,2.4,17.5,2.1z"/>
	<path class="st0" d="M29.5,32.2c-4.8-0.2-3.2-9.9-0.3-14.8c1.9-3.2,5.1-0.2,3.9,1.4c-3.3,4.4-4.9,10.8-3.2,11.3
		c1.6,0.5,3.9-3.1,5.9-6.7c1.5-2.7,2.6-5.5,3.2-6.5c0.7-1.2,2-1.1,2.7-0.5c0.6,0.4,1.1,1.2,1.1,2.1c-0.2,3.2-4,7.3-4.1,10.5
		c0,0.8,0.4,1.2,1,1.2c2.3,0,5.2-5.5,6.8-9h1.7c-1.9,4.1-5.6,11.2-9.4,11.2c-2.8-0.1-3.3-3.2-2.4-6.1c0.4-1.2,0.8-2.4,1.3-3.6
		c-0.5,1-1.6,3.5-2.2,4.5C33.8,29.7,31.7,32.3,29.5,32.2z"/>
	<path class="st0" d="M56.8,27.9c-0.6,1.4-0.4,2,0,2.2c2.2,1.1,6.4-7.7,7-8.9h1.8c-1.1,2.1-5.3,11.6-9.4,11.2
		c-3-0.3-2.8-3.8-1.9-6.1c0.3-0.7,0.5-1.8,0.7-2.4c-1.2,2.7-3.8,9.2-7.6,8.6c-6.6-1-2.3-16.4,7.5-16.3c1.5,0,3.8,0.8,3.7,3.1
		c-0.1,1.4-2.2,1.4-2.5,0.9c-1.3-1.8-3.4-0.7-4.4,0c-3.9,2.9-5.9,9.7-3.4,10.1c2.3,0.3,5.6-7,6.4-8.7c0.8-1.7,4.8-0.6,3.9,2.3
		C58.1,25.2,57.4,26.6,56.8,27.9z"/>
	<path class="st0" d="M70.7,4.9c6.1-7.6,11.3-4.2,9.2,2.8c-1.5,5-7.2,12.6-13.1,14c-1,5.7-0.1,8.5,2,8.5c2,0,6-3.2,9.1-8.9h1.7
		c-2.2,4.7-8.1,11.7-11.9,11.1C59.7,31.2,64.4,12.8,70.7,4.9z M77.7,7c0.6-2.7,0.2-4.4-3.3-0.9c-3.2,3.2-6,10.2-7.1,13.4
		C71.7,18.4,76.6,11.8,77.7,7z"/>
	<path class="st0" d="M79.4,30.2c1.7,0,5.3-5.3,7.1-8.9h1.7c-1.8,3.9-5.9,11.2-9.7,11.2c-2.8,0-3.3-3.2-2.4-6.1c1-3.1,2.2-5.7,3-9
		c0.6-2.4,3.6-1.2,3.5,1c-0.2,3.2-4,7.4-4.1,10.5C78.4,29.7,78.8,30.2,79.4,30.2z M84.5,13.5c-0.7,1.2-1.9,1.6-2.8,1
		c-0.9-0.6-1.1-2-0.4-3.2c0.6-1.2,1.9-1.6,2.8-1C84.9,10.9,85.1,12.3,84.5,13.5z"/>
	<path class="st0" d="M104.6,21.2c-1.5,3.3-4.4,5.9-7.5,6.2c0.4,4.4-3.8,18.4-8.8,18.9C77,47.4,89.7-3.5,100.8,0.8
		c5.8,2.3-4.7,17-10.6,20.2C89,23.9,83,44.5,88.2,44.6c3,0.1,7-13.2,6.1-17.2C87,26.8,94,15.7,97,25.7c0.2,0.2,3.4,0,5.8-4.4H104.6z
		 M99.8,3.8c-2.6-0.3-8.2,12.3-8.9,14.6C95.7,15.5,102.1,4,99.8,3.8z"/>
	<path class="st0" d="M104.4,30.2c1.7,0,5.3-5.3,7.1-8.9h1.7c-1.8,3.9-5.9,11.2-9.7,11.2c-2.8,0-3.3-3.2-2.4-6.1c1-3.1,2.2-5.7,3-9
		c0.6-2.4,3.6-1.2,3.5,1c-0.2,3.2-4,7.4-4.1,10.5C103.4,29.7,103.8,30.2,104.4,30.2z M109.4,13.5c-0.7,1.2-1.9,1.6-2.8,1
		c-0.9-0.6-1.1-2-0.4-3.2c0.6-1.2,1.9-1.6,2.8-1C109.9,10.9,110.1,12.3,109.4,13.5z"/>
	<path class="st0" d="M128.6,21.2c-3,6.3-8.7,11.2-13.2,11.2c-9.6-0.1-5.4-16.7,4.2-16.4c5.3,0.2,5,6.4,0.8,8.4
		c-2.4,1.4-3.2-0.9-1.4-1.5c2.3-0.8,3.6-3.9,0.6-4c-5.7-0.1-9.5,11.2-3.5,11.2c3.3,0,7-2.3,10.8-8.9H128.6z"/>
	<path class="st0" d="M137.3,27.9c-0.6,1.4-0.4,2,0,2.2c2.2,1.1,6.4-7.7,7-8.9h1.8c-1.1,2.1-5.3,11.6-9.4,11.2
		c-3-0.3-2.8-3.8-1.9-6.1c0.3-0.7,0.5-1.8,0.7-2.4c-1.2,2.7-3.8,9.2-7.6,8.6c-6.6-1-2.3-16.4,7.5-16.3c1.5,0,3.8,0.8,3.7,3.1
		c-0.1,1.4-2.2,1.4-2.5,0.9c-1.3-1.8-3.4-0.7-4.4,0c-3.9,2.9-5.9,9.7-3.4,10.1c2.3,0.3,5.6-7,6.4-8.7c0.8-1.7,4.8-0.6,3.9,2.3
		C138.6,25.2,137.9,26.6,137.3,27.9z"/>
	<path class="st0" d="M158.4,21.2c-2.3,4.4-7.3,11.1-11.9,11.2c-2.6,0-3.9-2.4-3.6-5.4c0.2-2.7,1.7-6.7,2.7-9.4c-0.8,0-2,0-2.5-0.1
		c-1.2-0.1-0.7-1.7,0.7-1.9c2.4-0.1,0.9,0,2.5,0c0.5-1.3,0.8-2,1.1-3.4c0.6-2.4,3.6-1.2,3.5,1c0,1-0.3,1.5-0.8,2.4
		c2.8,0,3.2,0,3.6,0c2.2,0.2,1.4,1.7,0.1,1.8c-1.2,0.1-3.3,0.2-4.2,0.1c-1.3,2.8-2.6,6.1-3.3,9.5c-1.3,5.8,5.7,2.9,10.5-6H158.4z"/>
	<path class="st0" d="M158.2,30.2c1.7,0,5.3-5.3,7.1-8.9h1.7c-1.8,3.9-5.9,11.2-9.7,11.2c-2.8,0-3.3-3.2-2.4-6.1c1-3.1,2.2-5.7,3-9
		c0.6-2.4,3.6-1.2,3.5,1c-0.2,3.2-4,7.4-4.1,10.5C157.2,29.7,157.6,30.2,158.2,30.2z M163.3,13.5c-0.7,1.2-1.9,1.6-2.8,1
		c-0.9-0.6-1.1-2-0.4-3.2c0.6-1.2,1.9-1.6,2.8-1C163.8,10.9,164,12.3,163.3,13.5z"/>
	<path class="st0" d="M173.2,16c1.3,0,3.6,0.6,4,2.2c0.4,1.8-2,1.8-2.3,1.1c-0.8-0.8-2.3-0.4-2.9-0.1c-4.4,1.9-7.4,11-2.1,11
		c2.2,0,4.2-1.7,5.1-3.7c-3.1-0.8-1.5-6,1.4-6c1.3,0,2.1,1.8,1.2,4.1c0.8,0.1,2.7-0.9,4-3.4h1.7c-1.8,3.9-4.6,5.4-6.4,5.5
		c-0.8,1.6-3.6,5.7-7.7,5.7C160.2,32.3,163.6,16,173.2,16z"/>
	<path class="st0" d="M192.2,30.1c1.9,0,4.9-5.3,6.7-8.9h1.7c-1.9,4.1-5.5,11.1-9.2,11.2c-2.9,0-3.6-2.7-2.7-5.7
		c0.8-2.6,3.3-7.8,2.6-7.9c-1.1-0.3-7.8,10-9,12.4c-1,2.2-3.8,0.6-3.4-1.4c0.1-1,0.5-2.2,0.9-3.4c1-3.1,2-6,2.7-9.1
		c0.6-2.4,3.9-1.3,3.6,0.9c-0.3,2.3-2.4,6.5-3.6,9.2c1.1-1.8,4.5-7.1,7.3-9.9c0.9-0.9,1.9-1.4,2.8-1.5c1.4-0.1,2.7,1,2.6,2.3
		c-0.2,3.2-3.8,7.4-3.9,10.5C191.4,29.7,191.6,30.1,192.2,30.1z"/>
	<path class="st0" d="M199.1,21.9c-2.2-5,10-9.6,13.4-5.9c0.6,0.8,0.5,2.1-0.2,3c-0.8,1.2-3.7,0.6-2.9-0.2c0.6-0.7,0.3-1.3-1.2-1.1
		c-2.6,0.2-5.8,1.8-6,2.8c-0.4,2.2,5.7,4.1,5.5,7.8c-0.2,2.9-3,4.9-6.5,4.9c-4.9,0-5.3-2.9-3.6-4.2c1.4-1.1,3.5-0.8,1.9,0.7
		c-1.7,1.7,2.9,2.1,5,0C206.9,27.4,200,24,199.1,21.9z"/>
	<path class="st0" d="M229.8,16c1.3,0,3.6,0.6,4,2.2c0.4,1.8-2,1.8-2.3,1.1c-0.8-0.8-2.3-0.4-2.9-0.1c-4.4,1.9-7.4,11-2.1,11
		c2.2,0,4.2-1.7,5.1-3.7c-3.1-0.8-1.5-6,1.4-6c1.3,0,2.1,1.8,1.2,4.1c0.8,0.1,2.7-0.9,4-3.4h1.7c-1.8,3.9-4.6,5.4-6.4,5.5
		c-0.8,1.6-3.6,5.7-7.7,5.7C216.8,32.3,220.2,16,229.8,16z"/>
	<path class="st0" d="M256.3,21.2c-1.5,3.3-4.4,5.9-7.5,6.2c0.4,4.4-3.8,18.4-8.8,18.9c-11.3,1.1,1.4-49.9,12.6-45.5
		c5.8,2.3-4.7,17-10.6,20.2c-1.3,2.9-7.2,23.5-2.1,23.7c3,0.1,7-13.2,6.1-17.2c-7.4-0.6-0.4-11.7,2.7-1.8c0.2,0.2,3.4,0,5.8-4.4
		H256.3z M251.5,3.8c-2.6-0.3-8.2,12.3-8.9,14.6C247.3,15.5,253.8,4,251.5,3.8z"/>
	<path class="st0" d="M287.4,18.7c-3.6,0-6.6,0-10.2,0c-1.9,1.7-14.4,16.6-22.3,17.3c-2.8,0.2-2.5-1.8-0.4-1.9
		c5.1-0.1,12.5-7.5,20-15.4c-3.3,0-6.9,0.1-8-0.6c-1-0.6,0.3-2.2,1.2-1.4c0.8,0.6,4.6,0.5,8,0.5c6.1-6.5,11.1-12.6,14.8-15.5
		c2.3-1.9,6.7-2.8,6.9,0.5c0.2,3.5-3.9,11.8-5.4,15.1c2.1,0,2.5,0,3.6,0.3c2.4,0.5,1.2,2.4,0.3,1.7c-0.5-0.6-1.4-0.6-4.5-0.6
		c-0.9,1.9-4.8,10.9-3.5,13.2c0.3,0.9-1.3,3.5-3.2,0.9C283.6,29.9,286.1,22,287.4,18.7z M287.9,17.3c2.1-5.3,3.7-9.6,4.6-12.5
		c0.6-2.2,0.5-2.7-1-1.4c-3.8,3.2-7,7.7-12.9,13.9C282.3,17.3,284,17.3,287.9,17.3z"/>
	<path class="st0" d="M317.7,21.2c-2.6,4.8-8.7,12.2-15,11.2c-5.5-0.9-1-6.4,0.6-3.5c6.1-1.9,7.2-12.6,2.8-9.4
		c-7.6,5.5-10.7,25-12.1,29.8c-0.5,1.5-2.8,0.8-2.8-1.4c0-1.8,1.2-7.4,3.9-14c1.8-6.6,3.1-13.5,3.6-16.5c0.9-2.9,4.6-0.1,3.7,1.8
		l-0.9,3.1c2.7-4.6,5.4-6.4,7.8-6.2c4.9,0.3,3.9,10.4-4.2,14c1.5,0.8,6.9-1.8,10.9-8.8H317.7z"/>
	<path class="st0" d="M335.6,21.2c-2.6,4.8-8.7,12.2-15,11.2c-5.5-0.9-1-6.4,0.6-3.5c6.1-1.9,7.2-12.6,2.8-9.4
		c-7.6,5.5-10.7,25-12.1,29.8c-0.5,1.5-2.8,0.8-2.8-1.4c0-1.8,1.2-7.4,3.9-14c1.8-6.6,3.1-13.5,3.6-16.5c0.9-2.9,4.6-0.1,3.7,1.8
		l-0.9,3.1c2.7-4.6,5.4-6.4,7.8-6.2c4.9,0.3,3.9,10.4-4.2,14c1.5,0.8,6.9-1.8,10.9-8.8H335.6z"/>
	<path class="st0" d="M340.8,4.9c6.1-7.6,11.3-4.2,9.2,2.8c-1.5,5-7.2,12.6-13.1,14c-1,5.7-0.1,8.5,2,8.5c2,0,6-3.2,9.1-8.9h1.7
		c-2.2,4.7-8.1,11.7-11.9,11.1C329.8,31.2,334.5,12.8,340.8,4.9z M347.8,7c0.6-2.7,0.2-4.4-3.3-0.9c-3.2,3.2-6,10.2-7.1,13.4
		C341.8,18.4,346.6,11.8,347.8,7z"/>
	<path class="st0" d="M349.5,30.2c1.7,0,5.3-5.3,7.1-8.9h1.7c-1.8,3.9-5.9,11.2-9.7,11.2c-2.8,0-3.3-3.2-2.4-6.1c1-3.1,2.2-5.7,3-9
		c0.6-2.4,3.6-1.2,3.5,1c-0.2,3.2-4,7.4-4.1,10.5C348.4,29.7,348.8,30.2,349.5,30.2z M354.5,13.5c-0.7,1.2-1.9,1.6-2.8,1
		c-0.9-0.6-1.1-2-0.4-3.2c0.6-1.2,1.9-1.6,2.8-1C355,10.9,355.2,12.3,354.5,13.5z"/>
	<path class="st0" d="M373.7,21.2c-3,6.3-8.7,11.2-13.2,11.2c-9.6-0.1-5.4-16.7,4.2-16.4c5.3,0.2,5,6.4,0.8,8.4
		c-2.4,1.4-3.2-0.9-1.4-1.5c2.3-0.8,3.6-3.9,0.6-4c-5.7-0.1-9.5,11.2-3.5,11.2c3.3,0,7-2.3,10.8-8.9H373.7z"/>
	<path class="st0" d="M382.4,27.9c-0.6,1.4-0.4,2,0,2.2c2.2,1.1,6.4-7.7,7-8.9h1.8c-1.1,2.1-5.3,11.6-9.4,11.2
		c-3-0.3-2.8-3.8-1.9-6.1c0.3-0.7,0.5-1.8,0.7-2.4c-1.2,2.7-3.8,9.2-7.6,8.6c-6.6-1-2.3-16.4,7.5-16.3c1.5,0,3.8,0.8,3.7,3.1
		c-0.1,1.4-2.2,1.4-2.5,0.9c-1.3-1.8-3.4-0.7-4.4,0c-3.9,2.9-5.9,9.7-3.4,10.1c2.3,0.3,5.6-7,6.4-8.7c0.8-1.7,4.8-0.6,3.9,2.3
		C383.7,25.2,382.9,26.6,382.4,27.9z"/>
	<path class="st0" d="M400.1,30.1c1.9,0,4.9-5.3,6.7-8.9h1.7c-1.9,4.1-5.5,11.1-9.2,11.2c-2.9,0-3.6-2.7-2.7-5.7
		c0.8-2.6,3.3-7.8,2.6-7.9c-1.1-0.3-7.8,10-9,12.4c-1,2.2-3.8,0.6-3.4-1.4c0.1-1,0.5-2.2,0.9-3.4c1-3.1,2-6,2.7-9.1
		c0.6-2.4,3.9-1.3,3.6,0.9c-0.3,2.3-2.4,6.5-3.6,9.2c1.1-1.8,4.5-7.1,7.3-9.9c0.9-0.9,1.9-1.4,2.8-1.5c1.4-0.1,2.7,1,2.6,2.3
		c-0.2,3.2-3.8,7.4-3.9,10.5C399.3,29.7,399.5,30.1,400.1,30.1z"/>
	<path class="st0" d="M420.9,21.2c-2.3,4.4-7.3,11.1-11.9,11.2c-2.6,0-3.9-2.4-3.6-5.4c0.2-2.7,1.7-6.7,2.7-9.4c-0.8,0-2,0-2.5-0.1
		c-1.2-0.1-0.7-1.7,0.7-1.9c2.4-0.1,0.9,0,2.5,0c0.5-1.3,0.8-2,1.1-3.4c0.6-2.4,3.6-1.2,3.5,1c0,1-0.3,1.5-0.8,2.4
		c2.8,0,3.2,0,3.6,0c2.2,0.2,1.4,1.7,0.1,1.8c-1.2,0.1-3.3,0.2-4.2,0.1c-1.3,2.8-2.6,6.1-3.3,9.5c-1.3,5.8,5.7,2.9,10.5-6H420.9z"/>
</g>
</svg>
