<?xml version="1.0" encoding="utf-8"?>
<!-- Generator: Adobe Illustrator 26.5.0, SVG Export Plug-In . SVG Version: 6.00 Build 0)  -->
<svg version="1.1" id="Layer_1" xmlns="http://www.w3.org/2000/svg" xmlns:xlink="http://www.w3.org/1999/xlink" x="0px" y="0px"
	 viewBox="0 0 256 256" style="enable-background:new 0 0 256 256;" xml:space="preserve">
<g>
	<g>
		<path d="M94.1,255.8H50.5c-20.3,0-36.9-16.6-36.9-36.9V37c0-20.3,16.6-36.9,36.9-36.9h128.8c20.3,0,36.9,16.6,36.9,36.9v69.3
			c0,5.5-4.5,10-10,10s-10-4.5-10-10V37c0-9.3-7.6-16.9-16.9-16.9H50.5c-9.3,0-16.9,7.6-16.9,16.9v181.9c0,9.3,7.6,16.9,16.9,16.9
			h43.6c5.5,0,10,4.5,10,10S99.6,255.8,94.1,255.8z"/>
		<path d="M166.9,79.7H60.4c-5.5,0-10-4.5-10-10s4.5-10,10-10h106.5c5.5,0,10,4.5,10,10S172.4,79.7,166.9,79.7z"/>
		<path d="M166.9,119.8H60.4c-5.5,0-10-4.5-10-10s4.5-10,10-10h106.5c5.5,0,10,4.5,10,10S172.4,119.8,166.9,119.8z"/>
		<path d="M126.9,160H60.4c-5.5,0-10-4.5-10-10s4.5-10,10-10h66.5c5.5,0,10,4.5,10,10S132.4,160,126.9,160z"/>
	</g>
	<path d="M233.6,143.8c-11.7-11.7-30.6-11.7-42.3,0l-2.3,2.3l-12,12L135,200.1l-12.8,37.7l-0.1,0.2c-1.5,4.9-0.2,10.2,3.4,13.8
		c0,0,0,0,0,0c3.6,3.6,8.9,4.9,13.8,3.4l38-12.9l41.9-41.9l12-12l2.3-2.3C245.3,174.4,245.3,155.5,233.6,143.8z M166.5,224.9
		l-21.2,7.2l7.2-21.2l36.5-36.5l14,14L166.5,224.9z M203.1,160.3l2.3-2.3c3.9-3.9,10.1-3.9,14,0c3.9,3.9,3.9,10.1,0,14l-2.3,2.3
		L203.1,160.3z"/>
</g>
</svg>
