<?xml version="1.0" encoding="utf-8"?>
<!-- Generator: Adobe Illustrator 26.4.1, SVG Export Plug-In . SVG Version: 6.00 Build 0)  -->
<svg version="1.1" id="Capa_1" xmlns="http://www.w3.org/2000/svg" xmlns:xlink="http://www.w3.org/1999/xlink" x="0px" y="0px"
	 viewBox="0 0 64 64" style="enable-background:new 0 0 64 64;" xml:space="preserve">
<style type="text/css">
	.st0{fill:#A6A6A6;}
</style>
<path class="st0" d="M59.5,62.1c-1.1,0-2.2-0.4-3-1.1L42.2,48.2l-0.3,0.2c-2.3,1.8-4.9,3.2-7.7,4.1c-2.6,0.9-5.4,1.3-8.2,1.3
	c0,0,0,0,0,0c-6.4,0-12.5-2.3-17.3-6.6c-5.2-4.6-8.3-11-8.7-17.9c-0.4-6.9,1.9-13.6,6.5-18.8c3-3.4,6.9-6,11.2-7.4
	c2.6-0.9,5.4-1.3,8.2-1.3c6.4,0,12.5,2.3,17.3,6.6c5.2,4.6,8.3,11,8.7,17.9c0.3,5.3-0.9,10.4-3.7,14.9l-0.2,0.3l14.3,12.7
	c1.9,1.6,2,4.5,0.4,6.3C62,61.6,60.8,62.1,59.5,62.1z M26,10.9c-1.8,0-3.6,0.3-5.4,0.9c-2.8,0.9-5.3,2.6-7.3,4.8
	c-3,3.4-4.5,7.8-4.3,12.3c0.3,4.5,2.3,8.7,5.7,11.7c3.1,2.8,7.1,4.3,11.3,4.3c1.8,0,3.6-0.3,5.4-0.9c2.8-0.9,5.3-2.6,7.3-4.8
	c3-3.4,4.5-7.8,4.3-12.3s-2.3-8.7-5.7-11.7C34.2,12.4,30.2,10.9,26,10.9z"/>
</svg>
