<?xml version="1.0" encoding="utf-8"?>
<!-- Generator: Adobe Illustrator 26.5.0, SVG Export Plug-In . SVG Version: 6.00 Build 0)  -->
<svg version="1.1" id="Layer_1" xmlns="http://www.w3.org/2000/svg" xmlns:xlink="http://www.w3.org/1999/xlink" x="0px" y="0px"
	 viewBox="0 0 64 64" style="enable-background:new 0 0 64 64;" xml:space="preserve">
<style type="text/css">
	.st0{fill:#707070;}
</style>
<path class="st0" d="M62.8,57.2l-13-13C58,33.4,57.1,18,47.3,8.1C41.9,2.7,34.8,0,27.7,0S13.5,2.7,8.1,8.1
	c-10.8,10.8-10.8,28.4,0,39.2c5.4,5.4,12.5,8.1,19.6,8.1c5.8,0,11.7-1.8,16.6-5.5l13,13C58,63.6,59,64,60,64c1,0,2-0.4,2.8-1.2
	C64.4,61.3,64.4,58.8,62.8,57.2z M13.7,41.7C6,34,6,21.4,13.7,13.7c3.7-3.7,8.7-5.8,14-5.8c5.3,0,10.3,2.1,14,5.8
	c7.7,7.7,7.7,20.3,0,28c-3.7,3.7-8.7,5.8-14,5.8C22.4,47.5,17.4,45.4,13.7,41.7z"/>
</svg>
