<?xml version="1.0" encoding="utf-8"?>
<!-- Generator: Adobe Illustrator 27.1.1, SVG Export Plug-In . SVG Version: 6.00 Build 0)  -->
<svg version="1.1" id="Layer_1" xmlns="http://www.w3.org/2000/svg" xmlns:xlink="http://www.w3.org/1999/xlink" x="0px" y="0px"
	 viewBox="0 0 128 128" style="enable-background:new 0 0 128 128;" xml:space="preserve">
<style type="text/css">
	.st0{fill:#2A6118;}
</style>
<g>
	<path class="st0" d="M58.1,21.7h-1v-1.9c0.2,0,0.4,0,0.6,0h0.4V21.7z"/>
	<path class="st0" d="M58.1,2.3h-1v-2c0.2,0,0.4,0,0.6,0h0.4V2.3z"/>
	<path class="st0" d="M58.1,43.1h-0.4c-0.2,0-0.3,0-0.5,0v-1.9c0.2,0,0.4,0,0.6,0h0.4L58.1,43.1z"/>
	<path class="st0" d="M87.2,71.2h-1.9c0-15.3-12-27.6-27.2-28.1l0.1-1.9C74.5,41.7,87.2,54.9,87.2,71.2z"/>
	<path class="st0" d="M86.3,71.2"/>
	<path class="st0" d="M108.6,71.2h-1.9c0-26.8-21.8-49-48.6-49.5v-1.9C86,20.3,108.6,43.4,108.6,71.2z"/>
	<path class="st0" d="M128,71.2h-1.9c0-37.5-30.5-68.4-68-68.9V0.4C96.7,0.9,128,32.7,128,71.2z"/>
	<path class="st0" d="M88.9,127.7c-15.4,0-37.9-12.1-57.3-31.6C9.4,73.9-3.3,47.8,0.8,32.6c0.4-2.5,1.7-4.9,3.5-6.7l11.5-11.5
		c1.5-1.5,3.4-2.3,5.5-2.3s4.1,0.8,5.6,2.3l15,15c1.5,1.5,2.3,3.4,2.3,5.5s-0.8,4.1-2.3,5.6l-6.1,6.1c-6.4,6.4-1.5,21.8,11,34.3
		c6.1,6.1,13.1,10.6,19.7,12.6c6.4,2,11.6,1.4,14.6-1.7l6.1-6.1c1.5-1.5,3.4-2.3,5.5-2.3s4.1,0.8,5.6,2.3l15,15
		c1.5,1.5,2.3,3.4,2.3,5.6c0,2.1-0.8,4.1-2.3,5.5l-11.5,11.5c-1.9,1.9-4.2,3.1-6.8,3.5C93.1,127.5,91.1,127.7,88.9,127.7z
		 M21.3,14.1c-1.6,0-3.1,0.6-4.2,1.7L5.6,27.3c-1.6,1.6-2.6,3.6-3,5.8C-1.3,47.7,11.2,73,32.9,94.8c21.7,21.7,47,34.2,61.6,30.3
		c2.3-0.4,4.3-1.4,5.9-3l11.5-11.5c1.1-1.1,1.7-2.6,1.7-4.2s-0.6-3.1-1.7-4.2l-15-15c-2.2-2.2-6.1-2.2-8.4,0l-6.1,6.1
		c-7.2,7.2-23.8,2.3-37.1-11C32.1,69,27.1,52.4,34.3,45.2l6.1-6.1c1.1-1.1,1.7-2.6,1.7-4.2c0-1.6-0.6-3.1-1.7-4.2l-15-15
		C24.4,14.7,22.9,14.1,21.3,14.1z"/>
</g>
</svg>
