<?xml version="1.0" encoding="utf-8"?>
<!-- Generator: Adobe Illustrator 27.2.0, SVG Export Plug-In . SVG Version: 6.00 Build 0)  -->
<svg version="1.1" id="Layer_1" xmlns="http://www.w3.org/2000/svg" xmlns:xlink="http://www.w3.org/1999/xlink" x="0px" y="0px"
	 viewBox="0 0 128 128" style="enable-background:new 0 0 128 128;" xml:space="preserve">
<style type="text/css">
	.st0{fill:#14463D;}
</style>
<g>
	<path class="st0" d="M57.2,23.3h1c25.9,0.5,46.9,21.9,46.9,47.8c0,0.5,0.4,1,1,1h1.9c0.5,0,1-0.4,1-1c0-28-22.7-51.1-50.7-51.6
		c0,0,0,0,0,0h-1c-0.5,0-1,0.4-1,1v1.9C56.2,22.9,56.7,23.3,57.2,23.3z"/>
	<path class="st0" d="M58.3,40.6L58.3,40.6h-1c-0.5,0-1,0.4-1,1v1.9c0,0.5,0.4,1,1,1h0.9C72.7,44.9,84,56.6,84,71.1c0,0.5,0.4,1,1,1
		h1.9c0.5,0,1-0.4,1-1C87.8,54.5,74.9,41.1,58.3,40.6C58.3,40.6,58.3,40.6,58.3,40.6z"/>
	<path class="st0" d="M58.6,0.4c-0.1-0.1-0.3-0.1-0.4-0.1h-1c-0.5,0-1,0.4-1,1v2c0,0.5,0.4,1,1,1h1c36.4,0.5,66,30.5,66,66.9
		c0,0.5,0.4,1,1,1h1.9c0.5,0,1-0.4,1-1C128,32.7,96.9,1.1,58.6,0.4z"/>
	<path class="st0" d="M98.5,84.7c-1.6-1.6-3.9-2.6-6.2-2.6c-2.3,0-4.4,0.9-6.1,2.6l-6,6c-1.6,1.7-3.9,2.5-6.9,2.5
		c-1.9,0-4.1-0.4-6.5-1.1c-6.3-1.9-13.1-6.2-19-12.2c-5.8-5.8-10.2-12.5-12.2-18.7c-1.9-6-1.5-10.9,1.3-13.6l6-6
		c1.6-1.6,2.6-3.9,2.6-6.2c0-2.3-0.9-4.4-2.6-6.1L28.2,14.4c-1.6-1.6-3.9-2.6-6.2-2.6c-2.3,0-4.4,0.9-6.1,2.6L4.5,25.8
		c-2,2-3.3,4.5-3.7,7.1c-4.1,15.3,8.5,41.3,30.6,63.4c19,19.1,41.4,31.4,57.1,31.4c2.6,0,4.5-0.3,6.3-0.9c2.7-0.4,5.1-1.7,7.1-3.7
		l11.3-11.3c1.6-1.5,2.6-3.8,2.6-6.1c0-2.4-0.9-4.5-2.6-6.2L98.5,84.7z M21.9,15.8c1.3,0,2.5,0.5,3.3,1.3l14.8,14.8
		c0.9,0.9,1.4,2.1,1.4,3.4c0,1.3-0.5,2.5-1.4,3.4l-6,6c-7.5,7.5-2.8,24.2,10.8,37.9c8.9,8.9,19.7,14.4,28.3,14.4
		c4,0,7.3-1.2,9.7-3.6l6-6c0.9-0.9,2.2-1.4,3.5-1.4c1.3,0,2.6,0.5,3.4,1.3l14.8,14.8c0.9,0.9,1.4,2.1,1.4,3.4c0,1.3-0.5,2.5-1.4,3.4
		l-11.3,11.3c-1.4,1.4-3.2,2.3-5.4,2.7c-1.7,0.4-3.5,0.7-5.5,0.7c-14.6,0-35.9-11.9-54.3-30.3C12.9,72.4,0.7,47.8,4.5,33.7
		c0.4-2,1.3-3.8,2.7-5.2l11.3-11.3C19.4,16.3,20.6,15.8,21.9,15.8z"/>
</g>
</svg>
