<?xml version="1.0" encoding="utf-8"?>
<!-- Generator: Adobe Illustrator 26.4.1, SVG Export Plug-In . SVG Version: 6.00 Build 0)  -->
<svg version="1.1" id="Layer_1" xmlns="http://www.w3.org/2000/svg" xmlns:xlink="http://www.w3.org/1999/xlink" x="0px" y="0px"
	 viewBox="0 0 300 50" style="enable-background:new 0 0 300 50;" xml:space="preserve">
<style type="text/css">
	.st0{fill:#B6932F;}
</style>
<g>
	<path class="st0" d="M86.8,40.4c0,0.5-1,1.7-1.7-0.1c-0.3-0.9-0.3-2.3,0-4c1.2-6.2,4.2-12.7,6.4-18.7c1.6-4.2,2.2-8.2,1.5-8.4
		c-6.7,0-12.8-0.9-13.3,2.1c-0.2,1.5,1.6,3.7,4.3,3.5c1.5-0.3,1.6,2.4-0.7,2.2c-2.9-0.2-6.1-3.1-5.5-6c0.3-1.8,1.9-3.1,3.8-3.3
		c5.1-0.7,20.7,0.1,27.2-0.2c1.1,0.2,1.3,2.2,0,2c-1.7-0.3-7-0.1-13.8-0.3c3.7,1.3,1.7,4.8,0.3,8.5C93.2,23.6,86.4,36.1,86.8,40.4z"
		/>
	<path class="st0" d="M99.5,26.3c-0.4,1-0.8,1.8-1,2.3c-0.3,0.6-0.9,0.9-1.4,0.9c-0.4,0-0.7-0.3-0.4-0.9c0.4-0.9,0.7-1.7,1-2.4
		c-3.1-0.4-1.2-5.1,1.1-5.7c2.1-0.6,1.9,0.9,1.5,3c1.3,0.2,3,0,4.3-0.3c2.1-0.5,3.7,1.8,2.5,4.6c-0.4,0.9-7.1,9-4.6,10.3
		c2.3,1.2,7.1-6.7,8.6-9.5h1.8c-2.2,4.1-7,12.2-11.1,11.7c-1.9-0.3-2.6-2.4-2.3-4.5c0.5-3.9,5-8.4,4-9.4
		C103,26.1,101.1,26.4,99.5,26.3z"/>
	<path class="st0" d="M121.5,35.3c-0.6,1.4-0.4,2,0,2.2c2.2,1.1,6.4-7.7,7-8.9h1.8c-1.1,2.1-5.3,11.6-9.4,11.2
		c-3-0.3-2.8-3.8-1.9-6.1c0.3-0.7,0.5-1.8,0.7-2.4c-1.2,2.7-3.8,9.2-7.6,8.6c-6.6-1-2.3-16.4,7.5-16.3c1.5,0,3.8,0.8,3.7,3.1
		c-0.1,1.4-2.2,1.4-2.5,0.9c-1.3-1.8-3.4-0.7-4.4,0c-3.9,2.9-5.9,9.7-3.4,10.1c2.3,0.3,5.6-7,6.4-8.7c0.8-1.7,4.8-0.6,3.9,2.3
		C122.8,32.6,122,34,121.5,35.3z"/>
	<path class="st0" d="M131.7,37.6c2.2,0.3,8-8.6,8.5-10.5c-0.6-2.5,1.2-5.7,3.8-5.7c0.9,0,1.3,0.9,0.6,2.7c-0.4,0.9-1.3,2.4-1.6,2.9
		c-0.5,0.9,1.7,5.1,4.3,1.6c0.2-0.8,2-0.6,1.7,0c-1.6,3.7-6.1,3.7-7.3,0.4c-1.7,2.8-6.7,10.7-10.3,10.9c-6.1,0.3-3.1-11.4-1.8-14.7
		c1.2-3.2,5.3-2.4,4.4-0.6C133.1,26.4,128.9,37.3,131.7,37.6z"/>
	<path class="st0" d="M164.5,28.6c-3.2,6.7-8.9,11.3-13.6,11.2c-9.3-0.2-5.5-16.3,4.6-16.3c4.1,0,5.1,4.6,1.7,7.2
		c-2.1,1.6-5.4,2.7-8.4,2.8c-0.4,2,0.3,4,2.7,4.2c3.7,0.3,8.3-3.5,11.3-9.1H164.5z M149.2,31.7c2.6,0.3,8.4-1.9,7.7-4.4
		C156.4,25.4,150.4,27.6,149.2,31.7z"/>
	<path class="st0" d="M170.3,11.9c6.3-6.9,11.3-3.9,9.2,2.7c-1.5,4.7-8,13.7-13.9,15c-1.2,10.2,5.7,9.3,11.2,5
		c-1.2-9.8,4.1-20.2,8.2-24.4c5.2-5.3,9.8-3.3,9.1,2.7c-0.5,4.5-6.9,16.2-14.5,22.1c0.3,3.1,1.7,5.9,4.5,6.3
		c1.9,0.3,1.4,1.9-0.6,1.4c-3.5-0.9-5.4-3.1-6.3-6.1c-3.9,3-8.4,3.7-10.8,2.6C158.6,35.5,163.8,19,170.3,11.9z M177.3,13.8
		c0.6-2.5-0.4-3.5-3.5-0.6c-3.3,3-7.3,10.9-7.8,14.3C170.4,26.5,176.2,18.3,177.3,13.8z M191.7,13.7c0.6-2.8-0.4-4-3.2-1.8
		c-4.5,3.4-9.1,14.4-9,20.8C184.7,28.3,190.6,18.7,191.7,13.7z"/>
	<path class="st0" d="M208.1,28.6c-3.2,6.7-8.9,11.3-13.6,11.2c-9.3-0.2-5.5-16.3,4.6-16.3c4.1,0,5.1,4.6,1.7,7.2
		c-2.1,1.6-5.4,2.7-8.4,2.8c-0.4,2,0.3,4,2.7,4.2c3.7,0.3,8.3-3.5,11.3-9.1H208.1z M192.7,31.7c2.6,0.3,8.4-1.9,7.7-4.4
		C200,25.4,194,27.6,192.7,31.7z"/>
	<path class="st0" d="M209,26.3c-0.4,1-0.8,1.8-1,2.3c-0.3,0.6-0.9,0.9-1.4,0.9c-0.4,0-0.7-0.3-0.4-0.9c0.4-0.9,0.7-1.7,1-2.4
		c-3.1-0.4-1.2-5.1,1.1-5.7c2.1-0.6,1.9,0.9,1.5,3c1.3,0.2,3,0,4.3-0.3c2.1-0.5,3.7,1.8,2.5,4.6c-0.4,0.9-7.1,9-4.6,10.3
		c2.3,1.2,7.1-6.7,8.6-9.5h1.8c-2.2,4.1-7,12.2-11,11.7c-1.9-0.3-2.6-2.4-2.3-4.5c0.5-3.9,5-8.4,4-9.4
		C212.5,26.1,210.7,26.4,209,26.3z"/>
</g>
</svg>
